%TF.GenerationSoftware,KiCad,Pcbnew,8.0.4*%
%TF.CreationDate,2024-11-30T00:07:58+09:00*%
%TF.ProjectId,radio_I2C,72616469-6f5f-4493-9243-2e6b69636164,rev?*%
%TF.SameCoordinates,Original*%
%TF.FileFunction,Copper,L2,Bot*%
%TF.FilePolarity,Positive*%
%FSLAX46Y46*%
G04 Gerber Fmt 4.6, Leading zero omitted, Abs format (unit mm)*
G04 Created by KiCad (PCBNEW 8.0.4) date 2024-11-30 00:07:58*
%MOMM*%
%LPD*%
G01*
G04 APERTURE LIST*
%TA.AperFunction,ComponentPad*%
%ADD10R,1.600000X1.600000*%
%TD*%
%TA.AperFunction,ComponentPad*%
%ADD11C,1.600000*%
%TD*%
%TA.AperFunction,ComponentPad*%
%ADD12R,1.700000X1.700000*%
%TD*%
%TA.AperFunction,ComponentPad*%
%ADD13O,1.700000X1.700000*%
%TD*%
%TA.AperFunction,ComponentPad*%
%ADD14O,1.600000X1.600000*%
%TD*%
%TA.AperFunction,ComponentPad*%
%ADD15R,1.500000X1.500000*%
%TD*%
%TA.AperFunction,ComponentPad*%
%ADD16C,1.200000*%
%TD*%
%TA.AperFunction,ComponentPad*%
%ADD17C,1.000000*%
%TD*%
%TA.AperFunction,ComponentPad*%
%ADD18R,1.500000X1.050000*%
%TD*%
%TA.AperFunction,ComponentPad*%
%ADD19O,1.500000X1.050000*%
%TD*%
%TA.AperFunction,ViaPad*%
%ADD20C,0.600000*%
%TD*%
%TA.AperFunction,Conductor*%
%ADD21C,0.200000*%
%TD*%
G04 APERTURE END LIST*
D10*
%TO.P,C8,1*%
%TO.N,LOUT*%
X184040000Y-104700000D03*
D11*
%TO.P,C8,2*%
%TO.N,Net-(C8-Pad2)*%
X184040000Y-108200000D03*
%TD*%
D12*
%TO.P,J4,1,Pin_1*%
%TO.N,AMINP*%
X114300000Y-99060000D03*
D13*
%TO.P,J4,2,Pin_2*%
%TO.N,AMINN*%
X114300000Y-96520000D03*
%TD*%
D10*
%TO.P,D2,1,K*%
%TO.N,AVSS*%
X129540000Y-86360000D03*
D14*
%TO.P,D2,2,A*%
%TO.N,Net-(D2-A)*%
X121920000Y-86360000D03*
%TD*%
D15*
%TO.P,SW2,1,B*%
%TO.N,Net-(SW2-B)*%
X142240000Y-127000000D03*
D11*
%TO.P,SW2,2,C*%
%TO.N,AVDD*%
X139700000Y-127000000D03*
%TO.P,SW2,3,A*%
%TO.N,AVSS*%
X144780000Y-127000000D03*
%TD*%
D16*
%TO.P,C6,1*%
%TO.N,XI{slash}RCLK*%
X172720000Y-72390000D03*
%TO.P,C6,2*%
%TO.N,AVSS*%
X174720000Y-72390000D03*
%TD*%
%TO.P,C5,1*%
%TO.N,XO*%
X180880000Y-72390000D03*
%TO.P,C5,2*%
%TO.N,AVSS*%
X182880000Y-72390000D03*
%TD*%
D10*
%TO.P,C9,1*%
%TO.N,AVDD*%
X129540000Y-58420000D03*
D11*
%TO.P,C9,2*%
%TO.N,AVSS*%
X129540000Y-61920000D03*
%TD*%
D12*
%TO.P,J1,1,Pin_1*%
%TO.N,Net-(J1-Pin_1)*%
X187960000Y-48260000D03*
D13*
%TO.P,J1,2,Pin_2*%
%TO.N,Net-(J1-Pin_2)*%
X187960000Y-50800000D03*
%TO.P,J1,3,Pin_3*%
%TO.N,AVDD*%
X187960000Y-53340000D03*
%TO.P,J1,4,Pin_4*%
%TO.N,AVSS*%
X187960000Y-55880000D03*
%TD*%
D17*
%TO.P,Y1,1,1*%
%TO.N,XO*%
X172720000Y-82550000D03*
%TO.P,Y1,2,2*%
%TO.N,XI{slash}RCLK*%
X172720000Y-80010000D03*
%TD*%
D16*
%TO.P,C3,1*%
%TO.N,Net-(C3-Pad1)*%
X137160000Y-108680000D03*
%TO.P,C3,2*%
%TO.N,Net-(Q1-B)*%
X137160000Y-106680000D03*
%TD*%
D15*
%TO.P,SW1,1,B*%
%TO.N,Net-(SW1-B)*%
X129540000Y-127000000D03*
D11*
%TO.P,SW1,2,C*%
%TO.N,AVDD*%
X127000000Y-127000000D03*
%TO.P,SW1,3,A*%
%TO.N,AVSS*%
X132080000Y-127000000D03*
%TD*%
%TO.P,L1,1,1*%
%TO.N,Net-(C1-Pad2)*%
X127000000Y-121920000D03*
D14*
%TO.P,L1,2,2*%
%TO.N,Net-(C3-Pad1)*%
X127000000Y-114300000D03*
%TD*%
D11*
%TO.P,R10,1*%
%TO.N,Net-(D2-A)*%
X121920000Y-93980000D03*
D14*
%TO.P,R10,2*%
%TO.N,AVSS*%
X129540000Y-93980000D03*
%TD*%
D11*
%TO.P,R8,1*%
%TO.N,Net-(D1-A)*%
X157480000Y-113030000D03*
D14*
%TO.P,R8,2*%
%TO.N,AVSS*%
X157480000Y-120650000D03*
%TD*%
D11*
%TO.P,R1,1*%
%TO.N,Net-(J1-Pin_1)*%
X165100000Y-48260000D03*
D14*
%TO.P,R1,2*%
%TO.N,AVDD*%
X172720000Y-48260000D03*
%TD*%
D16*
%TO.P,C2,1*%
%TO.N,AVDD*%
X142240000Y-73660000D03*
%TO.P,C2,2*%
%TO.N,AVSS*%
X142240000Y-71660000D03*
%TD*%
%TO.P,C12,1*%
%TO.N,AMINP*%
X147320000Y-99060000D03*
%TO.P,C12,2*%
%TO.N,Net-(D1-K)*%
X147320000Y-101060000D03*
%TD*%
%TO.P,C4,1*%
%TO.N,AVDD*%
X142240000Y-65500000D03*
%TO.P,C4,2*%
%TO.N,AVSS*%
X142240000Y-63500000D03*
%TD*%
%TO.P,C11,1*%
%TO.N,Net-(Q1-C)*%
X147320000Y-108680000D03*
%TO.P,C11,2*%
%TO.N,Net-(D1-A)*%
X147320000Y-106680000D03*
%TD*%
%TO.P,C13,1*%
%TO.N,AMINN*%
X127000000Y-101060000D03*
%TO.P,C13,2*%
%TO.N,Net-(D2-A)*%
X127000000Y-99060000D03*
%TD*%
D10*
%TO.P,C7,1*%
%TO.N,ROUT*%
X171340000Y-104700000D03*
D11*
%TO.P,C7,2*%
%TO.N,Net-(C7-Pad2)*%
X171340000Y-108200000D03*
%TD*%
D16*
%TO.P,C1,1*%
%TO.N,RFINP*%
X127000000Y-108680000D03*
%TO.P,C1,2*%
%TO.N,Net-(C1-Pad2)*%
X127000000Y-106680000D03*
%TD*%
D10*
%TO.P,C10,1*%
%TO.N,AVDD*%
X129540000Y-73660000D03*
D11*
%TO.P,C10,2*%
%TO.N,AVSS*%
X129540000Y-70160000D03*
%TD*%
D18*
%TO.P,Q1,1,E*%
%TO.N,AVSS*%
X149860000Y-119380000D03*
D19*
%TO.P,Q1,2,B*%
%TO.N,Net-(Q1-B)*%
X149860000Y-118110000D03*
%TO.P,Q1,3,C*%
%TO.N,Net-(Q1-C)*%
X149860000Y-116840000D03*
%TD*%
D11*
%TO.P,R2,1*%
%TO.N,Net-(J1-Pin_2)*%
X165100000Y-55880000D03*
D14*
%TO.P,R2,2*%
%TO.N,AVDD*%
X172720000Y-55880000D03*
%TD*%
D10*
%TO.P,D1,1,K*%
%TO.N,Net-(D1-K)*%
X157480000Y-101600000D03*
D14*
%TO.P,D1,2,A*%
%TO.N,Net-(D1-A)*%
X157480000Y-109220000D03*
%TD*%
D16*
%TO.P,C14,1*%
%TO.N,AVSS*%
X135160000Y-86360000D03*
%TO.P,C14,2*%
X137160000Y-86360000D03*
%TD*%
D11*
%TO.P,R9,1*%
%TO.N,Net-(D1-K)*%
X137160000Y-101600000D03*
D14*
%TO.P,R9,2*%
%TO.N,AVSS*%
X137160000Y-93980000D03*
%TD*%
D11*
%TO.P,R7,1*%
%TO.N,Net-(Q1-C)*%
X160020000Y-127000000D03*
D14*
%TO.P,R7,2*%
%TO.N,Net-(SW2-B)*%
X152400000Y-127000000D03*
%TD*%
D11*
%TO.P,R6,1*%
%TO.N,AVSS*%
X134620000Y-121920000D03*
D14*
%TO.P,R6,2*%
%TO.N,Net-(Q1-B)*%
X134620000Y-114300000D03*
%TD*%
D11*
%TO.P,R5,1*%
%TO.N,Net-(Q1-B)*%
X142240000Y-121920000D03*
D14*
%TO.P,R5,2*%
%TO.N,Net-(SW1-B)*%
X142240000Y-114300000D03*
%TD*%
D11*
%TO.P,R3,1*%
%TO.N,ROUT*%
X175260000Y-93980000D03*
D14*
%TO.P,R3,2*%
%TO.N,AVSS*%
X167640000Y-93980000D03*
%TD*%
D11*
%TO.P,R4,1*%
%TO.N,LOUT*%
X180340000Y-93980000D03*
D14*
%TO.P,R4,2*%
%TO.N,AVSS*%
X187960000Y-93980000D03*
%TD*%
D20*
%TO.N,AVSS*%
X178500000Y-57500000D03*
X115500000Y-50000000D03*
X170000000Y-123500000D03*
X116000000Y-82000000D03*
X116500000Y-106500000D03*
%TD*%
D21*
%TO.N,AVSS*%
X142240000Y-124460000D02*
X144780000Y-127000000D01*
X137160000Y-86360000D02*
X135160000Y-86360000D01*
X185748000Y-95090300D02*
X169852000Y-95090300D01*
X155108300Y-119380000D02*
X156378300Y-120650000D01*
X134620000Y-121920000D02*
X134620000Y-124460000D01*
X187960000Y-57031700D02*
X181978300Y-63013400D01*
X167640000Y-93980000D02*
X137160000Y-93980000D01*
X134620000Y-124460000D02*
X132080000Y-127000000D01*
X157480000Y-120650000D02*
X156378300Y-120650000D01*
X169852000Y-95090300D02*
X168741700Y-93980000D01*
X149860000Y-119380000D02*
X155108300Y-119380000D01*
X187960000Y-93980000D02*
X186858300Y-93980000D01*
X134620000Y-124460000D02*
X142240000Y-124460000D01*
X174720000Y-72390000D02*
X175621700Y-71488300D01*
X187960000Y-55880000D02*
X187960000Y-57031700D01*
X181978300Y-71488300D02*
X182880000Y-72390000D01*
X167640000Y-93980000D02*
X168741700Y-93980000D01*
X175621700Y-71488300D02*
X181978300Y-71488300D01*
X129540000Y-93980000D02*
X137160000Y-93980000D01*
X181978300Y-63013400D02*
X181978300Y-71488300D01*
X135160000Y-86360000D02*
X129540000Y-86360000D01*
X186858300Y-93980000D02*
X185748000Y-95090300D01*
%TO.N,Net-(D1-K)*%
X157480000Y-101600000D02*
X156378300Y-101600000D01*
X147320000Y-101060000D02*
X137700000Y-101060000D01*
X137700000Y-101060000D02*
X137160000Y-101600000D01*
X156378300Y-101600000D02*
X155838300Y-101060000D01*
X155838300Y-101060000D02*
X147320000Y-101060000D01*
%TO.N,Net-(D1-A)*%
X157480000Y-109220000D02*
X156378300Y-109220000D01*
X147320000Y-106680000D02*
X153838300Y-106680000D01*
X153838300Y-106680000D02*
X156378300Y-109220000D01*
%TO.N,Net-(SW2-B)*%
X142240000Y-127000000D02*
X143291700Y-127000000D01*
X152400000Y-127000000D02*
X151298300Y-127000000D01*
X144267000Y-128106800D02*
X143291700Y-127131500D01*
X150191500Y-128106800D02*
X144267000Y-128106800D01*
X151298300Y-127000000D02*
X150191500Y-128106800D01*
X143291700Y-127131500D02*
X143291700Y-127000000D01*
%TO.N,Net-(Q1-B)*%
X149860000Y-118110000D02*
X146050000Y-118110000D01*
X146050000Y-118110000D02*
X142240000Y-121920000D01*
%TO.N,Net-(SW1-B)*%
X142240000Y-114300000D02*
X140636000Y-114300000D01*
X140636000Y-114300000D02*
X129540000Y-125396000D01*
X129540000Y-125396000D02*
X129540000Y-127000000D01*
%TO.N,AVDD*%
X141328900Y-66411100D02*
X141328900Y-73109100D01*
X138590800Y-128109200D02*
X139700000Y-127000000D01*
X129540000Y-73109100D02*
X141328900Y-73109100D01*
X128438300Y-71456600D02*
X128438300Y-60623400D01*
X127000000Y-127000000D02*
X128109200Y-128109200D01*
X129540000Y-72558300D02*
X128438300Y-71456600D01*
X129540000Y-73660000D02*
X129540000Y-73109100D01*
X141689100Y-73109100D02*
X142240000Y-73660000D01*
X141328900Y-73109100D02*
X141689100Y-73109100D01*
X128438300Y-60623400D02*
X129540000Y-59521700D01*
X129540000Y-73109100D02*
X129540000Y-72558300D01*
X142240000Y-65500000D02*
X141328900Y-66411100D01*
X129540000Y-58420000D02*
X129540000Y-59521700D01*
X128109200Y-128109200D02*
X138590800Y-128109200D01*
%TO.N,Net-(J1-Pin_2)*%
X170180000Y-50800000D02*
X187960000Y-50800000D01*
X165100000Y-55880000D02*
X170180000Y-50800000D01*
%TO.N,Net-(J1-Pin_1)*%
X165100000Y-48260000D02*
X166229200Y-49389200D01*
X185679100Y-49389200D02*
X186808300Y-48260000D01*
X166229200Y-49389200D02*
X185679100Y-49389200D01*
X187960000Y-48260000D02*
X186808300Y-48260000D01*
%TO.N,Net-(D2-A)*%
X127000000Y-99060000D02*
X121920000Y-93980000D01*
%TO.N,AMINP*%
X116389200Y-99997500D02*
X115451700Y-99060000D01*
X147320000Y-99060000D02*
X146382500Y-99997500D01*
X114300000Y-99060000D02*
X115451700Y-99060000D01*
X146382500Y-99997500D02*
X116389200Y-99997500D01*
%TO.N,Net-(C3-Pad1)*%
X128101700Y-114300000D02*
X133721700Y-108680000D01*
X133721700Y-108680000D02*
X137160000Y-108680000D01*
X127000000Y-114300000D02*
X128101700Y-114300000D01*
%TD*%
%TA.AperFunction,Conductor*%
%TO.N,AVSS*%
G36*
X146398468Y-46220503D02*
G01*
X189876298Y-46499207D01*
X189943207Y-46519319D01*
X189988622Y-46572416D01*
X189999500Y-46623203D01*
X189999500Y-131376000D01*
X189979815Y-131443039D01*
X189927011Y-131488794D01*
X189875500Y-131500000D01*
X112384500Y-131500000D01*
X112317461Y-131480315D01*
X112271706Y-131427511D01*
X112260500Y-131376000D01*
X112260500Y-127393389D01*
X116899500Y-127393389D01*
X116899500Y-127566610D01*
X116924852Y-127726681D01*
X116926598Y-127737701D01*
X116980127Y-127902445D01*
X117058768Y-128056788D01*
X117160586Y-128196928D01*
X117283072Y-128319414D01*
X117423212Y-128421232D01*
X117577555Y-128499873D01*
X117742299Y-128553402D01*
X117913389Y-128580500D01*
X117913390Y-128580500D01*
X118086610Y-128580500D01*
X118086611Y-128580500D01*
X118257701Y-128553402D01*
X118422445Y-128499873D01*
X118576788Y-128421232D01*
X118716928Y-128319414D01*
X118839414Y-128196928D01*
X118941232Y-128056788D01*
X119019873Y-127902445D01*
X119073402Y-127737701D01*
X119100500Y-127566611D01*
X119100500Y-127393389D01*
X119073402Y-127222299D01*
X119019873Y-127057555D01*
X118990546Y-126999998D01*
X125694532Y-126999998D01*
X125694532Y-127000001D01*
X125714364Y-127226686D01*
X125714366Y-127226697D01*
X125773258Y-127446488D01*
X125773261Y-127446497D01*
X125869431Y-127652732D01*
X125869432Y-127652734D01*
X125999954Y-127839141D01*
X126160858Y-128000045D01*
X126160861Y-128000047D01*
X126347266Y-128130568D01*
X126553504Y-128226739D01*
X126773308Y-128285635D01*
X126935230Y-128299801D01*
X126999998Y-128305468D01*
X127000000Y-128305468D01*
X127000002Y-128305468D01*
X127056673Y-128300509D01*
X127226692Y-128285635D01*
X127322932Y-128259847D01*
X127392781Y-128261510D01*
X127442705Y-128291940D01*
X127740484Y-128589720D01*
X127740486Y-128589721D01*
X127740490Y-128589724D01*
X127873252Y-128666373D01*
X127877416Y-128668777D01*
X128030143Y-128709701D01*
X128030145Y-128709701D01*
X128195854Y-128709701D01*
X128195870Y-128709700D01*
X138504131Y-128709700D01*
X138504147Y-128709701D01*
X138511743Y-128709701D01*
X138669854Y-128709701D01*
X138669857Y-128709701D01*
X138822585Y-128668777D01*
X138872704Y-128639839D01*
X138959516Y-128589720D01*
X139071320Y-128477916D01*
X139071320Y-128477914D01*
X139081528Y-128467707D01*
X139081530Y-128467704D01*
X139257294Y-128291939D01*
X139318615Y-128258456D01*
X139377066Y-128259847D01*
X139383273Y-128261510D01*
X139473308Y-128285635D01*
X139635230Y-128299801D01*
X139699998Y-128305468D01*
X139700000Y-128305468D01*
X139700002Y-128305468D01*
X139756673Y-128300509D01*
X139926692Y-128285635D01*
X140146496Y-128226739D01*
X140352734Y-128130568D01*
X140539139Y-128000047D01*
X140700047Y-127839139D01*
X140765278Y-127745977D01*
X140819854Y-127702353D01*
X140889352Y-127695159D01*
X140951707Y-127726681D01*
X140987122Y-127786911D01*
X140990143Y-127803847D01*
X140995909Y-127857483D01*
X141046202Y-127992328D01*
X141046206Y-127992335D01*
X141132452Y-128107544D01*
X141132455Y-128107547D01*
X141247664Y-128193793D01*
X141247671Y-128193797D01*
X141382517Y-128244091D01*
X141382516Y-128244091D01*
X141389444Y-128244835D01*
X141442127Y-128250500D01*
X143037872Y-128250499D01*
X143097483Y-128244091D01*
X143232331Y-128193796D01*
X143302116Y-128141554D01*
X143367577Y-128117138D01*
X143435850Y-128131989D01*
X143464106Y-128153141D01*
X143782139Y-128471174D01*
X143782149Y-128471185D01*
X143786479Y-128475515D01*
X143786480Y-128475516D01*
X143898284Y-128587320D01*
X143898286Y-128587321D01*
X143898290Y-128587324D01*
X144035209Y-128666373D01*
X144035216Y-128666377D01*
X144147019Y-128696334D01*
X144187942Y-128707300D01*
X144187943Y-128707300D01*
X150104831Y-128707300D01*
X150104847Y-128707301D01*
X150112443Y-128707301D01*
X150270554Y-128707301D01*
X150270557Y-128707301D01*
X150423285Y-128666377D01*
X150473404Y-128637439D01*
X150560216Y-128587320D01*
X150672020Y-128475516D01*
X150672020Y-128475514D01*
X150682228Y-128465307D01*
X150682230Y-128465304D01*
X151266494Y-127881039D01*
X151327815Y-127847556D01*
X151397507Y-127852540D01*
X151441854Y-127881041D01*
X151560858Y-128000045D01*
X151560861Y-128000047D01*
X151747266Y-128130568D01*
X151953504Y-128226739D01*
X152173308Y-128285635D01*
X152335230Y-128299801D01*
X152399998Y-128305468D01*
X152400000Y-128305468D01*
X152400002Y-128305468D01*
X152456673Y-128300509D01*
X152626692Y-128285635D01*
X152846496Y-128226739D01*
X153052734Y-128130568D01*
X153239139Y-128000047D01*
X153400047Y-127839139D01*
X153530568Y-127652734D01*
X153626739Y-127446496D01*
X153685635Y-127226692D01*
X153705468Y-127000000D01*
X153705468Y-126999998D01*
X158714532Y-126999998D01*
X158714532Y-127000001D01*
X158734364Y-127226686D01*
X158734366Y-127226697D01*
X158793258Y-127446488D01*
X158793261Y-127446497D01*
X158889431Y-127652732D01*
X158889432Y-127652734D01*
X159019954Y-127839141D01*
X159180858Y-128000045D01*
X159180861Y-128000047D01*
X159367266Y-128130568D01*
X159573504Y-128226739D01*
X159793308Y-128285635D01*
X159955230Y-128299801D01*
X160019998Y-128305468D01*
X160020000Y-128305468D01*
X160020002Y-128305468D01*
X160076673Y-128300509D01*
X160246692Y-128285635D01*
X160466496Y-128226739D01*
X160672734Y-128130568D01*
X160859139Y-128000047D01*
X161020047Y-127839139D01*
X161150568Y-127652734D01*
X161246739Y-127446496D01*
X161305635Y-127226692D01*
X161325468Y-127000000D01*
X161317891Y-126913389D01*
X181779500Y-126913389D01*
X181779500Y-127086610D01*
X181801686Y-127226692D01*
X181806598Y-127257701D01*
X181860127Y-127422445D01*
X181938768Y-127576788D01*
X182040586Y-127716928D01*
X182163072Y-127839414D01*
X182303212Y-127941232D01*
X182457555Y-128019873D01*
X182622299Y-128073402D01*
X182793389Y-128100500D01*
X182793390Y-128100500D01*
X182966610Y-128100500D01*
X182966611Y-128100500D01*
X183137701Y-128073402D01*
X183302445Y-128019873D01*
X183456788Y-127941232D01*
X183596928Y-127839414D01*
X183719414Y-127716928D01*
X183821232Y-127576788D01*
X183899873Y-127422445D01*
X183953402Y-127257701D01*
X183980500Y-127086611D01*
X183980500Y-126913389D01*
X183953402Y-126742299D01*
X183899873Y-126577555D01*
X183821232Y-126423212D01*
X183719414Y-126283072D01*
X183596928Y-126160586D01*
X183456788Y-126058768D01*
X183302445Y-125980127D01*
X183137701Y-125926598D01*
X183137699Y-125926597D01*
X183137698Y-125926597D01*
X183006271Y-125905781D01*
X182966611Y-125899500D01*
X182793389Y-125899500D01*
X182753728Y-125905781D01*
X182622302Y-125926597D01*
X182457552Y-125980128D01*
X182303211Y-126058768D01*
X182223256Y-126116859D01*
X182163072Y-126160586D01*
X182163070Y-126160588D01*
X182163069Y-126160588D01*
X182040588Y-126283069D01*
X182040588Y-126283070D01*
X182040586Y-126283072D01*
X182026074Y-126303046D01*
X181938768Y-126423211D01*
X181860128Y-126577552D01*
X181806597Y-126742302D01*
X181779500Y-126913389D01*
X161317891Y-126913389D01*
X161305635Y-126773308D01*
X161246739Y-126553504D01*
X161150568Y-126347266D01*
X161020047Y-126160861D01*
X161020045Y-126160858D01*
X160859141Y-125999954D01*
X160672734Y-125869432D01*
X160672732Y-125869431D01*
X160466497Y-125773261D01*
X160466488Y-125773258D01*
X160246697Y-125714366D01*
X160246693Y-125714365D01*
X160246692Y-125714365D01*
X160246691Y-125714364D01*
X160246686Y-125714364D01*
X160020002Y-125694532D01*
X160019998Y-125694532D01*
X159793313Y-125714364D01*
X159793302Y-125714366D01*
X159573511Y-125773258D01*
X159573502Y-125773261D01*
X159367267Y-125869431D01*
X159367265Y-125869432D01*
X159180858Y-125999954D01*
X159019954Y-126160858D01*
X158889432Y-126347265D01*
X158889431Y-126347267D01*
X158793261Y-126553502D01*
X158793258Y-126553511D01*
X158734366Y-126773302D01*
X158734364Y-126773313D01*
X158714532Y-126999998D01*
X153705468Y-126999998D01*
X153685635Y-126773308D01*
X153626739Y-126553504D01*
X153530568Y-126347266D01*
X153400047Y-126160861D01*
X153400045Y-126160858D01*
X153239141Y-125999954D01*
X153052734Y-125869432D01*
X153052732Y-125869431D01*
X152846497Y-125773261D01*
X152846488Y-125773258D01*
X152626697Y-125714366D01*
X152626693Y-125714365D01*
X152626692Y-125714365D01*
X152626691Y-125714364D01*
X152626686Y-125714364D01*
X152400002Y-125694532D01*
X152399998Y-125694532D01*
X152173313Y-125714364D01*
X152173302Y-125714366D01*
X151953511Y-125773258D01*
X151953502Y-125773261D01*
X151747267Y-125869431D01*
X151747265Y-125869432D01*
X151560858Y-125999954D01*
X151399954Y-126160858D01*
X151269427Y-126347272D01*
X151268615Y-126348680D01*
X151268095Y-126349175D01*
X151266327Y-126351701D01*
X151265819Y-126351345D01*
X151218042Y-126396890D01*
X151193334Y-126406441D01*
X151066516Y-126440423D01*
X151066515Y-126440423D01*
X151066513Y-126440424D01*
X151066509Y-126440426D01*
X150929590Y-126519475D01*
X150929582Y-126519481D01*
X149979084Y-127469981D01*
X149917761Y-127503466D01*
X149891403Y-127506300D01*
X146151797Y-127506300D01*
X146084758Y-127486615D01*
X146039003Y-127433811D01*
X146029059Y-127364653D01*
X146032022Y-127350207D01*
X146065139Y-127226610D01*
X146065141Y-127226599D01*
X146084966Y-127000002D01*
X146084966Y-126999997D01*
X146065141Y-126773400D01*
X146065139Y-126773389D01*
X146006269Y-126553682D01*
X146006264Y-126553668D01*
X145910136Y-126347521D01*
X145910132Y-126347513D01*
X145859025Y-126274526D01*
X145180000Y-126953551D01*
X145180000Y-126947339D01*
X145152741Y-126845606D01*
X145100080Y-126754394D01*
X145025606Y-126679920D01*
X144934394Y-126627259D01*
X144832661Y-126600000D01*
X144826448Y-126600000D01*
X145505472Y-125920974D01*
X145432478Y-125869863D01*
X145226331Y-125773735D01*
X145226317Y-125773730D01*
X145006610Y-125714860D01*
X145006599Y-125714858D01*
X144780002Y-125695034D01*
X144779998Y-125695034D01*
X144553400Y-125714858D01*
X144553389Y-125714860D01*
X144333682Y-125773730D01*
X144333673Y-125773734D01*
X144127516Y-125869866D01*
X144127512Y-125869868D01*
X144054526Y-125920973D01*
X144054526Y-125920974D01*
X144733553Y-126600000D01*
X144727339Y-126600000D01*
X144625606Y-126627259D01*
X144534394Y-126679920D01*
X144459920Y-126754394D01*
X144407259Y-126845606D01*
X144380000Y-126947339D01*
X144380000Y-126953552D01*
X143700974Y-126274526D01*
X143688756Y-126275595D01*
X143660223Y-126298402D01*
X143590724Y-126305594D01*
X143528370Y-126274070D01*
X143492958Y-126213840D01*
X143489938Y-126196912D01*
X143484091Y-126142517D01*
X143433796Y-126007669D01*
X143433795Y-126007668D01*
X143433793Y-126007664D01*
X143347547Y-125892455D01*
X143347544Y-125892452D01*
X143232335Y-125806206D01*
X143232328Y-125806202D01*
X143097482Y-125755908D01*
X143097483Y-125755908D01*
X143037883Y-125749501D01*
X143037881Y-125749500D01*
X143037873Y-125749500D01*
X143037864Y-125749500D01*
X141442129Y-125749500D01*
X141442123Y-125749501D01*
X141382516Y-125755908D01*
X141247671Y-125806202D01*
X141247664Y-125806206D01*
X141132455Y-125892452D01*
X141132452Y-125892455D01*
X141046206Y-126007664D01*
X141046202Y-126007671D01*
X140995908Y-126142516D01*
X140990142Y-126196154D01*
X140963404Y-126260705D01*
X140906012Y-126300553D01*
X140836186Y-126303046D01*
X140776098Y-126267393D01*
X140765278Y-126254021D01*
X140700045Y-126160858D01*
X140539141Y-125999954D01*
X140352734Y-125869432D01*
X140352732Y-125869431D01*
X140146497Y-125773261D01*
X140146488Y-125773258D01*
X139926697Y-125714366D01*
X139926693Y-125714365D01*
X139926692Y-125714365D01*
X139926691Y-125714364D01*
X139926686Y-125714364D01*
X139700002Y-125694532D01*
X139699998Y-125694532D01*
X139473313Y-125714364D01*
X139473302Y-125714366D01*
X139253511Y-125773258D01*
X139253502Y-125773261D01*
X139047267Y-125869431D01*
X139047265Y-125869432D01*
X138860858Y-125999954D01*
X138699954Y-126160858D01*
X138569432Y-126347265D01*
X138569431Y-126347267D01*
X138473261Y-126553502D01*
X138473258Y-126553511D01*
X138414366Y-126773302D01*
X138414364Y-126773313D01*
X138394532Y-126999998D01*
X138394532Y-127000001D01*
X138414364Y-127226686D01*
X138414366Y-127226697D01*
X138440152Y-127322931D01*
X138438489Y-127392781D01*
X138408060Y-127442704D01*
X138378385Y-127472380D01*
X138317062Y-127505866D01*
X138290702Y-127508700D01*
X133451154Y-127508700D01*
X133384115Y-127489015D01*
X133338360Y-127436211D01*
X133328416Y-127367053D01*
X133331379Y-127352607D01*
X133365139Y-127226610D01*
X133365141Y-127226599D01*
X133384966Y-127000002D01*
X133384966Y-126999997D01*
X133365141Y-126773400D01*
X133365139Y-126773389D01*
X133306269Y-126553682D01*
X133306264Y-126553668D01*
X133210136Y-126347521D01*
X133210132Y-126347513D01*
X133159025Y-126274526D01*
X132480000Y-126953551D01*
X132480000Y-126947339D01*
X132452741Y-126845606D01*
X132400080Y-126754394D01*
X132325606Y-126679920D01*
X132234394Y-126627259D01*
X132132661Y-126600000D01*
X132126448Y-126600000D01*
X132805472Y-125920974D01*
X132732478Y-125869863D01*
X132526331Y-125773735D01*
X132526317Y-125773730D01*
X132306610Y-125714860D01*
X132306599Y-125714858D01*
X132080002Y-125695034D01*
X132079998Y-125695034D01*
X131853400Y-125714858D01*
X131853389Y-125714860D01*
X131633682Y-125773730D01*
X131633673Y-125773734D01*
X131427516Y-125869866D01*
X131427512Y-125869868D01*
X131354526Y-125920973D01*
X131354526Y-125920974D01*
X132033553Y-126600000D01*
X132027339Y-126600000D01*
X131925606Y-126627259D01*
X131834394Y-126679920D01*
X131759920Y-126754394D01*
X131707259Y-126845606D01*
X131680000Y-126947339D01*
X131680000Y-126953552D01*
X131000974Y-126274526D01*
X130988756Y-126275595D01*
X130960223Y-126298402D01*
X130890724Y-126305594D01*
X130828370Y-126274070D01*
X130792958Y-126213840D01*
X130789938Y-126196912D01*
X130784091Y-126142517D01*
X130733796Y-126007669D01*
X130733795Y-126007668D01*
X130733793Y-126007664D01*
X130647547Y-125892455D01*
X130647544Y-125892452D01*
X130532335Y-125806206D01*
X130532328Y-125806202D01*
X130397482Y-125755908D01*
X130397483Y-125755908D01*
X130337883Y-125749501D01*
X130337881Y-125749500D01*
X130337873Y-125749500D01*
X130337865Y-125749500D01*
X130335097Y-125749500D01*
X130268058Y-125729815D01*
X130222303Y-125677011D01*
X130212359Y-125607853D01*
X130241384Y-125544297D01*
X130247416Y-125537819D01*
X130869757Y-124915478D01*
X133276522Y-122508713D01*
X133337840Y-122475231D01*
X133407532Y-122480215D01*
X133463465Y-122522087D01*
X133476580Y-122543992D01*
X133489864Y-122572480D01*
X133540974Y-122645472D01*
X134220000Y-121966446D01*
X134220000Y-121972661D01*
X134247259Y-122074394D01*
X134299920Y-122165606D01*
X134374394Y-122240080D01*
X134465606Y-122292741D01*
X134567339Y-122320000D01*
X134573553Y-122320000D01*
X133894526Y-122999025D01*
X133967513Y-123050132D01*
X133967521Y-123050136D01*
X134173668Y-123146264D01*
X134173682Y-123146269D01*
X134393389Y-123205139D01*
X134393400Y-123205141D01*
X134619998Y-123224966D01*
X134620002Y-123224966D01*
X134846599Y-123205141D01*
X134846610Y-123205139D01*
X135066317Y-123146269D01*
X135066331Y-123146264D01*
X135272478Y-123050136D01*
X135345471Y-122999024D01*
X134666447Y-122320000D01*
X134672661Y-122320000D01*
X134774394Y-122292741D01*
X134865606Y-122240080D01*
X134940080Y-122165606D01*
X134992741Y-122074394D01*
X135020000Y-121972661D01*
X135020000Y-121966447D01*
X135699024Y-122645471D01*
X135750136Y-122572478D01*
X135846264Y-122366331D01*
X135846269Y-122366317D01*
X135905139Y-122146610D01*
X135905141Y-122146599D01*
X135924966Y-121920002D01*
X135924966Y-121919998D01*
X140934532Y-121919998D01*
X140934532Y-121920001D01*
X140954364Y-122146686D01*
X140954366Y-122146697D01*
X141013258Y-122366488D01*
X141013261Y-122366497D01*
X141109431Y-122572732D01*
X141109432Y-122572734D01*
X141239954Y-122759141D01*
X141400858Y-122920045D01*
X141400861Y-122920047D01*
X141587266Y-123050568D01*
X141793504Y-123146739D01*
X142013308Y-123205635D01*
X142175230Y-123219801D01*
X142239998Y-123225468D01*
X142240000Y-123225468D01*
X142240002Y-123225468D01*
X142296673Y-123220509D01*
X142466692Y-123205635D01*
X142686496Y-123146739D01*
X142892734Y-123050568D01*
X143079139Y-122920047D01*
X143240047Y-122759139D01*
X143370568Y-122572734D01*
X143466739Y-122366496D01*
X143525635Y-122146692D01*
X143545468Y-121920000D01*
X143525635Y-121693308D01*
X143499847Y-121597066D01*
X143501510Y-121527217D01*
X143531939Y-121477294D01*
X146262417Y-118746819D01*
X146323740Y-118713334D01*
X146350098Y-118710500D01*
X148486000Y-118710500D01*
X148553039Y-118730185D01*
X148598794Y-118782989D01*
X148610000Y-118834500D01*
X148610000Y-119130000D01*
X149494134Y-119130000D01*
X149518326Y-119132383D01*
X149521123Y-119132939D01*
X149533995Y-119135499D01*
X149533996Y-119135500D01*
X149533997Y-119135500D01*
X149574170Y-119135500D01*
X149559925Y-119149745D01*
X149510556Y-119235255D01*
X149485000Y-119330630D01*
X149485000Y-119429370D01*
X149510556Y-119524745D01*
X149559925Y-119610255D01*
X149579670Y-119630000D01*
X148610000Y-119630000D01*
X148610000Y-119952844D01*
X148616401Y-120012372D01*
X148616403Y-120012379D01*
X148666645Y-120147086D01*
X148666649Y-120147093D01*
X148752809Y-120262187D01*
X148752812Y-120262190D01*
X148867906Y-120348350D01*
X148867913Y-120348354D01*
X149002620Y-120398596D01*
X149002627Y-120398598D01*
X149062155Y-120404999D01*
X149062172Y-120405000D01*
X149610000Y-120405000D01*
X149610000Y-119660330D01*
X149629745Y-119680075D01*
X149715255Y-119729444D01*
X149810630Y-119755000D01*
X149909370Y-119755000D01*
X150004745Y-119729444D01*
X150090255Y-119680075D01*
X150110000Y-119660330D01*
X150110000Y-120405000D01*
X150657828Y-120405000D01*
X150657844Y-120404999D01*
X150704343Y-120399999D01*
X156201127Y-120399999D01*
X156201128Y-120400000D01*
X157164314Y-120400000D01*
X157159920Y-120404394D01*
X157107259Y-120495606D01*
X157080000Y-120597339D01*
X157080000Y-120702661D01*
X157107259Y-120804394D01*
X157159920Y-120895606D01*
X157164314Y-120900000D01*
X156201128Y-120900000D01*
X156253730Y-121096317D01*
X156253734Y-121096326D01*
X156349865Y-121302482D01*
X156480342Y-121488820D01*
X156641179Y-121649657D01*
X156827517Y-121780134D01*
X157033673Y-121876265D01*
X157033682Y-121876269D01*
X157229999Y-121928872D01*
X157230000Y-121928871D01*
X157230000Y-120965686D01*
X157234394Y-120970080D01*
X157325606Y-121022741D01*
X157427339Y-121050000D01*
X157532661Y-121050000D01*
X157634394Y-121022741D01*
X157725606Y-120970080D01*
X157730000Y-120965686D01*
X157730000Y-121928872D01*
X157926317Y-121876269D01*
X157926326Y-121876265D01*
X158132482Y-121780134D01*
X158318820Y-121649657D01*
X158479657Y-121488820D01*
X158610134Y-121302482D01*
X158706265Y-121096326D01*
X158706269Y-121096317D01*
X158758872Y-120900000D01*
X157795686Y-120900000D01*
X157800080Y-120895606D01*
X157852741Y-120804394D01*
X157880000Y-120702661D01*
X157880000Y-120597339D01*
X157852741Y-120495606D01*
X157800080Y-120404394D01*
X157795686Y-120400000D01*
X158758872Y-120400000D01*
X158758872Y-120399999D01*
X158706269Y-120203682D01*
X158706265Y-120203673D01*
X158610134Y-119997517D01*
X158551226Y-119913389D01*
X181779500Y-119913389D01*
X181779500Y-120086611D01*
X181806598Y-120257701D01*
X181860127Y-120422445D01*
X181938768Y-120576788D01*
X182040586Y-120716928D01*
X182163072Y-120839414D01*
X182303212Y-120941232D01*
X182457555Y-121019873D01*
X182622299Y-121073402D01*
X182793389Y-121100500D01*
X182793390Y-121100500D01*
X182966610Y-121100500D01*
X182966611Y-121100500D01*
X183137701Y-121073402D01*
X183302445Y-121019873D01*
X183456788Y-120941232D01*
X183596928Y-120839414D01*
X183719414Y-120716928D01*
X183821232Y-120576788D01*
X183899873Y-120422445D01*
X183953402Y-120257701D01*
X183980500Y-120086611D01*
X183980500Y-119913389D01*
X183953402Y-119742299D01*
X183899873Y-119577555D01*
X183821232Y-119423212D01*
X183719414Y-119283072D01*
X183596928Y-119160586D01*
X183456788Y-119058768D01*
X183302445Y-118980127D01*
X183137701Y-118926598D01*
X183137699Y-118926597D01*
X183137698Y-118926597D01*
X183006271Y-118905781D01*
X182966611Y-118899500D01*
X182793389Y-118899500D01*
X182753728Y-118905781D01*
X182622302Y-118926597D01*
X182457552Y-118980128D01*
X182303211Y-119058768D01*
X182251841Y-119096091D01*
X182163072Y-119160586D01*
X182163070Y-119160588D01*
X182163069Y-119160588D01*
X182040588Y-119283069D01*
X182040588Y-119283070D01*
X182040586Y-119283072D01*
X182006033Y-119330630D01*
X181938768Y-119423211D01*
X181860128Y-119577552D01*
X181806597Y-119742302D01*
X181795688Y-119811179D01*
X181779500Y-119913389D01*
X158551226Y-119913389D01*
X158479657Y-119811179D01*
X158318820Y-119650342D01*
X158132482Y-119519865D01*
X157926328Y-119423734D01*
X157730000Y-119371127D01*
X157730000Y-120334314D01*
X157725606Y-120329920D01*
X157634394Y-120277259D01*
X157532661Y-120250000D01*
X157427339Y-120250000D01*
X157325606Y-120277259D01*
X157234394Y-120329920D01*
X157230000Y-120334314D01*
X157230000Y-119371127D01*
X157033671Y-119423734D01*
X156827517Y-119519865D01*
X156641179Y-119650342D01*
X156480342Y-119811179D01*
X156349865Y-119997517D01*
X156253734Y-120203673D01*
X156253730Y-120203682D01*
X156201127Y-120399999D01*
X150704343Y-120399999D01*
X150717372Y-120398598D01*
X150717379Y-120398596D01*
X150852086Y-120348354D01*
X150852093Y-120348350D01*
X150967187Y-120262190D01*
X150967190Y-120262187D01*
X151053350Y-120147093D01*
X151053354Y-120147086D01*
X151103596Y-120012379D01*
X151103598Y-120012372D01*
X151109999Y-119952844D01*
X151110000Y-119952827D01*
X151110000Y-119630000D01*
X150140330Y-119630000D01*
X150160075Y-119610255D01*
X150209444Y-119524745D01*
X150235000Y-119429370D01*
X150235000Y-119330630D01*
X150209444Y-119235255D01*
X150160075Y-119149745D01*
X150145830Y-119135500D01*
X150186004Y-119135500D01*
X150186004Y-119135499D01*
X150199473Y-119132820D01*
X150201674Y-119132383D01*
X150225866Y-119130000D01*
X151110000Y-119130000D01*
X151110000Y-118807172D01*
X151109999Y-118807155D01*
X151103598Y-118747627D01*
X151103596Y-118747620D01*
X151053354Y-118612913D01*
X151053353Y-118612911D01*
X151052745Y-118612099D01*
X151052390Y-118611148D01*
X151049103Y-118605128D01*
X151049968Y-118604655D01*
X151028329Y-118546634D01*
X151037451Y-118490339D01*
X151071091Y-118409127D01*
X151110500Y-118211003D01*
X151110500Y-118008997D01*
X151071091Y-117810873D01*
X150993786Y-117624244D01*
X150940094Y-117543889D01*
X150919217Y-117477214D01*
X150937701Y-117409834D01*
X150940078Y-117406134D01*
X150993786Y-117325756D01*
X151071091Y-117139127D01*
X151110500Y-116941003D01*
X151110500Y-116738997D01*
X151071091Y-116540873D01*
X150993786Y-116354244D01*
X150993784Y-116354241D01*
X150993782Y-116354237D01*
X150881558Y-116186281D01*
X150738718Y-116043441D01*
X150570762Y-115931217D01*
X150570752Y-115931212D01*
X150384127Y-115853909D01*
X150384119Y-115853907D01*
X150186007Y-115814500D01*
X150186003Y-115814500D01*
X149533997Y-115814500D01*
X149533992Y-115814500D01*
X149335880Y-115853907D01*
X149335872Y-115853909D01*
X149149247Y-115931212D01*
X149149237Y-115931217D01*
X148981281Y-116043441D01*
X148838441Y-116186281D01*
X148726217Y-116354237D01*
X148726212Y-116354247D01*
X148648909Y-116540872D01*
X148648907Y-116540880D01*
X148609500Y-116738992D01*
X148609500Y-116941007D01*
X148648907Y-117139119D01*
X148648909Y-117139127D01*
X148726214Y-117325757D01*
X148726900Y-117327040D01*
X148727056Y-117327789D01*
X148728545Y-117331384D01*
X148727863Y-117331666D01*
X148741147Y-117395442D01*
X148716151Y-117460687D01*
X148659848Y-117502061D01*
X148617546Y-117509500D01*
X146136670Y-117509500D01*
X146136654Y-117509499D01*
X146129058Y-117509499D01*
X145970943Y-117509499D01*
X145894579Y-117529961D01*
X145818214Y-117550423D01*
X145818209Y-117550426D01*
X145681290Y-117629475D01*
X145681282Y-117629481D01*
X142682705Y-120628058D01*
X142621382Y-120661543D01*
X142562931Y-120660152D01*
X142466697Y-120634366D01*
X142466693Y-120634365D01*
X142466692Y-120634365D01*
X142466691Y-120634364D01*
X142466686Y-120634364D01*
X142240002Y-120614532D01*
X142239998Y-120614532D01*
X142013313Y-120634364D01*
X142013302Y-120634366D01*
X141793511Y-120693258D01*
X141793502Y-120693261D01*
X141587267Y-120789431D01*
X141587265Y-120789432D01*
X141400858Y-120919954D01*
X141239954Y-121080858D01*
X141109432Y-121267265D01*
X141109431Y-121267267D01*
X141013261Y-121473502D01*
X141013258Y-121473511D01*
X140954366Y-121693302D01*
X140954364Y-121693313D01*
X140934532Y-121919998D01*
X135924966Y-121919998D01*
X135924966Y-121919997D01*
X135905141Y-121693400D01*
X135905139Y-121693389D01*
X135846269Y-121473682D01*
X135846264Y-121473668D01*
X135750136Y-121267521D01*
X135750132Y-121267513D01*
X135699025Y-121194526D01*
X135020000Y-121873551D01*
X135020000Y-121867339D01*
X134992741Y-121765606D01*
X134940080Y-121674394D01*
X134865606Y-121599920D01*
X134774394Y-121547259D01*
X134672661Y-121520000D01*
X134666446Y-121520000D01*
X135345472Y-120840974D01*
X135272480Y-120789864D01*
X135243992Y-120776580D01*
X135191553Y-120730407D01*
X135172401Y-120663213D01*
X135192617Y-120596332D01*
X135208705Y-120576530D01*
X140848417Y-114936819D01*
X140909740Y-114903334D01*
X140936098Y-114900500D01*
X141008308Y-114900500D01*
X141075347Y-114920185D01*
X141109880Y-114953374D01*
X141195480Y-115075624D01*
X141239954Y-115139141D01*
X141400858Y-115300045D01*
X141400861Y-115300047D01*
X141587266Y-115430568D01*
X141793504Y-115526739D01*
X142013308Y-115585635D01*
X142175230Y-115599801D01*
X142239998Y-115605468D01*
X142240000Y-115605468D01*
X142240002Y-115605468D01*
X142296673Y-115600509D01*
X142466692Y-115585635D01*
X142686496Y-115526739D01*
X142892734Y-115430568D01*
X143079139Y-115300047D01*
X143240047Y-115139139D01*
X143370568Y-114952734D01*
X143466739Y-114746496D01*
X143525635Y-114526692D01*
X143545468Y-114300000D01*
X143525635Y-114073308D01*
X143466739Y-113853504D01*
X143370568Y-113647266D01*
X143240047Y-113460861D01*
X143240045Y-113460858D01*
X143079141Y-113299954D01*
X142892734Y-113169432D01*
X142892732Y-113169431D01*
X142686497Y-113073261D01*
X142686488Y-113073258D01*
X142525037Y-113029998D01*
X156174532Y-113029998D01*
X156174532Y-113030001D01*
X156194364Y-113256686D01*
X156194366Y-113256697D01*
X156253258Y-113476488D01*
X156253261Y-113476497D01*
X156349431Y-113682732D01*
X156349432Y-113682734D01*
X156479954Y-113869141D01*
X156640858Y-114030045D01*
X156640861Y-114030047D01*
X156827266Y-114160568D01*
X157033504Y-114256739D01*
X157253308Y-114315635D01*
X157415230Y-114329801D01*
X157479998Y-114335468D01*
X157480000Y-114335468D01*
X157480002Y-114335468D01*
X157536673Y-114330509D01*
X157706692Y-114315635D01*
X157926496Y-114256739D01*
X158132734Y-114160568D01*
X158319139Y-114030047D01*
X158480047Y-113869139D01*
X158610568Y-113682734D01*
X158706739Y-113476496D01*
X158765635Y-113256692D01*
X158785468Y-113030000D01*
X158765635Y-112803308D01*
X158706739Y-112583504D01*
X158610568Y-112377266D01*
X158480047Y-112190861D01*
X158480045Y-112190858D01*
X158319141Y-112029954D01*
X158132734Y-111899432D01*
X158132732Y-111899431D01*
X157926497Y-111803261D01*
X157926488Y-111803258D01*
X157706697Y-111744366D01*
X157706693Y-111744365D01*
X157706692Y-111744365D01*
X157706691Y-111744364D01*
X157706686Y-111744364D01*
X157480002Y-111724532D01*
X157479998Y-111724532D01*
X157253313Y-111744364D01*
X157253302Y-111744366D01*
X157033511Y-111803258D01*
X157033502Y-111803261D01*
X156827267Y-111899431D01*
X156827265Y-111899432D01*
X156640858Y-112029954D01*
X156479954Y-112190858D01*
X156349432Y-112377265D01*
X156349431Y-112377267D01*
X156253261Y-112583502D01*
X156253258Y-112583511D01*
X156194366Y-112803302D01*
X156194364Y-112803313D01*
X156174532Y-113029998D01*
X142525037Y-113029998D01*
X142466697Y-113014366D01*
X142466693Y-113014365D01*
X142466692Y-113014365D01*
X142466691Y-113014364D01*
X142466686Y-113014364D01*
X142240002Y-112994532D01*
X142239998Y-112994532D01*
X142013313Y-113014364D01*
X142013302Y-113014366D01*
X141793511Y-113073258D01*
X141793502Y-113073261D01*
X141587267Y-113169431D01*
X141587265Y-113169432D01*
X141400858Y-113299954D01*
X141239954Y-113460858D01*
X141202247Y-113514711D01*
X141109881Y-113646624D01*
X141055307Y-113690248D01*
X141008308Y-113699500D01*
X140722670Y-113699500D01*
X140722654Y-113699499D01*
X140715058Y-113699499D01*
X140556943Y-113699499D01*
X140480579Y-113719961D01*
X140404214Y-113740423D01*
X140404209Y-113740426D01*
X140267290Y-113819475D01*
X140267282Y-113819481D01*
X129059481Y-125027282D01*
X129059479Y-125027285D01*
X129009361Y-125114094D01*
X129009359Y-125114096D01*
X128980425Y-125164209D01*
X128980424Y-125164210D01*
X128980423Y-125164215D01*
X128939499Y-125316943D01*
X128939499Y-125316945D01*
X128939499Y-125485046D01*
X128939500Y-125485059D01*
X128939500Y-125625500D01*
X128919815Y-125692539D01*
X128867011Y-125738294D01*
X128815502Y-125749500D01*
X128742130Y-125749500D01*
X128742123Y-125749501D01*
X128682516Y-125755908D01*
X128547671Y-125806202D01*
X128547664Y-125806206D01*
X128432455Y-125892452D01*
X128432452Y-125892455D01*
X128346206Y-126007664D01*
X128346202Y-126007671D01*
X128295908Y-126142516D01*
X128290142Y-126196154D01*
X128263404Y-126260705D01*
X128206012Y-126300553D01*
X128136186Y-126303046D01*
X128076098Y-126267393D01*
X128065278Y-126254021D01*
X128000045Y-126160858D01*
X127839141Y-125999954D01*
X127652734Y-125869432D01*
X127652732Y-125869431D01*
X127446497Y-125773261D01*
X127446488Y-125773258D01*
X127226697Y-125714366D01*
X127226693Y-125714365D01*
X127226692Y-125714365D01*
X127226691Y-125714364D01*
X127226686Y-125714364D01*
X127000002Y-125694532D01*
X126999998Y-125694532D01*
X126773313Y-125714364D01*
X126773302Y-125714366D01*
X126553511Y-125773258D01*
X126553502Y-125773261D01*
X126347267Y-125869431D01*
X126347265Y-125869432D01*
X126160858Y-125999954D01*
X125999954Y-126160858D01*
X125869432Y-126347265D01*
X125869431Y-126347267D01*
X125773261Y-126553502D01*
X125773258Y-126553511D01*
X125714366Y-126773302D01*
X125714364Y-126773313D01*
X125694532Y-126999998D01*
X118990546Y-126999998D01*
X118941232Y-126903212D01*
X118839414Y-126763072D01*
X118716928Y-126640586D01*
X118576788Y-126538768D01*
X118422445Y-126460127D01*
X118257701Y-126406598D01*
X118257699Y-126406597D01*
X118257698Y-126406597D01*
X118126271Y-126385781D01*
X118086611Y-126379500D01*
X117913389Y-126379500D01*
X117873728Y-126385781D01*
X117742302Y-126406597D01*
X117577552Y-126460128D01*
X117423211Y-126538768D01*
X117369826Y-126577555D01*
X117283072Y-126640586D01*
X117283070Y-126640588D01*
X117283069Y-126640588D01*
X117160588Y-126763069D01*
X117160588Y-126763070D01*
X117160586Y-126763072D01*
X117121050Y-126817489D01*
X117058768Y-126903211D01*
X116980128Y-127057552D01*
X116926597Y-127222302D01*
X116899500Y-127393389D01*
X112260500Y-127393389D01*
X112260500Y-121919998D01*
X125694532Y-121919998D01*
X125694532Y-121920001D01*
X125714364Y-122146686D01*
X125714366Y-122146697D01*
X125773258Y-122366488D01*
X125773261Y-122366497D01*
X125869431Y-122572732D01*
X125869432Y-122572734D01*
X125999954Y-122759141D01*
X126160858Y-122920045D01*
X126160861Y-122920047D01*
X126347266Y-123050568D01*
X126553504Y-123146739D01*
X126773308Y-123205635D01*
X126935230Y-123219801D01*
X126999998Y-123225468D01*
X127000000Y-123225468D01*
X127000002Y-123225468D01*
X127056673Y-123220509D01*
X127226692Y-123205635D01*
X127446496Y-123146739D01*
X127652734Y-123050568D01*
X127839139Y-122920047D01*
X128000047Y-122759139D01*
X128130568Y-122572734D01*
X128226739Y-122366496D01*
X128285635Y-122146692D01*
X128305468Y-121920000D01*
X128285635Y-121693308D01*
X128226739Y-121473504D01*
X128130568Y-121267266D01*
X128000047Y-121080861D01*
X128000045Y-121080858D01*
X127839141Y-120919954D01*
X127652734Y-120789432D01*
X127652732Y-120789431D01*
X127446497Y-120693261D01*
X127446488Y-120693258D01*
X127226697Y-120634366D01*
X127226693Y-120634365D01*
X127226692Y-120634365D01*
X127226691Y-120634364D01*
X127226686Y-120634364D01*
X127000002Y-120614532D01*
X126999998Y-120614532D01*
X126773313Y-120634364D01*
X126773302Y-120634366D01*
X126553511Y-120693258D01*
X126553502Y-120693261D01*
X126347267Y-120789431D01*
X126347265Y-120789432D01*
X126160858Y-120919954D01*
X125999954Y-121080858D01*
X125869432Y-121267265D01*
X125869431Y-121267267D01*
X125773261Y-121473502D01*
X125773258Y-121473511D01*
X125714366Y-121693302D01*
X125714364Y-121693313D01*
X125694532Y-121919998D01*
X112260500Y-121919998D01*
X112260500Y-120393389D01*
X116899500Y-120393389D01*
X116899500Y-120566610D01*
X116925442Y-120730407D01*
X116926598Y-120737701D01*
X116980127Y-120902445D01*
X117058768Y-121056788D01*
X117160586Y-121196928D01*
X117283072Y-121319414D01*
X117423212Y-121421232D01*
X117577555Y-121499873D01*
X117742299Y-121553402D01*
X117913389Y-121580500D01*
X117913390Y-121580500D01*
X118086610Y-121580500D01*
X118086611Y-121580500D01*
X118257701Y-121553402D01*
X118422445Y-121499873D01*
X118576788Y-121421232D01*
X118716928Y-121319414D01*
X118839414Y-121196928D01*
X118941232Y-121056788D01*
X119019873Y-120902445D01*
X119073402Y-120737701D01*
X119100500Y-120566611D01*
X119100500Y-120393389D01*
X119073402Y-120222299D01*
X119019873Y-120057555D01*
X118941232Y-119903212D01*
X118839414Y-119763072D01*
X118716928Y-119640586D01*
X118576788Y-119538768D01*
X118422445Y-119460127D01*
X118257701Y-119406598D01*
X118257699Y-119406597D01*
X118257698Y-119406597D01*
X118126271Y-119385781D01*
X118086611Y-119379500D01*
X117913389Y-119379500D01*
X117873728Y-119385781D01*
X117742302Y-119406597D01*
X117577552Y-119460128D01*
X117423211Y-119538768D01*
X117369826Y-119577555D01*
X117283072Y-119640586D01*
X117283070Y-119640588D01*
X117283069Y-119640588D01*
X117160588Y-119763069D01*
X117160588Y-119763070D01*
X117160586Y-119763072D01*
X117125634Y-119811179D01*
X117058768Y-119903211D01*
X116980128Y-120057552D01*
X116926597Y-120222302D01*
X116899500Y-120393389D01*
X112260500Y-120393389D01*
X112260500Y-114299998D01*
X125694532Y-114299998D01*
X125694532Y-114300001D01*
X125714364Y-114526686D01*
X125714366Y-114526697D01*
X125773258Y-114746488D01*
X125773261Y-114746497D01*
X125869431Y-114952732D01*
X125869432Y-114952734D01*
X125999954Y-115139141D01*
X126160858Y-115300045D01*
X126160861Y-115300047D01*
X126347266Y-115430568D01*
X126553504Y-115526739D01*
X126773308Y-115585635D01*
X126935230Y-115599801D01*
X126999998Y-115605468D01*
X127000000Y-115605468D01*
X127000002Y-115605468D01*
X127056673Y-115600509D01*
X127226692Y-115585635D01*
X127446496Y-115526739D01*
X127652734Y-115430568D01*
X127839139Y-115300047D01*
X128000047Y-115139139D01*
X128130568Y-114952734D01*
X128130576Y-114952716D01*
X128131372Y-114951339D01*
X128131890Y-114950844D01*
X128133673Y-114948299D01*
X128134184Y-114948657D01*
X128181935Y-114903120D01*
X128206660Y-114893560D01*
X128333485Y-114859577D01*
X128383604Y-114830639D01*
X128470416Y-114780520D01*
X128582220Y-114668716D01*
X128582220Y-114668714D01*
X128592428Y-114658507D01*
X128592429Y-114658504D01*
X128950935Y-114299998D01*
X133314532Y-114299998D01*
X133314532Y-114300001D01*
X133334364Y-114526686D01*
X133334366Y-114526697D01*
X133393258Y-114746488D01*
X133393261Y-114746497D01*
X133489431Y-114952732D01*
X133489432Y-114952734D01*
X133619954Y-115139141D01*
X133780858Y-115300045D01*
X133780861Y-115300047D01*
X133967266Y-115430568D01*
X134173504Y-115526739D01*
X134393308Y-115585635D01*
X134555230Y-115599801D01*
X134619998Y-115605468D01*
X134620000Y-115605468D01*
X134620002Y-115605468D01*
X134676673Y-115600509D01*
X134846692Y-115585635D01*
X135066496Y-115526739D01*
X135272734Y-115430568D01*
X135459139Y-115300047D01*
X135620047Y-115139139D01*
X135750568Y-114952734D01*
X135846739Y-114746496D01*
X135905635Y-114526692D01*
X135925468Y-114300000D01*
X135905635Y-114073308D01*
X135846739Y-113853504D01*
X135750568Y-113647266D01*
X135620047Y-113460861D01*
X135620045Y-113460858D01*
X135459141Y-113299954D01*
X135272734Y-113169432D01*
X135272732Y-113169431D01*
X135066497Y-113073261D01*
X135066488Y-113073258D01*
X134846697Y-113014366D01*
X134846693Y-113014365D01*
X134846692Y-113014365D01*
X134846691Y-113014364D01*
X134846686Y-113014364D01*
X134620002Y-112994532D01*
X134619998Y-112994532D01*
X134393313Y-113014364D01*
X134393302Y-113014366D01*
X134173511Y-113073258D01*
X134173502Y-113073261D01*
X133967267Y-113169431D01*
X133967265Y-113169432D01*
X133780858Y-113299954D01*
X133619954Y-113460858D01*
X133489432Y-113647265D01*
X133489431Y-113647267D01*
X133393261Y-113853502D01*
X133393258Y-113853511D01*
X133334366Y-114073302D01*
X133334364Y-114073313D01*
X133314532Y-114299998D01*
X128950935Y-114299998D01*
X133934116Y-109316819D01*
X133995439Y-109283334D01*
X134021797Y-109280500D01*
X136172688Y-109280500D01*
X136239727Y-109300185D01*
X136271642Y-109329773D01*
X136343237Y-109424581D01*
X136493958Y-109561980D01*
X136493960Y-109561982D01*
X136593141Y-109623392D01*
X136667363Y-109669348D01*
X136857544Y-109743024D01*
X137058024Y-109780500D01*
X137058026Y-109780500D01*
X137261974Y-109780500D01*
X137261976Y-109780500D01*
X137462456Y-109743024D01*
X137652637Y-109669348D01*
X137826041Y-109561981D01*
X137954122Y-109445219D01*
X137976762Y-109424581D01*
X137976764Y-109424579D01*
X138099673Y-109261821D01*
X138190582Y-109079250D01*
X138246397Y-108883083D01*
X138265215Y-108680000D01*
X138262110Y-108646496D01*
X138246397Y-108476917D01*
X138232108Y-108426697D01*
X138190582Y-108280750D01*
X138160309Y-108219954D01*
X138110750Y-108120425D01*
X138099673Y-108098179D01*
X138020443Y-107993261D01*
X137976762Y-107935418D01*
X137826042Y-107798019D01*
X137814723Y-107791011D01*
X137805704Y-107785426D01*
X137759069Y-107733401D01*
X137747964Y-107664419D01*
X137775916Y-107600385D01*
X137805703Y-107574573D01*
X137826041Y-107561981D01*
X137976764Y-107424579D01*
X138099673Y-107261821D01*
X138190582Y-107079250D01*
X138246397Y-106883083D01*
X138265215Y-106680000D01*
X138265215Y-106679999D01*
X146214785Y-106679999D01*
X146214785Y-106680000D01*
X146233602Y-106883082D01*
X146289417Y-107079247D01*
X146289422Y-107079260D01*
X146380327Y-107261821D01*
X146503237Y-107424581D01*
X146632898Y-107542782D01*
X146653959Y-107561981D01*
X146674294Y-107574572D01*
X146674296Y-107574573D01*
X146720931Y-107626601D01*
X146732035Y-107695583D01*
X146704082Y-107759617D01*
X146674296Y-107785427D01*
X146653957Y-107798020D01*
X146503237Y-107935418D01*
X146380327Y-108098178D01*
X146289422Y-108280739D01*
X146289417Y-108280752D01*
X146233602Y-108476917D01*
X146214785Y-108679999D01*
X146214785Y-108680000D01*
X146233602Y-108883082D01*
X146289417Y-109079247D01*
X146289422Y-109079260D01*
X146380327Y-109261821D01*
X146503237Y-109424581D01*
X146653958Y-109561980D01*
X146653960Y-109561982D01*
X146753141Y-109623392D01*
X146827363Y-109669348D01*
X147017544Y-109743024D01*
X147218024Y-109780500D01*
X147218026Y-109780500D01*
X147421974Y-109780500D01*
X147421976Y-109780500D01*
X147622456Y-109743024D01*
X147812637Y-109669348D01*
X147986041Y-109561981D01*
X148114122Y-109445219D01*
X148136762Y-109424581D01*
X148136764Y-109424579D01*
X148259673Y-109261821D01*
X148350582Y-109079250D01*
X148406397Y-108883083D01*
X148425215Y-108680000D01*
X148422110Y-108646496D01*
X148406397Y-108476917D01*
X148392108Y-108426697D01*
X148350582Y-108280750D01*
X148320309Y-108219954D01*
X148270750Y-108120425D01*
X148259673Y-108098179D01*
X148180443Y-107993261D01*
X148136762Y-107935418D01*
X147986042Y-107798019D01*
X147974723Y-107791011D01*
X147965704Y-107785426D01*
X147919069Y-107733401D01*
X147907964Y-107664419D01*
X147935916Y-107600385D01*
X147965703Y-107574573D01*
X147986041Y-107561981D01*
X148136764Y-107424579D01*
X148208358Y-107329773D01*
X148264467Y-107288137D01*
X148307312Y-107280500D01*
X153538203Y-107280500D01*
X153605242Y-107300185D01*
X153625884Y-107316819D01*
X155893439Y-109584374D01*
X155893449Y-109584385D01*
X155897779Y-109588715D01*
X155897780Y-109588716D01*
X156009584Y-109700520D01*
X156009586Y-109700521D01*
X156009590Y-109700524D01*
X156146509Y-109779573D01*
X156146516Y-109779577D01*
X156258319Y-109809534D01*
X156273333Y-109813557D01*
X156332991Y-109849922D01*
X156348624Y-109871333D01*
X156349434Y-109872737D01*
X156479954Y-110059141D01*
X156640858Y-110220045D01*
X156640861Y-110220047D01*
X156827266Y-110350568D01*
X157033504Y-110446739D01*
X157253308Y-110505635D01*
X157415230Y-110519801D01*
X157479998Y-110525468D01*
X157480000Y-110525468D01*
X157480002Y-110525468D01*
X157536673Y-110520509D01*
X157706692Y-110505635D01*
X157926496Y-110446739D01*
X158132734Y-110350568D01*
X158319139Y-110220047D01*
X158480047Y-110059139D01*
X158610568Y-109872734D01*
X158706739Y-109666496D01*
X158765635Y-109446692D01*
X158785468Y-109220000D01*
X158765635Y-108993308D01*
X158706739Y-108773504D01*
X158610568Y-108567266D01*
X158480047Y-108380861D01*
X158480045Y-108380858D01*
X158319141Y-108219954D01*
X158290641Y-108199998D01*
X170034532Y-108199998D01*
X170034532Y-108200001D01*
X170054364Y-108426686D01*
X170054366Y-108426697D01*
X170113258Y-108646488D01*
X170113261Y-108646497D01*
X170209431Y-108852732D01*
X170209432Y-108852734D01*
X170339954Y-109039141D01*
X170500858Y-109200045D01*
X170547693Y-109232839D01*
X170687266Y-109330568D01*
X170893504Y-109426739D01*
X171113308Y-109485635D01*
X171275230Y-109499801D01*
X171339998Y-109505468D01*
X171340000Y-109505468D01*
X171340002Y-109505468D01*
X171396673Y-109500509D01*
X171566692Y-109485635D01*
X171786496Y-109426739D01*
X171992734Y-109330568D01*
X172179139Y-109200047D01*
X172340047Y-109039139D01*
X172470568Y-108852734D01*
X172566739Y-108646496D01*
X172625635Y-108426692D01*
X172645468Y-108200000D01*
X172645468Y-108199998D01*
X182734532Y-108199998D01*
X182734532Y-108200001D01*
X182754364Y-108426686D01*
X182754366Y-108426697D01*
X182813258Y-108646488D01*
X182813261Y-108646497D01*
X182909431Y-108852732D01*
X182909432Y-108852734D01*
X183039954Y-109039141D01*
X183200858Y-109200045D01*
X183247693Y-109232839D01*
X183387266Y-109330568D01*
X183593504Y-109426739D01*
X183813308Y-109485635D01*
X183975230Y-109499801D01*
X184039998Y-109505468D01*
X184040000Y-109505468D01*
X184040002Y-109505468D01*
X184096673Y-109500509D01*
X184266692Y-109485635D01*
X184486496Y-109426739D01*
X184692734Y-109330568D01*
X184879139Y-109200047D01*
X185040047Y-109039139D01*
X185170568Y-108852734D01*
X185266739Y-108646496D01*
X185325635Y-108426692D01*
X185345468Y-108200000D01*
X185345422Y-108199479D01*
X185336560Y-108098178D01*
X185325635Y-107973308D01*
X185266739Y-107753504D01*
X185170568Y-107547266D01*
X185040047Y-107360861D01*
X185040045Y-107360858D01*
X184879141Y-107199954D01*
X184692734Y-107069432D01*
X184692732Y-107069431D01*
X184486497Y-106973261D01*
X184486488Y-106973258D01*
X184266697Y-106914366D01*
X184266693Y-106914365D01*
X184266692Y-106914365D01*
X184266691Y-106914364D01*
X184266686Y-106914364D01*
X184040002Y-106894532D01*
X184039998Y-106894532D01*
X183813313Y-106914364D01*
X183813302Y-106914366D01*
X183593511Y-106973258D01*
X183593502Y-106973261D01*
X183387267Y-107069431D01*
X183387265Y-107069432D01*
X183200858Y-107199954D01*
X183039954Y-107360858D01*
X182909432Y-107547265D01*
X182909431Y-107547267D01*
X182813261Y-107753502D01*
X182813258Y-107753511D01*
X182754366Y-107973302D01*
X182754364Y-107973313D01*
X182734532Y-108199998D01*
X172645468Y-108199998D01*
X172645422Y-108199479D01*
X172636560Y-108098178D01*
X172625635Y-107973308D01*
X172566739Y-107753504D01*
X172470568Y-107547266D01*
X172340047Y-107360861D01*
X172340045Y-107360858D01*
X172179141Y-107199954D01*
X171992734Y-107069432D01*
X171992732Y-107069431D01*
X171786497Y-106973261D01*
X171786488Y-106973258D01*
X171566697Y-106914366D01*
X171566693Y-106914365D01*
X171566692Y-106914365D01*
X171566691Y-106914364D01*
X171566686Y-106914364D01*
X171340002Y-106894532D01*
X171339998Y-106894532D01*
X171113313Y-106914364D01*
X171113302Y-106914366D01*
X170893511Y-106973258D01*
X170893502Y-106973261D01*
X170687267Y-107069431D01*
X170687265Y-107069432D01*
X170500858Y-107199954D01*
X170339954Y-107360858D01*
X170209432Y-107547265D01*
X170209431Y-107547267D01*
X170113261Y-107753502D01*
X170113258Y-107753511D01*
X170054366Y-107973302D01*
X170054364Y-107973313D01*
X170034532Y-108199998D01*
X158290641Y-108199998D01*
X158132734Y-108089432D01*
X158132732Y-108089431D01*
X157926497Y-107993261D01*
X157926488Y-107993258D01*
X157706697Y-107934366D01*
X157706693Y-107934365D01*
X157706692Y-107934365D01*
X157706691Y-107934364D01*
X157706686Y-107934364D01*
X157480002Y-107914532D01*
X157479998Y-107914532D01*
X157253313Y-107934364D01*
X157253302Y-107934366D01*
X157033511Y-107993258D01*
X157033502Y-107993261D01*
X156827267Y-108089431D01*
X156827265Y-108089432D01*
X156640858Y-108219954D01*
X156521855Y-108338958D01*
X156460532Y-108372443D01*
X156390840Y-108367459D01*
X156346493Y-108338958D01*
X154325890Y-106318355D01*
X154325888Y-106318352D01*
X154207017Y-106199481D01*
X154207016Y-106199480D01*
X154120204Y-106149360D01*
X154120204Y-106149359D01*
X154120200Y-106149358D01*
X154070085Y-106120423D01*
X153917357Y-106079499D01*
X153759243Y-106079499D01*
X153751647Y-106079499D01*
X153751631Y-106079500D01*
X148307312Y-106079500D01*
X148240273Y-106059815D01*
X148208358Y-106030227D01*
X148136762Y-105935418D01*
X147986041Y-105798019D01*
X147986039Y-105798017D01*
X147812642Y-105690655D01*
X147812635Y-105690651D01*
X147717546Y-105653814D01*
X147622456Y-105616976D01*
X147421976Y-105579500D01*
X147218024Y-105579500D01*
X147017544Y-105616976D01*
X147017541Y-105616976D01*
X147017541Y-105616977D01*
X146827364Y-105690651D01*
X146827357Y-105690655D01*
X146653960Y-105798017D01*
X146653958Y-105798019D01*
X146503237Y-105935418D01*
X146380327Y-106098178D01*
X146289422Y-106280739D01*
X146289417Y-106280752D01*
X146233602Y-106476917D01*
X146214785Y-106679999D01*
X138265215Y-106679999D01*
X138246397Y-106476917D01*
X138190582Y-106280750D01*
X138099673Y-106098179D01*
X138025908Y-106000498D01*
X137976762Y-105935418D01*
X137826041Y-105798019D01*
X137826039Y-105798017D01*
X137652642Y-105690655D01*
X137652635Y-105690651D01*
X137557546Y-105653814D01*
X137462456Y-105616976D01*
X137261976Y-105579500D01*
X137058024Y-105579500D01*
X136857544Y-105616976D01*
X136857541Y-105616976D01*
X136857541Y-105616977D01*
X136667364Y-105690651D01*
X136667357Y-105690655D01*
X136493960Y-105798017D01*
X136493958Y-105798019D01*
X136343237Y-105935418D01*
X136220327Y-106098178D01*
X136129422Y-106280739D01*
X136129417Y-106280752D01*
X136073602Y-106476917D01*
X136054785Y-106679999D01*
X136054785Y-106680000D01*
X136073602Y-106883082D01*
X136129417Y-107079247D01*
X136129422Y-107079260D01*
X136220327Y-107261821D01*
X136343237Y-107424581D01*
X136472898Y-107542782D01*
X136493959Y-107561981D01*
X136514294Y-107574572D01*
X136514296Y-107574573D01*
X136560931Y-107626601D01*
X136572035Y-107695583D01*
X136544082Y-107759617D01*
X136514296Y-107785427D01*
X136493957Y-107798020D01*
X136343237Y-107935418D01*
X136271642Y-108030227D01*
X136215533Y-108071863D01*
X136172688Y-108079500D01*
X133800757Y-108079500D01*
X133642642Y-108079500D01*
X133489915Y-108120423D01*
X133489914Y-108120423D01*
X133489912Y-108120424D01*
X133489909Y-108120425D01*
X133439796Y-108149359D01*
X133439795Y-108149360D01*
X133396389Y-108174420D01*
X133352985Y-108199479D01*
X133352982Y-108199481D01*
X133241178Y-108311286D01*
X128133506Y-113418957D01*
X128072183Y-113452442D01*
X128002491Y-113447458D01*
X127958144Y-113418957D01*
X127839141Y-113299954D01*
X127652734Y-113169432D01*
X127652732Y-113169431D01*
X127446497Y-113073261D01*
X127446488Y-113073258D01*
X127226697Y-113014366D01*
X127226693Y-113014365D01*
X127226692Y-113014365D01*
X127226691Y-113014364D01*
X127226686Y-113014364D01*
X127000002Y-112994532D01*
X126999998Y-112994532D01*
X126773313Y-113014364D01*
X126773302Y-113014366D01*
X126553511Y-113073258D01*
X126553502Y-113073261D01*
X126347267Y-113169431D01*
X126347265Y-113169432D01*
X126160858Y-113299954D01*
X125999954Y-113460858D01*
X125869432Y-113647265D01*
X125869431Y-113647267D01*
X125773261Y-113853502D01*
X125773258Y-113853511D01*
X125714366Y-114073302D01*
X125714364Y-114073313D01*
X125694532Y-114299998D01*
X112260500Y-114299998D01*
X112260500Y-106679999D01*
X125894785Y-106679999D01*
X125894785Y-106680000D01*
X125913602Y-106883082D01*
X125969417Y-107079247D01*
X125969422Y-107079260D01*
X126060327Y-107261821D01*
X126183237Y-107424581D01*
X126312898Y-107542782D01*
X126333959Y-107561981D01*
X126354294Y-107574572D01*
X126354296Y-107574573D01*
X126400931Y-107626601D01*
X126412035Y-107695583D01*
X126384082Y-107759617D01*
X126354296Y-107785427D01*
X126333957Y-107798020D01*
X126183237Y-107935418D01*
X126060327Y-108098178D01*
X125969422Y-108280739D01*
X125969417Y-108280752D01*
X125913602Y-108476917D01*
X125894785Y-108679999D01*
X125894785Y-108680000D01*
X125913602Y-108883082D01*
X125969417Y-109079247D01*
X125969422Y-109079260D01*
X126060327Y-109261821D01*
X126183237Y-109424581D01*
X126333958Y-109561980D01*
X126333960Y-109561982D01*
X126433141Y-109623392D01*
X126507363Y-109669348D01*
X126697544Y-109743024D01*
X126898024Y-109780500D01*
X126898026Y-109780500D01*
X127101974Y-109780500D01*
X127101976Y-109780500D01*
X127302456Y-109743024D01*
X127492637Y-109669348D01*
X127666041Y-109561981D01*
X127794122Y-109445219D01*
X127816762Y-109424581D01*
X127816764Y-109424579D01*
X127939673Y-109261821D01*
X128030582Y-109079250D01*
X128086397Y-108883083D01*
X128105215Y-108680000D01*
X128102110Y-108646496D01*
X128086397Y-108476917D01*
X128072108Y-108426697D01*
X128030582Y-108280750D01*
X128000309Y-108219954D01*
X127950750Y-108120425D01*
X127939673Y-108098179D01*
X127860443Y-107993261D01*
X127816762Y-107935418D01*
X127666042Y-107798019D01*
X127654723Y-107791011D01*
X127645704Y-107785426D01*
X127599069Y-107733401D01*
X127587964Y-107664419D01*
X127615916Y-107600385D01*
X127645703Y-107574573D01*
X127666041Y-107561981D01*
X127816764Y-107424579D01*
X127939673Y-107261821D01*
X128030582Y-107079250D01*
X128086397Y-106883083D01*
X128105215Y-106680000D01*
X128086397Y-106476917D01*
X128030582Y-106280750D01*
X127939673Y-106098179D01*
X127865908Y-106000498D01*
X127816762Y-105935418D01*
X127666041Y-105798019D01*
X127666039Y-105798017D01*
X127492642Y-105690655D01*
X127492635Y-105690651D01*
X127397546Y-105653814D01*
X127302456Y-105616976D01*
X127101976Y-105579500D01*
X126898024Y-105579500D01*
X126697544Y-105616976D01*
X126697541Y-105616976D01*
X126697541Y-105616977D01*
X126507364Y-105690651D01*
X126507357Y-105690655D01*
X126333960Y-105798017D01*
X126333958Y-105798019D01*
X126183237Y-105935418D01*
X126060327Y-106098178D01*
X125969422Y-106280739D01*
X125969417Y-106280752D01*
X125913602Y-106476917D01*
X125894785Y-106679999D01*
X112260500Y-106679999D01*
X112260500Y-103852135D01*
X170039500Y-103852135D01*
X170039500Y-105547870D01*
X170039501Y-105547876D01*
X170045908Y-105607483D01*
X170096202Y-105742328D01*
X170096206Y-105742335D01*
X170182452Y-105857544D01*
X170182455Y-105857547D01*
X170297664Y-105943793D01*
X170297671Y-105943797D01*
X170432517Y-105994091D01*
X170432516Y-105994091D01*
X170439444Y-105994835D01*
X170492127Y-106000500D01*
X172187872Y-106000499D01*
X172247483Y-105994091D01*
X172382331Y-105943796D01*
X172497546Y-105857546D01*
X172583796Y-105742331D01*
X172634091Y-105607483D01*
X172640500Y-105547873D01*
X172640499Y-103852135D01*
X182739500Y-103852135D01*
X182739500Y-105547870D01*
X182739501Y-105547876D01*
X182745908Y-105607483D01*
X182796202Y-105742328D01*
X182796206Y-105742335D01*
X182882452Y-105857544D01*
X182882455Y-105857547D01*
X182997664Y-105943793D01*
X182997671Y-105943797D01*
X183132517Y-105994091D01*
X183132516Y-105994091D01*
X183139444Y-105994835D01*
X183192127Y-106000500D01*
X184887872Y-106000499D01*
X184947483Y-105994091D01*
X185082331Y-105943796D01*
X185197546Y-105857546D01*
X185283796Y-105742331D01*
X185334091Y-105607483D01*
X185340500Y-105547873D01*
X185340499Y-103852128D01*
X185334091Y-103792517D01*
X185283796Y-103657669D01*
X185283795Y-103657668D01*
X185283793Y-103657664D01*
X185197547Y-103542455D01*
X185197544Y-103542452D01*
X185082335Y-103456206D01*
X185082328Y-103456202D01*
X184947482Y-103405908D01*
X184947483Y-103405908D01*
X184887883Y-103399501D01*
X184887881Y-103399500D01*
X184887873Y-103399500D01*
X184887864Y-103399500D01*
X183192129Y-103399500D01*
X183192123Y-103399501D01*
X183132516Y-103405908D01*
X182997671Y-103456202D01*
X182997664Y-103456206D01*
X182882455Y-103542452D01*
X182882452Y-103542455D01*
X182796206Y-103657664D01*
X182796202Y-103657671D01*
X182745908Y-103792517D01*
X182739501Y-103852116D01*
X182739501Y-103852123D01*
X182739500Y-103852135D01*
X172640499Y-103852135D01*
X172640499Y-103852128D01*
X172634091Y-103792517D01*
X172583796Y-103657669D01*
X172583795Y-103657668D01*
X172583793Y-103657664D01*
X172497547Y-103542455D01*
X172497544Y-103542452D01*
X172382335Y-103456206D01*
X172382328Y-103456202D01*
X172247482Y-103405908D01*
X172247483Y-103405908D01*
X172187883Y-103399501D01*
X172187881Y-103399500D01*
X172187873Y-103399500D01*
X172187864Y-103399500D01*
X170492129Y-103399500D01*
X170492123Y-103399501D01*
X170432516Y-103405908D01*
X170297671Y-103456202D01*
X170297664Y-103456206D01*
X170182455Y-103542452D01*
X170182452Y-103542455D01*
X170096206Y-103657664D01*
X170096202Y-103657671D01*
X170045908Y-103792517D01*
X170039501Y-103852116D01*
X170039501Y-103852123D01*
X170039500Y-103852135D01*
X112260500Y-103852135D01*
X112260500Y-96519999D01*
X112944341Y-96519999D01*
X112944341Y-96520000D01*
X112964936Y-96755403D01*
X112964938Y-96755413D01*
X113026094Y-96983655D01*
X113026096Y-96983659D01*
X113026097Y-96983663D01*
X113125965Y-97197830D01*
X113125967Y-97197834D01*
X113234281Y-97352521D01*
X113261501Y-97391396D01*
X113261506Y-97391402D01*
X113383430Y-97513326D01*
X113416915Y-97574649D01*
X113411931Y-97644341D01*
X113370059Y-97700274D01*
X113339083Y-97717189D01*
X113207669Y-97766203D01*
X113207664Y-97766206D01*
X113092455Y-97852452D01*
X113092452Y-97852455D01*
X113006206Y-97967664D01*
X113006202Y-97967671D01*
X112955908Y-98102517D01*
X112949501Y-98162116D01*
X112949501Y-98162123D01*
X112949500Y-98162135D01*
X112949500Y-99957870D01*
X112949501Y-99957876D01*
X112955908Y-100017483D01*
X113006202Y-100152328D01*
X113006206Y-100152335D01*
X113092452Y-100267544D01*
X113092455Y-100267547D01*
X113207664Y-100353793D01*
X113207671Y-100353797D01*
X113342517Y-100404091D01*
X113342516Y-100404091D01*
X113349444Y-100404835D01*
X113402127Y-100410500D01*
X115197872Y-100410499D01*
X115257483Y-100404091D01*
X115392331Y-100353796D01*
X115507546Y-100267546D01*
X115551278Y-100209127D01*
X115607210Y-100167258D01*
X115676901Y-100162274D01*
X115738224Y-100195759D01*
X115904339Y-100361874D01*
X115904349Y-100361885D01*
X115908679Y-100366215D01*
X115908680Y-100366216D01*
X116020484Y-100478020D01*
X116107295Y-100528139D01*
X116107297Y-100528141D01*
X116138181Y-100545972D01*
X116157415Y-100557077D01*
X116310142Y-100598000D01*
X116310143Y-100598000D01*
X125823069Y-100598000D01*
X125890108Y-100617685D01*
X125935863Y-100670489D01*
X125945807Y-100739647D01*
X125942335Y-100755934D01*
X125913603Y-100856915D01*
X125913602Y-100856917D01*
X125894785Y-101059999D01*
X125894785Y-101060000D01*
X125913602Y-101263082D01*
X125969417Y-101459247D01*
X125969422Y-101459260D01*
X126060327Y-101641821D01*
X126183237Y-101804581D01*
X126333958Y-101941980D01*
X126333960Y-101941982D01*
X126433141Y-102003392D01*
X126507363Y-102049348D01*
X126697544Y-102123024D01*
X126898024Y-102160500D01*
X126898026Y-102160500D01*
X127101974Y-102160500D01*
X127101976Y-102160500D01*
X127302456Y-102123024D01*
X127492637Y-102049348D01*
X127666041Y-101941981D01*
X127816764Y-101804579D01*
X127939673Y-101641821D01*
X128030582Y-101459250D01*
X128086397Y-101263083D01*
X128105215Y-101060000D01*
X128086397Y-100856917D01*
X128068246Y-100793123D01*
X128057665Y-100755934D01*
X128058252Y-100686067D01*
X128096518Y-100627608D01*
X128160316Y-100599118D01*
X128176931Y-100598000D01*
X136035788Y-100598000D01*
X136102827Y-100617685D01*
X136148582Y-100670489D01*
X136158526Y-100739647D01*
X136137363Y-100793123D01*
X136029432Y-100947265D01*
X136029431Y-100947267D01*
X135933261Y-101153502D01*
X135933258Y-101153511D01*
X135874366Y-101373302D01*
X135874364Y-101373313D01*
X135854532Y-101599998D01*
X135854532Y-101600001D01*
X135874364Y-101826686D01*
X135874366Y-101826697D01*
X135933258Y-102046488D01*
X135933261Y-102046497D01*
X136029431Y-102252732D01*
X136029432Y-102252734D01*
X136159954Y-102439141D01*
X136320858Y-102600045D01*
X136320861Y-102600047D01*
X136507266Y-102730568D01*
X136713504Y-102826739D01*
X136933308Y-102885635D01*
X137095230Y-102899801D01*
X137159998Y-102905468D01*
X137160000Y-102905468D01*
X137160002Y-102905468D01*
X137216807Y-102900498D01*
X137386692Y-102885635D01*
X137606496Y-102826739D01*
X137812734Y-102730568D01*
X137999139Y-102600047D01*
X138160047Y-102439139D01*
X138290568Y-102252734D01*
X138386739Y-102046496D01*
X138445635Y-101826692D01*
X138450272Y-101773692D01*
X138475725Y-101708623D01*
X138532316Y-101667645D01*
X138573800Y-101660500D01*
X146332688Y-101660500D01*
X146399727Y-101680185D01*
X146431642Y-101709773D01*
X146503237Y-101804581D01*
X146653958Y-101941980D01*
X146653960Y-101941982D01*
X146753141Y-102003392D01*
X146827363Y-102049348D01*
X147017544Y-102123024D01*
X147218024Y-102160500D01*
X147218026Y-102160500D01*
X147421974Y-102160500D01*
X147421976Y-102160500D01*
X147622456Y-102123024D01*
X147812637Y-102049348D01*
X147986041Y-101941981D01*
X148136764Y-101804579D01*
X148208358Y-101709773D01*
X148264467Y-101668137D01*
X148307312Y-101660500D01*
X155538203Y-101660500D01*
X155605242Y-101680185D01*
X155625884Y-101696819D01*
X155893439Y-101964374D01*
X155893449Y-101964385D01*
X155897779Y-101968715D01*
X155897780Y-101968716D01*
X156009584Y-102080520D01*
X156083204Y-102123024D01*
X156117500Y-102142825D01*
X156165716Y-102193392D01*
X156179500Y-102250211D01*
X156179500Y-102447869D01*
X156179501Y-102447876D01*
X156185908Y-102507483D01*
X156236202Y-102642328D01*
X156236206Y-102642335D01*
X156322452Y-102757544D01*
X156322455Y-102757547D01*
X156437664Y-102843793D01*
X156437671Y-102843797D01*
X156572517Y-102894091D01*
X156572516Y-102894091D01*
X156579444Y-102894835D01*
X156632127Y-102900500D01*
X158327872Y-102900499D01*
X158387483Y-102894091D01*
X158522331Y-102843796D01*
X158637546Y-102757546D01*
X158723796Y-102642331D01*
X158774091Y-102507483D01*
X158780500Y-102447873D01*
X158780499Y-100752128D01*
X158774091Y-100692517D01*
X158771685Y-100686067D01*
X158723797Y-100557671D01*
X158723793Y-100557664D01*
X158637547Y-100442455D01*
X158637544Y-100442452D01*
X158522335Y-100356206D01*
X158522328Y-100356202D01*
X158387482Y-100305908D01*
X158387483Y-100305908D01*
X158327883Y-100299501D01*
X158327881Y-100299500D01*
X158327873Y-100299500D01*
X158327864Y-100299500D01*
X156632129Y-100299500D01*
X156632123Y-100299501D01*
X156572516Y-100305908D01*
X156437671Y-100356202D01*
X156437664Y-100356206D01*
X156322455Y-100442452D01*
X156281949Y-100496561D01*
X156226015Y-100538431D01*
X156182203Y-100541564D01*
X156182203Y-100545972D01*
X156182202Y-100545972D01*
X156169217Y-100542492D01*
X156156323Y-100543415D01*
X156120705Y-100529649D01*
X156120225Y-100529372D01*
X156120228Y-100529365D01*
X156120200Y-100529358D01*
X156070085Y-100500423D01*
X155917357Y-100459499D01*
X155759243Y-100459499D01*
X155751647Y-100459499D01*
X155751631Y-100459500D01*
X148307312Y-100459500D01*
X148240273Y-100439815D01*
X148208358Y-100410227D01*
X148136762Y-100315418D01*
X147986042Y-100178019D01*
X147968661Y-100167258D01*
X147965704Y-100165426D01*
X147919069Y-100113401D01*
X147907964Y-100044419D01*
X147935916Y-99980385D01*
X147965703Y-99954573D01*
X147986041Y-99941981D01*
X148136764Y-99804579D01*
X148259673Y-99641821D01*
X148350582Y-99459250D01*
X148406397Y-99263083D01*
X148425215Y-99060000D01*
X148406397Y-98856917D01*
X148350582Y-98660750D01*
X148259673Y-98478179D01*
X148136764Y-98315421D01*
X148136762Y-98315418D01*
X147986041Y-98178019D01*
X147986039Y-98178017D01*
X147812642Y-98070655D01*
X147812635Y-98070651D01*
X147717546Y-98033814D01*
X147622456Y-97996976D01*
X147421976Y-97959500D01*
X147218024Y-97959500D01*
X147017544Y-97996976D01*
X147017541Y-97996976D01*
X147017541Y-97996977D01*
X146827364Y-98070651D01*
X146827357Y-98070655D01*
X146653960Y-98178017D01*
X146653958Y-98178019D01*
X146503237Y-98315418D01*
X146380327Y-98478178D01*
X146289422Y-98660739D01*
X146289417Y-98660752D01*
X146233602Y-98856917D01*
X146214785Y-99059999D01*
X146214785Y-99060000D01*
X146231122Y-99236309D01*
X146217707Y-99304879D01*
X146195334Y-99335430D01*
X146170085Y-99360680D01*
X146108762Y-99394166D01*
X146082402Y-99397000D01*
X128210009Y-99397000D01*
X128142970Y-99377315D01*
X128097215Y-99324511D01*
X128086538Y-99261559D01*
X128105215Y-99060000D01*
X128105215Y-99059999D01*
X128086397Y-98856917D01*
X128030582Y-98660750D01*
X127939673Y-98478179D01*
X127816764Y-98315421D01*
X127816762Y-98315418D01*
X127666041Y-98178019D01*
X127666039Y-98178017D01*
X127492642Y-98070655D01*
X127492635Y-98070651D01*
X127397546Y-98033814D01*
X127302456Y-97996976D01*
X127101976Y-97959500D01*
X126898024Y-97959500D01*
X126898020Y-97959500D01*
X126836491Y-97971001D01*
X126766976Y-97963969D01*
X126726028Y-97936793D01*
X123211941Y-94422706D01*
X123178456Y-94361383D01*
X123179847Y-94302931D01*
X123180611Y-94300080D01*
X123205635Y-94206692D01*
X123225468Y-93980000D01*
X123205635Y-93753308D01*
X123199389Y-93729999D01*
X128261127Y-93729999D01*
X128261128Y-93730000D01*
X129224314Y-93730000D01*
X129219920Y-93734394D01*
X129167259Y-93825606D01*
X129140000Y-93927339D01*
X129140000Y-94032661D01*
X129167259Y-94134394D01*
X129219920Y-94225606D01*
X129224314Y-94230000D01*
X128261128Y-94230000D01*
X128313730Y-94426317D01*
X128313734Y-94426326D01*
X128409865Y-94632482D01*
X128540342Y-94818820D01*
X128701179Y-94979657D01*
X128887517Y-95110134D01*
X129093673Y-95206265D01*
X129093682Y-95206269D01*
X129289999Y-95258872D01*
X129290000Y-95258871D01*
X129290000Y-94295686D01*
X129294394Y-94300080D01*
X129385606Y-94352741D01*
X129487339Y-94380000D01*
X129592661Y-94380000D01*
X129694394Y-94352741D01*
X129785606Y-94300080D01*
X129790000Y-94295686D01*
X129790000Y-95258872D01*
X129986317Y-95206269D01*
X129986326Y-95206265D01*
X130192482Y-95110134D01*
X130378820Y-94979657D01*
X130539657Y-94818820D01*
X130670134Y-94632482D01*
X130766265Y-94426326D01*
X130766269Y-94426317D01*
X130818872Y-94230000D01*
X129855686Y-94230000D01*
X129860080Y-94225606D01*
X129912741Y-94134394D01*
X129940000Y-94032661D01*
X129940000Y-93927339D01*
X129912741Y-93825606D01*
X129860080Y-93734394D01*
X129855686Y-93730000D01*
X130818872Y-93730000D01*
X130818872Y-93729999D01*
X135881127Y-93729999D01*
X135881128Y-93730000D01*
X136844314Y-93730000D01*
X136839920Y-93734394D01*
X136787259Y-93825606D01*
X136760000Y-93927339D01*
X136760000Y-94032661D01*
X136787259Y-94134394D01*
X136839920Y-94225606D01*
X136844314Y-94230000D01*
X135881128Y-94230000D01*
X135933730Y-94426317D01*
X135933734Y-94426326D01*
X136029865Y-94632482D01*
X136160342Y-94818820D01*
X136321179Y-94979657D01*
X136507517Y-95110134D01*
X136713673Y-95206265D01*
X136713682Y-95206269D01*
X136909999Y-95258872D01*
X136910000Y-95258871D01*
X136910000Y-94295686D01*
X136914394Y-94300080D01*
X137005606Y-94352741D01*
X137107339Y-94380000D01*
X137212661Y-94380000D01*
X137314394Y-94352741D01*
X137405606Y-94300080D01*
X137410000Y-94295686D01*
X137410000Y-95258872D01*
X137606317Y-95206269D01*
X137606326Y-95206265D01*
X137812482Y-95110134D01*
X137998820Y-94979657D01*
X138159657Y-94818820D01*
X138290134Y-94632482D01*
X138386265Y-94426326D01*
X138386269Y-94426317D01*
X138438872Y-94230000D01*
X137475686Y-94230000D01*
X137480080Y-94225606D01*
X137532741Y-94134394D01*
X137560000Y-94032661D01*
X137560000Y-93927339D01*
X137532741Y-93825606D01*
X137480080Y-93734394D01*
X137475686Y-93730000D01*
X138438872Y-93730000D01*
X138438872Y-93729999D01*
X166361127Y-93729999D01*
X166361128Y-93730000D01*
X167324314Y-93730000D01*
X167319920Y-93734394D01*
X167267259Y-93825606D01*
X167240000Y-93927339D01*
X167240000Y-94032661D01*
X167267259Y-94134394D01*
X167319920Y-94225606D01*
X167324314Y-94230000D01*
X166361128Y-94230000D01*
X166413730Y-94426317D01*
X166413734Y-94426326D01*
X166509865Y-94632482D01*
X166640342Y-94818820D01*
X166801179Y-94979657D01*
X166987517Y-95110134D01*
X167193673Y-95206265D01*
X167193682Y-95206269D01*
X167389999Y-95258872D01*
X167390000Y-95258871D01*
X167390000Y-94295686D01*
X167394394Y-94300080D01*
X167485606Y-94352741D01*
X167587339Y-94380000D01*
X167692661Y-94380000D01*
X167794394Y-94352741D01*
X167885606Y-94300080D01*
X167890000Y-94295686D01*
X167890000Y-95258872D01*
X168086317Y-95206269D01*
X168086326Y-95206265D01*
X168292482Y-95110134D01*
X168478820Y-94979657D01*
X168639657Y-94818820D01*
X168770134Y-94632482D01*
X168866265Y-94426326D01*
X168866269Y-94426317D01*
X168918872Y-94230000D01*
X167955686Y-94230000D01*
X167960080Y-94225606D01*
X168012741Y-94134394D01*
X168040000Y-94032661D01*
X168040000Y-93979998D01*
X173954532Y-93979998D01*
X173954532Y-93980001D01*
X173974364Y-94206686D01*
X173974366Y-94206697D01*
X174033258Y-94426488D01*
X174033261Y-94426497D01*
X174129431Y-94632732D01*
X174129432Y-94632734D01*
X174259954Y-94819141D01*
X174420858Y-94980045D01*
X174420861Y-94980047D01*
X174607266Y-95110568D01*
X174813504Y-95206739D01*
X175033308Y-95265635D01*
X175195230Y-95279801D01*
X175259998Y-95285468D01*
X175260000Y-95285468D01*
X175260002Y-95285468D01*
X175316673Y-95280509D01*
X175486692Y-95265635D01*
X175706496Y-95206739D01*
X175912734Y-95110568D01*
X176099139Y-94980047D01*
X176260047Y-94819139D01*
X176390568Y-94632734D01*
X176486739Y-94426496D01*
X176545635Y-94206692D01*
X176565468Y-93980000D01*
X176565468Y-93979998D01*
X179034532Y-93979998D01*
X179034532Y-93980001D01*
X179054364Y-94206686D01*
X179054366Y-94206697D01*
X179113258Y-94426488D01*
X179113261Y-94426497D01*
X179209431Y-94632732D01*
X179209432Y-94632734D01*
X179339954Y-94819141D01*
X179500858Y-94980045D01*
X179500861Y-94980047D01*
X179687266Y-95110568D01*
X179893504Y-95206739D01*
X180113308Y-95265635D01*
X180275230Y-95279801D01*
X180339998Y-95285468D01*
X180340000Y-95285468D01*
X180340002Y-95285468D01*
X180396673Y-95280509D01*
X180566692Y-95265635D01*
X180786496Y-95206739D01*
X180992734Y-95110568D01*
X181179139Y-94980047D01*
X181340047Y-94819139D01*
X181470568Y-94632734D01*
X181566739Y-94426496D01*
X181625635Y-94206692D01*
X181645468Y-93980000D01*
X181625635Y-93753308D01*
X181619389Y-93729999D01*
X186681127Y-93729999D01*
X186681128Y-93730000D01*
X187644314Y-93730000D01*
X187639920Y-93734394D01*
X187587259Y-93825606D01*
X187560000Y-93927339D01*
X187560000Y-94032661D01*
X187587259Y-94134394D01*
X187639920Y-94225606D01*
X187644314Y-94230000D01*
X186681128Y-94230000D01*
X186733730Y-94426317D01*
X186733734Y-94426326D01*
X186829865Y-94632482D01*
X186960342Y-94818820D01*
X187121179Y-94979657D01*
X187307517Y-95110134D01*
X187513673Y-95206265D01*
X187513682Y-95206269D01*
X187709999Y-95258872D01*
X187710000Y-95258871D01*
X187710000Y-94295686D01*
X187714394Y-94300080D01*
X187805606Y-94352741D01*
X187907339Y-94380000D01*
X188012661Y-94380000D01*
X188114394Y-94352741D01*
X188205606Y-94300080D01*
X188210000Y-94295686D01*
X188210000Y-95258872D01*
X188406317Y-95206269D01*
X188406326Y-95206265D01*
X188612482Y-95110134D01*
X188798820Y-94979657D01*
X188959657Y-94818820D01*
X189090134Y-94632482D01*
X189186265Y-94426326D01*
X189186269Y-94426317D01*
X189238872Y-94230000D01*
X188275686Y-94230000D01*
X188280080Y-94225606D01*
X188332741Y-94134394D01*
X188360000Y-94032661D01*
X188360000Y-93927339D01*
X188332741Y-93825606D01*
X188280080Y-93734394D01*
X188275686Y-93730000D01*
X189238872Y-93730000D01*
X189238872Y-93729999D01*
X189186269Y-93533682D01*
X189186265Y-93533673D01*
X189090134Y-93327517D01*
X188959657Y-93141179D01*
X188798820Y-92980342D01*
X188612482Y-92849865D01*
X188406328Y-92753734D01*
X188210000Y-92701127D01*
X188210000Y-93664314D01*
X188205606Y-93659920D01*
X188114394Y-93607259D01*
X188012661Y-93580000D01*
X187907339Y-93580000D01*
X187805606Y-93607259D01*
X187714394Y-93659920D01*
X187710000Y-93664314D01*
X187710000Y-92701127D01*
X187513671Y-92753734D01*
X187307517Y-92849865D01*
X187121179Y-92980342D01*
X186960342Y-93141179D01*
X186829865Y-93327517D01*
X186733734Y-93533673D01*
X186733730Y-93533682D01*
X186681127Y-93729999D01*
X181619389Y-93729999D01*
X181566739Y-93533504D01*
X181470568Y-93327266D01*
X181340047Y-93140861D01*
X181340045Y-93140858D01*
X181179141Y-92979954D01*
X180992734Y-92849432D01*
X180992732Y-92849431D01*
X180786497Y-92753261D01*
X180786488Y-92753258D01*
X180566697Y-92694366D01*
X180566693Y-92694365D01*
X180566692Y-92694365D01*
X180566691Y-92694364D01*
X180566686Y-92694364D01*
X180340002Y-92674532D01*
X180339998Y-92674532D01*
X180113313Y-92694364D01*
X180113302Y-92694366D01*
X179893511Y-92753258D01*
X179893502Y-92753261D01*
X179687267Y-92849431D01*
X179687265Y-92849432D01*
X179500858Y-92979954D01*
X179339954Y-93140858D01*
X179209432Y-93327265D01*
X179209431Y-93327267D01*
X179113261Y-93533502D01*
X179113258Y-93533511D01*
X179054366Y-93753302D01*
X179054364Y-93753313D01*
X179034532Y-93979998D01*
X176565468Y-93979998D01*
X176545635Y-93753308D01*
X176486739Y-93533504D01*
X176390568Y-93327266D01*
X176260047Y-93140861D01*
X176260045Y-93140858D01*
X176099141Y-92979954D01*
X175912734Y-92849432D01*
X175912732Y-92849431D01*
X175706497Y-92753261D01*
X175706488Y-92753258D01*
X175486697Y-92694366D01*
X175486693Y-92694365D01*
X175486692Y-92694365D01*
X175486691Y-92694364D01*
X175486686Y-92694364D01*
X175260002Y-92674532D01*
X175259998Y-92674532D01*
X175033313Y-92694364D01*
X175033302Y-92694366D01*
X174813511Y-92753258D01*
X174813502Y-92753261D01*
X174607267Y-92849431D01*
X174607265Y-92849432D01*
X174420858Y-92979954D01*
X174259954Y-93140858D01*
X174129432Y-93327265D01*
X174129431Y-93327267D01*
X174033261Y-93533502D01*
X174033258Y-93533511D01*
X173974366Y-93753302D01*
X173974364Y-93753313D01*
X173954532Y-93979998D01*
X168040000Y-93979998D01*
X168040000Y-93927339D01*
X168012741Y-93825606D01*
X167960080Y-93734394D01*
X167955686Y-93730000D01*
X168918872Y-93730000D01*
X168918872Y-93729999D01*
X168866269Y-93533682D01*
X168866265Y-93533673D01*
X168770134Y-93327517D01*
X168639657Y-93141179D01*
X168478820Y-92980342D01*
X168292482Y-92849865D01*
X168086328Y-92753734D01*
X167890000Y-92701127D01*
X167890000Y-93664314D01*
X167885606Y-93659920D01*
X167794394Y-93607259D01*
X167692661Y-93580000D01*
X167587339Y-93580000D01*
X167485606Y-93607259D01*
X167394394Y-93659920D01*
X167390000Y-93664314D01*
X167390000Y-92701127D01*
X167193671Y-92753734D01*
X166987517Y-92849865D01*
X166801179Y-92980342D01*
X166640342Y-93141179D01*
X166509865Y-93327517D01*
X166413734Y-93533673D01*
X166413730Y-93533682D01*
X166361127Y-93729999D01*
X138438872Y-93729999D01*
X138386269Y-93533682D01*
X138386265Y-93533673D01*
X138290134Y-93327517D01*
X138159657Y-93141179D01*
X137998820Y-92980342D01*
X137812482Y-92849865D01*
X137606328Y-92753734D01*
X137410000Y-92701127D01*
X137410000Y-93664314D01*
X137405606Y-93659920D01*
X137314394Y-93607259D01*
X137212661Y-93580000D01*
X137107339Y-93580000D01*
X137005606Y-93607259D01*
X136914394Y-93659920D01*
X136910000Y-93664314D01*
X136910000Y-92701127D01*
X136713671Y-92753734D01*
X136507517Y-92849865D01*
X136321179Y-92980342D01*
X136160342Y-93141179D01*
X136029865Y-93327517D01*
X135933734Y-93533673D01*
X135933730Y-93533682D01*
X135881127Y-93729999D01*
X130818872Y-93729999D01*
X130766269Y-93533682D01*
X130766265Y-93533673D01*
X130670134Y-93327517D01*
X130539657Y-93141179D01*
X130378820Y-92980342D01*
X130192482Y-92849865D01*
X129986328Y-92753734D01*
X129790000Y-92701127D01*
X129790000Y-93664314D01*
X129785606Y-93659920D01*
X129694394Y-93607259D01*
X129592661Y-93580000D01*
X129487339Y-93580000D01*
X129385606Y-93607259D01*
X129294394Y-93659920D01*
X129290000Y-93664314D01*
X129290000Y-92701127D01*
X129093671Y-92753734D01*
X128887517Y-92849865D01*
X128701179Y-92980342D01*
X128540342Y-93141179D01*
X128409865Y-93327517D01*
X128313734Y-93533673D01*
X128313730Y-93533682D01*
X128261127Y-93729999D01*
X123199389Y-93729999D01*
X123146739Y-93533504D01*
X123050568Y-93327266D01*
X122920047Y-93140861D01*
X122920045Y-93140858D01*
X122759141Y-92979954D01*
X122572734Y-92849432D01*
X122572732Y-92849431D01*
X122366497Y-92753261D01*
X122366488Y-92753258D01*
X122146697Y-92694366D01*
X122146693Y-92694365D01*
X122146692Y-92694365D01*
X122146691Y-92694364D01*
X122146686Y-92694364D01*
X121920002Y-92674532D01*
X121919998Y-92674532D01*
X121693313Y-92694364D01*
X121693302Y-92694366D01*
X121473511Y-92753258D01*
X121473502Y-92753261D01*
X121267267Y-92849431D01*
X121267265Y-92849432D01*
X121080858Y-92979954D01*
X120919954Y-93140858D01*
X120789432Y-93327265D01*
X120789431Y-93327267D01*
X120693261Y-93533502D01*
X120693258Y-93533511D01*
X120634366Y-93753302D01*
X120634364Y-93753313D01*
X120614532Y-93979998D01*
X120614532Y-93980001D01*
X120634364Y-94206686D01*
X120634366Y-94206697D01*
X120693258Y-94426488D01*
X120693261Y-94426497D01*
X120789431Y-94632732D01*
X120789432Y-94632734D01*
X120919954Y-94819141D01*
X121080858Y-94980045D01*
X121080861Y-94980047D01*
X121267266Y-95110568D01*
X121473504Y-95206739D01*
X121693308Y-95265635D01*
X121855230Y-95279801D01*
X121919998Y-95285468D01*
X121920000Y-95285468D01*
X121920002Y-95285468D01*
X121976673Y-95280509D01*
X122146692Y-95265635D01*
X122242932Y-95239847D01*
X122312781Y-95241510D01*
X122362706Y-95271941D01*
X125875332Y-98784567D01*
X125908817Y-98845890D01*
X125911122Y-98883689D01*
X125894785Y-99059998D01*
X125894785Y-99060000D01*
X125913462Y-99261559D01*
X125900047Y-99330129D01*
X125851690Y-99380560D01*
X125789991Y-99397000D01*
X116689297Y-99397000D01*
X116622258Y-99377315D01*
X116601616Y-99360681D01*
X115939290Y-98698355D01*
X115939288Y-98698352D01*
X115820417Y-98579481D01*
X115820416Y-98579480D01*
X115733604Y-98529360D01*
X115733604Y-98529358D01*
X115733599Y-98529357D01*
X115722047Y-98522687D01*
X115712495Y-98517172D01*
X115664281Y-98466602D01*
X115650499Y-98409787D01*
X115650499Y-98162129D01*
X115650498Y-98162123D01*
X115650497Y-98162116D01*
X115644091Y-98102517D01*
X115632207Y-98070655D01*
X115593797Y-97967671D01*
X115593793Y-97967664D01*
X115507547Y-97852455D01*
X115507544Y-97852452D01*
X115392335Y-97766206D01*
X115392328Y-97766202D01*
X115260917Y-97717189D01*
X115204983Y-97675318D01*
X115180566Y-97609853D01*
X115195418Y-97541580D01*
X115216563Y-97513332D01*
X115338495Y-97391401D01*
X115474035Y-97197830D01*
X115573903Y-96983663D01*
X115635063Y-96755408D01*
X115655659Y-96520000D01*
X115635063Y-96284592D01*
X115573903Y-96056337D01*
X115474035Y-95842171D01*
X115338495Y-95648599D01*
X115338494Y-95648597D01*
X115171402Y-95481506D01*
X115171395Y-95481501D01*
X114977834Y-95345967D01*
X114977830Y-95345965D01*
X114977828Y-95345964D01*
X114763663Y-95246097D01*
X114763659Y-95246096D01*
X114763655Y-95246094D01*
X114535413Y-95184938D01*
X114535403Y-95184936D01*
X114300001Y-95164341D01*
X114299999Y-95164341D01*
X114064596Y-95184936D01*
X114064586Y-95184938D01*
X113836344Y-95246094D01*
X113836335Y-95246098D01*
X113622171Y-95345964D01*
X113622169Y-95345965D01*
X113428597Y-95481505D01*
X113261505Y-95648597D01*
X113125965Y-95842169D01*
X113125964Y-95842171D01*
X113026098Y-96056335D01*
X113026094Y-96056344D01*
X112964938Y-96284586D01*
X112964936Y-96284596D01*
X112944341Y-96519999D01*
X112260500Y-96519999D01*
X112260500Y-86359998D01*
X120614532Y-86359998D01*
X120614532Y-86360001D01*
X120634364Y-86586686D01*
X120634366Y-86586697D01*
X120693258Y-86806488D01*
X120693261Y-86806497D01*
X120789431Y-87012732D01*
X120789432Y-87012734D01*
X120919954Y-87199141D01*
X121080858Y-87360045D01*
X121080861Y-87360047D01*
X121267266Y-87490568D01*
X121473504Y-87586739D01*
X121693308Y-87645635D01*
X121855230Y-87659801D01*
X121919998Y-87665468D01*
X121920000Y-87665468D01*
X121920002Y-87665468D01*
X121982511Y-87659999D01*
X122146692Y-87645635D01*
X122366496Y-87586739D01*
X122572734Y-87490568D01*
X122759139Y-87360047D01*
X122920047Y-87199139D01*
X123050568Y-87012734D01*
X123146739Y-86806496D01*
X123205635Y-86586692D01*
X123225468Y-86360000D01*
X123205635Y-86133308D01*
X123146739Y-85913504D01*
X123050568Y-85707266D01*
X122920047Y-85520861D01*
X122920045Y-85520858D01*
X122911342Y-85512155D01*
X128240000Y-85512155D01*
X128240000Y-86110000D01*
X129224314Y-86110000D01*
X129219920Y-86114394D01*
X129167259Y-86205606D01*
X129140000Y-86307339D01*
X129140000Y-86412661D01*
X129167259Y-86514394D01*
X129219920Y-86605606D01*
X129224314Y-86610000D01*
X128240000Y-86610000D01*
X128240000Y-87207844D01*
X128246401Y-87267372D01*
X128246403Y-87267379D01*
X128296645Y-87402086D01*
X128296649Y-87402093D01*
X128382809Y-87517187D01*
X128382812Y-87517190D01*
X128497906Y-87603350D01*
X128497913Y-87603354D01*
X128632620Y-87653596D01*
X128632627Y-87653598D01*
X128692155Y-87659999D01*
X128692172Y-87660000D01*
X129290000Y-87660000D01*
X129290000Y-86675686D01*
X129294394Y-86680080D01*
X129385606Y-86732741D01*
X129487339Y-86760000D01*
X129592661Y-86760000D01*
X129694394Y-86732741D01*
X129785606Y-86680080D01*
X129790000Y-86675686D01*
X129790000Y-87660000D01*
X130387828Y-87660000D01*
X130387844Y-87659999D01*
X130447372Y-87653598D01*
X130447379Y-87653596D01*
X130582086Y-87603354D01*
X130582093Y-87603350D01*
X130697187Y-87517190D01*
X130697190Y-87517187D01*
X130783350Y-87402093D01*
X130783354Y-87402086D01*
X130823578Y-87294240D01*
X134579311Y-87294240D01*
X134667585Y-87348897D01*
X134857678Y-87422539D01*
X135058072Y-87460000D01*
X135261928Y-87460000D01*
X135462322Y-87422539D01*
X135652412Y-87348899D01*
X135652416Y-87348897D01*
X135740686Y-87294241D01*
X135740686Y-87294240D01*
X136579311Y-87294240D01*
X136667585Y-87348897D01*
X136857678Y-87422539D01*
X137058072Y-87460000D01*
X137261928Y-87460000D01*
X137462322Y-87422539D01*
X137652412Y-87348899D01*
X137652416Y-87348897D01*
X137740686Y-87294241D01*
X137740686Y-87294240D01*
X137160001Y-86713553D01*
X137160000Y-86713553D01*
X136579311Y-87294240D01*
X135740686Y-87294240D01*
X135160001Y-86713553D01*
X135160000Y-86713553D01*
X134579311Y-87294240D01*
X130823578Y-87294240D01*
X130833596Y-87267379D01*
X130833598Y-87267372D01*
X130839999Y-87207844D01*
X130840000Y-87207827D01*
X130840000Y-86610000D01*
X129855686Y-86610000D01*
X129860080Y-86605606D01*
X129912741Y-86514394D01*
X129940000Y-86412661D01*
X129940000Y-86359999D01*
X134055287Y-86359999D01*
X134055287Y-86360000D01*
X134074096Y-86562989D01*
X134074097Y-86562992D01*
X134129883Y-86759063D01*
X134129886Y-86759069D01*
X134220751Y-86941551D01*
X134222533Y-86943911D01*
X134806446Y-86360000D01*
X134766950Y-86320504D01*
X134860000Y-86320504D01*
X134860000Y-86399496D01*
X134880444Y-86475796D01*
X134919940Y-86544205D01*
X134975795Y-86600060D01*
X135044204Y-86639556D01*
X135120504Y-86660000D01*
X135199496Y-86660000D01*
X135275796Y-86639556D01*
X135344205Y-86600060D01*
X135400060Y-86544205D01*
X135439556Y-86475796D01*
X135460000Y-86399496D01*
X135460000Y-86360000D01*
X135513553Y-86360000D01*
X136097465Y-86943912D01*
X136151483Y-86940169D01*
X136168646Y-86940170D01*
X136222533Y-86943911D01*
X136806446Y-86360000D01*
X136806446Y-86359999D01*
X136766951Y-86320504D01*
X136860000Y-86320504D01*
X136860000Y-86399496D01*
X136880444Y-86475796D01*
X136919940Y-86544205D01*
X136975795Y-86600060D01*
X137044204Y-86639556D01*
X137120504Y-86660000D01*
X137199496Y-86660000D01*
X137275796Y-86639556D01*
X137344205Y-86600060D01*
X137400060Y-86544205D01*
X137439556Y-86475796D01*
X137460000Y-86399496D01*
X137460000Y-86360000D01*
X137513553Y-86360000D01*
X138097465Y-86943912D01*
X138099247Y-86941553D01*
X138099248Y-86941551D01*
X138190113Y-86759069D01*
X138190116Y-86759063D01*
X138245902Y-86562992D01*
X138245903Y-86562989D01*
X138264713Y-86360000D01*
X138264713Y-86359999D01*
X138245903Y-86157010D01*
X138245902Y-86157007D01*
X138190116Y-85960936D01*
X138190113Y-85960930D01*
X138099249Y-85778449D01*
X138099247Y-85778447D01*
X138097465Y-85776087D01*
X137513553Y-86360000D01*
X137460000Y-86360000D01*
X137460000Y-86320504D01*
X137439556Y-86244204D01*
X137400060Y-86175795D01*
X137344205Y-86119940D01*
X137275796Y-86080444D01*
X137199496Y-86060000D01*
X137120504Y-86060000D01*
X137044204Y-86080444D01*
X136975795Y-86119940D01*
X136919940Y-86175795D01*
X136880444Y-86244204D01*
X136860000Y-86320504D01*
X136766951Y-86320504D01*
X136222532Y-85776086D01*
X136168656Y-85779833D01*
X136151471Y-85779835D01*
X136097465Y-85776087D01*
X135513553Y-86360000D01*
X135460000Y-86360000D01*
X135460000Y-86320504D01*
X135439556Y-86244204D01*
X135400060Y-86175795D01*
X135344205Y-86119940D01*
X135275796Y-86080444D01*
X135199496Y-86060000D01*
X135120504Y-86060000D01*
X135044204Y-86080444D01*
X134975795Y-86119940D01*
X134919940Y-86175795D01*
X134880444Y-86244204D01*
X134860000Y-86320504D01*
X134766950Y-86320504D01*
X134222533Y-85776087D01*
X134220755Y-85778442D01*
X134220754Y-85778443D01*
X134129886Y-85960930D01*
X134129883Y-85960936D01*
X134074097Y-86157007D01*
X134074096Y-86157010D01*
X134055287Y-86359999D01*
X129940000Y-86359999D01*
X129940000Y-86307339D01*
X129912741Y-86205606D01*
X129860080Y-86114394D01*
X129855686Y-86110000D01*
X130840000Y-86110000D01*
X130840000Y-85512172D01*
X130839999Y-85512155D01*
X130833598Y-85452627D01*
X130833596Y-85452620D01*
X130823577Y-85425758D01*
X134579311Y-85425758D01*
X135160000Y-86006446D01*
X135160001Y-86006446D01*
X135740687Y-85425758D01*
X136579311Y-85425758D01*
X137160000Y-86006446D01*
X137160001Y-86006446D01*
X137740687Y-85425758D01*
X137652413Y-85371101D01*
X137652411Y-85371100D01*
X137462321Y-85297460D01*
X137261928Y-85260000D01*
X137058072Y-85260000D01*
X136857678Y-85297460D01*
X136667588Y-85371100D01*
X136667581Y-85371104D01*
X136579312Y-85425757D01*
X136579311Y-85425758D01*
X135740687Y-85425758D01*
X135652413Y-85371101D01*
X135652411Y-85371100D01*
X135462321Y-85297460D01*
X135261928Y-85260000D01*
X135058072Y-85260000D01*
X134857678Y-85297460D01*
X134667588Y-85371100D01*
X134667581Y-85371104D01*
X134579312Y-85425757D01*
X134579311Y-85425758D01*
X130823577Y-85425758D01*
X130783354Y-85317913D01*
X130783350Y-85317906D01*
X130697190Y-85202812D01*
X130697187Y-85202809D01*
X130582093Y-85116649D01*
X130582086Y-85116645D01*
X130447379Y-85066403D01*
X130447372Y-85066401D01*
X130387844Y-85060000D01*
X129790000Y-85060000D01*
X129790000Y-86044314D01*
X129785606Y-86039920D01*
X129694394Y-85987259D01*
X129592661Y-85960000D01*
X129487339Y-85960000D01*
X129385606Y-85987259D01*
X129294394Y-86039920D01*
X129290000Y-86044314D01*
X129290000Y-85060000D01*
X128692155Y-85060000D01*
X128632627Y-85066401D01*
X128632620Y-85066403D01*
X128497913Y-85116645D01*
X128497906Y-85116649D01*
X128382812Y-85202809D01*
X128382809Y-85202812D01*
X128296649Y-85317906D01*
X128296645Y-85317913D01*
X128246403Y-85452620D01*
X128246401Y-85452627D01*
X128240000Y-85512155D01*
X122911342Y-85512155D01*
X122759141Y-85359954D01*
X122572734Y-85229432D01*
X122572732Y-85229431D01*
X122366497Y-85133261D01*
X122366488Y-85133258D01*
X122146697Y-85074366D01*
X122146693Y-85074365D01*
X122146692Y-85074365D01*
X122146691Y-85074364D01*
X122146686Y-85074364D01*
X121920002Y-85054532D01*
X121919998Y-85054532D01*
X121693313Y-85074364D01*
X121693302Y-85074366D01*
X121473511Y-85133258D01*
X121473502Y-85133261D01*
X121267267Y-85229431D01*
X121267265Y-85229432D01*
X121080858Y-85359954D01*
X120919954Y-85520858D01*
X120789432Y-85707265D01*
X120789431Y-85707267D01*
X120693261Y-85913502D01*
X120693258Y-85913511D01*
X120634366Y-86133302D01*
X120634364Y-86133313D01*
X120614532Y-86359998D01*
X112260500Y-86359998D01*
X112260500Y-82550000D01*
X171714659Y-82550000D01*
X171733975Y-82746129D01*
X171791188Y-82934733D01*
X171884086Y-83108532D01*
X171884090Y-83108539D01*
X172009116Y-83260883D01*
X172161460Y-83385909D01*
X172161467Y-83385913D01*
X172335266Y-83478811D01*
X172335269Y-83478811D01*
X172335273Y-83478814D01*
X172523868Y-83536024D01*
X172720000Y-83555341D01*
X172916132Y-83536024D01*
X173104727Y-83478814D01*
X173278538Y-83385910D01*
X173430883Y-83260883D01*
X173555910Y-83108538D01*
X173648814Y-82934727D01*
X173706024Y-82746132D01*
X173725341Y-82550000D01*
X173706024Y-82353868D01*
X173648814Y-82165273D01*
X173648811Y-82165269D01*
X173648811Y-82165266D01*
X173555913Y-81991467D01*
X173555909Y-81991460D01*
X173430883Y-81839116D01*
X173278539Y-81714090D01*
X173278532Y-81714086D01*
X173104733Y-81621188D01*
X173104727Y-81621186D01*
X172916132Y-81563976D01*
X172916129Y-81563975D01*
X172720000Y-81544659D01*
X172523870Y-81563975D01*
X172335266Y-81621188D01*
X172161467Y-81714086D01*
X172161460Y-81714090D01*
X172009116Y-81839116D01*
X171884090Y-81991460D01*
X171884086Y-81991467D01*
X171791188Y-82165266D01*
X171733975Y-82353870D01*
X171714659Y-82550000D01*
X112260500Y-82550000D01*
X112260500Y-80010000D01*
X171714659Y-80010000D01*
X171733975Y-80206129D01*
X171791188Y-80394733D01*
X171884086Y-80568532D01*
X171884090Y-80568539D01*
X172009116Y-80720883D01*
X172161460Y-80845909D01*
X172161467Y-80845913D01*
X172335266Y-80938811D01*
X172335269Y-80938811D01*
X172335273Y-80938814D01*
X172523868Y-80996024D01*
X172720000Y-81015341D01*
X172916132Y-80996024D01*
X173104727Y-80938814D01*
X173278538Y-80845910D01*
X173430883Y-80720883D01*
X173555910Y-80568538D01*
X173648814Y-80394727D01*
X173706024Y-80206132D01*
X173725341Y-80010000D01*
X173706024Y-79813868D01*
X173648814Y-79625273D01*
X173648811Y-79625269D01*
X173648811Y-79625266D01*
X173555913Y-79451467D01*
X173555909Y-79451460D01*
X173430883Y-79299116D01*
X173278539Y-79174090D01*
X173278532Y-79174086D01*
X173104733Y-79081188D01*
X173104727Y-79081186D01*
X172916132Y-79023976D01*
X172916129Y-79023975D01*
X172720000Y-79004659D01*
X172523870Y-79023975D01*
X172335266Y-79081188D01*
X172161467Y-79174086D01*
X172161460Y-79174090D01*
X172009116Y-79299116D01*
X171884090Y-79451460D01*
X171884086Y-79451467D01*
X171791188Y-79625266D01*
X171733975Y-79813870D01*
X171714659Y-80010000D01*
X112260500Y-80010000D01*
X112260500Y-71535654D01*
X127837798Y-71535654D01*
X127878723Y-71688385D01*
X127907658Y-71738500D01*
X127907659Y-71738504D01*
X127907660Y-71738504D01*
X127957779Y-71825314D01*
X127957781Y-71825317D01*
X128076649Y-71944185D01*
X128076655Y-71944190D01*
X128425646Y-72293181D01*
X128459131Y-72354504D01*
X128454147Y-72424196D01*
X128412278Y-72480127D01*
X128382453Y-72502454D01*
X128382452Y-72502455D01*
X128296206Y-72617664D01*
X128296202Y-72617671D01*
X128245908Y-72752517D01*
X128239501Y-72812116D01*
X128239500Y-72812135D01*
X128239500Y-74507870D01*
X128239501Y-74507876D01*
X128245908Y-74567483D01*
X128296202Y-74702328D01*
X128296206Y-74702335D01*
X128382452Y-74817544D01*
X128382455Y-74817547D01*
X128497664Y-74903793D01*
X128497671Y-74903797D01*
X128632517Y-74954091D01*
X128632516Y-74954091D01*
X128639444Y-74954835D01*
X128692127Y-74960500D01*
X130387872Y-74960499D01*
X130447483Y-74954091D01*
X130582331Y-74903796D01*
X130697546Y-74817546D01*
X130783796Y-74702331D01*
X130834091Y-74567483D01*
X130840500Y-74507873D01*
X130840500Y-73833600D01*
X130860185Y-73766561D01*
X130912989Y-73720806D01*
X130964500Y-73709600D01*
X141026340Y-73709600D01*
X141093379Y-73729285D01*
X141139134Y-73782089D01*
X141149811Y-73822159D01*
X141153602Y-73863082D01*
X141209417Y-74059247D01*
X141209422Y-74059260D01*
X141300327Y-74241821D01*
X141423237Y-74404581D01*
X141573958Y-74541980D01*
X141573960Y-74541982D01*
X141615146Y-74567483D01*
X141747363Y-74649348D01*
X141937544Y-74723024D01*
X142138024Y-74760500D01*
X142138026Y-74760500D01*
X142341974Y-74760500D01*
X142341976Y-74760500D01*
X142542456Y-74723024D01*
X142732637Y-74649348D01*
X142906041Y-74541981D01*
X143056764Y-74404579D01*
X143179673Y-74241821D01*
X143270582Y-74059250D01*
X143326397Y-73863083D01*
X143345215Y-73660000D01*
X143326397Y-73456917D01*
X143270582Y-73260750D01*
X143179673Y-73078179D01*
X143056764Y-72915421D01*
X143056762Y-72915418D01*
X142906042Y-72778020D01*
X142906041Y-72778019D01*
X142873488Y-72757863D01*
X142826853Y-72705835D01*
X142815592Y-72638145D01*
X142820685Y-72594239D01*
X142616445Y-72389999D01*
X171614785Y-72389999D01*
X171614785Y-72390000D01*
X171633602Y-72593082D01*
X171689417Y-72789247D01*
X171689422Y-72789260D01*
X171780327Y-72971821D01*
X171903237Y-73134581D01*
X172053958Y-73271980D01*
X172053960Y-73271982D01*
X172138360Y-73324240D01*
X172227363Y-73379348D01*
X172417544Y-73453024D01*
X172618024Y-73490500D01*
X172618026Y-73490500D01*
X172821974Y-73490500D01*
X172821976Y-73490500D01*
X173022456Y-73453024D01*
X173212637Y-73379348D01*
X173301640Y-73324240D01*
X174139311Y-73324240D01*
X174227585Y-73378897D01*
X174417678Y-73452539D01*
X174618072Y-73490000D01*
X174821928Y-73490000D01*
X175022322Y-73452539D01*
X175212412Y-73378899D01*
X175212416Y-73378897D01*
X175300686Y-73324241D01*
X175300686Y-73324240D01*
X174720001Y-72743553D01*
X174720000Y-72743553D01*
X174139311Y-73324240D01*
X173301640Y-73324240D01*
X173386041Y-73271981D01*
X173536764Y-73134579D01*
X173623794Y-73019333D01*
X173679903Y-72977696D01*
X173731338Y-72970357D01*
X173782533Y-72973911D01*
X174366446Y-72390000D01*
X174326950Y-72350504D01*
X174420000Y-72350504D01*
X174420000Y-72429496D01*
X174440444Y-72505796D01*
X174479940Y-72574205D01*
X174535795Y-72630060D01*
X174604204Y-72669556D01*
X174680504Y-72690000D01*
X174759496Y-72690000D01*
X174835796Y-72669556D01*
X174904205Y-72630060D01*
X174960060Y-72574205D01*
X174999556Y-72505796D01*
X175020000Y-72429496D01*
X175020000Y-72390000D01*
X175073553Y-72390000D01*
X175657465Y-72973912D01*
X175659247Y-72971553D01*
X175659248Y-72971551D01*
X175750113Y-72789069D01*
X175750116Y-72789063D01*
X175805902Y-72592992D01*
X175805903Y-72592989D01*
X175824713Y-72390000D01*
X175824713Y-72389999D01*
X179774785Y-72389999D01*
X179774785Y-72390000D01*
X179793602Y-72593082D01*
X179849417Y-72789247D01*
X179849422Y-72789260D01*
X179940327Y-72971821D01*
X180063237Y-73134581D01*
X180213958Y-73271980D01*
X180213960Y-73271982D01*
X180298360Y-73324240D01*
X180387363Y-73379348D01*
X180577544Y-73453024D01*
X180778024Y-73490500D01*
X180778026Y-73490500D01*
X180981974Y-73490500D01*
X180981976Y-73490500D01*
X181182456Y-73453024D01*
X181372637Y-73379348D01*
X181461640Y-73324240D01*
X182299311Y-73324240D01*
X182387585Y-73378897D01*
X182577678Y-73452539D01*
X182778072Y-73490000D01*
X182981928Y-73490000D01*
X183182322Y-73452539D01*
X183372412Y-73378899D01*
X183372416Y-73378897D01*
X183460686Y-73324241D01*
X183460686Y-73324240D01*
X182880001Y-72743553D01*
X182880000Y-72743553D01*
X182299311Y-73324240D01*
X181461640Y-73324240D01*
X181546041Y-73271981D01*
X181696764Y-73134579D01*
X181783794Y-73019333D01*
X181839903Y-72977696D01*
X181891338Y-72970357D01*
X181942533Y-72973911D01*
X182526446Y-72390000D01*
X182486950Y-72350504D01*
X182580000Y-72350504D01*
X182580000Y-72429496D01*
X182600444Y-72505796D01*
X182639940Y-72574205D01*
X182695795Y-72630060D01*
X182764204Y-72669556D01*
X182840504Y-72690000D01*
X182919496Y-72690000D01*
X182995796Y-72669556D01*
X183064205Y-72630060D01*
X183120060Y-72574205D01*
X183159556Y-72505796D01*
X183180000Y-72429496D01*
X183180000Y-72390000D01*
X183233553Y-72390000D01*
X183817465Y-72973912D01*
X183819247Y-72971553D01*
X183819248Y-72971551D01*
X183910113Y-72789069D01*
X183910116Y-72789063D01*
X183965902Y-72592992D01*
X183965903Y-72592989D01*
X183984713Y-72390000D01*
X183984713Y-72389999D01*
X183965903Y-72187010D01*
X183965902Y-72187007D01*
X183910116Y-71990936D01*
X183910113Y-71990930D01*
X183819249Y-71808449D01*
X183819247Y-71808447D01*
X183817465Y-71806087D01*
X183233553Y-72390000D01*
X183180000Y-72390000D01*
X183180000Y-72350504D01*
X183159556Y-72274204D01*
X183120060Y-72205795D01*
X183064205Y-72149940D01*
X182995796Y-72110444D01*
X182919496Y-72090000D01*
X182840504Y-72090000D01*
X182764204Y-72110444D01*
X182695795Y-72149940D01*
X182639940Y-72205795D01*
X182600444Y-72274204D01*
X182580000Y-72350504D01*
X182486950Y-72350504D01*
X181942532Y-71806086D01*
X181891352Y-71809645D01*
X181823108Y-71794658D01*
X181783797Y-71760671D01*
X181696762Y-71645418D01*
X181546041Y-71508019D01*
X181546039Y-71508017D01*
X181461637Y-71455758D01*
X182299311Y-71455758D01*
X182880000Y-72036446D01*
X182880001Y-72036446D01*
X183460687Y-71455758D01*
X183372413Y-71401101D01*
X183372411Y-71401100D01*
X183182321Y-71327460D01*
X182981928Y-71290000D01*
X182778072Y-71290000D01*
X182577678Y-71327460D01*
X182387588Y-71401100D01*
X182387581Y-71401104D01*
X182299312Y-71455757D01*
X182299311Y-71455758D01*
X181461637Y-71455758D01*
X181372642Y-71400655D01*
X181372635Y-71400651D01*
X181183705Y-71327460D01*
X181182456Y-71326976D01*
X180981976Y-71289500D01*
X180778024Y-71289500D01*
X180577544Y-71326976D01*
X180577541Y-71326976D01*
X180577541Y-71326977D01*
X180387364Y-71400651D01*
X180387357Y-71400655D01*
X180213960Y-71508017D01*
X180213958Y-71508019D01*
X180063237Y-71645418D01*
X179940327Y-71808178D01*
X179849422Y-71990739D01*
X179849417Y-71990752D01*
X179793602Y-72186917D01*
X179774785Y-72389999D01*
X175824713Y-72389999D01*
X175805903Y-72187010D01*
X175805902Y-72187007D01*
X175750116Y-71990936D01*
X175750113Y-71990930D01*
X175659249Y-71808449D01*
X175659247Y-71808447D01*
X175657465Y-71806087D01*
X175073553Y-72390000D01*
X175020000Y-72390000D01*
X175020000Y-72350504D01*
X174999556Y-72274204D01*
X174960060Y-72205795D01*
X174904205Y-72149940D01*
X174835796Y-72110444D01*
X174759496Y-72090000D01*
X174680504Y-72090000D01*
X174604204Y-72110444D01*
X174535795Y-72149940D01*
X174479940Y-72205795D01*
X174440444Y-72274204D01*
X174420000Y-72350504D01*
X174326950Y-72350504D01*
X173782532Y-71806086D01*
X173731352Y-71809645D01*
X173663108Y-71794658D01*
X173623797Y-71760671D01*
X173536762Y-71645418D01*
X173386041Y-71508019D01*
X173386039Y-71508017D01*
X173301637Y-71455758D01*
X174139311Y-71455758D01*
X174720000Y-72036446D01*
X174720001Y-72036446D01*
X175300687Y-71455758D01*
X175212413Y-71401101D01*
X175212411Y-71401100D01*
X175022321Y-71327460D01*
X174821928Y-71290000D01*
X174618072Y-71290000D01*
X174417678Y-71327460D01*
X174227588Y-71401100D01*
X174227581Y-71401104D01*
X174139312Y-71455757D01*
X174139311Y-71455758D01*
X173301637Y-71455758D01*
X173212642Y-71400655D01*
X173212635Y-71400651D01*
X173023705Y-71327460D01*
X173022456Y-71326976D01*
X172821976Y-71289500D01*
X172618024Y-71289500D01*
X172417544Y-71326976D01*
X172417541Y-71326976D01*
X172417541Y-71326977D01*
X172227364Y-71400651D01*
X172227357Y-71400655D01*
X172053960Y-71508017D01*
X172053958Y-71508019D01*
X171903237Y-71645418D01*
X171780327Y-71808178D01*
X171689422Y-71990739D01*
X171689417Y-71990752D01*
X171633602Y-72186917D01*
X171614785Y-72389999D01*
X142616445Y-72389999D01*
X142181300Y-71954854D01*
X142200504Y-71960000D01*
X142279496Y-71960000D01*
X142355796Y-71939556D01*
X142424205Y-71900060D01*
X142480060Y-71844205D01*
X142519556Y-71775796D01*
X142540000Y-71699496D01*
X142540000Y-71660000D01*
X142593553Y-71660000D01*
X143177465Y-72243912D01*
X143179247Y-72241553D01*
X143179248Y-72241551D01*
X143270113Y-72059069D01*
X143270116Y-72059063D01*
X143325902Y-71862992D01*
X143325903Y-71862989D01*
X143344713Y-71660000D01*
X143344713Y-71659999D01*
X143325903Y-71457010D01*
X143325902Y-71457007D01*
X143270116Y-71260936D01*
X143270113Y-71260930D01*
X143179249Y-71078449D01*
X143179247Y-71078447D01*
X143177465Y-71076087D01*
X142593553Y-71660000D01*
X142540000Y-71660000D01*
X142540000Y-71620504D01*
X142519556Y-71544204D01*
X142480060Y-71475795D01*
X142424205Y-71419940D01*
X142355796Y-71380444D01*
X142279496Y-71360000D01*
X142200504Y-71360000D01*
X142181301Y-71365145D01*
X142240000Y-71306447D01*
X142820687Y-70725758D01*
X142732413Y-70671101D01*
X142732411Y-70671100D01*
X142542321Y-70597460D01*
X142341928Y-70560000D01*
X142138071Y-70560000D01*
X142076184Y-70571568D01*
X142006669Y-70564536D01*
X141951991Y-70521038D01*
X141929509Y-70454884D01*
X141929400Y-70449679D01*
X141929400Y-66711197D01*
X141949085Y-66644158D01*
X141965719Y-66623516D01*
X141966029Y-66623206D01*
X142027352Y-66589721D01*
X142076493Y-66588998D01*
X142138024Y-66600500D01*
X142138026Y-66600500D01*
X142341974Y-66600500D01*
X142341976Y-66600500D01*
X142542456Y-66563024D01*
X142732637Y-66489348D01*
X142906041Y-66381981D01*
X143056764Y-66244579D01*
X143179673Y-66081821D01*
X143270582Y-65899250D01*
X143326397Y-65703083D01*
X143345215Y-65500000D01*
X143326397Y-65296917D01*
X143270582Y-65100750D01*
X143179673Y-64918179D01*
X143056764Y-64755421D01*
X143056762Y-64755418D01*
X142906042Y-64618020D01*
X142906041Y-64618019D01*
X142873488Y-64597863D01*
X142826853Y-64545835D01*
X142815592Y-64478145D01*
X142820685Y-64434239D01*
X142240001Y-63853553D01*
X142240000Y-63853553D01*
X141659311Y-64434240D01*
X141664405Y-64478148D01*
X141652577Y-64547009D01*
X141606511Y-64597863D01*
X141573956Y-64618020D01*
X141423237Y-64755418D01*
X141300327Y-64918178D01*
X141209422Y-65100739D01*
X141209417Y-65100752D01*
X141153602Y-65296917D01*
X141134785Y-65499999D01*
X141134785Y-65500000D01*
X141151122Y-65676309D01*
X141137707Y-65744879D01*
X141115333Y-65775431D01*
X140960186Y-65930578D01*
X140848381Y-66042382D01*
X140848379Y-66042385D01*
X140802537Y-66121788D01*
X140802535Y-66121790D01*
X140769325Y-66179309D01*
X140769323Y-66179312D01*
X140751835Y-66244579D01*
X140728399Y-66332043D01*
X140728399Y-66332045D01*
X140728399Y-66500146D01*
X140728400Y-66500159D01*
X140728400Y-72384600D01*
X140708715Y-72451639D01*
X140655911Y-72497394D01*
X140604400Y-72508600D01*
X130747027Y-72508600D01*
X130679988Y-72488915D01*
X130672724Y-72483872D01*
X130582331Y-72416204D01*
X130582328Y-72416202D01*
X130447482Y-72365908D01*
X130447483Y-72365908D01*
X130387883Y-72359501D01*
X130387881Y-72359500D01*
X130387873Y-72359500D01*
X130387865Y-72359500D01*
X130190212Y-72359500D01*
X130123173Y-72339815D01*
X130082827Y-72297503D01*
X130070640Y-72276396D01*
X130070637Y-72276392D01*
X130051885Y-72243912D01*
X130020520Y-72189584D01*
X129908716Y-72077780D01*
X129908715Y-72077779D01*
X129904385Y-72073449D01*
X129904374Y-72073439D01*
X129503571Y-71672636D01*
X129470086Y-71611313D01*
X129475070Y-71541621D01*
X129516942Y-71485688D01*
X129580445Y-71461427D01*
X129766599Y-71445141D01*
X129766610Y-71445139D01*
X129986317Y-71386269D01*
X129986331Y-71386264D01*
X130192478Y-71290136D01*
X130265471Y-71239024D01*
X129586447Y-70560000D01*
X129592661Y-70560000D01*
X129694394Y-70532741D01*
X129785606Y-70480080D01*
X129860080Y-70405606D01*
X129912741Y-70314394D01*
X129940000Y-70212661D01*
X129940000Y-70206447D01*
X130619024Y-70885471D01*
X130670136Y-70812478D01*
X130766264Y-70606331D01*
X130766269Y-70606317D01*
X130825139Y-70386610D01*
X130825141Y-70386599D01*
X130844966Y-70160002D01*
X130844966Y-70159997D01*
X130825141Y-69933400D01*
X130825139Y-69933389D01*
X130766269Y-69713682D01*
X130766264Y-69713668D01*
X130670136Y-69507521D01*
X130670132Y-69507513D01*
X130619025Y-69434526D01*
X129940000Y-70113551D01*
X129940000Y-70107339D01*
X129912741Y-70005606D01*
X129860080Y-69914394D01*
X129785606Y-69839920D01*
X129694394Y-69787259D01*
X129592661Y-69760000D01*
X129586447Y-69760000D01*
X130265472Y-69080974D01*
X130192478Y-69029863D01*
X129986331Y-68933735D01*
X129986317Y-68933730D01*
X129766610Y-68874860D01*
X129766599Y-68874858D01*
X129540002Y-68855034D01*
X129539998Y-68855034D01*
X129313400Y-68874858D01*
X129313389Y-68874860D01*
X129194893Y-68906611D01*
X129125043Y-68904948D01*
X129067181Y-68865785D01*
X129039677Y-68801557D01*
X129038800Y-68786836D01*
X129038800Y-63499999D01*
X141135287Y-63499999D01*
X141135287Y-63500000D01*
X141154096Y-63702989D01*
X141154097Y-63702992D01*
X141209883Y-63899063D01*
X141209886Y-63899069D01*
X141300751Y-64081551D01*
X141302533Y-64083911D01*
X141886446Y-63500000D01*
X141846950Y-63460504D01*
X141940000Y-63460504D01*
X141940000Y-63539496D01*
X141960444Y-63615796D01*
X141999940Y-63684205D01*
X142055795Y-63740060D01*
X142124204Y-63779556D01*
X142200504Y-63800000D01*
X142279496Y-63800000D01*
X142355796Y-63779556D01*
X142424205Y-63740060D01*
X142480060Y-63684205D01*
X142519556Y-63615796D01*
X142540000Y-63539496D01*
X142540000Y-63500000D01*
X142593553Y-63500000D01*
X143177465Y-64083912D01*
X143179247Y-64081553D01*
X143179248Y-64081551D01*
X143270113Y-63899069D01*
X143270116Y-63899063D01*
X143325902Y-63702992D01*
X143325903Y-63702989D01*
X143344713Y-63500000D01*
X143344713Y-63499999D01*
X143325903Y-63297010D01*
X143325902Y-63297007D01*
X143270116Y-63100936D01*
X143270113Y-63100930D01*
X143179249Y-62918449D01*
X143179247Y-62918447D01*
X143177465Y-62916087D01*
X142593553Y-63500000D01*
X142540000Y-63500000D01*
X142540000Y-63460504D01*
X142519556Y-63384204D01*
X142480060Y-63315795D01*
X142424205Y-63259940D01*
X142355796Y-63220444D01*
X142279496Y-63200000D01*
X142200504Y-63200000D01*
X142124204Y-63220444D01*
X142055795Y-63259940D01*
X141999940Y-63315795D01*
X141960444Y-63384204D01*
X141940000Y-63460504D01*
X141846950Y-63460504D01*
X141302533Y-62916087D01*
X141300755Y-62918442D01*
X141300754Y-62918443D01*
X141209886Y-63100930D01*
X141209883Y-63100936D01*
X141154097Y-63297007D01*
X141154096Y-63297010D01*
X141135287Y-63499999D01*
X129038800Y-63499999D01*
X129038800Y-63293162D01*
X129058485Y-63226123D01*
X129111289Y-63180368D01*
X129180447Y-63170424D01*
X129194895Y-63173388D01*
X129313385Y-63205138D01*
X129313400Y-63205141D01*
X129539998Y-63224966D01*
X129540002Y-63224966D01*
X129766599Y-63205141D01*
X129766610Y-63205139D01*
X129986317Y-63146269D01*
X129986331Y-63146264D01*
X130192478Y-63050136D01*
X130265471Y-62999024D01*
X129586447Y-62320000D01*
X129592661Y-62320000D01*
X129694394Y-62292741D01*
X129785606Y-62240080D01*
X129860080Y-62165606D01*
X129912741Y-62074394D01*
X129940000Y-61972661D01*
X129940000Y-61966447D01*
X130619024Y-62645471D01*
X130670136Y-62572478D01*
X130673270Y-62565758D01*
X141659311Y-62565758D01*
X142240000Y-63146446D01*
X142240001Y-63146446D01*
X142820687Y-62565758D01*
X142732413Y-62511101D01*
X142732411Y-62511100D01*
X142542321Y-62437460D01*
X142341928Y-62400000D01*
X142138072Y-62400000D01*
X141937678Y-62437460D01*
X141747588Y-62511100D01*
X141747581Y-62511104D01*
X141659312Y-62565757D01*
X141659311Y-62565758D01*
X130673270Y-62565758D01*
X130766264Y-62366331D01*
X130766269Y-62366317D01*
X130825139Y-62146610D01*
X130825141Y-62146599D01*
X130844966Y-61920002D01*
X130844966Y-61919997D01*
X130825141Y-61693400D01*
X130825139Y-61693389D01*
X130766269Y-61473682D01*
X130766264Y-61473668D01*
X130670136Y-61267521D01*
X130670132Y-61267513D01*
X130619025Y-61194526D01*
X129940000Y-61873551D01*
X129940000Y-61867339D01*
X129912741Y-61765606D01*
X129860080Y-61674394D01*
X129785606Y-61599920D01*
X129694394Y-61547259D01*
X129592661Y-61520000D01*
X129586447Y-61520000D01*
X130265472Y-60840974D01*
X130192478Y-60789863D01*
X129986331Y-60693735D01*
X129986317Y-60693730D01*
X129766610Y-60634860D01*
X129766599Y-60634858D01*
X129580444Y-60618572D01*
X129515375Y-60593120D01*
X129474396Y-60536529D01*
X129470518Y-60466767D01*
X129503568Y-60407366D01*
X129908713Y-60002221D01*
X129908716Y-60002220D01*
X130020520Y-59890416D01*
X130070639Y-59803604D01*
X130082831Y-59782487D01*
X130133403Y-59734278D01*
X130190212Y-59720499D01*
X130387871Y-59720499D01*
X130387872Y-59720499D01*
X130447483Y-59714091D01*
X130582331Y-59663796D01*
X130697546Y-59577546D01*
X130783796Y-59462331D01*
X130834091Y-59327483D01*
X130840500Y-59267873D01*
X130840499Y-57572128D01*
X130834091Y-57512517D01*
X130783796Y-57377669D01*
X130783795Y-57377668D01*
X130783793Y-57377664D01*
X130697547Y-57262455D01*
X130697544Y-57262452D01*
X130582335Y-57176206D01*
X130582328Y-57176202D01*
X130447482Y-57125908D01*
X130447483Y-57125908D01*
X130387883Y-57119501D01*
X130387881Y-57119500D01*
X130387873Y-57119500D01*
X130387864Y-57119500D01*
X128692129Y-57119500D01*
X128692123Y-57119501D01*
X128632516Y-57125908D01*
X128497671Y-57176202D01*
X128497664Y-57176206D01*
X128382455Y-57262452D01*
X128382452Y-57262455D01*
X128296206Y-57377664D01*
X128296202Y-57377671D01*
X128245908Y-57512517D01*
X128239501Y-57572116D01*
X128239501Y-57572123D01*
X128239500Y-57572135D01*
X128239500Y-59267870D01*
X128239501Y-59267876D01*
X128245908Y-59327483D01*
X128296202Y-59462328D01*
X128296206Y-59462335D01*
X128382452Y-59577544D01*
X128382453Y-59577544D01*
X128382454Y-59577546D01*
X128402705Y-59592706D01*
X128412276Y-59599871D01*
X128454147Y-59655806D01*
X128459130Y-59725497D01*
X128425645Y-59786818D01*
X128069586Y-60142878D01*
X127957781Y-60254682D01*
X127957779Y-60254685D01*
X127907661Y-60341494D01*
X127907659Y-60341496D01*
X127878725Y-60391609D01*
X127878724Y-60391610D01*
X127878723Y-60391615D01*
X127837799Y-60544343D01*
X127837799Y-60544345D01*
X127837799Y-60712446D01*
X127837800Y-60712459D01*
X127837800Y-71369930D01*
X127837799Y-71369948D01*
X127837799Y-71535654D01*
X127837798Y-71535654D01*
X112260500Y-71535654D01*
X112260500Y-48259998D01*
X163794532Y-48259998D01*
X163794532Y-48260001D01*
X163814364Y-48486686D01*
X163814366Y-48486697D01*
X163873258Y-48706488D01*
X163873261Y-48706497D01*
X163969431Y-48912732D01*
X163969432Y-48912734D01*
X164099954Y-49099141D01*
X164260858Y-49260045D01*
X164260861Y-49260047D01*
X164447266Y-49390568D01*
X164653504Y-49486739D01*
X164873308Y-49545635D01*
X165035230Y-49559801D01*
X165099998Y-49565468D01*
X165100000Y-49565468D01*
X165100002Y-49565468D01*
X165156673Y-49560509D01*
X165326692Y-49545635D01*
X165422932Y-49519847D01*
X165492781Y-49521510D01*
X165542706Y-49551941D01*
X165744339Y-49753574D01*
X165744349Y-49753585D01*
X165748679Y-49757915D01*
X165748680Y-49757916D01*
X165860484Y-49869720D01*
X165936085Y-49913368D01*
X165997415Y-49948777D01*
X166150143Y-49989701D01*
X166150146Y-49989701D01*
X166315853Y-49989701D01*
X166315869Y-49989700D01*
X169942053Y-49989700D01*
X170009092Y-50009385D01*
X170054847Y-50062189D01*
X170064791Y-50131347D01*
X170035766Y-50194903D01*
X169976988Y-50232677D01*
X169974191Y-50233462D01*
X169957898Y-50237828D01*
X169948210Y-50240424D01*
X169948209Y-50240425D01*
X169898096Y-50269359D01*
X169898095Y-50269360D01*
X169854689Y-50294420D01*
X169811285Y-50319479D01*
X169811282Y-50319481D01*
X169699478Y-50431286D01*
X165542705Y-54588058D01*
X165481382Y-54621543D01*
X165422931Y-54620152D01*
X165326697Y-54594366D01*
X165326693Y-54594365D01*
X165326692Y-54594365D01*
X165326691Y-54594364D01*
X165326686Y-54594364D01*
X165100002Y-54574532D01*
X165099998Y-54574532D01*
X164873313Y-54594364D01*
X164873302Y-54594366D01*
X164653511Y-54653258D01*
X164653502Y-54653261D01*
X164447267Y-54749431D01*
X164447265Y-54749432D01*
X164260858Y-54879954D01*
X164099954Y-55040858D01*
X163969432Y-55227265D01*
X163969431Y-55227267D01*
X163873261Y-55433502D01*
X163873258Y-55433511D01*
X163814366Y-55653302D01*
X163814364Y-55653313D01*
X163794532Y-55879998D01*
X163794532Y-55880001D01*
X163814364Y-56106686D01*
X163814366Y-56106697D01*
X163873258Y-56326488D01*
X163873261Y-56326497D01*
X163969431Y-56532732D01*
X163969432Y-56532734D01*
X164099954Y-56719141D01*
X164260858Y-56880045D01*
X164260861Y-56880047D01*
X164447266Y-57010568D01*
X164653504Y-57106739D01*
X164873308Y-57165635D01*
X165035230Y-57179801D01*
X165099998Y-57185468D01*
X165100000Y-57185468D01*
X165100002Y-57185468D01*
X165156673Y-57180509D01*
X165326692Y-57165635D01*
X165546496Y-57106739D01*
X165752734Y-57010568D01*
X165939139Y-56880047D01*
X166100047Y-56719139D01*
X166230568Y-56532734D01*
X166326739Y-56326496D01*
X166385635Y-56106692D01*
X166405468Y-55880000D01*
X166405468Y-55879998D01*
X171414532Y-55879998D01*
X171414532Y-55880001D01*
X171434364Y-56106686D01*
X171434366Y-56106697D01*
X171493258Y-56326488D01*
X171493261Y-56326497D01*
X171589431Y-56532732D01*
X171589432Y-56532734D01*
X171719954Y-56719141D01*
X171880858Y-56880045D01*
X171880861Y-56880047D01*
X172067266Y-57010568D01*
X172273504Y-57106739D01*
X172493308Y-57165635D01*
X172655230Y-57179801D01*
X172719998Y-57185468D01*
X172720000Y-57185468D01*
X172720002Y-57185468D01*
X172776673Y-57180509D01*
X172946692Y-57165635D01*
X173166496Y-57106739D01*
X173372734Y-57010568D01*
X173559139Y-56880047D01*
X173720047Y-56719139D01*
X173850568Y-56532734D01*
X173946739Y-56326496D01*
X174005635Y-56106692D01*
X174025468Y-55880000D01*
X174005635Y-55653308D01*
X173946739Y-55433504D01*
X173850568Y-55227266D01*
X173720047Y-55040861D01*
X173720045Y-55040858D01*
X173559141Y-54879954D01*
X173372734Y-54749432D01*
X173372732Y-54749431D01*
X173166497Y-54653261D01*
X173166488Y-54653258D01*
X172946697Y-54594366D01*
X172946693Y-54594365D01*
X172946692Y-54594365D01*
X172946691Y-54594364D01*
X172946686Y-54594364D01*
X172720002Y-54574532D01*
X172719998Y-54574532D01*
X172493313Y-54594364D01*
X172493302Y-54594366D01*
X172273511Y-54653258D01*
X172273502Y-54653261D01*
X172067267Y-54749431D01*
X172067265Y-54749432D01*
X171880858Y-54879954D01*
X171719954Y-55040858D01*
X171589432Y-55227265D01*
X171589431Y-55227267D01*
X171493261Y-55433502D01*
X171493258Y-55433511D01*
X171434366Y-55653302D01*
X171434364Y-55653313D01*
X171414532Y-55879998D01*
X166405468Y-55879998D01*
X166385635Y-55653308D01*
X166365082Y-55576604D01*
X166359847Y-55557066D01*
X166361510Y-55487217D01*
X166391939Y-55437294D01*
X170392416Y-51436819D01*
X170453739Y-51403334D01*
X170480097Y-51400500D01*
X186670909Y-51400500D01*
X186737948Y-51420185D01*
X186783292Y-51472097D01*
X186785965Y-51477830D01*
X186785966Y-51477831D01*
X186921501Y-51671395D01*
X186921506Y-51671402D01*
X187088597Y-51838493D01*
X187088603Y-51838498D01*
X187274158Y-51968425D01*
X187317783Y-52023002D01*
X187324977Y-52092500D01*
X187293454Y-52154855D01*
X187274158Y-52171575D01*
X187088597Y-52301505D01*
X186921505Y-52468597D01*
X186785965Y-52662169D01*
X186785964Y-52662171D01*
X186686098Y-52876335D01*
X186686094Y-52876344D01*
X186624938Y-53104586D01*
X186624936Y-53104596D01*
X186604341Y-53339999D01*
X186604341Y-53340000D01*
X186624936Y-53575403D01*
X186624938Y-53575413D01*
X186686094Y-53803655D01*
X186686096Y-53803659D01*
X186686097Y-53803663D01*
X186785965Y-54017830D01*
X186785967Y-54017834D01*
X186921501Y-54211395D01*
X186921506Y-54211402D01*
X187088597Y-54378493D01*
X187088603Y-54378498D01*
X187274594Y-54508730D01*
X187318219Y-54563307D01*
X187325413Y-54632805D01*
X187293890Y-54695160D01*
X187274595Y-54711880D01*
X187088922Y-54841890D01*
X187088920Y-54841891D01*
X186921891Y-55008920D01*
X186921886Y-55008926D01*
X186786400Y-55202420D01*
X186786399Y-55202422D01*
X186686570Y-55416507D01*
X186686567Y-55416513D01*
X186629364Y-55629999D01*
X186629364Y-55630000D01*
X187526988Y-55630000D01*
X187494075Y-55687007D01*
X187460000Y-55814174D01*
X187460000Y-55945826D01*
X187494075Y-56072993D01*
X187526988Y-56130000D01*
X186629364Y-56130000D01*
X186686567Y-56343486D01*
X186686570Y-56343492D01*
X186786399Y-56557578D01*
X186921894Y-56751082D01*
X187088917Y-56918105D01*
X187282421Y-57053600D01*
X187496507Y-57153429D01*
X187496516Y-57153433D01*
X187710000Y-57210634D01*
X187710000Y-56313012D01*
X187767007Y-56345925D01*
X187894174Y-56380000D01*
X188025826Y-56380000D01*
X188152993Y-56345925D01*
X188210000Y-56313012D01*
X188210000Y-57210633D01*
X188423483Y-57153433D01*
X188423492Y-57153429D01*
X188637578Y-57053600D01*
X188831082Y-56918105D01*
X188998105Y-56751082D01*
X189133600Y-56557578D01*
X189233429Y-56343492D01*
X189233432Y-56343486D01*
X189290636Y-56130000D01*
X188393012Y-56130000D01*
X188425925Y-56072993D01*
X188460000Y-55945826D01*
X188460000Y-55814174D01*
X188425925Y-55687007D01*
X188393012Y-55630000D01*
X189290636Y-55630000D01*
X189290635Y-55629999D01*
X189233432Y-55416513D01*
X189233429Y-55416507D01*
X189133600Y-55202422D01*
X189133599Y-55202420D01*
X188998113Y-55008926D01*
X188998108Y-55008920D01*
X188831078Y-54841890D01*
X188645405Y-54711879D01*
X188601780Y-54657302D01*
X188594588Y-54587804D01*
X188626110Y-54525449D01*
X188645406Y-54508730D01*
X188831401Y-54378495D01*
X188998495Y-54211401D01*
X189134035Y-54017830D01*
X189233903Y-53803663D01*
X189295063Y-53575408D01*
X189315659Y-53340000D01*
X189295063Y-53104592D01*
X189233903Y-52876337D01*
X189134035Y-52662171D01*
X188998495Y-52468599D01*
X188998494Y-52468597D01*
X188831402Y-52301506D01*
X188831396Y-52301501D01*
X188645842Y-52171575D01*
X188602217Y-52116998D01*
X188595023Y-52047500D01*
X188626546Y-51985145D01*
X188645842Y-51968425D01*
X188668026Y-51952891D01*
X188831401Y-51838495D01*
X188998495Y-51671401D01*
X189134035Y-51477830D01*
X189233903Y-51263663D01*
X189295063Y-51035408D01*
X189315659Y-50800000D01*
X189295063Y-50564592D01*
X189233903Y-50336337D01*
X189134035Y-50122171D01*
X189134034Y-50122169D01*
X188998496Y-49928600D01*
X188939614Y-49869718D01*
X188876567Y-49806671D01*
X188843084Y-49745351D01*
X188848068Y-49675659D01*
X188889939Y-49619725D01*
X188920915Y-49602810D01*
X189052331Y-49553796D01*
X189167546Y-49467546D01*
X189253796Y-49352331D01*
X189304091Y-49217483D01*
X189310500Y-49157873D01*
X189310499Y-47362128D01*
X189304091Y-47302517D01*
X189253796Y-47167669D01*
X189253795Y-47167668D01*
X189253793Y-47167664D01*
X189167547Y-47052455D01*
X189167544Y-47052452D01*
X189052335Y-46966206D01*
X189052328Y-46966202D01*
X188917482Y-46915908D01*
X188917483Y-46915908D01*
X188857883Y-46909501D01*
X188857881Y-46909500D01*
X188857873Y-46909500D01*
X188857864Y-46909500D01*
X187062129Y-46909500D01*
X187062123Y-46909501D01*
X187002516Y-46915908D01*
X186867671Y-46966202D01*
X186867664Y-46966206D01*
X186752455Y-47052452D01*
X186752452Y-47052455D01*
X186666206Y-47167664D01*
X186666202Y-47167671D01*
X186615908Y-47302517D01*
X186609501Y-47362116D01*
X186609501Y-47362123D01*
X186609500Y-47362135D01*
X186609500Y-47609788D01*
X186589815Y-47676827D01*
X186547500Y-47717174D01*
X186526395Y-47729360D01*
X186482989Y-47754420D01*
X186439585Y-47779479D01*
X186439582Y-47779481D01*
X186327778Y-47891286D01*
X185466684Y-48752381D01*
X185405361Y-48785866D01*
X185379003Y-48788700D01*
X174086313Y-48788700D01*
X174019274Y-48769015D01*
X173973519Y-48716211D01*
X173963575Y-48647053D01*
X173966538Y-48632607D01*
X173985222Y-48562873D01*
X174005635Y-48486692D01*
X174025468Y-48260000D01*
X174005635Y-48033308D01*
X173946739Y-47813504D01*
X173850568Y-47607266D01*
X173720047Y-47420861D01*
X173720045Y-47420858D01*
X173559141Y-47259954D01*
X173372734Y-47129432D01*
X173372732Y-47129431D01*
X173166497Y-47033261D01*
X173166488Y-47033258D01*
X172946697Y-46974366D01*
X172946693Y-46974365D01*
X172946692Y-46974365D01*
X172946691Y-46974364D01*
X172946686Y-46974364D01*
X172720002Y-46954532D01*
X172719998Y-46954532D01*
X172493313Y-46974364D01*
X172493302Y-46974366D01*
X172273511Y-47033258D01*
X172273502Y-47033261D01*
X172067267Y-47129431D01*
X172067265Y-47129432D01*
X171880858Y-47259954D01*
X171719954Y-47420858D01*
X171589432Y-47607265D01*
X171589431Y-47607267D01*
X171493261Y-47813502D01*
X171493258Y-47813511D01*
X171434366Y-48033302D01*
X171434364Y-48033313D01*
X171414532Y-48259998D01*
X171414532Y-48260001D01*
X171434364Y-48486686D01*
X171434366Y-48486697D01*
X171473462Y-48632607D01*
X171471799Y-48702457D01*
X171432636Y-48760319D01*
X171368407Y-48787823D01*
X171353687Y-48788700D01*
X166529297Y-48788700D01*
X166462258Y-48769015D01*
X166441616Y-48752381D01*
X166391941Y-48702706D01*
X166358456Y-48641383D01*
X166359847Y-48582931D01*
X166385635Y-48486692D01*
X166405468Y-48260000D01*
X166385635Y-48033308D01*
X166326739Y-47813504D01*
X166230568Y-47607266D01*
X166100047Y-47420861D01*
X166100045Y-47420858D01*
X165939141Y-47259954D01*
X165752734Y-47129432D01*
X165752732Y-47129431D01*
X165546497Y-47033261D01*
X165546488Y-47033258D01*
X165326697Y-46974366D01*
X165326693Y-46974365D01*
X165326692Y-46974365D01*
X165326691Y-46974364D01*
X165326686Y-46974364D01*
X165100002Y-46954532D01*
X165099998Y-46954532D01*
X164873313Y-46974364D01*
X164873302Y-46974366D01*
X164653511Y-47033258D01*
X164653502Y-47033261D01*
X164447267Y-47129431D01*
X164447265Y-47129432D01*
X164260858Y-47259954D01*
X164099954Y-47420858D01*
X163969432Y-47607265D01*
X163969431Y-47607267D01*
X163873261Y-47813502D01*
X163873258Y-47813511D01*
X163814366Y-48033302D01*
X163814364Y-48033313D01*
X163794532Y-48259998D01*
X112260500Y-48259998D01*
X112260500Y-46344500D01*
X112280185Y-46277461D01*
X112332989Y-46231706D01*
X112384500Y-46220500D01*
X146397673Y-46220500D01*
X146398468Y-46220503D01*
G37*
%TD.AperFunction*%
%TD*%
M02*
