M48
; DRILL file {KiCad 8.0.4} date 2024-11-30T00:08:14+0900
; FORMAT={2:4/ absolute / inch / suppress leading zeros}
; #@! TF.CreationDate,2024-11-30T00:08:14+09:00
; #@! TF.GenerationSoftware,Kicad,Pcbnew,8.0.4
; #@! TF.FileFunction,MixedPlating,1,2
FMAT,2
INCH,TZ
; #@! TA.AperFunction,Plated,PTH,ViaDrill
T1C0.0118
; #@! TA.AperFunction,Plated,PTH,ComponentDrill
T2C0.0197
; #@! TA.AperFunction,Plated,PTH,ComponentDrill
T3C0.0236
; #@! TA.AperFunction,Plated,PTH,ComponentDrill
T4C0.0295
; #@! TA.AperFunction,Plated,PTH,ComponentDrill
T5C0.0315
; #@! TA.AperFunction,Plated,PTH,ComponentDrill
T6C0.0394
; #@! TA.AperFunction,NonPlated,NPTH,ComponentDrill
T7C0.0669
%
G90
G05
T1
X45472Y-19685
X45669Y-32283
X45866Y-41929
X66929Y-48622
X70276Y-22638
T2
X68000Y-31500
X68000Y-32500
T3
X50000Y-39000
X50000Y-39787
X50000Y-42000
X50000Y-42787
X53213Y-34000
X54000Y-34000
X54000Y-42000
X54000Y-42787
X56000Y-25000
X56000Y-25787
X56000Y-28213
X56000Y-29000
X58000Y-39000
X58000Y-39787
X58000Y-42000
X58000Y-42787
X68000Y-28500
X68787Y-28500
X71213Y-28500
X72000Y-28500
T4
X59000Y-46000
X59000Y-46500
X59000Y-47000
T5
X48000Y-34000
X48000Y-37000
X50000Y-45000
X50000Y-48000
X50000Y-50000
X51000Y-23000
X51000Y-24378
X51000Y-27622
X51000Y-29000
X51000Y-34000
X51000Y-37000
X51000Y-50000
X52000Y-50000
X53000Y-45000
X53000Y-48000
X54000Y-37000
X54000Y-40000
X55000Y-50000
X56000Y-45000
X56000Y-48000
X56000Y-50000
X57000Y-50000
X60000Y-50000
X62000Y-40000
X62000Y-43000
X62000Y-44500
X62000Y-47500
X63000Y-50000
X65000Y-19000
X65000Y-22000
X66000Y-37000
X67457Y-41220
X67457Y-42598
X68000Y-19000
X68000Y-22000
X69000Y-37000
X71000Y-37000
X72457Y-41220
X72457Y-42598
X74000Y-37000
T6
X45000Y-38000
X45000Y-39000
X74000Y-19000
X74000Y-20000
X74000Y-21000
X74000Y-22000
T7
X46457Y-47433
X46457Y-50189
X72000Y-47244
X72000Y-50000
M30
