%TF.GenerationSoftware,KiCad,Pcbnew,8.0.4*%
%TF.CreationDate,2024-11-30T00:07:58+09:00*%
%TF.ProjectId,radio_I2C,72616469-6f5f-4493-9243-2e6b69636164,rev?*%
%TF.SameCoordinates,Original*%
%TF.FileFunction,Legend,Top*%
%TF.FilePolarity,Positive*%
%FSLAX46Y46*%
G04 Gerber Fmt 4.6, Leading zero omitted, Abs format (unit mm)*
G04 Created by KiCad (PCBNEW 8.0.4) date 2024-11-30 00:07:58*
%MOMM*%
%LPD*%
G01*
G04 APERTURE LIST*
%ADD10C,0.100000*%
%ADD11C,0.150000*%
%ADD12C,0.120000*%
G04 APERTURE END LIST*
D10*
X170180000Y-67310000D02*
X187960000Y-67310000D01*
X187960000Y-85090000D01*
X170180000Y-85090000D01*
X170180000Y-67310000D01*
X152400000Y-96520000D02*
X162560000Y-96520000D01*
X111760000Y-81280000D02*
X147320000Y-81280000D01*
X162560000Y-96520000D02*
X162560000Y-132080000D01*
X152400000Y-86360000D02*
X152400000Y-93980000D01*
X165100000Y-88900000D02*
X190500000Y-88900000D01*
X190500000Y-132080000D01*
X165100000Y-132080000D01*
X165100000Y-88900000D01*
X152400000Y-93980000D02*
X152400000Y-96520000D01*
X147320000Y-86360000D02*
X152400000Y-86360000D01*
X147320000Y-81280000D02*
X147320000Y-86360000D01*
X127256265Y-80866704D02*
X127732455Y-80866704D01*
X127161027Y-81152419D02*
X127494360Y-80152419D01*
X127494360Y-80152419D02*
X127827693Y-81152419D01*
X128161027Y-81152419D02*
X128161027Y-80152419D01*
X128161027Y-80152419D02*
X128732455Y-81152419D01*
X128732455Y-81152419D02*
X128732455Y-80152419D01*
X129065789Y-80152419D02*
X129637217Y-80152419D01*
X129351503Y-81152419D02*
X129351503Y-80152419D01*
X129970551Y-80628609D02*
X130303884Y-80628609D01*
X130446741Y-81152419D02*
X129970551Y-81152419D01*
X129970551Y-81152419D02*
X129970551Y-80152419D01*
X129970551Y-80152419D02*
X130446741Y-80152419D01*
X130875313Y-81152419D02*
X130875313Y-80152419D01*
X130875313Y-80152419D02*
X131446741Y-81152419D01*
X131446741Y-81152419D02*
X131446741Y-80152419D01*
X131922932Y-81152419D02*
X131922932Y-80152419D01*
X131922932Y-80152419D02*
X132494360Y-81152419D01*
X132494360Y-81152419D02*
X132494360Y-80152419D01*
X132922932Y-80866704D02*
X133399122Y-80866704D01*
X132827694Y-81152419D02*
X133161027Y-80152419D01*
X133161027Y-80152419D02*
X133494360Y-81152419D01*
X175516265Y-88486704D02*
X175992455Y-88486704D01*
X175421027Y-88772419D02*
X175754360Y-87772419D01*
X175754360Y-87772419D02*
X176087693Y-88772419D01*
X176849598Y-88105752D02*
X176849598Y-88772419D01*
X176421027Y-88105752D02*
X176421027Y-88629561D01*
X176421027Y-88629561D02*
X176468646Y-88724800D01*
X176468646Y-88724800D02*
X176563884Y-88772419D01*
X176563884Y-88772419D02*
X176706741Y-88772419D01*
X176706741Y-88772419D02*
X176801979Y-88724800D01*
X176801979Y-88724800D02*
X176849598Y-88677180D01*
X177754360Y-88772419D02*
X177754360Y-87772419D01*
X177754360Y-88724800D02*
X177659122Y-88772419D01*
X177659122Y-88772419D02*
X177468646Y-88772419D01*
X177468646Y-88772419D02*
X177373408Y-88724800D01*
X177373408Y-88724800D02*
X177325789Y-88677180D01*
X177325789Y-88677180D02*
X177278170Y-88581942D01*
X177278170Y-88581942D02*
X177278170Y-88296228D01*
X177278170Y-88296228D02*
X177325789Y-88200990D01*
X177325789Y-88200990D02*
X177373408Y-88153371D01*
X177373408Y-88153371D02*
X177468646Y-88105752D01*
X177468646Y-88105752D02*
X177659122Y-88105752D01*
X177659122Y-88105752D02*
X177754360Y-88153371D01*
X178230551Y-88772419D02*
X178230551Y-88105752D01*
X178230551Y-87772419D02*
X178182932Y-87820038D01*
X178182932Y-87820038D02*
X178230551Y-87867657D01*
X178230551Y-87867657D02*
X178278170Y-87820038D01*
X178278170Y-87820038D02*
X178230551Y-87772419D01*
X178230551Y-87772419D02*
X178230551Y-87867657D01*
X178849598Y-88772419D02*
X178754360Y-88724800D01*
X178754360Y-88724800D02*
X178706741Y-88677180D01*
X178706741Y-88677180D02*
X178659122Y-88581942D01*
X178659122Y-88581942D02*
X178659122Y-88296228D01*
X178659122Y-88296228D02*
X178706741Y-88200990D01*
X178706741Y-88200990D02*
X178754360Y-88153371D01*
X178754360Y-88153371D02*
X178849598Y-88105752D01*
X178849598Y-88105752D02*
X178992455Y-88105752D01*
X178992455Y-88105752D02*
X179087693Y-88153371D01*
X179087693Y-88153371D02*
X179135312Y-88200990D01*
X179135312Y-88200990D02*
X179182931Y-88296228D01*
X179182931Y-88296228D02*
X179182931Y-88581942D01*
X179182931Y-88581942D02*
X179135312Y-88677180D01*
X179135312Y-88677180D02*
X179087693Y-88724800D01*
X179087693Y-88724800D02*
X178992455Y-88772419D01*
X178992455Y-88772419D02*
X178849598Y-88772419D01*
X178675312Y-67087180D02*
X178627693Y-67134800D01*
X178627693Y-67134800D02*
X178484836Y-67182419D01*
X178484836Y-67182419D02*
X178389598Y-67182419D01*
X178389598Y-67182419D02*
X178246741Y-67134800D01*
X178246741Y-67134800D02*
X178151503Y-67039561D01*
X178151503Y-67039561D02*
X178103884Y-66944323D01*
X178103884Y-66944323D02*
X178056265Y-66753847D01*
X178056265Y-66753847D02*
X178056265Y-66610990D01*
X178056265Y-66610990D02*
X178103884Y-66420514D01*
X178103884Y-66420514D02*
X178151503Y-66325276D01*
X178151503Y-66325276D02*
X178246741Y-66230038D01*
X178246741Y-66230038D02*
X178389598Y-66182419D01*
X178389598Y-66182419D02*
X178484836Y-66182419D01*
X178484836Y-66182419D02*
X178627693Y-66230038D01*
X178627693Y-66230038D02*
X178675312Y-66277657D01*
X179580074Y-67182419D02*
X179103884Y-67182419D01*
X179103884Y-67182419D02*
X179103884Y-66182419D01*
X179913408Y-67182419D02*
X179913408Y-66182419D01*
X180484836Y-67182419D02*
X180056265Y-66610990D01*
X180484836Y-66182419D02*
X179913408Y-66753847D01*
D11*
X189649580Y-106616666D02*
X189697200Y-106664285D01*
X189697200Y-106664285D02*
X189744819Y-106807142D01*
X189744819Y-106807142D02*
X189744819Y-106902380D01*
X189744819Y-106902380D02*
X189697200Y-107045237D01*
X189697200Y-107045237D02*
X189601961Y-107140475D01*
X189601961Y-107140475D02*
X189506723Y-107188094D01*
X189506723Y-107188094D02*
X189316247Y-107235713D01*
X189316247Y-107235713D02*
X189173390Y-107235713D01*
X189173390Y-107235713D02*
X188982914Y-107188094D01*
X188982914Y-107188094D02*
X188887676Y-107140475D01*
X188887676Y-107140475D02*
X188792438Y-107045237D01*
X188792438Y-107045237D02*
X188744819Y-106902380D01*
X188744819Y-106902380D02*
X188744819Y-106807142D01*
X188744819Y-106807142D02*
X188792438Y-106664285D01*
X188792438Y-106664285D02*
X188840057Y-106616666D01*
X189173390Y-106045237D02*
X189125771Y-106140475D01*
X189125771Y-106140475D02*
X189078152Y-106188094D01*
X189078152Y-106188094D02*
X188982914Y-106235713D01*
X188982914Y-106235713D02*
X188935295Y-106235713D01*
X188935295Y-106235713D02*
X188840057Y-106188094D01*
X188840057Y-106188094D02*
X188792438Y-106140475D01*
X188792438Y-106140475D02*
X188744819Y-106045237D01*
X188744819Y-106045237D02*
X188744819Y-105854761D01*
X188744819Y-105854761D02*
X188792438Y-105759523D01*
X188792438Y-105759523D02*
X188840057Y-105711904D01*
X188840057Y-105711904D02*
X188935295Y-105664285D01*
X188935295Y-105664285D02*
X188982914Y-105664285D01*
X188982914Y-105664285D02*
X189078152Y-105711904D01*
X189078152Y-105711904D02*
X189125771Y-105759523D01*
X189125771Y-105759523D02*
X189173390Y-105854761D01*
X189173390Y-105854761D02*
X189173390Y-106045237D01*
X189173390Y-106045237D02*
X189221009Y-106140475D01*
X189221009Y-106140475D02*
X189268628Y-106188094D01*
X189268628Y-106188094D02*
X189363866Y-106235713D01*
X189363866Y-106235713D02*
X189554342Y-106235713D01*
X189554342Y-106235713D02*
X189649580Y-106188094D01*
X189649580Y-106188094D02*
X189697200Y-106140475D01*
X189697200Y-106140475D02*
X189744819Y-106045237D01*
X189744819Y-106045237D02*
X189744819Y-105854761D01*
X189744819Y-105854761D02*
X189697200Y-105759523D01*
X189697200Y-105759523D02*
X189649580Y-105711904D01*
X189649580Y-105711904D02*
X189554342Y-105664285D01*
X189554342Y-105664285D02*
X189363866Y-105664285D01*
X189363866Y-105664285D02*
X189268628Y-105711904D01*
X189268628Y-105711904D02*
X189221009Y-105759523D01*
X189221009Y-105759523D02*
X189173390Y-105854761D01*
X109581666Y-100784819D02*
X109581666Y-101499104D01*
X109581666Y-101499104D02*
X109534047Y-101641961D01*
X109534047Y-101641961D02*
X109438809Y-101737200D01*
X109438809Y-101737200D02*
X109295952Y-101784819D01*
X109295952Y-101784819D02*
X109200714Y-101784819D01*
X110486428Y-101118152D02*
X110486428Y-101784819D01*
X110248333Y-100737200D02*
X110010238Y-101451485D01*
X110010238Y-101451485D02*
X110629285Y-101451485D01*
X124991905Y-88934819D02*
X124991905Y-87934819D01*
X124991905Y-87934819D02*
X125230000Y-87934819D01*
X125230000Y-87934819D02*
X125372857Y-87982438D01*
X125372857Y-87982438D02*
X125468095Y-88077676D01*
X125468095Y-88077676D02*
X125515714Y-88172914D01*
X125515714Y-88172914D02*
X125563333Y-88363390D01*
X125563333Y-88363390D02*
X125563333Y-88506247D01*
X125563333Y-88506247D02*
X125515714Y-88696723D01*
X125515714Y-88696723D02*
X125468095Y-88791961D01*
X125468095Y-88791961D02*
X125372857Y-88887200D01*
X125372857Y-88887200D02*
X125230000Y-88934819D01*
X125230000Y-88934819D02*
X124991905Y-88934819D01*
X125944286Y-88030057D02*
X125991905Y-87982438D01*
X125991905Y-87982438D02*
X126087143Y-87934819D01*
X126087143Y-87934819D02*
X126325238Y-87934819D01*
X126325238Y-87934819D02*
X126420476Y-87982438D01*
X126420476Y-87982438D02*
X126468095Y-88030057D01*
X126468095Y-88030057D02*
X126515714Y-88125295D01*
X126515714Y-88125295D02*
X126515714Y-88220533D01*
X126515714Y-88220533D02*
X126468095Y-88363390D01*
X126468095Y-88363390D02*
X125896667Y-88934819D01*
X125896667Y-88934819D02*
X126515714Y-88934819D01*
X129278095Y-88614819D02*
X129278095Y-87614819D01*
X129849523Y-88614819D02*
X129420952Y-88043390D01*
X129849523Y-87614819D02*
X129278095Y-88186247D01*
X140906667Y-124867200D02*
X141049524Y-124914819D01*
X141049524Y-124914819D02*
X141287619Y-124914819D01*
X141287619Y-124914819D02*
X141382857Y-124867200D01*
X141382857Y-124867200D02*
X141430476Y-124819580D01*
X141430476Y-124819580D02*
X141478095Y-124724342D01*
X141478095Y-124724342D02*
X141478095Y-124629104D01*
X141478095Y-124629104D02*
X141430476Y-124533866D01*
X141430476Y-124533866D02*
X141382857Y-124486247D01*
X141382857Y-124486247D02*
X141287619Y-124438628D01*
X141287619Y-124438628D02*
X141097143Y-124391009D01*
X141097143Y-124391009D02*
X141001905Y-124343390D01*
X141001905Y-124343390D02*
X140954286Y-124295771D01*
X140954286Y-124295771D02*
X140906667Y-124200533D01*
X140906667Y-124200533D02*
X140906667Y-124105295D01*
X140906667Y-124105295D02*
X140954286Y-124010057D01*
X140954286Y-124010057D02*
X141001905Y-123962438D01*
X141001905Y-123962438D02*
X141097143Y-123914819D01*
X141097143Y-123914819D02*
X141335238Y-123914819D01*
X141335238Y-123914819D02*
X141478095Y-123962438D01*
X141811429Y-123914819D02*
X142049524Y-124914819D01*
X142049524Y-124914819D02*
X142240000Y-124200533D01*
X142240000Y-124200533D02*
X142430476Y-124914819D01*
X142430476Y-124914819D02*
X142668572Y-123914819D01*
X143001905Y-124010057D02*
X143049524Y-123962438D01*
X143049524Y-123962438D02*
X143144762Y-123914819D01*
X143144762Y-123914819D02*
X143382857Y-123914819D01*
X143382857Y-123914819D02*
X143478095Y-123962438D01*
X143478095Y-123962438D02*
X143525714Y-124010057D01*
X143525714Y-124010057D02*
X143573333Y-124105295D01*
X143573333Y-124105295D02*
X143573333Y-124200533D01*
X143573333Y-124200533D02*
X143525714Y-124343390D01*
X143525714Y-124343390D02*
X142954286Y-124914819D01*
X142954286Y-124914819D02*
X143573333Y-124914819D01*
X173553333Y-68999580D02*
X173505714Y-69047200D01*
X173505714Y-69047200D02*
X173362857Y-69094819D01*
X173362857Y-69094819D02*
X173267619Y-69094819D01*
X173267619Y-69094819D02*
X173124762Y-69047200D01*
X173124762Y-69047200D02*
X173029524Y-68951961D01*
X173029524Y-68951961D02*
X172981905Y-68856723D01*
X172981905Y-68856723D02*
X172934286Y-68666247D01*
X172934286Y-68666247D02*
X172934286Y-68523390D01*
X172934286Y-68523390D02*
X172981905Y-68332914D01*
X172981905Y-68332914D02*
X173029524Y-68237676D01*
X173029524Y-68237676D02*
X173124762Y-68142438D01*
X173124762Y-68142438D02*
X173267619Y-68094819D01*
X173267619Y-68094819D02*
X173362857Y-68094819D01*
X173362857Y-68094819D02*
X173505714Y-68142438D01*
X173505714Y-68142438D02*
X173553333Y-68190057D01*
X174410476Y-68094819D02*
X174220000Y-68094819D01*
X174220000Y-68094819D02*
X174124762Y-68142438D01*
X174124762Y-68142438D02*
X174077143Y-68190057D01*
X174077143Y-68190057D02*
X173981905Y-68332914D01*
X173981905Y-68332914D02*
X173934286Y-68523390D01*
X173934286Y-68523390D02*
X173934286Y-68904342D01*
X173934286Y-68904342D02*
X173981905Y-68999580D01*
X173981905Y-68999580D02*
X174029524Y-69047200D01*
X174029524Y-69047200D02*
X174124762Y-69094819D01*
X174124762Y-69094819D02*
X174315238Y-69094819D01*
X174315238Y-69094819D02*
X174410476Y-69047200D01*
X174410476Y-69047200D02*
X174458095Y-68999580D01*
X174458095Y-68999580D02*
X174505714Y-68904342D01*
X174505714Y-68904342D02*
X174505714Y-68666247D01*
X174505714Y-68666247D02*
X174458095Y-68571009D01*
X174458095Y-68571009D02*
X174410476Y-68523390D01*
X174410476Y-68523390D02*
X174315238Y-68475771D01*
X174315238Y-68475771D02*
X174124762Y-68475771D01*
X174124762Y-68475771D02*
X174029524Y-68523390D01*
X174029524Y-68523390D02*
X173981905Y-68571009D01*
X173981905Y-68571009D02*
X173934286Y-68666247D01*
X181713333Y-68999580D02*
X181665714Y-69047200D01*
X181665714Y-69047200D02*
X181522857Y-69094819D01*
X181522857Y-69094819D02*
X181427619Y-69094819D01*
X181427619Y-69094819D02*
X181284762Y-69047200D01*
X181284762Y-69047200D02*
X181189524Y-68951961D01*
X181189524Y-68951961D02*
X181141905Y-68856723D01*
X181141905Y-68856723D02*
X181094286Y-68666247D01*
X181094286Y-68666247D02*
X181094286Y-68523390D01*
X181094286Y-68523390D02*
X181141905Y-68332914D01*
X181141905Y-68332914D02*
X181189524Y-68237676D01*
X181189524Y-68237676D02*
X181284762Y-68142438D01*
X181284762Y-68142438D02*
X181427619Y-68094819D01*
X181427619Y-68094819D02*
X181522857Y-68094819D01*
X181522857Y-68094819D02*
X181665714Y-68142438D01*
X181665714Y-68142438D02*
X181713333Y-68190057D01*
X182618095Y-68094819D02*
X182141905Y-68094819D01*
X182141905Y-68094819D02*
X182094286Y-68571009D01*
X182094286Y-68571009D02*
X182141905Y-68523390D01*
X182141905Y-68523390D02*
X182237143Y-68475771D01*
X182237143Y-68475771D02*
X182475238Y-68475771D01*
X182475238Y-68475771D02*
X182570476Y-68523390D01*
X182570476Y-68523390D02*
X182618095Y-68571009D01*
X182618095Y-68571009D02*
X182665714Y-68666247D01*
X182665714Y-68666247D02*
X182665714Y-68904342D01*
X182665714Y-68904342D02*
X182618095Y-68999580D01*
X182618095Y-68999580D02*
X182570476Y-69047200D01*
X182570476Y-69047200D02*
X182475238Y-69094819D01*
X182475238Y-69094819D02*
X182237143Y-69094819D01*
X182237143Y-69094819D02*
X182141905Y-69047200D01*
X182141905Y-69047200D02*
X182094286Y-68999580D01*
X135149580Y-60336666D02*
X135197200Y-60384285D01*
X135197200Y-60384285D02*
X135244819Y-60527142D01*
X135244819Y-60527142D02*
X135244819Y-60622380D01*
X135244819Y-60622380D02*
X135197200Y-60765237D01*
X135197200Y-60765237D02*
X135101961Y-60860475D01*
X135101961Y-60860475D02*
X135006723Y-60908094D01*
X135006723Y-60908094D02*
X134816247Y-60955713D01*
X134816247Y-60955713D02*
X134673390Y-60955713D01*
X134673390Y-60955713D02*
X134482914Y-60908094D01*
X134482914Y-60908094D02*
X134387676Y-60860475D01*
X134387676Y-60860475D02*
X134292438Y-60765237D01*
X134292438Y-60765237D02*
X134244819Y-60622380D01*
X134244819Y-60622380D02*
X134244819Y-60527142D01*
X134244819Y-60527142D02*
X134292438Y-60384285D01*
X134292438Y-60384285D02*
X134340057Y-60336666D01*
X135244819Y-59860475D02*
X135244819Y-59669999D01*
X135244819Y-59669999D02*
X135197200Y-59574761D01*
X135197200Y-59574761D02*
X135149580Y-59527142D01*
X135149580Y-59527142D02*
X135006723Y-59431904D01*
X135006723Y-59431904D02*
X134816247Y-59384285D01*
X134816247Y-59384285D02*
X134435295Y-59384285D01*
X134435295Y-59384285D02*
X134340057Y-59431904D01*
X134340057Y-59431904D02*
X134292438Y-59479523D01*
X134292438Y-59479523D02*
X134244819Y-59574761D01*
X134244819Y-59574761D02*
X134244819Y-59765237D01*
X134244819Y-59765237D02*
X134292438Y-59860475D01*
X134292438Y-59860475D02*
X134340057Y-59908094D01*
X134340057Y-59908094D02*
X134435295Y-59955713D01*
X134435295Y-59955713D02*
X134673390Y-59955713D01*
X134673390Y-59955713D02*
X134768628Y-59908094D01*
X134768628Y-59908094D02*
X134816247Y-59860475D01*
X134816247Y-59860475D02*
X134863866Y-59765237D01*
X134863866Y-59765237D02*
X134863866Y-59574761D01*
X134863866Y-59574761D02*
X134816247Y-59479523D01*
X134816247Y-59479523D02*
X134768628Y-59431904D01*
X134768628Y-59431904D02*
X134673390Y-59384285D01*
X192011666Y-45444819D02*
X192011666Y-46159104D01*
X192011666Y-46159104D02*
X191964047Y-46301961D01*
X191964047Y-46301961D02*
X191868809Y-46397200D01*
X191868809Y-46397200D02*
X191725952Y-46444819D01*
X191725952Y-46444819D02*
X191630714Y-46444819D01*
X193011666Y-46444819D02*
X192440238Y-46444819D01*
X192725952Y-46444819D02*
X192725952Y-45444819D01*
X192725952Y-45444819D02*
X192630714Y-45587676D01*
X192630714Y-45587676D02*
X192535476Y-45682914D01*
X192535476Y-45682914D02*
X192440238Y-45730533D01*
X175243809Y-84278628D02*
X175243809Y-84754819D01*
X174910476Y-83754819D02*
X175243809Y-84278628D01*
X175243809Y-84278628D02*
X175577142Y-83754819D01*
X176434285Y-84754819D02*
X175862857Y-84754819D01*
X176148571Y-84754819D02*
X176148571Y-83754819D01*
X176148571Y-83754819D02*
X176053333Y-83897676D01*
X176053333Y-83897676D02*
X175958095Y-83992914D01*
X175958095Y-83992914D02*
X175862857Y-84040533D01*
X133769580Y-107846666D02*
X133817200Y-107894285D01*
X133817200Y-107894285D02*
X133864819Y-108037142D01*
X133864819Y-108037142D02*
X133864819Y-108132380D01*
X133864819Y-108132380D02*
X133817200Y-108275237D01*
X133817200Y-108275237D02*
X133721961Y-108370475D01*
X133721961Y-108370475D02*
X133626723Y-108418094D01*
X133626723Y-108418094D02*
X133436247Y-108465713D01*
X133436247Y-108465713D02*
X133293390Y-108465713D01*
X133293390Y-108465713D02*
X133102914Y-108418094D01*
X133102914Y-108418094D02*
X133007676Y-108370475D01*
X133007676Y-108370475D02*
X132912438Y-108275237D01*
X132912438Y-108275237D02*
X132864819Y-108132380D01*
X132864819Y-108132380D02*
X132864819Y-108037142D01*
X132864819Y-108037142D02*
X132912438Y-107894285D01*
X132912438Y-107894285D02*
X132960057Y-107846666D01*
X132864819Y-107513332D02*
X132864819Y-106894285D01*
X132864819Y-106894285D02*
X133245771Y-107227618D01*
X133245771Y-107227618D02*
X133245771Y-107084761D01*
X133245771Y-107084761D02*
X133293390Y-106989523D01*
X133293390Y-106989523D02*
X133341009Y-106941904D01*
X133341009Y-106941904D02*
X133436247Y-106894285D01*
X133436247Y-106894285D02*
X133674342Y-106894285D01*
X133674342Y-106894285D02*
X133769580Y-106941904D01*
X133769580Y-106941904D02*
X133817200Y-106989523D01*
X133817200Y-106989523D02*
X133864819Y-107084761D01*
X133864819Y-107084761D02*
X133864819Y-107370475D01*
X133864819Y-107370475D02*
X133817200Y-107465713D01*
X133817200Y-107465713D02*
X133769580Y-107513332D01*
X128206667Y-124867200D02*
X128349524Y-124914819D01*
X128349524Y-124914819D02*
X128587619Y-124914819D01*
X128587619Y-124914819D02*
X128682857Y-124867200D01*
X128682857Y-124867200D02*
X128730476Y-124819580D01*
X128730476Y-124819580D02*
X128778095Y-124724342D01*
X128778095Y-124724342D02*
X128778095Y-124629104D01*
X128778095Y-124629104D02*
X128730476Y-124533866D01*
X128730476Y-124533866D02*
X128682857Y-124486247D01*
X128682857Y-124486247D02*
X128587619Y-124438628D01*
X128587619Y-124438628D02*
X128397143Y-124391009D01*
X128397143Y-124391009D02*
X128301905Y-124343390D01*
X128301905Y-124343390D02*
X128254286Y-124295771D01*
X128254286Y-124295771D02*
X128206667Y-124200533D01*
X128206667Y-124200533D02*
X128206667Y-124105295D01*
X128206667Y-124105295D02*
X128254286Y-124010057D01*
X128254286Y-124010057D02*
X128301905Y-123962438D01*
X128301905Y-123962438D02*
X128397143Y-123914819D01*
X128397143Y-123914819D02*
X128635238Y-123914819D01*
X128635238Y-123914819D02*
X128778095Y-123962438D01*
X129111429Y-123914819D02*
X129349524Y-124914819D01*
X129349524Y-124914819D02*
X129540000Y-124200533D01*
X129540000Y-124200533D02*
X129730476Y-124914819D01*
X129730476Y-124914819D02*
X129968572Y-123914819D01*
X130873333Y-124914819D02*
X130301905Y-124914819D01*
X130587619Y-124914819D02*
X130587619Y-123914819D01*
X130587619Y-123914819D02*
X130492381Y-124057676D01*
X130492381Y-124057676D02*
X130397143Y-124152914D01*
X130397143Y-124152914D02*
X130301905Y-124200533D01*
X125234819Y-118276666D02*
X125234819Y-118752856D01*
X125234819Y-118752856D02*
X124234819Y-118752856D01*
X125234819Y-117419523D02*
X125234819Y-117990951D01*
X125234819Y-117705237D02*
X124234819Y-117705237D01*
X124234819Y-117705237D02*
X124377676Y-117800475D01*
X124377676Y-117800475D02*
X124472914Y-117895713D01*
X124472914Y-117895713D02*
X124520533Y-117990951D01*
X125087142Y-92064819D02*
X124753809Y-91588628D01*
X124515714Y-92064819D02*
X124515714Y-91064819D01*
X124515714Y-91064819D02*
X124896666Y-91064819D01*
X124896666Y-91064819D02*
X124991904Y-91112438D01*
X124991904Y-91112438D02*
X125039523Y-91160057D01*
X125039523Y-91160057D02*
X125087142Y-91255295D01*
X125087142Y-91255295D02*
X125087142Y-91398152D01*
X125087142Y-91398152D02*
X125039523Y-91493390D01*
X125039523Y-91493390D02*
X124991904Y-91541009D01*
X124991904Y-91541009D02*
X124896666Y-91588628D01*
X124896666Y-91588628D02*
X124515714Y-91588628D01*
X126039523Y-92064819D02*
X125468095Y-92064819D01*
X125753809Y-92064819D02*
X125753809Y-91064819D01*
X125753809Y-91064819D02*
X125658571Y-91207676D01*
X125658571Y-91207676D02*
X125563333Y-91302914D01*
X125563333Y-91302914D02*
X125468095Y-91350533D01*
X126658571Y-91064819D02*
X126753809Y-91064819D01*
X126753809Y-91064819D02*
X126849047Y-91112438D01*
X126849047Y-91112438D02*
X126896666Y-91160057D01*
X126896666Y-91160057D02*
X126944285Y-91255295D01*
X126944285Y-91255295D02*
X126991904Y-91445771D01*
X126991904Y-91445771D02*
X126991904Y-91683866D01*
X126991904Y-91683866D02*
X126944285Y-91874342D01*
X126944285Y-91874342D02*
X126896666Y-91969580D01*
X126896666Y-91969580D02*
X126849047Y-92017200D01*
X126849047Y-92017200D02*
X126753809Y-92064819D01*
X126753809Y-92064819D02*
X126658571Y-92064819D01*
X126658571Y-92064819D02*
X126563333Y-92017200D01*
X126563333Y-92017200D02*
X126515714Y-91969580D01*
X126515714Y-91969580D02*
X126468095Y-91874342D01*
X126468095Y-91874342D02*
X126420476Y-91683866D01*
X126420476Y-91683866D02*
X126420476Y-91445771D01*
X126420476Y-91445771D02*
X126468095Y-91255295D01*
X126468095Y-91255295D02*
X126515714Y-91160057D01*
X126515714Y-91160057D02*
X126563333Y-91112438D01*
X126563333Y-91112438D02*
X126658571Y-91064819D01*
X160304819Y-117006666D02*
X159828628Y-117339999D01*
X160304819Y-117578094D02*
X159304819Y-117578094D01*
X159304819Y-117578094D02*
X159304819Y-117197142D01*
X159304819Y-117197142D02*
X159352438Y-117101904D01*
X159352438Y-117101904D02*
X159400057Y-117054285D01*
X159400057Y-117054285D02*
X159495295Y-117006666D01*
X159495295Y-117006666D02*
X159638152Y-117006666D01*
X159638152Y-117006666D02*
X159733390Y-117054285D01*
X159733390Y-117054285D02*
X159781009Y-117101904D01*
X159781009Y-117101904D02*
X159828628Y-117197142D01*
X159828628Y-117197142D02*
X159828628Y-117578094D01*
X159733390Y-116435237D02*
X159685771Y-116530475D01*
X159685771Y-116530475D02*
X159638152Y-116578094D01*
X159638152Y-116578094D02*
X159542914Y-116625713D01*
X159542914Y-116625713D02*
X159495295Y-116625713D01*
X159495295Y-116625713D02*
X159400057Y-116578094D01*
X159400057Y-116578094D02*
X159352438Y-116530475D01*
X159352438Y-116530475D02*
X159304819Y-116435237D01*
X159304819Y-116435237D02*
X159304819Y-116244761D01*
X159304819Y-116244761D02*
X159352438Y-116149523D01*
X159352438Y-116149523D02*
X159400057Y-116101904D01*
X159400057Y-116101904D02*
X159495295Y-116054285D01*
X159495295Y-116054285D02*
X159542914Y-116054285D01*
X159542914Y-116054285D02*
X159638152Y-116101904D01*
X159638152Y-116101904D02*
X159685771Y-116149523D01*
X159685771Y-116149523D02*
X159733390Y-116244761D01*
X159733390Y-116244761D02*
X159733390Y-116435237D01*
X159733390Y-116435237D02*
X159781009Y-116530475D01*
X159781009Y-116530475D02*
X159828628Y-116578094D01*
X159828628Y-116578094D02*
X159923866Y-116625713D01*
X159923866Y-116625713D02*
X160114342Y-116625713D01*
X160114342Y-116625713D02*
X160209580Y-116578094D01*
X160209580Y-116578094D02*
X160257200Y-116530475D01*
X160257200Y-116530475D02*
X160304819Y-116435237D01*
X160304819Y-116435237D02*
X160304819Y-116244761D01*
X160304819Y-116244761D02*
X160257200Y-116149523D01*
X160257200Y-116149523D02*
X160209580Y-116101904D01*
X160209580Y-116101904D02*
X160114342Y-116054285D01*
X160114342Y-116054285D02*
X159923866Y-116054285D01*
X159923866Y-116054285D02*
X159828628Y-116101904D01*
X159828628Y-116101904D02*
X159781009Y-116149523D01*
X159781009Y-116149523D02*
X159733390Y-116244761D01*
X168743333Y-46344819D02*
X168410000Y-45868628D01*
X168171905Y-46344819D02*
X168171905Y-45344819D01*
X168171905Y-45344819D02*
X168552857Y-45344819D01*
X168552857Y-45344819D02*
X168648095Y-45392438D01*
X168648095Y-45392438D02*
X168695714Y-45440057D01*
X168695714Y-45440057D02*
X168743333Y-45535295D01*
X168743333Y-45535295D02*
X168743333Y-45678152D01*
X168743333Y-45678152D02*
X168695714Y-45773390D01*
X168695714Y-45773390D02*
X168648095Y-45821009D01*
X168648095Y-45821009D02*
X168552857Y-45868628D01*
X168552857Y-45868628D02*
X168171905Y-45868628D01*
X169695714Y-46344819D02*
X169124286Y-46344819D01*
X169410000Y-46344819D02*
X169410000Y-45344819D01*
X169410000Y-45344819D02*
X169314762Y-45487676D01*
X169314762Y-45487676D02*
X169219524Y-45582914D01*
X169219524Y-45582914D02*
X169124286Y-45630533D01*
X182546666Y-112054819D02*
X182546666Y-112769104D01*
X182546666Y-112769104D02*
X182499047Y-112911961D01*
X182499047Y-112911961D02*
X182403809Y-113007200D01*
X182403809Y-113007200D02*
X182260952Y-113054819D01*
X182260952Y-113054819D02*
X182165714Y-113054819D01*
X182975238Y-112150057D02*
X183022857Y-112102438D01*
X183022857Y-112102438D02*
X183118095Y-112054819D01*
X183118095Y-112054819D02*
X183356190Y-112054819D01*
X183356190Y-112054819D02*
X183451428Y-112102438D01*
X183451428Y-112102438D02*
X183499047Y-112150057D01*
X183499047Y-112150057D02*
X183546666Y-112245295D01*
X183546666Y-112245295D02*
X183546666Y-112340533D01*
X183546666Y-112340533D02*
X183499047Y-112483390D01*
X183499047Y-112483390D02*
X182927619Y-113054819D01*
X182927619Y-113054819D02*
X183546666Y-113054819D01*
X138849580Y-72826666D02*
X138897200Y-72874285D01*
X138897200Y-72874285D02*
X138944819Y-73017142D01*
X138944819Y-73017142D02*
X138944819Y-73112380D01*
X138944819Y-73112380D02*
X138897200Y-73255237D01*
X138897200Y-73255237D02*
X138801961Y-73350475D01*
X138801961Y-73350475D02*
X138706723Y-73398094D01*
X138706723Y-73398094D02*
X138516247Y-73445713D01*
X138516247Y-73445713D02*
X138373390Y-73445713D01*
X138373390Y-73445713D02*
X138182914Y-73398094D01*
X138182914Y-73398094D02*
X138087676Y-73350475D01*
X138087676Y-73350475D02*
X137992438Y-73255237D01*
X137992438Y-73255237D02*
X137944819Y-73112380D01*
X137944819Y-73112380D02*
X137944819Y-73017142D01*
X137944819Y-73017142D02*
X137992438Y-72874285D01*
X137992438Y-72874285D02*
X138040057Y-72826666D01*
X138040057Y-72445713D02*
X137992438Y-72398094D01*
X137992438Y-72398094D02*
X137944819Y-72302856D01*
X137944819Y-72302856D02*
X137944819Y-72064761D01*
X137944819Y-72064761D02*
X137992438Y-71969523D01*
X137992438Y-71969523D02*
X138040057Y-71921904D01*
X138040057Y-71921904D02*
X138135295Y-71874285D01*
X138135295Y-71874285D02*
X138230533Y-71874285D01*
X138230533Y-71874285D02*
X138373390Y-71921904D01*
X138373390Y-71921904D02*
X138944819Y-72493332D01*
X138944819Y-72493332D02*
X138944819Y-71874285D01*
X151429580Y-100702857D02*
X151477200Y-100750476D01*
X151477200Y-100750476D02*
X151524819Y-100893333D01*
X151524819Y-100893333D02*
X151524819Y-100988571D01*
X151524819Y-100988571D02*
X151477200Y-101131428D01*
X151477200Y-101131428D02*
X151381961Y-101226666D01*
X151381961Y-101226666D02*
X151286723Y-101274285D01*
X151286723Y-101274285D02*
X151096247Y-101321904D01*
X151096247Y-101321904D02*
X150953390Y-101321904D01*
X150953390Y-101321904D02*
X150762914Y-101274285D01*
X150762914Y-101274285D02*
X150667676Y-101226666D01*
X150667676Y-101226666D02*
X150572438Y-101131428D01*
X150572438Y-101131428D02*
X150524819Y-100988571D01*
X150524819Y-100988571D02*
X150524819Y-100893333D01*
X150524819Y-100893333D02*
X150572438Y-100750476D01*
X150572438Y-100750476D02*
X150620057Y-100702857D01*
X151524819Y-99750476D02*
X151524819Y-100321904D01*
X151524819Y-100036190D02*
X150524819Y-100036190D01*
X150524819Y-100036190D02*
X150667676Y-100131428D01*
X150667676Y-100131428D02*
X150762914Y-100226666D01*
X150762914Y-100226666D02*
X150810533Y-100321904D01*
X150620057Y-99369523D02*
X150572438Y-99321904D01*
X150572438Y-99321904D02*
X150524819Y-99226666D01*
X150524819Y-99226666D02*
X150524819Y-98988571D01*
X150524819Y-98988571D02*
X150572438Y-98893333D01*
X150572438Y-98893333D02*
X150620057Y-98845714D01*
X150620057Y-98845714D02*
X150715295Y-98798095D01*
X150715295Y-98798095D02*
X150810533Y-98798095D01*
X150810533Y-98798095D02*
X150953390Y-98845714D01*
X150953390Y-98845714D02*
X151524819Y-99417142D01*
X151524819Y-99417142D02*
X151524819Y-98798095D01*
X138849580Y-64666666D02*
X138897200Y-64714285D01*
X138897200Y-64714285D02*
X138944819Y-64857142D01*
X138944819Y-64857142D02*
X138944819Y-64952380D01*
X138944819Y-64952380D02*
X138897200Y-65095237D01*
X138897200Y-65095237D02*
X138801961Y-65190475D01*
X138801961Y-65190475D02*
X138706723Y-65238094D01*
X138706723Y-65238094D02*
X138516247Y-65285713D01*
X138516247Y-65285713D02*
X138373390Y-65285713D01*
X138373390Y-65285713D02*
X138182914Y-65238094D01*
X138182914Y-65238094D02*
X138087676Y-65190475D01*
X138087676Y-65190475D02*
X137992438Y-65095237D01*
X137992438Y-65095237D02*
X137944819Y-64952380D01*
X137944819Y-64952380D02*
X137944819Y-64857142D01*
X137944819Y-64857142D02*
X137992438Y-64714285D01*
X137992438Y-64714285D02*
X138040057Y-64666666D01*
X138278152Y-63809523D02*
X138944819Y-63809523D01*
X137897200Y-64047618D02*
X138611485Y-64285713D01*
X138611485Y-64285713D02*
X138611485Y-63666666D01*
X153760952Y-77917319D02*
X153760952Y-76917319D01*
X154332380Y-77917319D02*
X153903809Y-77345890D01*
X154332380Y-76917319D02*
X153760952Y-77488747D01*
X154618095Y-76917319D02*
X155189523Y-76917319D01*
X154903809Y-77917319D02*
X154903809Y-76917319D01*
X156046666Y-77917319D02*
X155475238Y-77917319D01*
X155760952Y-77917319D02*
X155760952Y-76917319D01*
X155760952Y-76917319D02*
X155665714Y-77060176D01*
X155665714Y-77060176D02*
X155570476Y-77155414D01*
X155570476Y-77155414D02*
X155475238Y-77203033D01*
X143929580Y-108322857D02*
X143977200Y-108370476D01*
X143977200Y-108370476D02*
X144024819Y-108513333D01*
X144024819Y-108513333D02*
X144024819Y-108608571D01*
X144024819Y-108608571D02*
X143977200Y-108751428D01*
X143977200Y-108751428D02*
X143881961Y-108846666D01*
X143881961Y-108846666D02*
X143786723Y-108894285D01*
X143786723Y-108894285D02*
X143596247Y-108941904D01*
X143596247Y-108941904D02*
X143453390Y-108941904D01*
X143453390Y-108941904D02*
X143262914Y-108894285D01*
X143262914Y-108894285D02*
X143167676Y-108846666D01*
X143167676Y-108846666D02*
X143072438Y-108751428D01*
X143072438Y-108751428D02*
X143024819Y-108608571D01*
X143024819Y-108608571D02*
X143024819Y-108513333D01*
X143024819Y-108513333D02*
X143072438Y-108370476D01*
X143072438Y-108370476D02*
X143120057Y-108322857D01*
X144024819Y-107370476D02*
X144024819Y-107941904D01*
X144024819Y-107656190D02*
X143024819Y-107656190D01*
X143024819Y-107656190D02*
X143167676Y-107751428D01*
X143167676Y-107751428D02*
X143262914Y-107846666D01*
X143262914Y-107846666D02*
X143310533Y-107941904D01*
X144024819Y-106418095D02*
X144024819Y-106989523D01*
X144024819Y-106703809D02*
X143024819Y-106703809D01*
X143024819Y-106703809D02*
X143167676Y-106799047D01*
X143167676Y-106799047D02*
X143262914Y-106894285D01*
X143262914Y-106894285D02*
X143310533Y-106989523D01*
X123609580Y-100702857D02*
X123657200Y-100750476D01*
X123657200Y-100750476D02*
X123704819Y-100893333D01*
X123704819Y-100893333D02*
X123704819Y-100988571D01*
X123704819Y-100988571D02*
X123657200Y-101131428D01*
X123657200Y-101131428D02*
X123561961Y-101226666D01*
X123561961Y-101226666D02*
X123466723Y-101274285D01*
X123466723Y-101274285D02*
X123276247Y-101321904D01*
X123276247Y-101321904D02*
X123133390Y-101321904D01*
X123133390Y-101321904D02*
X122942914Y-101274285D01*
X122942914Y-101274285D02*
X122847676Y-101226666D01*
X122847676Y-101226666D02*
X122752438Y-101131428D01*
X122752438Y-101131428D02*
X122704819Y-100988571D01*
X122704819Y-100988571D02*
X122704819Y-100893333D01*
X122704819Y-100893333D02*
X122752438Y-100750476D01*
X122752438Y-100750476D02*
X122800057Y-100702857D01*
X123704819Y-99750476D02*
X123704819Y-100321904D01*
X123704819Y-100036190D02*
X122704819Y-100036190D01*
X122704819Y-100036190D02*
X122847676Y-100131428D01*
X122847676Y-100131428D02*
X122942914Y-100226666D01*
X122942914Y-100226666D02*
X122990533Y-100321904D01*
X122704819Y-99417142D02*
X122704819Y-98798095D01*
X122704819Y-98798095D02*
X123085771Y-99131428D01*
X123085771Y-99131428D02*
X123085771Y-98988571D01*
X123085771Y-98988571D02*
X123133390Y-98893333D01*
X123133390Y-98893333D02*
X123181009Y-98845714D01*
X123181009Y-98845714D02*
X123276247Y-98798095D01*
X123276247Y-98798095D02*
X123514342Y-98798095D01*
X123514342Y-98798095D02*
X123609580Y-98845714D01*
X123609580Y-98845714D02*
X123657200Y-98893333D01*
X123657200Y-98893333D02*
X123704819Y-98988571D01*
X123704819Y-98988571D02*
X123704819Y-99274285D01*
X123704819Y-99274285D02*
X123657200Y-99369523D01*
X123657200Y-99369523D02*
X123609580Y-99417142D01*
X176949580Y-106616666D02*
X176997200Y-106664285D01*
X176997200Y-106664285D02*
X177044819Y-106807142D01*
X177044819Y-106807142D02*
X177044819Y-106902380D01*
X177044819Y-106902380D02*
X176997200Y-107045237D01*
X176997200Y-107045237D02*
X176901961Y-107140475D01*
X176901961Y-107140475D02*
X176806723Y-107188094D01*
X176806723Y-107188094D02*
X176616247Y-107235713D01*
X176616247Y-107235713D02*
X176473390Y-107235713D01*
X176473390Y-107235713D02*
X176282914Y-107188094D01*
X176282914Y-107188094D02*
X176187676Y-107140475D01*
X176187676Y-107140475D02*
X176092438Y-107045237D01*
X176092438Y-107045237D02*
X176044819Y-106902380D01*
X176044819Y-106902380D02*
X176044819Y-106807142D01*
X176044819Y-106807142D02*
X176092438Y-106664285D01*
X176092438Y-106664285D02*
X176140057Y-106616666D01*
X176044819Y-106283332D02*
X176044819Y-105616666D01*
X176044819Y-105616666D02*
X177044819Y-106045237D01*
X123609580Y-107846666D02*
X123657200Y-107894285D01*
X123657200Y-107894285D02*
X123704819Y-108037142D01*
X123704819Y-108037142D02*
X123704819Y-108132380D01*
X123704819Y-108132380D02*
X123657200Y-108275237D01*
X123657200Y-108275237D02*
X123561961Y-108370475D01*
X123561961Y-108370475D02*
X123466723Y-108418094D01*
X123466723Y-108418094D02*
X123276247Y-108465713D01*
X123276247Y-108465713D02*
X123133390Y-108465713D01*
X123133390Y-108465713D02*
X122942914Y-108418094D01*
X122942914Y-108418094D02*
X122847676Y-108370475D01*
X122847676Y-108370475D02*
X122752438Y-108275237D01*
X122752438Y-108275237D02*
X122704819Y-108132380D01*
X122704819Y-108132380D02*
X122704819Y-108037142D01*
X122704819Y-108037142D02*
X122752438Y-107894285D01*
X122752438Y-107894285D02*
X122800057Y-107846666D01*
X123704819Y-106894285D02*
X123704819Y-107465713D01*
X123704819Y-107179999D02*
X122704819Y-107179999D01*
X122704819Y-107179999D02*
X122847676Y-107275237D01*
X122847676Y-107275237D02*
X122942914Y-107370475D01*
X122942914Y-107370475D02*
X122990533Y-107465713D01*
X124649580Y-72552857D02*
X124697200Y-72600476D01*
X124697200Y-72600476D02*
X124744819Y-72743333D01*
X124744819Y-72743333D02*
X124744819Y-72838571D01*
X124744819Y-72838571D02*
X124697200Y-72981428D01*
X124697200Y-72981428D02*
X124601961Y-73076666D01*
X124601961Y-73076666D02*
X124506723Y-73124285D01*
X124506723Y-73124285D02*
X124316247Y-73171904D01*
X124316247Y-73171904D02*
X124173390Y-73171904D01*
X124173390Y-73171904D02*
X123982914Y-73124285D01*
X123982914Y-73124285D02*
X123887676Y-73076666D01*
X123887676Y-73076666D02*
X123792438Y-72981428D01*
X123792438Y-72981428D02*
X123744819Y-72838571D01*
X123744819Y-72838571D02*
X123744819Y-72743333D01*
X123744819Y-72743333D02*
X123792438Y-72600476D01*
X123792438Y-72600476D02*
X123840057Y-72552857D01*
X124744819Y-71600476D02*
X124744819Y-72171904D01*
X124744819Y-71886190D02*
X123744819Y-71886190D01*
X123744819Y-71886190D02*
X123887676Y-71981428D01*
X123887676Y-71981428D02*
X123982914Y-72076666D01*
X123982914Y-72076666D02*
X124030533Y-72171904D01*
X123744819Y-70981428D02*
X123744819Y-70886190D01*
X123744819Y-70886190D02*
X123792438Y-70790952D01*
X123792438Y-70790952D02*
X123840057Y-70743333D01*
X123840057Y-70743333D02*
X123935295Y-70695714D01*
X123935295Y-70695714D02*
X124125771Y-70648095D01*
X124125771Y-70648095D02*
X124363866Y-70648095D01*
X124363866Y-70648095D02*
X124554342Y-70695714D01*
X124554342Y-70695714D02*
X124649580Y-70743333D01*
X124649580Y-70743333D02*
X124697200Y-70790952D01*
X124697200Y-70790952D02*
X124744819Y-70886190D01*
X124744819Y-70886190D02*
X124744819Y-70981428D01*
X124744819Y-70981428D02*
X124697200Y-71076666D01*
X124697200Y-71076666D02*
X124649580Y-71124285D01*
X124649580Y-71124285D02*
X124554342Y-71171904D01*
X124554342Y-71171904D02*
X124363866Y-71219523D01*
X124363866Y-71219523D02*
X124125771Y-71219523D01*
X124125771Y-71219523D02*
X123935295Y-71171904D01*
X123935295Y-71171904D02*
X123840057Y-71124285D01*
X123840057Y-71124285D02*
X123792438Y-71076666D01*
X123792438Y-71076666D02*
X123744819Y-70981428D01*
X146820057Y-119475238D02*
X146772438Y-119570476D01*
X146772438Y-119570476D02*
X146677200Y-119665714D01*
X146677200Y-119665714D02*
X146534342Y-119808571D01*
X146534342Y-119808571D02*
X146486723Y-119903809D01*
X146486723Y-119903809D02*
X146486723Y-119999047D01*
X146724819Y-119951428D02*
X146677200Y-120046666D01*
X146677200Y-120046666D02*
X146581961Y-120141904D01*
X146581961Y-120141904D02*
X146391485Y-120189523D01*
X146391485Y-120189523D02*
X146058152Y-120189523D01*
X146058152Y-120189523D02*
X145867676Y-120141904D01*
X145867676Y-120141904D02*
X145772438Y-120046666D01*
X145772438Y-120046666D02*
X145724819Y-119951428D01*
X145724819Y-119951428D02*
X145724819Y-119760952D01*
X145724819Y-119760952D02*
X145772438Y-119665714D01*
X145772438Y-119665714D02*
X145867676Y-119570476D01*
X145867676Y-119570476D02*
X146058152Y-119522857D01*
X146058152Y-119522857D02*
X146391485Y-119522857D01*
X146391485Y-119522857D02*
X146581961Y-119570476D01*
X146581961Y-119570476D02*
X146677200Y-119665714D01*
X146677200Y-119665714D02*
X146724819Y-119760952D01*
X146724819Y-119760952D02*
X146724819Y-119951428D01*
X146724819Y-118570476D02*
X146724819Y-119141904D01*
X146724819Y-118856190D02*
X145724819Y-118856190D01*
X145724819Y-118856190D02*
X145867676Y-118951428D01*
X145867676Y-118951428D02*
X145962914Y-119046666D01*
X145962914Y-119046666D02*
X146010533Y-119141904D01*
X168743333Y-53964819D02*
X168410000Y-53488628D01*
X168171905Y-53964819D02*
X168171905Y-52964819D01*
X168171905Y-52964819D02*
X168552857Y-52964819D01*
X168552857Y-52964819D02*
X168648095Y-53012438D01*
X168648095Y-53012438D02*
X168695714Y-53060057D01*
X168695714Y-53060057D02*
X168743333Y-53155295D01*
X168743333Y-53155295D02*
X168743333Y-53298152D01*
X168743333Y-53298152D02*
X168695714Y-53393390D01*
X168695714Y-53393390D02*
X168648095Y-53441009D01*
X168648095Y-53441009D02*
X168552857Y-53488628D01*
X168552857Y-53488628D02*
X168171905Y-53488628D01*
X169124286Y-53060057D02*
X169171905Y-53012438D01*
X169171905Y-53012438D02*
X169267143Y-52964819D01*
X169267143Y-52964819D02*
X169505238Y-52964819D01*
X169505238Y-52964819D02*
X169600476Y-53012438D01*
X169600476Y-53012438D02*
X169648095Y-53060057D01*
X169648095Y-53060057D02*
X169695714Y-53155295D01*
X169695714Y-53155295D02*
X169695714Y-53250533D01*
X169695714Y-53250533D02*
X169648095Y-53393390D01*
X169648095Y-53393390D02*
X169076667Y-53964819D01*
X169076667Y-53964819D02*
X169695714Y-53964819D01*
X160054819Y-106148094D02*
X159054819Y-106148094D01*
X159054819Y-106148094D02*
X159054819Y-105909999D01*
X159054819Y-105909999D02*
X159102438Y-105767142D01*
X159102438Y-105767142D02*
X159197676Y-105671904D01*
X159197676Y-105671904D02*
X159292914Y-105624285D01*
X159292914Y-105624285D02*
X159483390Y-105576666D01*
X159483390Y-105576666D02*
X159626247Y-105576666D01*
X159626247Y-105576666D02*
X159816723Y-105624285D01*
X159816723Y-105624285D02*
X159911961Y-105671904D01*
X159911961Y-105671904D02*
X160007200Y-105767142D01*
X160007200Y-105767142D02*
X160054819Y-105909999D01*
X160054819Y-105909999D02*
X160054819Y-106148094D01*
X160054819Y-104624285D02*
X160054819Y-105195713D01*
X160054819Y-104909999D02*
X159054819Y-104909999D01*
X159054819Y-104909999D02*
X159197676Y-105005237D01*
X159197676Y-105005237D02*
X159292914Y-105100475D01*
X159292914Y-105100475D02*
X159340533Y-105195713D01*
X159734819Y-101861904D02*
X158734819Y-101861904D01*
X159734819Y-101290476D02*
X159163390Y-101719047D01*
X158734819Y-101290476D02*
X159306247Y-101861904D01*
X135517142Y-82969580D02*
X135469523Y-83017200D01*
X135469523Y-83017200D02*
X135326666Y-83064819D01*
X135326666Y-83064819D02*
X135231428Y-83064819D01*
X135231428Y-83064819D02*
X135088571Y-83017200D01*
X135088571Y-83017200D02*
X134993333Y-82921961D01*
X134993333Y-82921961D02*
X134945714Y-82826723D01*
X134945714Y-82826723D02*
X134898095Y-82636247D01*
X134898095Y-82636247D02*
X134898095Y-82493390D01*
X134898095Y-82493390D02*
X134945714Y-82302914D01*
X134945714Y-82302914D02*
X134993333Y-82207676D01*
X134993333Y-82207676D02*
X135088571Y-82112438D01*
X135088571Y-82112438D02*
X135231428Y-82064819D01*
X135231428Y-82064819D02*
X135326666Y-82064819D01*
X135326666Y-82064819D02*
X135469523Y-82112438D01*
X135469523Y-82112438D02*
X135517142Y-82160057D01*
X136469523Y-83064819D02*
X135898095Y-83064819D01*
X136183809Y-83064819D02*
X136183809Y-82064819D01*
X136183809Y-82064819D02*
X136088571Y-82207676D01*
X136088571Y-82207676D02*
X135993333Y-82302914D01*
X135993333Y-82302914D02*
X135898095Y-82350533D01*
X137326666Y-82398152D02*
X137326666Y-83064819D01*
X137088571Y-82017200D02*
X136850476Y-82731485D01*
X136850476Y-82731485D02*
X137469523Y-82731485D01*
X135244819Y-97956666D02*
X134768628Y-98289999D01*
X135244819Y-98528094D02*
X134244819Y-98528094D01*
X134244819Y-98528094D02*
X134244819Y-98147142D01*
X134244819Y-98147142D02*
X134292438Y-98051904D01*
X134292438Y-98051904D02*
X134340057Y-98004285D01*
X134340057Y-98004285D02*
X134435295Y-97956666D01*
X134435295Y-97956666D02*
X134578152Y-97956666D01*
X134578152Y-97956666D02*
X134673390Y-98004285D01*
X134673390Y-98004285D02*
X134721009Y-98051904D01*
X134721009Y-98051904D02*
X134768628Y-98147142D01*
X134768628Y-98147142D02*
X134768628Y-98528094D01*
X135244819Y-97480475D02*
X135244819Y-97289999D01*
X135244819Y-97289999D02*
X135197200Y-97194761D01*
X135197200Y-97194761D02*
X135149580Y-97147142D01*
X135149580Y-97147142D02*
X135006723Y-97051904D01*
X135006723Y-97051904D02*
X134816247Y-97004285D01*
X134816247Y-97004285D02*
X134435295Y-97004285D01*
X134435295Y-97004285D02*
X134340057Y-97051904D01*
X134340057Y-97051904D02*
X134292438Y-97099523D01*
X134292438Y-97099523D02*
X134244819Y-97194761D01*
X134244819Y-97194761D02*
X134244819Y-97385237D01*
X134244819Y-97385237D02*
X134292438Y-97480475D01*
X134292438Y-97480475D02*
X134340057Y-97528094D01*
X134340057Y-97528094D02*
X134435295Y-97575713D01*
X134435295Y-97575713D02*
X134673390Y-97575713D01*
X134673390Y-97575713D02*
X134768628Y-97528094D01*
X134768628Y-97528094D02*
X134816247Y-97480475D01*
X134816247Y-97480475D02*
X134863866Y-97385237D01*
X134863866Y-97385237D02*
X134863866Y-97194761D01*
X134863866Y-97194761D02*
X134816247Y-97099523D01*
X134816247Y-97099523D02*
X134768628Y-97051904D01*
X134768628Y-97051904D02*
X134673390Y-97004285D01*
X156043333Y-129824819D02*
X155710000Y-129348628D01*
X155471905Y-129824819D02*
X155471905Y-128824819D01*
X155471905Y-128824819D02*
X155852857Y-128824819D01*
X155852857Y-128824819D02*
X155948095Y-128872438D01*
X155948095Y-128872438D02*
X155995714Y-128920057D01*
X155995714Y-128920057D02*
X156043333Y-129015295D01*
X156043333Y-129015295D02*
X156043333Y-129158152D01*
X156043333Y-129158152D02*
X155995714Y-129253390D01*
X155995714Y-129253390D02*
X155948095Y-129301009D01*
X155948095Y-129301009D02*
X155852857Y-129348628D01*
X155852857Y-129348628D02*
X155471905Y-129348628D01*
X156376667Y-128824819D02*
X157043333Y-128824819D01*
X157043333Y-128824819D02*
X156614762Y-129824819D01*
X132704819Y-118276666D02*
X132228628Y-118609999D01*
X132704819Y-118848094D02*
X131704819Y-118848094D01*
X131704819Y-118848094D02*
X131704819Y-118467142D01*
X131704819Y-118467142D02*
X131752438Y-118371904D01*
X131752438Y-118371904D02*
X131800057Y-118324285D01*
X131800057Y-118324285D02*
X131895295Y-118276666D01*
X131895295Y-118276666D02*
X132038152Y-118276666D01*
X132038152Y-118276666D02*
X132133390Y-118324285D01*
X132133390Y-118324285D02*
X132181009Y-118371904D01*
X132181009Y-118371904D02*
X132228628Y-118467142D01*
X132228628Y-118467142D02*
X132228628Y-118848094D01*
X131704819Y-117419523D02*
X131704819Y-117609999D01*
X131704819Y-117609999D02*
X131752438Y-117705237D01*
X131752438Y-117705237D02*
X131800057Y-117752856D01*
X131800057Y-117752856D02*
X131942914Y-117848094D01*
X131942914Y-117848094D02*
X132133390Y-117895713D01*
X132133390Y-117895713D02*
X132514342Y-117895713D01*
X132514342Y-117895713D02*
X132609580Y-117848094D01*
X132609580Y-117848094D02*
X132657200Y-117800475D01*
X132657200Y-117800475D02*
X132704819Y-117705237D01*
X132704819Y-117705237D02*
X132704819Y-117514761D01*
X132704819Y-117514761D02*
X132657200Y-117419523D01*
X132657200Y-117419523D02*
X132609580Y-117371904D01*
X132609580Y-117371904D02*
X132514342Y-117324285D01*
X132514342Y-117324285D02*
X132276247Y-117324285D01*
X132276247Y-117324285D02*
X132181009Y-117371904D01*
X132181009Y-117371904D02*
X132133390Y-117419523D01*
X132133390Y-117419523D02*
X132085771Y-117514761D01*
X132085771Y-117514761D02*
X132085771Y-117705237D01*
X132085771Y-117705237D02*
X132133390Y-117800475D01*
X132133390Y-117800475D02*
X132181009Y-117848094D01*
X132181009Y-117848094D02*
X132276247Y-117895713D01*
X140324819Y-118276666D02*
X139848628Y-118609999D01*
X140324819Y-118848094D02*
X139324819Y-118848094D01*
X139324819Y-118848094D02*
X139324819Y-118467142D01*
X139324819Y-118467142D02*
X139372438Y-118371904D01*
X139372438Y-118371904D02*
X139420057Y-118324285D01*
X139420057Y-118324285D02*
X139515295Y-118276666D01*
X139515295Y-118276666D02*
X139658152Y-118276666D01*
X139658152Y-118276666D02*
X139753390Y-118324285D01*
X139753390Y-118324285D02*
X139801009Y-118371904D01*
X139801009Y-118371904D02*
X139848628Y-118467142D01*
X139848628Y-118467142D02*
X139848628Y-118848094D01*
X139324819Y-117371904D02*
X139324819Y-117848094D01*
X139324819Y-117848094D02*
X139801009Y-117895713D01*
X139801009Y-117895713D02*
X139753390Y-117848094D01*
X139753390Y-117848094D02*
X139705771Y-117752856D01*
X139705771Y-117752856D02*
X139705771Y-117514761D01*
X139705771Y-117514761D02*
X139753390Y-117419523D01*
X139753390Y-117419523D02*
X139801009Y-117371904D01*
X139801009Y-117371904D02*
X139896247Y-117324285D01*
X139896247Y-117324285D02*
X140134342Y-117324285D01*
X140134342Y-117324285D02*
X140229580Y-117371904D01*
X140229580Y-117371904D02*
X140277200Y-117419523D01*
X140277200Y-117419523D02*
X140324819Y-117514761D01*
X140324819Y-117514761D02*
X140324819Y-117752856D01*
X140324819Y-117752856D02*
X140277200Y-117848094D01*
X140277200Y-117848094D02*
X140229580Y-117895713D01*
X117666666Y-112534819D02*
X117666666Y-113249104D01*
X117666666Y-113249104D02*
X117619047Y-113391961D01*
X117619047Y-113391961D02*
X117523809Y-113487200D01*
X117523809Y-113487200D02*
X117380952Y-113534819D01*
X117380952Y-113534819D02*
X117285714Y-113534819D01*
X118047619Y-112534819D02*
X118666666Y-112534819D01*
X118666666Y-112534819D02*
X118333333Y-112915771D01*
X118333333Y-112915771D02*
X118476190Y-112915771D01*
X118476190Y-112915771D02*
X118571428Y-112963390D01*
X118571428Y-112963390D02*
X118619047Y-113011009D01*
X118619047Y-113011009D02*
X118666666Y-113106247D01*
X118666666Y-113106247D02*
X118666666Y-113344342D01*
X118666666Y-113344342D02*
X118619047Y-113439580D01*
X118619047Y-113439580D02*
X118571428Y-113487200D01*
X118571428Y-113487200D02*
X118476190Y-113534819D01*
X118476190Y-113534819D02*
X118190476Y-113534819D01*
X118190476Y-113534819D02*
X118095238Y-113487200D01*
X118095238Y-113487200D02*
X118047619Y-113439580D01*
X171283333Y-96804819D02*
X170950000Y-96328628D01*
X170711905Y-96804819D02*
X170711905Y-95804819D01*
X170711905Y-95804819D02*
X171092857Y-95804819D01*
X171092857Y-95804819D02*
X171188095Y-95852438D01*
X171188095Y-95852438D02*
X171235714Y-95900057D01*
X171235714Y-95900057D02*
X171283333Y-95995295D01*
X171283333Y-95995295D02*
X171283333Y-96138152D01*
X171283333Y-96138152D02*
X171235714Y-96233390D01*
X171235714Y-96233390D02*
X171188095Y-96281009D01*
X171188095Y-96281009D02*
X171092857Y-96328628D01*
X171092857Y-96328628D02*
X170711905Y-96328628D01*
X171616667Y-95804819D02*
X172235714Y-95804819D01*
X172235714Y-95804819D02*
X171902381Y-96185771D01*
X171902381Y-96185771D02*
X172045238Y-96185771D01*
X172045238Y-96185771D02*
X172140476Y-96233390D01*
X172140476Y-96233390D02*
X172188095Y-96281009D01*
X172188095Y-96281009D02*
X172235714Y-96376247D01*
X172235714Y-96376247D02*
X172235714Y-96614342D01*
X172235714Y-96614342D02*
X172188095Y-96709580D01*
X172188095Y-96709580D02*
X172140476Y-96757200D01*
X172140476Y-96757200D02*
X172045238Y-96804819D01*
X172045238Y-96804819D02*
X171759524Y-96804819D01*
X171759524Y-96804819D02*
X171664286Y-96757200D01*
X171664286Y-96757200D02*
X171616667Y-96709580D01*
X183983333Y-92064819D02*
X183650000Y-91588628D01*
X183411905Y-92064819D02*
X183411905Y-91064819D01*
X183411905Y-91064819D02*
X183792857Y-91064819D01*
X183792857Y-91064819D02*
X183888095Y-91112438D01*
X183888095Y-91112438D02*
X183935714Y-91160057D01*
X183935714Y-91160057D02*
X183983333Y-91255295D01*
X183983333Y-91255295D02*
X183983333Y-91398152D01*
X183983333Y-91398152D02*
X183935714Y-91493390D01*
X183935714Y-91493390D02*
X183888095Y-91541009D01*
X183888095Y-91541009D02*
X183792857Y-91588628D01*
X183792857Y-91588628D02*
X183411905Y-91588628D01*
X184840476Y-91398152D02*
X184840476Y-92064819D01*
X184602381Y-91017200D02*
X184364286Y-91731485D01*
X184364286Y-91731485D02*
X184983333Y-91731485D01*
D12*
%TO.C,C8*%
X183000000Y-107171000D02*
X180023000Y-107171000D01*
X183000000Y-107211000D02*
X180030000Y-107211000D01*
X183000000Y-107251000D02*
X180038000Y-107251000D01*
X183000000Y-107291000D02*
X180046000Y-107291000D01*
X183000000Y-107331000D02*
X180055000Y-107331000D01*
X183000000Y-107371000D02*
X180064000Y-107371000D01*
X183000000Y-107411000D02*
X180073000Y-107411000D01*
X183000000Y-107451000D02*
X180083000Y-107451000D01*
X183000000Y-107491000D02*
X180093000Y-107491000D01*
X183000000Y-107531000D02*
X180104000Y-107531000D01*
X183000000Y-107571000D02*
X180115000Y-107571000D01*
X183000000Y-107611000D02*
X180126000Y-107611000D01*
X183000000Y-107651000D02*
X180138000Y-107651000D01*
X183000000Y-107691000D02*
X180151000Y-107691000D01*
X183000000Y-107731000D02*
X180163000Y-107731000D01*
X183000000Y-107771000D02*
X180177000Y-107771000D01*
X183000000Y-107811000D02*
X180190000Y-107811000D01*
X183000000Y-107851000D02*
X180205000Y-107851000D01*
X183000000Y-107891000D02*
X180219000Y-107891000D01*
X183000000Y-107931000D02*
X180235000Y-107931000D01*
X183000000Y-107971000D02*
X180250000Y-107971000D01*
X183000000Y-108011000D02*
X180266000Y-108011000D01*
X183000000Y-108051000D02*
X180283000Y-108051000D01*
X183000000Y-108091000D02*
X180300000Y-108091000D01*
X183000000Y-108131000D02*
X180318000Y-108131000D01*
X183000000Y-108171000D02*
X180336000Y-108171000D01*
X183000000Y-108211000D02*
X180354000Y-108211000D01*
X183000000Y-108251000D02*
X180374000Y-108251000D01*
X183000000Y-108291000D02*
X180393000Y-108291000D01*
X183000000Y-108331000D02*
X180413000Y-108331000D01*
X183000000Y-108371000D02*
X180434000Y-108371000D01*
X183000000Y-108411000D02*
X180456000Y-108411000D01*
X183000000Y-108451000D02*
X180478000Y-108451000D01*
X183000000Y-108491000D02*
X180500000Y-108491000D01*
X183000000Y-108531000D02*
X180523000Y-108531000D01*
X183000000Y-108571000D02*
X180547000Y-108571000D01*
X183000000Y-108611000D02*
X180571000Y-108611000D01*
X183000000Y-108651000D02*
X180596000Y-108651000D01*
X183000000Y-108691000D02*
X180622000Y-108691000D01*
X183000000Y-108731000D02*
X180648000Y-108731000D01*
X183000000Y-108771000D02*
X180675000Y-108771000D01*
X183000000Y-108811000D02*
X180702000Y-108811000D01*
X183000000Y-108851000D02*
X180731000Y-108851000D01*
X183000000Y-108891000D02*
X180760000Y-108891000D01*
X183000000Y-108931000D02*
X180790000Y-108931000D01*
X183000000Y-108971000D02*
X180820000Y-108971000D01*
X183000000Y-109011000D02*
X180851000Y-109011000D01*
X183000000Y-109051000D02*
X180884000Y-109051000D01*
X183000000Y-109091000D02*
X180916000Y-109091000D01*
X183000000Y-109131000D02*
X180950000Y-109131000D01*
X183000000Y-109171000D02*
X180985000Y-109171000D01*
X183000000Y-109211000D02*
X181021000Y-109211000D01*
X184573000Y-110531000D02*
X183507000Y-110531000D01*
X184808000Y-110491000D02*
X183272000Y-110491000D01*
X184988000Y-110451000D02*
X183092000Y-110451000D01*
X185138000Y-110411000D02*
X182942000Y-110411000D01*
X185269000Y-110371000D02*
X182811000Y-110371000D01*
X185386000Y-110331000D02*
X182694000Y-110331000D01*
X185493000Y-110291000D02*
X182587000Y-110291000D01*
X185592000Y-110251000D02*
X182488000Y-110251000D01*
X185685000Y-110211000D02*
X182395000Y-110211000D01*
X185771000Y-110171000D02*
X182309000Y-110171000D01*
X185853000Y-110131000D02*
X182227000Y-110131000D01*
X185930000Y-110091000D02*
X182150000Y-110091000D01*
X186004000Y-110051000D02*
X182076000Y-110051000D01*
X186074000Y-110011000D02*
X182006000Y-110011000D01*
X186142000Y-109971000D02*
X181938000Y-109971000D01*
X186206000Y-109931000D02*
X181874000Y-109931000D01*
X186268000Y-109891000D02*
X181812000Y-109891000D01*
X186327000Y-109851000D02*
X181753000Y-109851000D01*
X186355000Y-102040302D02*
X186355000Y-102840302D01*
X186385000Y-109811000D02*
X181695000Y-109811000D01*
X186440000Y-109771000D02*
X181640000Y-109771000D01*
X186494000Y-109731000D02*
X181586000Y-109731000D01*
X186545000Y-109691000D02*
X181535000Y-109691000D01*
X186596000Y-109651000D02*
X181484000Y-109651000D01*
X186644000Y-109611000D02*
X181436000Y-109611000D01*
X186691000Y-109571000D02*
X181389000Y-109571000D01*
X186737000Y-109531000D02*
X181343000Y-109531000D01*
X186755000Y-102440302D02*
X185955000Y-102440302D01*
X186781000Y-109491000D02*
X181299000Y-109491000D01*
X186824000Y-109451000D02*
X181256000Y-109451000D01*
X186866000Y-109411000D02*
X181214000Y-109411000D01*
X186907000Y-109371000D02*
X181173000Y-109371000D01*
X186947000Y-109331000D02*
X181133000Y-109331000D01*
X186985000Y-109291000D02*
X181095000Y-109291000D01*
X187023000Y-109251000D02*
X181057000Y-109251000D01*
X187059000Y-109211000D02*
X185080000Y-109211000D01*
X187095000Y-109171000D02*
X185080000Y-109171000D01*
X187130000Y-109131000D02*
X185080000Y-109131000D01*
X187164000Y-109091000D02*
X185080000Y-109091000D01*
X187196000Y-109051000D02*
X185080000Y-109051000D01*
X187229000Y-109011000D02*
X185080000Y-109011000D01*
X187260000Y-108971000D02*
X185080000Y-108971000D01*
X187290000Y-108931000D02*
X185080000Y-108931000D01*
X187320000Y-108891000D02*
X185080000Y-108891000D01*
X187349000Y-108851000D02*
X185080000Y-108851000D01*
X187378000Y-108811000D02*
X185080000Y-108811000D01*
X187405000Y-108771000D02*
X185080000Y-108771000D01*
X187432000Y-108731000D02*
X185080000Y-108731000D01*
X187458000Y-108691000D02*
X185080000Y-108691000D01*
X187484000Y-108651000D02*
X185080000Y-108651000D01*
X187509000Y-108611000D02*
X185080000Y-108611000D01*
X187533000Y-108571000D02*
X185080000Y-108571000D01*
X187557000Y-108531000D02*
X185080000Y-108531000D01*
X187580000Y-108491000D02*
X185080000Y-108491000D01*
X187602000Y-108451000D02*
X185080000Y-108451000D01*
X187624000Y-108411000D02*
X185080000Y-108411000D01*
X187646000Y-108371000D02*
X185080000Y-108371000D01*
X187667000Y-108331000D02*
X185080000Y-108331000D01*
X187687000Y-108291000D02*
X185080000Y-108291000D01*
X187706000Y-108251000D02*
X185080000Y-108251000D01*
X187726000Y-108211000D02*
X185080000Y-108211000D01*
X187744000Y-108171000D02*
X185080000Y-108171000D01*
X187762000Y-108131000D02*
X185080000Y-108131000D01*
X187780000Y-108091000D02*
X185080000Y-108091000D01*
X187797000Y-108051000D02*
X185080000Y-108051000D01*
X187814000Y-108011000D02*
X185080000Y-108011000D01*
X187830000Y-107971000D02*
X185080000Y-107971000D01*
X187845000Y-107931000D02*
X185080000Y-107931000D01*
X187861000Y-107891000D02*
X185080000Y-107891000D01*
X187875000Y-107851000D02*
X185080000Y-107851000D01*
X187890000Y-107811000D02*
X185080000Y-107811000D01*
X187903000Y-107771000D02*
X185080000Y-107771000D01*
X187917000Y-107731000D02*
X185080000Y-107731000D01*
X187929000Y-107691000D02*
X185080000Y-107691000D01*
X187942000Y-107651000D02*
X185080000Y-107651000D01*
X187954000Y-107611000D02*
X185080000Y-107611000D01*
X187965000Y-107571000D02*
X185080000Y-107571000D01*
X187976000Y-107531000D02*
X185080000Y-107531000D01*
X187987000Y-107491000D02*
X185080000Y-107491000D01*
X187997000Y-107451000D02*
X185080000Y-107451000D01*
X188007000Y-107411000D02*
X185080000Y-107411000D01*
X188016000Y-107371000D02*
X185080000Y-107371000D01*
X188025000Y-107331000D02*
X185080000Y-107331000D01*
X188034000Y-107291000D02*
X185080000Y-107291000D01*
X188042000Y-107251000D02*
X185080000Y-107251000D01*
X188050000Y-107211000D02*
X185080000Y-107211000D01*
X188057000Y-107171000D02*
X185080000Y-107171000D01*
X188064000Y-107130000D02*
X180016000Y-107130000D01*
X188070000Y-107090000D02*
X180010000Y-107090000D01*
X188077000Y-107050000D02*
X180003000Y-107050000D01*
X188082000Y-107010000D02*
X179998000Y-107010000D01*
X188088000Y-106970000D02*
X179992000Y-106970000D01*
X188092000Y-106930000D02*
X179988000Y-106930000D01*
X188097000Y-106890000D02*
X179983000Y-106890000D01*
X188101000Y-106850000D02*
X179979000Y-106850000D01*
X188105000Y-106810000D02*
X179975000Y-106810000D01*
X188108000Y-106770000D02*
X179972000Y-106770000D01*
X188111000Y-106730000D02*
X179969000Y-106730000D01*
X188114000Y-106690000D02*
X179966000Y-106690000D01*
X188116000Y-106650000D02*
X179964000Y-106650000D01*
X188117000Y-106610000D02*
X179963000Y-106610000D01*
X188119000Y-106570000D02*
X179961000Y-106570000D01*
X188120000Y-106450000D02*
X179960000Y-106450000D01*
X188120000Y-106490000D02*
X179960000Y-106490000D01*
X188120000Y-106530000D02*
X179960000Y-106530000D01*
X188160000Y-106450000D02*
G75*
G02*
X179920000Y-106450000I-4120000J0D01*
G01*
X179920000Y-106450000D02*
G75*
G02*
X188160000Y-106450000I4120000J0D01*
G01*
%TO.C,J4*%
X104200000Y-96140000D02*
X110200000Y-96140000D01*
X104200000Y-96900000D02*
X104200000Y-96140000D01*
X104200000Y-98680000D02*
X110200000Y-98680000D01*
X104200000Y-99440000D02*
X104200000Y-98680000D01*
X110200000Y-95190000D02*
X110200000Y-100390000D01*
X110200000Y-96900000D02*
X104200000Y-96900000D01*
X110200000Y-98780000D02*
X104200000Y-98780000D01*
X110200000Y-98900000D02*
X104200000Y-98900000D01*
X110200000Y-99020000D02*
X104200000Y-99020000D01*
X110200000Y-99140000D02*
X104200000Y-99140000D01*
X110200000Y-99260000D02*
X104200000Y-99260000D01*
X110200000Y-99380000D02*
X104200000Y-99380000D01*
X110200000Y-99440000D02*
X104200000Y-99440000D01*
X110200000Y-100390000D02*
X112860000Y-100390000D01*
X112860000Y-95190000D02*
X110200000Y-95190000D01*
X112860000Y-97790000D02*
X110200000Y-97790000D01*
X112860000Y-100390000D02*
X112860000Y-95190000D01*
X113190000Y-98680000D02*
X112860000Y-98680000D01*
X113190000Y-99440000D02*
X112860000Y-99440000D01*
X113257071Y-96140000D02*
X112860000Y-96140000D01*
X113257071Y-96900000D02*
X112860000Y-96900000D01*
X115570000Y-99060000D02*
X115570000Y-100330000D01*
X115570000Y-100330000D02*
X114300000Y-100330000D01*
%TO.C,D2*%
X122960000Y-86360000D02*
X123610000Y-86360000D01*
X123610000Y-85240000D02*
X123610000Y-87480000D01*
X123610000Y-87480000D02*
X127850000Y-87480000D01*
X127010000Y-87480000D02*
X127010000Y-85240000D01*
X127130000Y-87480000D02*
X127130000Y-85240000D01*
X127250000Y-87480000D02*
X127250000Y-85240000D01*
X127850000Y-85240000D02*
X123610000Y-85240000D01*
X127850000Y-87480000D02*
X127850000Y-85240000D01*
X128500000Y-86360000D02*
X127850000Y-86360000D01*
%TO.C,SW2*%
X137130000Y-125640000D02*
X147350000Y-125640000D01*
X147350000Y-128360000D01*
X137130000Y-128360000D01*
X137130000Y-125640000D01*
%TO.C,C6*%
X176340000Y-72390000D02*
G75*
G02*
X171100000Y-72390000I-2620000J0D01*
G01*
X171100000Y-72390000D02*
G75*
G02*
X176340000Y-72390000I2620000J0D01*
G01*
%TO.C,C5*%
X184500000Y-72390000D02*
G75*
G02*
X179260000Y-72390000I-2620000J0D01*
G01*
X179260000Y-72390000D02*
G75*
G02*
X184500000Y-72390000I2620000J0D01*
G01*
%TO.C,C9*%
X128500000Y-60891000D02*
X125523000Y-60891000D01*
X128500000Y-60931000D02*
X125530000Y-60931000D01*
X128500000Y-60971000D02*
X125538000Y-60971000D01*
X128500000Y-61011000D02*
X125546000Y-61011000D01*
X128500000Y-61051000D02*
X125555000Y-61051000D01*
X128500000Y-61091000D02*
X125564000Y-61091000D01*
X128500000Y-61131000D02*
X125573000Y-61131000D01*
X128500000Y-61171000D02*
X125583000Y-61171000D01*
X128500000Y-61211000D02*
X125593000Y-61211000D01*
X128500000Y-61251000D02*
X125604000Y-61251000D01*
X128500000Y-61291000D02*
X125615000Y-61291000D01*
X128500000Y-61331000D02*
X125626000Y-61331000D01*
X128500000Y-61371000D02*
X125638000Y-61371000D01*
X128500000Y-61411000D02*
X125651000Y-61411000D01*
X128500000Y-61451000D02*
X125663000Y-61451000D01*
X128500000Y-61491000D02*
X125677000Y-61491000D01*
X128500000Y-61531000D02*
X125690000Y-61531000D01*
X128500000Y-61571000D02*
X125705000Y-61571000D01*
X128500000Y-61611000D02*
X125719000Y-61611000D01*
X128500000Y-61651000D02*
X125735000Y-61651000D01*
X128500000Y-61691000D02*
X125750000Y-61691000D01*
X128500000Y-61731000D02*
X125766000Y-61731000D01*
X128500000Y-61771000D02*
X125783000Y-61771000D01*
X128500000Y-61811000D02*
X125800000Y-61811000D01*
X128500000Y-61851000D02*
X125818000Y-61851000D01*
X128500000Y-61891000D02*
X125836000Y-61891000D01*
X128500000Y-61931000D02*
X125854000Y-61931000D01*
X128500000Y-61971000D02*
X125874000Y-61971000D01*
X128500000Y-62011000D02*
X125893000Y-62011000D01*
X128500000Y-62051000D02*
X125913000Y-62051000D01*
X128500000Y-62091000D02*
X125934000Y-62091000D01*
X128500000Y-62131000D02*
X125956000Y-62131000D01*
X128500000Y-62171000D02*
X125978000Y-62171000D01*
X128500000Y-62211000D02*
X126000000Y-62211000D01*
X128500000Y-62251000D02*
X126023000Y-62251000D01*
X128500000Y-62291000D02*
X126047000Y-62291000D01*
X128500000Y-62331000D02*
X126071000Y-62331000D01*
X128500000Y-62371000D02*
X126096000Y-62371000D01*
X128500000Y-62411000D02*
X126122000Y-62411000D01*
X128500000Y-62451000D02*
X126148000Y-62451000D01*
X128500000Y-62491000D02*
X126175000Y-62491000D01*
X128500000Y-62531000D02*
X126202000Y-62531000D01*
X128500000Y-62571000D02*
X126231000Y-62571000D01*
X128500000Y-62611000D02*
X126260000Y-62611000D01*
X128500000Y-62651000D02*
X126290000Y-62651000D01*
X128500000Y-62691000D02*
X126320000Y-62691000D01*
X128500000Y-62731000D02*
X126351000Y-62731000D01*
X128500000Y-62771000D02*
X126384000Y-62771000D01*
X128500000Y-62811000D02*
X126416000Y-62811000D01*
X128500000Y-62851000D02*
X126450000Y-62851000D01*
X128500000Y-62891000D02*
X126485000Y-62891000D01*
X128500000Y-62931000D02*
X126521000Y-62931000D01*
X130073000Y-64251000D02*
X129007000Y-64251000D01*
X130308000Y-64211000D02*
X128772000Y-64211000D01*
X130488000Y-64171000D02*
X128592000Y-64171000D01*
X130638000Y-64131000D02*
X128442000Y-64131000D01*
X130769000Y-64091000D02*
X128311000Y-64091000D01*
X130886000Y-64051000D02*
X128194000Y-64051000D01*
X130993000Y-64011000D02*
X128087000Y-64011000D01*
X131092000Y-63971000D02*
X127988000Y-63971000D01*
X131185000Y-63931000D02*
X127895000Y-63931000D01*
X131271000Y-63891000D02*
X127809000Y-63891000D01*
X131353000Y-63851000D02*
X127727000Y-63851000D01*
X131430000Y-63811000D02*
X127650000Y-63811000D01*
X131504000Y-63771000D02*
X127576000Y-63771000D01*
X131574000Y-63731000D02*
X127506000Y-63731000D01*
X131642000Y-63691000D02*
X127438000Y-63691000D01*
X131706000Y-63651000D02*
X127374000Y-63651000D01*
X131768000Y-63611000D02*
X127312000Y-63611000D01*
X131827000Y-63571000D02*
X127253000Y-63571000D01*
X131855000Y-55760302D02*
X131855000Y-56560302D01*
X131885000Y-63531000D02*
X127195000Y-63531000D01*
X131940000Y-63491000D02*
X127140000Y-63491000D01*
X131994000Y-63451000D02*
X127086000Y-63451000D01*
X132045000Y-63411000D02*
X127035000Y-63411000D01*
X132096000Y-63371000D02*
X126984000Y-63371000D01*
X132144000Y-63331000D02*
X126936000Y-63331000D01*
X132191000Y-63291000D02*
X126889000Y-63291000D01*
X132237000Y-63251000D02*
X126843000Y-63251000D01*
X132255000Y-56160302D02*
X131455000Y-56160302D01*
X132281000Y-63211000D02*
X126799000Y-63211000D01*
X132324000Y-63171000D02*
X126756000Y-63171000D01*
X132366000Y-63131000D02*
X126714000Y-63131000D01*
X132407000Y-63091000D02*
X126673000Y-63091000D01*
X132447000Y-63051000D02*
X126633000Y-63051000D01*
X132485000Y-63011000D02*
X126595000Y-63011000D01*
X132523000Y-62971000D02*
X126557000Y-62971000D01*
X132559000Y-62931000D02*
X130580000Y-62931000D01*
X132595000Y-62891000D02*
X130580000Y-62891000D01*
X132630000Y-62851000D02*
X130580000Y-62851000D01*
X132664000Y-62811000D02*
X130580000Y-62811000D01*
X132696000Y-62771000D02*
X130580000Y-62771000D01*
X132729000Y-62731000D02*
X130580000Y-62731000D01*
X132760000Y-62691000D02*
X130580000Y-62691000D01*
X132790000Y-62651000D02*
X130580000Y-62651000D01*
X132820000Y-62611000D02*
X130580000Y-62611000D01*
X132849000Y-62571000D02*
X130580000Y-62571000D01*
X132878000Y-62531000D02*
X130580000Y-62531000D01*
X132905000Y-62491000D02*
X130580000Y-62491000D01*
X132932000Y-62451000D02*
X130580000Y-62451000D01*
X132958000Y-62411000D02*
X130580000Y-62411000D01*
X132984000Y-62371000D02*
X130580000Y-62371000D01*
X133009000Y-62331000D02*
X130580000Y-62331000D01*
X133033000Y-62291000D02*
X130580000Y-62291000D01*
X133057000Y-62251000D02*
X130580000Y-62251000D01*
X133080000Y-62211000D02*
X130580000Y-62211000D01*
X133102000Y-62171000D02*
X130580000Y-62171000D01*
X133124000Y-62131000D02*
X130580000Y-62131000D01*
X133146000Y-62091000D02*
X130580000Y-62091000D01*
X133167000Y-62051000D02*
X130580000Y-62051000D01*
X133187000Y-62011000D02*
X130580000Y-62011000D01*
X133206000Y-61971000D02*
X130580000Y-61971000D01*
X133226000Y-61931000D02*
X130580000Y-61931000D01*
X133244000Y-61891000D02*
X130580000Y-61891000D01*
X133262000Y-61851000D02*
X130580000Y-61851000D01*
X133280000Y-61811000D02*
X130580000Y-61811000D01*
X133297000Y-61771000D02*
X130580000Y-61771000D01*
X133314000Y-61731000D02*
X130580000Y-61731000D01*
X133330000Y-61691000D02*
X130580000Y-61691000D01*
X133345000Y-61651000D02*
X130580000Y-61651000D01*
X133361000Y-61611000D02*
X130580000Y-61611000D01*
X133375000Y-61571000D02*
X130580000Y-61571000D01*
X133390000Y-61531000D02*
X130580000Y-61531000D01*
X133403000Y-61491000D02*
X130580000Y-61491000D01*
X133417000Y-61451000D02*
X130580000Y-61451000D01*
X133429000Y-61411000D02*
X130580000Y-61411000D01*
X133442000Y-61371000D02*
X130580000Y-61371000D01*
X133454000Y-61331000D02*
X130580000Y-61331000D01*
X133465000Y-61291000D02*
X130580000Y-61291000D01*
X133476000Y-61251000D02*
X130580000Y-61251000D01*
X133487000Y-61211000D02*
X130580000Y-61211000D01*
X133497000Y-61171000D02*
X130580000Y-61171000D01*
X133507000Y-61131000D02*
X130580000Y-61131000D01*
X133516000Y-61091000D02*
X130580000Y-61091000D01*
X133525000Y-61051000D02*
X130580000Y-61051000D01*
X133534000Y-61011000D02*
X130580000Y-61011000D01*
X133542000Y-60971000D02*
X130580000Y-60971000D01*
X133550000Y-60931000D02*
X130580000Y-60931000D01*
X133557000Y-60891000D02*
X130580000Y-60891000D01*
X133564000Y-60850000D02*
X125516000Y-60850000D01*
X133570000Y-60810000D02*
X125510000Y-60810000D01*
X133577000Y-60770000D02*
X125503000Y-60770000D01*
X133582000Y-60730000D02*
X125498000Y-60730000D01*
X133588000Y-60690000D02*
X125492000Y-60690000D01*
X133592000Y-60650000D02*
X125488000Y-60650000D01*
X133597000Y-60610000D02*
X125483000Y-60610000D01*
X133601000Y-60570000D02*
X125479000Y-60570000D01*
X133605000Y-60530000D02*
X125475000Y-60530000D01*
X133608000Y-60490000D02*
X125472000Y-60490000D01*
X133611000Y-60450000D02*
X125469000Y-60450000D01*
X133614000Y-60410000D02*
X125466000Y-60410000D01*
X133616000Y-60370000D02*
X125464000Y-60370000D01*
X133617000Y-60330000D02*
X125463000Y-60330000D01*
X133619000Y-60290000D02*
X125461000Y-60290000D01*
X133620000Y-60170000D02*
X125460000Y-60170000D01*
X133620000Y-60210000D02*
X125460000Y-60210000D01*
X133620000Y-60250000D02*
X125460000Y-60250000D01*
X133660000Y-60170000D02*
G75*
G02*
X125420000Y-60170000I-4120000J0D01*
G01*
X125420000Y-60170000D02*
G75*
G02*
X133660000Y-60170000I4120000J0D01*
G01*
%TO.C,J1*%
X186690000Y-46990000D02*
X187960000Y-46990000D01*
X186690000Y-48260000D02*
X186690000Y-46990000D01*
X189002929Y-50420000D02*
X189400000Y-50420000D01*
X189002929Y-51180000D02*
X189400000Y-51180000D01*
X189002929Y-52960000D02*
X189400000Y-52960000D01*
X189002929Y-53720000D02*
X189400000Y-53720000D01*
X189002929Y-55500000D02*
X189400000Y-55500000D01*
X189002929Y-56260000D02*
X189400000Y-56260000D01*
X189070000Y-47880000D02*
X189400000Y-47880000D01*
X189070000Y-48640000D02*
X189400000Y-48640000D01*
X189400000Y-46930000D02*
X189400000Y-57210000D01*
X189400000Y-49530000D02*
X192060000Y-49530000D01*
X189400000Y-52070000D02*
X192060000Y-52070000D01*
X189400000Y-54610000D02*
X192060000Y-54610000D01*
X189400000Y-57210000D02*
X192060000Y-57210000D01*
X192060000Y-46930000D02*
X189400000Y-46930000D01*
X192060000Y-47880000D02*
X198060000Y-47880000D01*
X192060000Y-47940000D02*
X198060000Y-47940000D01*
X192060000Y-48060000D02*
X198060000Y-48060000D01*
X192060000Y-48180000D02*
X198060000Y-48180000D01*
X192060000Y-48300000D02*
X198060000Y-48300000D01*
X192060000Y-48420000D02*
X198060000Y-48420000D01*
X192060000Y-48540000D02*
X198060000Y-48540000D01*
X192060000Y-50420000D02*
X198060000Y-50420000D01*
X192060000Y-52960000D02*
X198060000Y-52960000D01*
X192060000Y-55500000D02*
X198060000Y-55500000D01*
X192060000Y-57210000D02*
X192060000Y-46930000D01*
X198060000Y-47880000D02*
X198060000Y-48640000D01*
X198060000Y-48640000D02*
X192060000Y-48640000D01*
X198060000Y-50420000D02*
X198060000Y-51180000D01*
X198060000Y-51180000D02*
X192060000Y-51180000D01*
X198060000Y-52960000D02*
X198060000Y-53720000D01*
X198060000Y-53720000D02*
X192060000Y-53720000D01*
X198060000Y-55500000D02*
X198060000Y-56260000D01*
X198060000Y-56260000D02*
X192060000Y-56260000D01*
%TO.C,Y1*%
X174120000Y-80010000D02*
X173420000Y-80010000D01*
X174120000Y-82550000D02*
X173420000Y-82550000D01*
X175520000Y-79580000D02*
X175520000Y-82980000D01*
X175520000Y-80680000D02*
X174120000Y-80010000D01*
X175520000Y-81880000D02*
X174120000Y-82550000D01*
X175520000Y-82980000D02*
X186420000Y-82980000D01*
X186420000Y-79580000D02*
X175520000Y-79580000D01*
X186420000Y-82980000D02*
X186420000Y-79580000D01*
%TO.C,C3*%
X139780000Y-107680000D02*
G75*
G02*
X134540000Y-107680000I-2620000J0D01*
G01*
X134540000Y-107680000D02*
G75*
G02*
X139780000Y-107680000I2620000J0D01*
G01*
%TO.C,SW1*%
X124430000Y-125640000D02*
X134650000Y-125640000D01*
X134650000Y-128360000D01*
X124430000Y-128360000D01*
X124430000Y-125640000D01*
%TO.C,L1*%
X125780000Y-115340000D02*
X125780000Y-120880000D01*
X125780000Y-120880000D02*
X128220000Y-120880000D01*
X128220000Y-115340000D02*
X125780000Y-115340000D01*
X128220000Y-120880000D02*
X128220000Y-115340000D01*
%TO.C,R10*%
X122460000Y-92610000D02*
X129000000Y-92610000D01*
X122460000Y-92940000D02*
X122460000Y-92610000D01*
X122460000Y-95020000D02*
X122460000Y-95350000D01*
X122460000Y-95350000D02*
X129000000Y-95350000D01*
X129000000Y-92610000D02*
X129000000Y-92940000D01*
X129000000Y-95350000D02*
X129000000Y-95020000D01*
%TO.C,R8*%
X156110000Y-113570000D02*
X156110000Y-120110000D01*
X156110000Y-120110000D02*
X156440000Y-120110000D01*
X156440000Y-113570000D02*
X156110000Y-113570000D01*
X158520000Y-113570000D02*
X158850000Y-113570000D01*
X158850000Y-113570000D02*
X158850000Y-120110000D01*
X158850000Y-120110000D02*
X158520000Y-120110000D01*
%TO.C,R1*%
X165640000Y-46890000D02*
X172180000Y-46890000D01*
X165640000Y-47220000D02*
X165640000Y-46890000D01*
X165640000Y-49300000D02*
X165640000Y-49630000D01*
X165640000Y-49630000D02*
X172180000Y-49630000D01*
X172180000Y-46890000D02*
X172180000Y-47220000D01*
X172180000Y-49630000D02*
X172180000Y-49300000D01*
%TO.C,J2*%
X179780000Y-116400000D02*
X180280000Y-116400000D01*
X179780000Y-117600000D02*
X177780000Y-117600000D01*
X179780000Y-117600000D02*
X179780000Y-116400000D01*
X179780000Y-120200000D02*
X177780000Y-120200000D01*
X179780000Y-126700000D02*
X179780000Y-120200000D01*
X179780000Y-131100000D02*
X179780000Y-129900000D01*
X180280000Y-113900000D02*
X185480000Y-113900000D01*
X180280000Y-116400000D02*
X180280000Y-113900000D01*
X185480000Y-113900000D02*
X185480000Y-116400000D01*
X185480000Y-116400000D02*
X185980000Y-116400000D01*
X185980000Y-116400000D02*
X185980000Y-119600000D01*
X185980000Y-122200000D02*
X185980000Y-131100000D01*
X185980000Y-131100000D02*
X179780000Y-131100000D01*
%TO.C,C2*%
X144860000Y-72660000D02*
G75*
G02*
X139620000Y-72660000I-2620000J0D01*
G01*
X139620000Y-72660000D02*
G75*
G02*
X144860000Y-72660000I2620000J0D01*
G01*
%TO.C,C12*%
X149940000Y-100060000D02*
G75*
G02*
X144700000Y-100060000I-2620000J0D01*
G01*
X144700000Y-100060000D02*
G75*
G02*
X149940000Y-100060000I2620000J0D01*
G01*
%TO.C,C4*%
X144860000Y-64500000D02*
G75*
G02*
X139620000Y-64500000I-2620000J0D01*
G01*
X139620000Y-64500000D02*
G75*
G02*
X144860000Y-64500000I2620000J0D01*
G01*
D11*
%TO.C,KT1*%
X152880000Y-78262500D02*
X156880000Y-78262500D01*
X152880000Y-83662500D02*
X156880000Y-83662500D01*
D12*
X152530000Y-78262500D02*
X152290000Y-77932500D01*
X152770000Y-77932500D01*
X152530000Y-78262500D01*
G36*
X152530000Y-78262500D02*
G01*
X152290000Y-77932500D01*
X152770000Y-77932500D01*
X152530000Y-78262500D01*
G37*
%TO.C,C11*%
X149940000Y-107680000D02*
G75*
G02*
X144700000Y-107680000I-2620000J0D01*
G01*
X144700000Y-107680000D02*
G75*
G02*
X149940000Y-107680000I2620000J0D01*
G01*
%TO.C,C13*%
X129620000Y-100060000D02*
G75*
G02*
X124380000Y-100060000I-2620000J0D01*
G01*
X124380000Y-100060000D02*
G75*
G02*
X129620000Y-100060000I2620000J0D01*
G01*
%TO.C,C7*%
X170300000Y-107171000D02*
X167323000Y-107171000D01*
X170300000Y-107211000D02*
X167330000Y-107211000D01*
X170300000Y-107251000D02*
X167338000Y-107251000D01*
X170300000Y-107291000D02*
X167346000Y-107291000D01*
X170300000Y-107331000D02*
X167355000Y-107331000D01*
X170300000Y-107371000D02*
X167364000Y-107371000D01*
X170300000Y-107411000D02*
X167373000Y-107411000D01*
X170300000Y-107451000D02*
X167383000Y-107451000D01*
X170300000Y-107491000D02*
X167393000Y-107491000D01*
X170300000Y-107531000D02*
X167404000Y-107531000D01*
X170300000Y-107571000D02*
X167415000Y-107571000D01*
X170300000Y-107611000D02*
X167426000Y-107611000D01*
X170300000Y-107651000D02*
X167438000Y-107651000D01*
X170300000Y-107691000D02*
X167451000Y-107691000D01*
X170300000Y-107731000D02*
X167463000Y-107731000D01*
X170300000Y-107771000D02*
X167477000Y-107771000D01*
X170300000Y-107811000D02*
X167490000Y-107811000D01*
X170300000Y-107851000D02*
X167505000Y-107851000D01*
X170300000Y-107891000D02*
X167519000Y-107891000D01*
X170300000Y-107931000D02*
X167535000Y-107931000D01*
X170300000Y-107971000D02*
X167550000Y-107971000D01*
X170300000Y-108011000D02*
X167566000Y-108011000D01*
X170300000Y-108051000D02*
X167583000Y-108051000D01*
X170300000Y-108091000D02*
X167600000Y-108091000D01*
X170300000Y-108131000D02*
X167618000Y-108131000D01*
X170300000Y-108171000D02*
X167636000Y-108171000D01*
X170300000Y-108211000D02*
X167654000Y-108211000D01*
X170300000Y-108251000D02*
X167674000Y-108251000D01*
X170300000Y-108291000D02*
X167693000Y-108291000D01*
X170300000Y-108331000D02*
X167713000Y-108331000D01*
X170300000Y-108371000D02*
X167734000Y-108371000D01*
X170300000Y-108411000D02*
X167756000Y-108411000D01*
X170300000Y-108451000D02*
X167778000Y-108451000D01*
X170300000Y-108491000D02*
X167800000Y-108491000D01*
X170300000Y-108531000D02*
X167823000Y-108531000D01*
X170300000Y-108571000D02*
X167847000Y-108571000D01*
X170300000Y-108611000D02*
X167871000Y-108611000D01*
X170300000Y-108651000D02*
X167896000Y-108651000D01*
X170300000Y-108691000D02*
X167922000Y-108691000D01*
X170300000Y-108731000D02*
X167948000Y-108731000D01*
X170300000Y-108771000D02*
X167975000Y-108771000D01*
X170300000Y-108811000D02*
X168002000Y-108811000D01*
X170300000Y-108851000D02*
X168031000Y-108851000D01*
X170300000Y-108891000D02*
X168060000Y-108891000D01*
X170300000Y-108931000D02*
X168090000Y-108931000D01*
X170300000Y-108971000D02*
X168120000Y-108971000D01*
X170300000Y-109011000D02*
X168151000Y-109011000D01*
X170300000Y-109051000D02*
X168184000Y-109051000D01*
X170300000Y-109091000D02*
X168216000Y-109091000D01*
X170300000Y-109131000D02*
X168250000Y-109131000D01*
X170300000Y-109171000D02*
X168285000Y-109171000D01*
X170300000Y-109211000D02*
X168321000Y-109211000D01*
X171873000Y-110531000D02*
X170807000Y-110531000D01*
X172108000Y-110491000D02*
X170572000Y-110491000D01*
X172288000Y-110451000D02*
X170392000Y-110451000D01*
X172438000Y-110411000D02*
X170242000Y-110411000D01*
X172569000Y-110371000D02*
X170111000Y-110371000D01*
X172686000Y-110331000D02*
X169994000Y-110331000D01*
X172793000Y-110291000D02*
X169887000Y-110291000D01*
X172892000Y-110251000D02*
X169788000Y-110251000D01*
X172985000Y-110211000D02*
X169695000Y-110211000D01*
X173071000Y-110171000D02*
X169609000Y-110171000D01*
X173153000Y-110131000D02*
X169527000Y-110131000D01*
X173230000Y-110091000D02*
X169450000Y-110091000D01*
X173304000Y-110051000D02*
X169376000Y-110051000D01*
X173374000Y-110011000D02*
X169306000Y-110011000D01*
X173442000Y-109971000D02*
X169238000Y-109971000D01*
X173506000Y-109931000D02*
X169174000Y-109931000D01*
X173568000Y-109891000D02*
X169112000Y-109891000D01*
X173627000Y-109851000D02*
X169053000Y-109851000D01*
X173655000Y-102040302D02*
X173655000Y-102840302D01*
X173685000Y-109811000D02*
X168995000Y-109811000D01*
X173740000Y-109771000D02*
X168940000Y-109771000D01*
X173794000Y-109731000D02*
X168886000Y-109731000D01*
X173845000Y-109691000D02*
X168835000Y-109691000D01*
X173896000Y-109651000D02*
X168784000Y-109651000D01*
X173944000Y-109611000D02*
X168736000Y-109611000D01*
X173991000Y-109571000D02*
X168689000Y-109571000D01*
X174037000Y-109531000D02*
X168643000Y-109531000D01*
X174055000Y-102440302D02*
X173255000Y-102440302D01*
X174081000Y-109491000D02*
X168599000Y-109491000D01*
X174124000Y-109451000D02*
X168556000Y-109451000D01*
X174166000Y-109411000D02*
X168514000Y-109411000D01*
X174207000Y-109371000D02*
X168473000Y-109371000D01*
X174247000Y-109331000D02*
X168433000Y-109331000D01*
X174285000Y-109291000D02*
X168395000Y-109291000D01*
X174323000Y-109251000D02*
X168357000Y-109251000D01*
X174359000Y-109211000D02*
X172380000Y-109211000D01*
X174395000Y-109171000D02*
X172380000Y-109171000D01*
X174430000Y-109131000D02*
X172380000Y-109131000D01*
X174464000Y-109091000D02*
X172380000Y-109091000D01*
X174496000Y-109051000D02*
X172380000Y-109051000D01*
X174529000Y-109011000D02*
X172380000Y-109011000D01*
X174560000Y-108971000D02*
X172380000Y-108971000D01*
X174590000Y-108931000D02*
X172380000Y-108931000D01*
X174620000Y-108891000D02*
X172380000Y-108891000D01*
X174649000Y-108851000D02*
X172380000Y-108851000D01*
X174678000Y-108811000D02*
X172380000Y-108811000D01*
X174705000Y-108771000D02*
X172380000Y-108771000D01*
X174732000Y-108731000D02*
X172380000Y-108731000D01*
X174758000Y-108691000D02*
X172380000Y-108691000D01*
X174784000Y-108651000D02*
X172380000Y-108651000D01*
X174809000Y-108611000D02*
X172380000Y-108611000D01*
X174833000Y-108571000D02*
X172380000Y-108571000D01*
X174857000Y-108531000D02*
X172380000Y-108531000D01*
X174880000Y-108491000D02*
X172380000Y-108491000D01*
X174902000Y-108451000D02*
X172380000Y-108451000D01*
X174924000Y-108411000D02*
X172380000Y-108411000D01*
X174946000Y-108371000D02*
X172380000Y-108371000D01*
X174967000Y-108331000D02*
X172380000Y-108331000D01*
X174987000Y-108291000D02*
X172380000Y-108291000D01*
X175006000Y-108251000D02*
X172380000Y-108251000D01*
X175026000Y-108211000D02*
X172380000Y-108211000D01*
X175044000Y-108171000D02*
X172380000Y-108171000D01*
X175062000Y-108131000D02*
X172380000Y-108131000D01*
X175080000Y-108091000D02*
X172380000Y-108091000D01*
X175097000Y-108051000D02*
X172380000Y-108051000D01*
X175114000Y-108011000D02*
X172380000Y-108011000D01*
X175130000Y-107971000D02*
X172380000Y-107971000D01*
X175145000Y-107931000D02*
X172380000Y-107931000D01*
X175161000Y-107891000D02*
X172380000Y-107891000D01*
X175175000Y-107851000D02*
X172380000Y-107851000D01*
X175190000Y-107811000D02*
X172380000Y-107811000D01*
X175203000Y-107771000D02*
X172380000Y-107771000D01*
X175217000Y-107731000D02*
X172380000Y-107731000D01*
X175229000Y-107691000D02*
X172380000Y-107691000D01*
X175242000Y-107651000D02*
X172380000Y-107651000D01*
X175254000Y-107611000D02*
X172380000Y-107611000D01*
X175265000Y-107571000D02*
X172380000Y-107571000D01*
X175276000Y-107531000D02*
X172380000Y-107531000D01*
X175287000Y-107491000D02*
X172380000Y-107491000D01*
X175297000Y-107451000D02*
X172380000Y-107451000D01*
X175307000Y-107411000D02*
X172380000Y-107411000D01*
X175316000Y-107371000D02*
X172380000Y-107371000D01*
X175325000Y-107331000D02*
X172380000Y-107331000D01*
X175334000Y-107291000D02*
X172380000Y-107291000D01*
X175342000Y-107251000D02*
X172380000Y-107251000D01*
X175350000Y-107211000D02*
X172380000Y-107211000D01*
X175357000Y-107171000D02*
X172380000Y-107171000D01*
X175364000Y-107130000D02*
X167316000Y-107130000D01*
X175370000Y-107090000D02*
X167310000Y-107090000D01*
X175377000Y-107050000D02*
X167303000Y-107050000D01*
X175382000Y-107010000D02*
X167298000Y-107010000D01*
X175388000Y-106970000D02*
X167292000Y-106970000D01*
X175392000Y-106930000D02*
X167288000Y-106930000D01*
X175397000Y-106890000D02*
X167283000Y-106890000D01*
X175401000Y-106850000D02*
X167279000Y-106850000D01*
X175405000Y-106810000D02*
X167275000Y-106810000D01*
X175408000Y-106770000D02*
X167272000Y-106770000D01*
X175411000Y-106730000D02*
X167269000Y-106730000D01*
X175414000Y-106690000D02*
X167266000Y-106690000D01*
X175416000Y-106650000D02*
X167264000Y-106650000D01*
X175417000Y-106610000D02*
X167263000Y-106610000D01*
X175419000Y-106570000D02*
X167261000Y-106570000D01*
X175420000Y-106450000D02*
X167260000Y-106450000D01*
X175420000Y-106490000D02*
X167260000Y-106490000D01*
X175420000Y-106530000D02*
X167260000Y-106530000D01*
X175460000Y-106450000D02*
G75*
G02*
X167220000Y-106450000I-4120000J0D01*
G01*
X167220000Y-106450000D02*
G75*
G02*
X175460000Y-106450000I4120000J0D01*
G01*
%TO.C,C1*%
X129620000Y-107680000D02*
G75*
G02*
X124380000Y-107680000I-2620000J0D01*
G01*
X124380000Y-107680000D02*
G75*
G02*
X129620000Y-107680000I2620000J0D01*
G01*
%TO.C,C10*%
X125460000Y-71830000D02*
X133620000Y-71830000D01*
X125460000Y-71870000D02*
X133620000Y-71870000D01*
X125460000Y-71910000D02*
X133620000Y-71910000D01*
X125461000Y-71790000D02*
X133619000Y-71790000D01*
X125463000Y-71750000D02*
X133617000Y-71750000D01*
X125464000Y-71710000D02*
X133616000Y-71710000D01*
X125466000Y-71670000D02*
X133614000Y-71670000D01*
X125469000Y-71630000D02*
X133611000Y-71630000D01*
X125472000Y-71590000D02*
X133608000Y-71590000D01*
X125475000Y-71550000D02*
X133605000Y-71550000D01*
X125479000Y-71510000D02*
X133601000Y-71510000D01*
X125483000Y-71470000D02*
X133597000Y-71470000D01*
X125488000Y-71430000D02*
X133592000Y-71430000D01*
X125492000Y-71390000D02*
X133588000Y-71390000D01*
X125498000Y-71350000D02*
X133582000Y-71350000D01*
X125503000Y-71310000D02*
X133577000Y-71310000D01*
X125510000Y-71270000D02*
X133570000Y-71270000D01*
X125516000Y-71230000D02*
X133564000Y-71230000D01*
X125523000Y-71189000D02*
X128500000Y-71189000D01*
X125530000Y-71149000D02*
X128500000Y-71149000D01*
X125538000Y-71109000D02*
X128500000Y-71109000D01*
X125546000Y-71069000D02*
X128500000Y-71069000D01*
X125555000Y-71029000D02*
X128500000Y-71029000D01*
X125564000Y-70989000D02*
X128500000Y-70989000D01*
X125573000Y-70949000D02*
X128500000Y-70949000D01*
X125583000Y-70909000D02*
X128500000Y-70909000D01*
X125593000Y-70869000D02*
X128500000Y-70869000D01*
X125604000Y-70829000D02*
X128500000Y-70829000D01*
X125615000Y-70789000D02*
X128500000Y-70789000D01*
X125626000Y-70749000D02*
X128500000Y-70749000D01*
X125638000Y-70709000D02*
X128500000Y-70709000D01*
X125651000Y-70669000D02*
X128500000Y-70669000D01*
X125663000Y-70629000D02*
X128500000Y-70629000D01*
X125677000Y-70589000D02*
X128500000Y-70589000D01*
X125690000Y-70549000D02*
X128500000Y-70549000D01*
X125705000Y-70509000D02*
X128500000Y-70509000D01*
X125719000Y-70469000D02*
X128500000Y-70469000D01*
X125735000Y-70429000D02*
X128500000Y-70429000D01*
X125750000Y-70389000D02*
X128500000Y-70389000D01*
X125766000Y-70349000D02*
X128500000Y-70349000D01*
X125783000Y-70309000D02*
X128500000Y-70309000D01*
X125800000Y-70269000D02*
X128500000Y-70269000D01*
X125818000Y-70229000D02*
X128500000Y-70229000D01*
X125836000Y-70189000D02*
X128500000Y-70189000D01*
X125854000Y-70149000D02*
X128500000Y-70149000D01*
X125874000Y-70109000D02*
X128500000Y-70109000D01*
X125893000Y-70069000D02*
X128500000Y-70069000D01*
X125913000Y-70029000D02*
X128500000Y-70029000D01*
X125934000Y-69989000D02*
X128500000Y-69989000D01*
X125956000Y-69949000D02*
X128500000Y-69949000D01*
X125978000Y-69909000D02*
X128500000Y-69909000D01*
X126000000Y-69869000D02*
X128500000Y-69869000D01*
X126023000Y-69829000D02*
X128500000Y-69829000D01*
X126047000Y-69789000D02*
X128500000Y-69789000D01*
X126071000Y-69749000D02*
X128500000Y-69749000D01*
X126096000Y-69709000D02*
X128500000Y-69709000D01*
X126122000Y-69669000D02*
X128500000Y-69669000D01*
X126148000Y-69629000D02*
X128500000Y-69629000D01*
X126175000Y-69589000D02*
X128500000Y-69589000D01*
X126202000Y-69549000D02*
X128500000Y-69549000D01*
X126231000Y-69509000D02*
X128500000Y-69509000D01*
X126260000Y-69469000D02*
X128500000Y-69469000D01*
X126290000Y-69429000D02*
X128500000Y-69429000D01*
X126320000Y-69389000D02*
X128500000Y-69389000D01*
X126351000Y-69349000D02*
X128500000Y-69349000D01*
X126384000Y-69309000D02*
X128500000Y-69309000D01*
X126416000Y-69269000D02*
X128500000Y-69269000D01*
X126450000Y-69229000D02*
X128500000Y-69229000D01*
X126485000Y-69189000D02*
X128500000Y-69189000D01*
X126521000Y-69149000D02*
X128500000Y-69149000D01*
X126557000Y-69109000D02*
X132523000Y-69109000D01*
X126595000Y-69069000D02*
X132485000Y-69069000D01*
X126633000Y-69029000D02*
X132447000Y-69029000D01*
X126673000Y-68989000D02*
X132407000Y-68989000D01*
X126714000Y-68949000D02*
X132366000Y-68949000D01*
X126756000Y-68909000D02*
X132324000Y-68909000D01*
X126799000Y-68869000D02*
X132281000Y-68869000D01*
X126825000Y-75919698D02*
X127625000Y-75919698D01*
X126843000Y-68829000D02*
X132237000Y-68829000D01*
X126889000Y-68789000D02*
X132191000Y-68789000D01*
X126936000Y-68749000D02*
X132144000Y-68749000D01*
X126984000Y-68709000D02*
X132096000Y-68709000D01*
X127035000Y-68669000D02*
X132045000Y-68669000D01*
X127086000Y-68629000D02*
X131994000Y-68629000D01*
X127140000Y-68589000D02*
X131940000Y-68589000D01*
X127195000Y-68549000D02*
X131885000Y-68549000D01*
X127225000Y-76319698D02*
X127225000Y-75519698D01*
X127253000Y-68509000D02*
X131827000Y-68509000D01*
X127312000Y-68469000D02*
X131768000Y-68469000D01*
X127374000Y-68429000D02*
X131706000Y-68429000D01*
X127438000Y-68389000D02*
X131642000Y-68389000D01*
X127506000Y-68349000D02*
X131574000Y-68349000D01*
X127576000Y-68309000D02*
X131504000Y-68309000D01*
X127650000Y-68269000D02*
X131430000Y-68269000D01*
X127727000Y-68229000D02*
X131353000Y-68229000D01*
X127809000Y-68189000D02*
X131271000Y-68189000D01*
X127895000Y-68149000D02*
X131185000Y-68149000D01*
X127988000Y-68109000D02*
X131092000Y-68109000D01*
X128087000Y-68069000D02*
X130993000Y-68069000D01*
X128194000Y-68029000D02*
X130886000Y-68029000D01*
X128311000Y-67989000D02*
X130769000Y-67989000D01*
X128442000Y-67949000D02*
X130638000Y-67949000D01*
X128592000Y-67909000D02*
X130488000Y-67909000D01*
X128772000Y-67869000D02*
X130308000Y-67869000D01*
X129007000Y-67829000D02*
X130073000Y-67829000D01*
X130580000Y-69149000D02*
X132559000Y-69149000D01*
X130580000Y-69189000D02*
X132595000Y-69189000D01*
X130580000Y-69229000D02*
X132630000Y-69229000D01*
X130580000Y-69269000D02*
X132664000Y-69269000D01*
X130580000Y-69309000D02*
X132696000Y-69309000D01*
X130580000Y-69349000D02*
X132729000Y-69349000D01*
X130580000Y-69389000D02*
X132760000Y-69389000D01*
X130580000Y-69429000D02*
X132790000Y-69429000D01*
X130580000Y-69469000D02*
X132820000Y-69469000D01*
X130580000Y-69509000D02*
X132849000Y-69509000D01*
X130580000Y-69549000D02*
X132878000Y-69549000D01*
X130580000Y-69589000D02*
X132905000Y-69589000D01*
X130580000Y-69629000D02*
X132932000Y-69629000D01*
X130580000Y-69669000D02*
X132958000Y-69669000D01*
X130580000Y-69709000D02*
X132984000Y-69709000D01*
X130580000Y-69749000D02*
X133009000Y-69749000D01*
X130580000Y-69789000D02*
X133033000Y-69789000D01*
X130580000Y-69829000D02*
X133057000Y-69829000D01*
X130580000Y-69869000D02*
X133080000Y-69869000D01*
X130580000Y-69909000D02*
X133102000Y-69909000D01*
X130580000Y-69949000D02*
X133124000Y-69949000D01*
X130580000Y-69989000D02*
X133146000Y-69989000D01*
X130580000Y-70029000D02*
X133167000Y-70029000D01*
X130580000Y-70069000D02*
X133187000Y-70069000D01*
X130580000Y-70109000D02*
X133206000Y-70109000D01*
X130580000Y-70149000D02*
X133226000Y-70149000D01*
X130580000Y-70189000D02*
X133244000Y-70189000D01*
X130580000Y-70229000D02*
X133262000Y-70229000D01*
X130580000Y-70269000D02*
X133280000Y-70269000D01*
X130580000Y-70309000D02*
X133297000Y-70309000D01*
X130580000Y-70349000D02*
X133314000Y-70349000D01*
X130580000Y-70389000D02*
X133330000Y-70389000D01*
X130580000Y-70429000D02*
X133345000Y-70429000D01*
X130580000Y-70469000D02*
X133361000Y-70469000D01*
X130580000Y-70509000D02*
X133375000Y-70509000D01*
X130580000Y-70549000D02*
X133390000Y-70549000D01*
X130580000Y-70589000D02*
X133403000Y-70589000D01*
X130580000Y-70629000D02*
X133417000Y-70629000D01*
X130580000Y-70669000D02*
X133429000Y-70669000D01*
X130580000Y-70709000D02*
X133442000Y-70709000D01*
X130580000Y-70749000D02*
X133454000Y-70749000D01*
X130580000Y-70789000D02*
X133465000Y-70789000D01*
X130580000Y-70829000D02*
X133476000Y-70829000D01*
X130580000Y-70869000D02*
X133487000Y-70869000D01*
X130580000Y-70909000D02*
X133497000Y-70909000D01*
X130580000Y-70949000D02*
X133507000Y-70949000D01*
X130580000Y-70989000D02*
X133516000Y-70989000D01*
X130580000Y-71029000D02*
X133525000Y-71029000D01*
X130580000Y-71069000D02*
X133534000Y-71069000D01*
X130580000Y-71109000D02*
X133542000Y-71109000D01*
X130580000Y-71149000D02*
X133550000Y-71149000D01*
X130580000Y-71189000D02*
X133557000Y-71189000D01*
X133660000Y-71910000D02*
G75*
G02*
X125420000Y-71910000I-4120000J0D01*
G01*
X125420000Y-71910000D02*
G75*
G02*
X133660000Y-71910000I4120000J0D01*
G01*
%TO.C,Q1*%
X151710000Y-119910000D02*
X151710000Y-116310000D01*
X147260000Y-118110000D02*
G75*
G02*
X151698478Y-116271522I2600000J0D01*
G01*
X151698478Y-119948478D02*
G75*
G02*
X147259999Y-118110000I-1838478J1838478D01*
G01*
%TO.C,R2*%
X165640000Y-54510000D02*
X172180000Y-54510000D01*
X165640000Y-54840000D02*
X165640000Y-54510000D01*
X165640000Y-56920000D02*
X165640000Y-57250000D01*
X165640000Y-57250000D02*
X172180000Y-57250000D01*
X172180000Y-54510000D02*
X172180000Y-54840000D01*
X172180000Y-57250000D02*
X172180000Y-56920000D01*
%TO.C,D1*%
X156360000Y-103290000D02*
X156360000Y-107530000D01*
X156360000Y-107530000D02*
X158600000Y-107530000D01*
X157480000Y-102640000D02*
X157480000Y-103290000D01*
X157480000Y-108180000D02*
X157480000Y-107530000D01*
X158600000Y-103290000D02*
X156360000Y-103290000D01*
X158600000Y-103890000D02*
X156360000Y-103890000D01*
X158600000Y-104010000D02*
X156360000Y-104010000D01*
X158600000Y-104130000D02*
X156360000Y-104130000D01*
X158600000Y-107530000D02*
X158600000Y-103290000D01*
%TO.C,C14*%
X138780000Y-86360000D02*
G75*
G02*
X133540000Y-86360000I-2620000J0D01*
G01*
X133540000Y-86360000D02*
G75*
G02*
X138780000Y-86360000I2620000J0D01*
G01*
%TO.C,R9*%
X135790000Y-94520000D02*
X136120000Y-94520000D01*
X135790000Y-101060000D02*
X135790000Y-94520000D01*
X136120000Y-101060000D02*
X135790000Y-101060000D01*
X138200000Y-101060000D02*
X138530000Y-101060000D01*
X138530000Y-94520000D02*
X138200000Y-94520000D01*
X138530000Y-101060000D02*
X138530000Y-94520000D01*
%TO.C,R7*%
X152940000Y-125630000D02*
X152940000Y-125960000D01*
X152940000Y-128370000D02*
X152940000Y-128040000D01*
X159480000Y-125630000D02*
X152940000Y-125630000D01*
X159480000Y-125960000D02*
X159480000Y-125630000D01*
X159480000Y-128040000D02*
X159480000Y-128370000D01*
X159480000Y-128370000D02*
X152940000Y-128370000D01*
%TO.C,R6*%
X133250000Y-114840000D02*
X133580000Y-114840000D01*
X133250000Y-121380000D02*
X133250000Y-114840000D01*
X133580000Y-121380000D02*
X133250000Y-121380000D01*
X135660000Y-121380000D02*
X135990000Y-121380000D01*
X135990000Y-114840000D02*
X135660000Y-114840000D01*
X135990000Y-121380000D02*
X135990000Y-114840000D01*
%TO.C,R5*%
X140870000Y-114840000D02*
X141200000Y-114840000D01*
X140870000Y-121380000D02*
X140870000Y-114840000D01*
X141200000Y-121380000D02*
X140870000Y-121380000D01*
X143280000Y-121380000D02*
X143610000Y-121380000D01*
X143610000Y-114840000D02*
X143280000Y-114840000D01*
X143610000Y-121380000D02*
X143610000Y-114840000D01*
%TO.C,J3*%
X114900000Y-116880000D02*
X115400000Y-116880000D01*
X114900000Y-118080000D02*
X112900000Y-118080000D01*
X114900000Y-118080000D02*
X114900000Y-116880000D01*
X114900000Y-120680000D02*
X112900000Y-120680000D01*
X114900000Y-127180000D02*
X114900000Y-120680000D01*
X114900000Y-131580000D02*
X114900000Y-130380000D01*
X115400000Y-114380000D02*
X120600000Y-114380000D01*
X115400000Y-116880000D02*
X115400000Y-114380000D01*
X120600000Y-114380000D02*
X120600000Y-116880000D01*
X120600000Y-116880000D02*
X121100000Y-116880000D01*
X121100000Y-116880000D02*
X121100000Y-120080000D01*
X121100000Y-122680000D02*
X121100000Y-131580000D01*
X121100000Y-131580000D02*
X114900000Y-131580000D01*
%TO.C,R3*%
X168180000Y-92610000D02*
X168180000Y-92940000D01*
X168180000Y-95350000D02*
X168180000Y-95020000D01*
X174720000Y-92610000D02*
X168180000Y-92610000D01*
X174720000Y-92940000D02*
X174720000Y-92610000D01*
X174720000Y-95020000D02*
X174720000Y-95350000D01*
X174720000Y-95350000D02*
X168180000Y-95350000D01*
%TO.C,R4*%
X180880000Y-92610000D02*
X187420000Y-92610000D01*
X180880000Y-92940000D02*
X180880000Y-92610000D01*
X180880000Y-95020000D02*
X180880000Y-95350000D01*
X180880000Y-95350000D02*
X187420000Y-95350000D01*
X187420000Y-92610000D02*
X187420000Y-92940000D01*
X187420000Y-95350000D02*
X187420000Y-95020000D01*
%TD*%
M02*
