%TF.GenerationSoftware,KiCad,Pcbnew,8.0.4*%
%TF.CreationDate,2024-11-30T00:07:58+09:00*%
%TF.ProjectId,radio_I2C,72616469-6f5f-4493-9243-2e6b69636164,rev?*%
%TF.SameCoordinates,Original*%
%TF.FileFunction,Copper,L1,Top*%
%TF.FilePolarity,Positive*%
%FSLAX46Y46*%
G04 Gerber Fmt 4.6, Leading zero omitted, Abs format (unit mm)*
G04 Created by KiCad (PCBNEW 8.0.4) date 2024-11-30 00:07:58*
%MOMM*%
%LPD*%
G01*
G04 APERTURE LIST*
%TA.AperFunction,ComponentPad*%
%ADD10R,1.600000X1.600000*%
%TD*%
%TA.AperFunction,ComponentPad*%
%ADD11C,1.600000*%
%TD*%
%TA.AperFunction,ComponentPad*%
%ADD12R,1.700000X1.700000*%
%TD*%
%TA.AperFunction,ComponentPad*%
%ADD13O,1.700000X1.700000*%
%TD*%
%TA.AperFunction,ComponentPad*%
%ADD14O,1.600000X1.600000*%
%TD*%
%TA.AperFunction,ComponentPad*%
%ADD15R,1.500000X1.500000*%
%TD*%
%TA.AperFunction,ComponentPad*%
%ADD16C,1.200000*%
%TD*%
%TA.AperFunction,ComponentPad*%
%ADD17C,1.000000*%
%TD*%
%TA.AperFunction,SMDPad,CuDef*%
%ADD18R,2.800000X2.200000*%
%TD*%
%TA.AperFunction,SMDPad,CuDef*%
%ADD19R,2.800000X2.800000*%
%TD*%
%TA.AperFunction,SMDPad,CuDef*%
%ADD20R,1.200000X0.400000*%
%TD*%
%TA.AperFunction,ComponentPad*%
%ADD21R,1.500000X1.050000*%
%TD*%
%TA.AperFunction,ComponentPad*%
%ADD22O,1.500000X1.050000*%
%TD*%
%TA.AperFunction,ViaPad*%
%ADD23C,0.600000*%
%TD*%
%TA.AperFunction,Conductor*%
%ADD24C,0.200000*%
%TD*%
G04 APERTURE END LIST*
D10*
%TO.P,C8,1*%
%TO.N,LOUT*%
X184040000Y-104700000D03*
D11*
%TO.P,C8,2*%
%TO.N,Net-(C8-Pad2)*%
X184040000Y-108200000D03*
%TD*%
D12*
%TO.P,J4,1,Pin_1*%
%TO.N,AMINP*%
X114300000Y-99060000D03*
D13*
%TO.P,J4,2,Pin_2*%
%TO.N,AMINN*%
X114300000Y-96520000D03*
%TD*%
D10*
%TO.P,D2,1,K*%
%TO.N,AVSS*%
X129540000Y-86360000D03*
D14*
%TO.P,D2,2,A*%
%TO.N,Net-(D2-A)*%
X121920000Y-86360000D03*
%TD*%
D15*
%TO.P,SW2,1,B*%
%TO.N,Net-(SW2-B)*%
X142240000Y-127000000D03*
D11*
%TO.P,SW2,2,C*%
%TO.N,AVDD*%
X139700000Y-127000000D03*
%TO.P,SW2,3,A*%
%TO.N,AVSS*%
X144780000Y-127000000D03*
%TD*%
D16*
%TO.P,C6,1*%
%TO.N,XI{slash}RCLK*%
X172720000Y-72390000D03*
%TO.P,C6,2*%
%TO.N,AVSS*%
X174720000Y-72390000D03*
%TD*%
%TO.P,C5,1*%
%TO.N,XO*%
X180880000Y-72390000D03*
%TO.P,C5,2*%
%TO.N,AVSS*%
X182880000Y-72390000D03*
%TD*%
D10*
%TO.P,C9,1*%
%TO.N,AVDD*%
X129540000Y-58420000D03*
D11*
%TO.P,C9,2*%
%TO.N,AVSS*%
X129540000Y-61920000D03*
%TD*%
D12*
%TO.P,J1,1,Pin_1*%
%TO.N,Net-(J1-Pin_1)*%
X187960000Y-48260000D03*
D13*
%TO.P,J1,2,Pin_2*%
%TO.N,Net-(J1-Pin_2)*%
X187960000Y-50800000D03*
%TO.P,J1,3,Pin_3*%
%TO.N,AVDD*%
X187960000Y-53340000D03*
%TO.P,J1,4,Pin_4*%
%TO.N,AVSS*%
X187960000Y-55880000D03*
%TD*%
D17*
%TO.P,Y1,1,1*%
%TO.N,XO*%
X172720000Y-82550000D03*
%TO.P,Y1,2,2*%
%TO.N,XI{slash}RCLK*%
X172720000Y-80010000D03*
%TD*%
D16*
%TO.P,C3,1*%
%TO.N,Net-(C3-Pad1)*%
X137160000Y-108680000D03*
%TO.P,C3,2*%
%TO.N,Net-(Q1-B)*%
X137160000Y-106680000D03*
%TD*%
D15*
%TO.P,SW1,1,B*%
%TO.N,Net-(SW1-B)*%
X129540000Y-127000000D03*
D11*
%TO.P,SW1,2,C*%
%TO.N,AVDD*%
X127000000Y-127000000D03*
%TO.P,SW1,3,A*%
%TO.N,AVSS*%
X132080000Y-127000000D03*
%TD*%
%TO.P,L1,1,1*%
%TO.N,Net-(C1-Pad2)*%
X127000000Y-121920000D03*
D14*
%TO.P,L1,2,2*%
%TO.N,Net-(C3-Pad1)*%
X127000000Y-114300000D03*
%TD*%
D11*
%TO.P,R10,1*%
%TO.N,Net-(D2-A)*%
X121920000Y-93980000D03*
D14*
%TO.P,R10,2*%
%TO.N,AVSS*%
X129540000Y-93980000D03*
%TD*%
D11*
%TO.P,R8,1*%
%TO.N,Net-(D1-A)*%
X157480000Y-113030000D03*
D14*
%TO.P,R8,2*%
%TO.N,AVSS*%
X157480000Y-120650000D03*
%TD*%
D11*
%TO.P,R1,1*%
%TO.N,Net-(J1-Pin_1)*%
X165100000Y-48260000D03*
D14*
%TO.P,R1,2*%
%TO.N,AVDD*%
X172720000Y-48260000D03*
%TD*%
D18*
%TO.P,J2,R*%
%TO.N,Net-(C8-Pad2)*%
X186580000Y-120900000D03*
%TO.P,J2,S*%
%TO.N,AVSS*%
X179180000Y-118900000D03*
D19*
%TO.P,J2,T*%
%TO.N,Net-(C7-Pad2)*%
X179180000Y-128300000D03*
%TD*%
D16*
%TO.P,C2,1*%
%TO.N,AVDD*%
X142240000Y-73660000D03*
%TO.P,C2,2*%
%TO.N,AVSS*%
X142240000Y-71660000D03*
%TD*%
%TO.P,C12,1*%
%TO.N,AMINP*%
X147320000Y-99060000D03*
%TO.P,C12,2*%
%TO.N,Net-(D1-K)*%
X147320000Y-101060000D03*
%TD*%
%TO.P,C4,1*%
%TO.N,AVDD*%
X142240000Y-65500000D03*
%TO.P,C4,2*%
%TO.N,AVSS*%
X142240000Y-63500000D03*
%TD*%
D20*
%TO.P,KT1,1,AMINN*%
%TO.N,AMINN*%
X152280000Y-78740000D03*
%TO.P,KT1,2,AMINP*%
%TO.N,AMINP*%
X152280000Y-79375000D03*
%TO.P,KT1,3,RFINP*%
%TO.N,RFINP*%
X152280000Y-80010000D03*
%TO.P,KT1,4,RFGND*%
%TO.N,AVSS*%
X152280000Y-80645000D03*
%TO.P,KT1,5,DVSS*%
X152280000Y-81280000D03*
%TO.P,KT1,6,DVDD*%
%TO.N,AVDD*%
X152280000Y-81915000D03*
%TO.P,KT1,7,INT*%
%TO.N,unconnected-(KT1-INT-Pad7)*%
X152280000Y-82550000D03*
%TO.P,KT1,8,CH*%
%TO.N,unconnected-(KT1-CH-Pad8)*%
X152280000Y-83185000D03*
%TO.P,KT1,9,SDA*%
%TO.N,AVDD*%
X157480000Y-83185000D03*
%TO.P,KT1,10,SCL*%
X157480000Y-82550000D03*
%TO.P,KT1,11,ROUT*%
%TO.N,ROUT*%
X157480000Y-81915000D03*
%TO.P,KT1,12,LOUT*%
%TO.N,LOUT*%
X157480000Y-81280000D03*
%TO.P,KT1,13,AVSS*%
%TO.N,AVSS*%
X157480000Y-80645000D03*
%TO.P,KT1,14,XI/RCLK*%
%TO.N,XI{slash}RCLK*%
X157480000Y-80010000D03*
%TO.P,KT1,15,XO*%
%TO.N,XO*%
X157480000Y-79375000D03*
%TO.P,KT1,16,AVDD*%
%TO.N,AVDD*%
X157480000Y-78740000D03*
%TD*%
D16*
%TO.P,C11,1*%
%TO.N,Net-(Q1-C)*%
X147320000Y-108680000D03*
%TO.P,C11,2*%
%TO.N,Net-(D1-A)*%
X147320000Y-106680000D03*
%TD*%
%TO.P,C13,1*%
%TO.N,AMINN*%
X127000000Y-101060000D03*
%TO.P,C13,2*%
%TO.N,Net-(D2-A)*%
X127000000Y-99060000D03*
%TD*%
D10*
%TO.P,C7,1*%
%TO.N,ROUT*%
X171340000Y-104700000D03*
D11*
%TO.P,C7,2*%
%TO.N,Net-(C7-Pad2)*%
X171340000Y-108200000D03*
%TD*%
D16*
%TO.P,C1,1*%
%TO.N,RFINP*%
X127000000Y-108680000D03*
%TO.P,C1,2*%
%TO.N,Net-(C1-Pad2)*%
X127000000Y-106680000D03*
%TD*%
D10*
%TO.P,C10,1*%
%TO.N,AVDD*%
X129540000Y-73660000D03*
D11*
%TO.P,C10,2*%
%TO.N,AVSS*%
X129540000Y-70160000D03*
%TD*%
D21*
%TO.P,Q1,1,E*%
%TO.N,AVSS*%
X149860000Y-119380000D03*
D22*
%TO.P,Q1,2,B*%
%TO.N,Net-(Q1-B)*%
X149860000Y-118110000D03*
%TO.P,Q1,3,C*%
%TO.N,Net-(Q1-C)*%
X149860000Y-116840000D03*
%TD*%
D11*
%TO.P,R2,1*%
%TO.N,Net-(J1-Pin_2)*%
X165100000Y-55880000D03*
D14*
%TO.P,R2,2*%
%TO.N,AVDD*%
X172720000Y-55880000D03*
%TD*%
D10*
%TO.P,D1,1,K*%
%TO.N,Net-(D1-K)*%
X157480000Y-101600000D03*
D14*
%TO.P,D1,2,A*%
%TO.N,Net-(D1-A)*%
X157480000Y-109220000D03*
%TD*%
D16*
%TO.P,C14,1*%
%TO.N,AVSS*%
X135160000Y-86360000D03*
%TO.P,C14,2*%
X137160000Y-86360000D03*
%TD*%
D11*
%TO.P,R9,1*%
%TO.N,Net-(D1-K)*%
X137160000Y-101600000D03*
D14*
%TO.P,R9,2*%
%TO.N,AVSS*%
X137160000Y-93980000D03*
%TD*%
D11*
%TO.P,R7,1*%
%TO.N,Net-(Q1-C)*%
X160020000Y-127000000D03*
D14*
%TO.P,R7,2*%
%TO.N,Net-(SW2-B)*%
X152400000Y-127000000D03*
%TD*%
D11*
%TO.P,R6,1*%
%TO.N,AVSS*%
X134620000Y-121920000D03*
D14*
%TO.P,R6,2*%
%TO.N,Net-(Q1-B)*%
X134620000Y-114300000D03*
%TD*%
D11*
%TO.P,R5,1*%
%TO.N,Net-(Q1-B)*%
X142240000Y-121920000D03*
D14*
%TO.P,R5,2*%
%TO.N,Net-(SW1-B)*%
X142240000Y-114300000D03*
%TD*%
D18*
%TO.P,J3,R*%
%TO.N,Net-(C1-Pad2)*%
X121700000Y-121380000D03*
%TO.P,J3,S*%
X114300000Y-119380000D03*
D19*
%TO.P,J3,T*%
X114300000Y-128780000D03*
%TD*%
D11*
%TO.P,R3,1*%
%TO.N,ROUT*%
X175260000Y-93980000D03*
D14*
%TO.P,R3,2*%
%TO.N,AVSS*%
X167640000Y-93980000D03*
%TD*%
D11*
%TO.P,R4,1*%
%TO.N,LOUT*%
X180340000Y-93980000D03*
D14*
%TO.P,R4,2*%
%TO.N,AVSS*%
X187960000Y-93980000D03*
%TD*%
D23*
%TO.N,AVSS*%
X178500000Y-57500000D03*
X115500000Y-50000000D03*
X170000000Y-123500000D03*
X116000000Y-82000000D03*
X116500000Y-106500000D03*
%TD*%
D24*
%TO.N,AVSS*%
X149860000Y-120206700D02*
X144780000Y-125286700D01*
X153180200Y-80645000D02*
X153181700Y-80643500D01*
X171946700Y-80645000D02*
X172145600Y-80843900D01*
X167640000Y-93980000D02*
X167640000Y-109388300D01*
X141336900Y-71660000D02*
X142240000Y-71660000D01*
X153416500Y-80643500D02*
X153950000Y-80110000D01*
X182880000Y-87798300D02*
X182880000Y-72390000D01*
X135216900Y-75836900D02*
X129540000Y-70160000D01*
X153180200Y-80645000D02*
X153181700Y-80645000D01*
X187960000Y-93980000D02*
X187960000Y-92878300D01*
X144780000Y-125286700D02*
X144780000Y-127000000D01*
X187960000Y-92878300D02*
X182880000Y-87798300D01*
X149860000Y-119380000D02*
X149860000Y-120206700D01*
X153430000Y-81280000D02*
X154370000Y-80340000D01*
X137160000Y-75836900D02*
X137160000Y-86360000D01*
X172145600Y-80843900D02*
X173100100Y-80843900D01*
X137160000Y-75836900D02*
X135216900Y-75836900D01*
X153950000Y-80110000D02*
X153950000Y-79140100D01*
X141336900Y-64403100D02*
X142240000Y-63500000D01*
X152280000Y-80645000D02*
X153080900Y-80645000D01*
X154370000Y-79560100D02*
X153950000Y-79140100D01*
X153181700Y-80643500D02*
X153416500Y-80643500D01*
X179180000Y-118900000D02*
X179180000Y-117498300D01*
X154370000Y-80340000D02*
X154370000Y-79560100D01*
X174720000Y-79224000D02*
X174720000Y-72390000D01*
X167640000Y-109388300D02*
X171070000Y-109388300D01*
X129540000Y-93980000D02*
X129540000Y-86360000D01*
X157480000Y-80645000D02*
X171946700Y-80645000D01*
X146469900Y-71660000D02*
X142240000Y-71660000D01*
X152280000Y-81280000D02*
X153430000Y-81280000D01*
X129540000Y-70160000D02*
X129540000Y-61920000D01*
X173100100Y-80843900D02*
X174720000Y-79224000D01*
X141336900Y-71660000D02*
X141336900Y-64403100D01*
X171070000Y-109388300D02*
X179180000Y-117498300D01*
X167640000Y-109388300D02*
X157480000Y-119548300D01*
X153950000Y-79140100D02*
X146469900Y-71660000D01*
X157480000Y-120650000D02*
X157480000Y-119548300D01*
X141336900Y-71660000D02*
X137160000Y-75836900D01*
X153080900Y-80645000D02*
X153180200Y-80645000D01*
%TO.N,Net-(D1-A)*%
X157480000Y-113030000D02*
X157480000Y-109220000D01*
%TO.N,Net-(Q1-C)*%
X149860000Y-111220000D02*
X147320000Y-108680000D01*
X160020000Y-127000000D02*
X160020000Y-125948300D01*
X149860000Y-116840000D02*
X149860000Y-111220000D01*
X149860000Y-116840000D02*
X150911700Y-116840000D01*
X160020000Y-125948300D02*
X150911700Y-116840000D01*
%TO.N,Net-(Q1-B)*%
X135721700Y-115401700D02*
X134620000Y-115401700D01*
X134620000Y-109220000D02*
X137160000Y-106680000D01*
X134620000Y-114300000D02*
X134620000Y-115401700D01*
X142240000Y-121920000D02*
X135721700Y-115401700D01*
X134620000Y-114300000D02*
X134620000Y-109220000D01*
%TO.N,LOUT*%
X180340000Y-99898300D02*
X184040000Y-103598300D01*
X180340000Y-93980000D02*
X180340000Y-99898300D01*
X158381700Y-81280000D02*
X167640000Y-81280000D01*
X184040000Y-104700000D02*
X184040000Y-103598300D01*
X167640000Y-81280000D02*
X180340000Y-93980000D01*
X157480000Y-81280000D02*
X158381700Y-81280000D01*
%TO.N,ROUT*%
X171340000Y-103598300D02*
X174308200Y-100630100D01*
X174308200Y-100630100D02*
X174308200Y-94931800D01*
X171340000Y-104700000D02*
X171340000Y-103598300D01*
X161291400Y-81915000D02*
X157480000Y-81915000D01*
X174308200Y-94931800D02*
X161291400Y-81915000D01*
X175260000Y-93980000D02*
X174308200Y-94931800D01*
%TO.N,AVDD*%
X152280000Y-81915000D02*
X153181700Y-81915000D01*
X156510000Y-78740000D02*
X155780000Y-79470000D01*
X156578300Y-81280000D02*
X155943300Y-81915000D01*
X156578300Y-82929100D02*
X156578300Y-82550000D01*
X172720000Y-55880000D02*
X172720000Y-53340000D01*
X157480000Y-78740000D02*
X158381700Y-78740000D01*
X144379800Y-122320200D02*
X139700000Y-127000000D01*
X158381700Y-70418300D02*
X158381700Y-78740000D01*
X157029200Y-83185000D02*
X156834200Y-83185000D01*
X157480000Y-78740000D02*
X156510000Y-78740000D01*
X153181700Y-81915000D02*
X154750000Y-81915000D01*
X155780000Y-80481700D02*
X156578300Y-81280000D01*
X153463400Y-65500000D02*
X158381700Y-70418300D01*
X144379800Y-106683300D02*
X144379800Y-122320200D01*
X172720000Y-53340000D02*
X172720000Y-48260000D01*
X153181700Y-84658300D02*
X154780000Y-83060000D01*
X157480000Y-83185000D02*
X157029200Y-83185000D01*
X158381700Y-70418300D02*
X159283400Y-70418300D01*
X142240000Y-65500000D02*
X153463400Y-65500000D01*
X172720000Y-53340000D02*
X187960000Y-53340000D01*
X154750000Y-81915000D02*
X155943300Y-81915000D01*
X156834200Y-83185000D02*
X156578300Y-82929100D01*
X155780000Y-79470000D02*
X155780000Y-80481700D01*
X153181700Y-97881400D02*
X153181700Y-84658300D01*
X154780000Y-83060000D02*
X154780000Y-81945000D01*
X172720000Y-55880000D02*
X172720000Y-56981700D01*
X157480000Y-82550000D02*
X156578300Y-82550000D01*
X156578300Y-82550000D02*
X155943300Y-81915000D01*
X159283400Y-70418300D02*
X172720000Y-56981700D01*
X153181700Y-97881400D02*
X144379800Y-106683300D01*
X154780000Y-81945000D02*
X154750000Y-81915000D01*
%TO.N,Net-(D2-A)*%
X121920000Y-93980000D02*
X121920000Y-86360000D01*
%TO.N,AMINP*%
X152280000Y-79375000D02*
X151378300Y-79375000D01*
X147320000Y-83433300D02*
X151378300Y-79375000D01*
X147320000Y-99060000D02*
X147320000Y-83433300D01*
%TO.N,XO*%
X162811200Y-79375000D02*
X170698000Y-71488200D01*
X170698000Y-71488200D02*
X179978200Y-71488200D01*
X179978200Y-71488200D02*
X180880000Y-72390000D01*
X157480000Y-79375000D02*
X162811200Y-79375000D01*
X172720000Y-82550000D02*
X180880000Y-74390000D01*
X180880000Y-74390000D02*
X180880000Y-72390000D01*
%TO.N,RFINP*%
X147597800Y-100060000D02*
X135620000Y-100060000D01*
X135620000Y-100060000D02*
X127000000Y-108680000D01*
X152280000Y-80010000D02*
X151378300Y-80010000D01*
X151378300Y-80010000D02*
X151378300Y-96279500D01*
X151378300Y-96279500D02*
X147597800Y-100060000D01*
%TO.N,AMINN*%
X127000000Y-100878200D02*
X127000000Y-101060000D01*
X127000000Y-100878200D02*
X119809900Y-100878200D01*
X114300000Y-96520000D02*
X115451700Y-96520000D01*
X149138200Y-78740000D02*
X127000000Y-100878200D01*
X119809900Y-100878200D02*
X115451700Y-96520000D01*
X152280000Y-78740000D02*
X149138200Y-78740000D01*
%TO.N,XI{slash}RCLK*%
X157480000Y-80010000D02*
X172720000Y-80010000D01*
X172720000Y-80010000D02*
X172720000Y-72390000D01*
%TO.N,Net-(C1-Pad2)*%
X121541800Y-121888600D02*
X121700000Y-121730400D01*
X126810400Y-121730400D02*
X127000000Y-121920000D01*
X121700000Y-121380000D02*
X121700000Y-121730400D01*
X114300000Y-121888600D02*
X121541800Y-121888600D01*
X125872400Y-121730400D02*
X125872400Y-107807600D01*
X125872400Y-107807600D02*
X127000000Y-106680000D01*
X114300000Y-121888600D02*
X114300000Y-119380000D01*
X125872400Y-121730400D02*
X126810400Y-121730400D01*
X121700000Y-121730400D02*
X125872400Y-121730400D01*
X114300000Y-128780000D02*
X114300000Y-121888600D01*
%TO.N,Net-(C8-Pad2)*%
X186580000Y-120900000D02*
X186580000Y-110740000D01*
X186580000Y-110740000D02*
X184040000Y-108200000D01*
%TO.N,Net-(C7-Pad2)*%
X180922200Y-117682600D02*
X171439600Y-108200000D01*
X179180000Y-126598300D02*
X180922200Y-124856100D01*
X179180000Y-128300000D02*
X179180000Y-126598300D01*
X180922200Y-124856100D02*
X180922200Y-117682600D01*
X171439600Y-108200000D02*
X171340000Y-108200000D01*
%TD*%
%TA.AperFunction,Conductor*%
%TO.N,AVSS*%
G36*
X189942539Y-46240185D02*
G01*
X189988294Y-46292989D01*
X189999500Y-46344500D01*
X189999500Y-131455500D01*
X189979815Y-131522539D01*
X189927011Y-131568294D01*
X189875500Y-131579500D01*
X112384500Y-131579500D01*
X112317461Y-131559815D01*
X112271706Y-131507011D01*
X112260500Y-131455500D01*
X112260500Y-130533461D01*
X112280185Y-130466422D01*
X112332989Y-130420667D01*
X112402147Y-130410723D01*
X112465703Y-130439748D01*
X112483766Y-130459150D01*
X112542452Y-130537544D01*
X112542455Y-130537547D01*
X112657664Y-130623793D01*
X112657671Y-130623797D01*
X112792517Y-130674091D01*
X112792516Y-130674091D01*
X112799444Y-130674835D01*
X112852127Y-130680500D01*
X115747872Y-130680499D01*
X115807483Y-130674091D01*
X115942331Y-130623796D01*
X116057546Y-130537546D01*
X116143796Y-130422331D01*
X116194091Y-130287483D01*
X116200500Y-130227873D01*
X116200499Y-127393389D01*
X116899500Y-127393389D01*
X116899500Y-127566610D01*
X116924852Y-127726681D01*
X116926598Y-127737701D01*
X116980127Y-127902445D01*
X117058768Y-128056788D01*
X117160586Y-128196928D01*
X117283072Y-128319414D01*
X117423212Y-128421232D01*
X117577555Y-128499873D01*
X117742299Y-128553402D01*
X117913389Y-128580500D01*
X117913390Y-128580500D01*
X118086610Y-128580500D01*
X118086611Y-128580500D01*
X118257701Y-128553402D01*
X118422445Y-128499873D01*
X118576788Y-128421232D01*
X118716928Y-128319414D01*
X118839414Y-128196928D01*
X118941232Y-128056788D01*
X119019873Y-127902445D01*
X119073402Y-127737701D01*
X119100500Y-127566611D01*
X119100500Y-127393389D01*
X119073402Y-127222299D01*
X119019873Y-127057555D01*
X118990546Y-126999998D01*
X125694532Y-126999998D01*
X125694532Y-127000001D01*
X125714364Y-127226686D01*
X125714366Y-127226697D01*
X125773258Y-127446488D01*
X125773261Y-127446497D01*
X125869431Y-127652732D01*
X125869432Y-127652734D01*
X125999954Y-127839141D01*
X126160858Y-128000045D01*
X126160861Y-128000047D01*
X126347266Y-128130568D01*
X126553504Y-128226739D01*
X126773308Y-128285635D01*
X126935230Y-128299801D01*
X126999998Y-128305468D01*
X127000000Y-128305468D01*
X127000002Y-128305468D01*
X127056673Y-128300509D01*
X127226692Y-128285635D01*
X127446496Y-128226739D01*
X127652734Y-128130568D01*
X127839139Y-128000047D01*
X128000047Y-127839139D01*
X128065278Y-127745977D01*
X128119854Y-127702353D01*
X128189352Y-127695159D01*
X128251707Y-127726681D01*
X128287122Y-127786911D01*
X128290143Y-127803847D01*
X128295909Y-127857483D01*
X128346202Y-127992328D01*
X128346206Y-127992335D01*
X128432452Y-128107544D01*
X128432455Y-128107547D01*
X128547664Y-128193793D01*
X128547671Y-128193797D01*
X128682517Y-128244091D01*
X128682516Y-128244091D01*
X128689444Y-128244835D01*
X128742127Y-128250500D01*
X130337872Y-128250499D01*
X130397483Y-128244091D01*
X130532331Y-128193796D01*
X130647546Y-128107546D01*
X130733796Y-127992331D01*
X130784091Y-127857483D01*
X130789939Y-127803086D01*
X130816676Y-127738539D01*
X130874069Y-127698691D01*
X130943894Y-127696197D01*
X130991897Y-127724678D01*
X131000974Y-127725472D01*
X131680000Y-127046446D01*
X131680000Y-127052661D01*
X131707259Y-127154394D01*
X131759920Y-127245606D01*
X131834394Y-127320080D01*
X131925606Y-127372741D01*
X132027339Y-127400000D01*
X132033553Y-127400000D01*
X131354526Y-128079025D01*
X131427513Y-128130132D01*
X131427521Y-128130136D01*
X131633668Y-128226264D01*
X131633682Y-128226269D01*
X131853389Y-128285139D01*
X131853400Y-128285141D01*
X132079998Y-128304966D01*
X132080002Y-128304966D01*
X132306599Y-128285141D01*
X132306610Y-128285139D01*
X132526317Y-128226269D01*
X132526331Y-128226264D01*
X132732478Y-128130136D01*
X132805471Y-128079024D01*
X132126447Y-127400000D01*
X132132661Y-127400000D01*
X132234394Y-127372741D01*
X132325606Y-127320080D01*
X132400080Y-127245606D01*
X132452741Y-127154394D01*
X132480000Y-127052661D01*
X132480000Y-127046447D01*
X133159024Y-127725471D01*
X133210136Y-127652478D01*
X133306264Y-127446331D01*
X133306269Y-127446317D01*
X133365139Y-127226610D01*
X133365141Y-127226599D01*
X133384966Y-127000002D01*
X133384966Y-126999997D01*
X133365141Y-126773400D01*
X133365139Y-126773389D01*
X133306269Y-126553682D01*
X133306264Y-126553668D01*
X133210136Y-126347521D01*
X133210132Y-126347513D01*
X133159025Y-126274526D01*
X132480000Y-126953551D01*
X132480000Y-126947339D01*
X132452741Y-126845606D01*
X132400080Y-126754394D01*
X132325606Y-126679920D01*
X132234394Y-126627259D01*
X132132661Y-126600000D01*
X132126448Y-126600000D01*
X132805472Y-125920974D01*
X132732478Y-125869863D01*
X132526331Y-125773735D01*
X132526317Y-125773730D01*
X132306610Y-125714860D01*
X132306599Y-125714858D01*
X132080002Y-125695034D01*
X132079998Y-125695034D01*
X131853400Y-125714858D01*
X131853389Y-125714860D01*
X131633682Y-125773730D01*
X131633673Y-125773734D01*
X131427516Y-125869866D01*
X131427512Y-125869868D01*
X131354526Y-125920973D01*
X131354526Y-125920974D01*
X132033553Y-126600000D01*
X132027339Y-126600000D01*
X131925606Y-126627259D01*
X131834394Y-126679920D01*
X131759920Y-126754394D01*
X131707259Y-126845606D01*
X131680000Y-126947339D01*
X131680000Y-126953552D01*
X131000974Y-126274526D01*
X130988756Y-126275595D01*
X130960223Y-126298402D01*
X130890724Y-126305594D01*
X130828370Y-126274070D01*
X130792958Y-126213840D01*
X130789938Y-126196912D01*
X130784091Y-126142517D01*
X130733796Y-126007669D01*
X130733795Y-126007668D01*
X130733793Y-126007664D01*
X130647547Y-125892455D01*
X130647544Y-125892452D01*
X130532335Y-125806206D01*
X130532328Y-125806202D01*
X130397482Y-125755908D01*
X130397483Y-125755908D01*
X130337883Y-125749501D01*
X130337881Y-125749500D01*
X130337873Y-125749500D01*
X130337864Y-125749500D01*
X128742129Y-125749500D01*
X128742123Y-125749501D01*
X128682516Y-125755908D01*
X128547671Y-125806202D01*
X128547664Y-125806206D01*
X128432455Y-125892452D01*
X128432452Y-125892455D01*
X128346206Y-126007664D01*
X128346202Y-126007671D01*
X128295908Y-126142516D01*
X128290142Y-126196154D01*
X128263404Y-126260705D01*
X128206012Y-126300553D01*
X128136186Y-126303046D01*
X128076098Y-126267393D01*
X128065278Y-126254021D01*
X128000045Y-126160858D01*
X127839141Y-125999954D01*
X127652734Y-125869432D01*
X127652732Y-125869431D01*
X127446497Y-125773261D01*
X127446488Y-125773258D01*
X127226697Y-125714366D01*
X127226693Y-125714365D01*
X127226692Y-125714365D01*
X127226691Y-125714364D01*
X127226686Y-125714364D01*
X127000002Y-125694532D01*
X126999998Y-125694532D01*
X126773313Y-125714364D01*
X126773302Y-125714366D01*
X126553511Y-125773258D01*
X126553502Y-125773261D01*
X126347267Y-125869431D01*
X126347265Y-125869432D01*
X126160858Y-125999954D01*
X125999954Y-126160858D01*
X125869432Y-126347265D01*
X125869431Y-126347267D01*
X125773261Y-126553502D01*
X125773258Y-126553511D01*
X125714366Y-126773302D01*
X125714364Y-126773313D01*
X125694532Y-126999998D01*
X118990546Y-126999998D01*
X118941232Y-126903212D01*
X118839414Y-126763072D01*
X118716928Y-126640586D01*
X118576788Y-126538768D01*
X118422445Y-126460127D01*
X118257701Y-126406598D01*
X118257699Y-126406597D01*
X118257698Y-126406597D01*
X118125857Y-126385716D01*
X118086611Y-126379500D01*
X117913389Y-126379500D01*
X117874143Y-126385716D01*
X117742302Y-126406597D01*
X117577552Y-126460128D01*
X117423211Y-126538768D01*
X117369826Y-126577555D01*
X117283072Y-126640586D01*
X117283070Y-126640588D01*
X117283069Y-126640588D01*
X117160588Y-126763069D01*
X117160588Y-126763070D01*
X117160586Y-126763072D01*
X117139194Y-126792516D01*
X117058768Y-126903211D01*
X116980128Y-127057552D01*
X116980127Y-127057554D01*
X116980127Y-127057555D01*
X116961716Y-127114218D01*
X116926597Y-127222302D01*
X116899500Y-127393389D01*
X116200499Y-127393389D01*
X116200499Y-127332128D01*
X116194091Y-127272517D01*
X116177001Y-127226697D01*
X116143797Y-127137671D01*
X116143793Y-127137664D01*
X116057547Y-127022455D01*
X116057544Y-127022452D01*
X115942335Y-126936206D01*
X115942328Y-126936202D01*
X115807482Y-126885908D01*
X115807483Y-126885908D01*
X115747883Y-126879501D01*
X115747881Y-126879500D01*
X115747873Y-126879500D01*
X115747865Y-126879500D01*
X115024500Y-126879500D01*
X114957461Y-126859815D01*
X114911706Y-126807011D01*
X114900500Y-126755500D01*
X114900500Y-122613100D01*
X114920185Y-122546061D01*
X114972989Y-122500306D01*
X115024500Y-122489100D01*
X119684547Y-122489100D01*
X119751586Y-122508785D01*
X119797341Y-122561589D01*
X119805223Y-122584583D01*
X119805907Y-122587479D01*
X119856202Y-122722328D01*
X119856206Y-122722335D01*
X119942452Y-122837544D01*
X119942455Y-122837547D01*
X120057664Y-122923793D01*
X120057671Y-122923797D01*
X120192517Y-122974091D01*
X120192516Y-122974091D01*
X120199444Y-122974835D01*
X120252127Y-122980500D01*
X123147872Y-122980499D01*
X123207483Y-122974091D01*
X123342331Y-122923796D01*
X123457546Y-122837546D01*
X123543796Y-122722331D01*
X123594091Y-122587483D01*
X123600500Y-122527873D01*
X123600500Y-122454900D01*
X123620185Y-122387861D01*
X123672989Y-122342106D01*
X123724500Y-122330900D01*
X125677666Y-122330900D01*
X125744705Y-122350585D01*
X125790047Y-122402494D01*
X125853975Y-122539587D01*
X125869431Y-122572732D01*
X125869432Y-122572734D01*
X125999954Y-122759141D01*
X126160858Y-122920045D01*
X126207693Y-122952839D01*
X126347266Y-123050568D01*
X126553504Y-123146739D01*
X126773308Y-123205635D01*
X126917144Y-123218219D01*
X126999998Y-123225468D01*
X127000000Y-123225468D01*
X127000002Y-123225468D01*
X127056673Y-123220509D01*
X127226692Y-123205635D01*
X127446496Y-123146739D01*
X127652734Y-123050568D01*
X127839139Y-122920047D01*
X128000047Y-122759139D01*
X128130568Y-122572734D01*
X128226739Y-122366496D01*
X128285635Y-122146692D01*
X128305468Y-121920000D01*
X128305468Y-121919997D01*
X133315034Y-121919997D01*
X133315034Y-121920002D01*
X133334858Y-122146599D01*
X133334860Y-122146610D01*
X133393730Y-122366317D01*
X133393735Y-122366331D01*
X133489863Y-122572478D01*
X133540974Y-122645472D01*
X134220000Y-121966446D01*
X134220000Y-121972661D01*
X134247259Y-122074394D01*
X134299920Y-122165606D01*
X134374394Y-122240080D01*
X134465606Y-122292741D01*
X134567339Y-122320000D01*
X134573553Y-122320000D01*
X133894526Y-122999025D01*
X133967513Y-123050132D01*
X133967521Y-123050136D01*
X134173668Y-123146264D01*
X134173682Y-123146269D01*
X134393389Y-123205139D01*
X134393400Y-123205141D01*
X134619998Y-123224966D01*
X134620002Y-123224966D01*
X134846599Y-123205141D01*
X134846610Y-123205139D01*
X135066317Y-123146269D01*
X135066331Y-123146264D01*
X135272478Y-123050136D01*
X135345471Y-122999024D01*
X134666447Y-122320000D01*
X134672661Y-122320000D01*
X134774394Y-122292741D01*
X134865606Y-122240080D01*
X134940080Y-122165606D01*
X134992741Y-122074394D01*
X135020000Y-121972661D01*
X135020000Y-121966447D01*
X135699024Y-122645471D01*
X135750136Y-122572478D01*
X135846264Y-122366331D01*
X135846269Y-122366317D01*
X135905139Y-122146610D01*
X135905141Y-122146599D01*
X135924966Y-121920002D01*
X135924966Y-121919997D01*
X135905141Y-121693400D01*
X135905139Y-121693389D01*
X135846269Y-121473682D01*
X135846264Y-121473668D01*
X135750136Y-121267521D01*
X135750132Y-121267513D01*
X135699025Y-121194526D01*
X135020000Y-121873551D01*
X135020000Y-121867339D01*
X134992741Y-121765606D01*
X134940080Y-121674394D01*
X134865606Y-121599920D01*
X134774394Y-121547259D01*
X134672661Y-121520000D01*
X134666448Y-121520000D01*
X135345472Y-120840974D01*
X135272478Y-120789863D01*
X135066331Y-120693735D01*
X135066317Y-120693730D01*
X134846610Y-120634860D01*
X134846599Y-120634858D01*
X134620002Y-120615034D01*
X134619998Y-120615034D01*
X134393400Y-120634858D01*
X134393389Y-120634860D01*
X134173682Y-120693730D01*
X134173673Y-120693734D01*
X133967516Y-120789866D01*
X133967512Y-120789868D01*
X133894526Y-120840973D01*
X133894526Y-120840974D01*
X134573553Y-121520000D01*
X134567339Y-121520000D01*
X134465606Y-121547259D01*
X134374394Y-121599920D01*
X134299920Y-121674394D01*
X134247259Y-121765606D01*
X134220000Y-121867339D01*
X134220000Y-121873552D01*
X133540974Y-121194526D01*
X133540973Y-121194526D01*
X133489868Y-121267512D01*
X133489866Y-121267516D01*
X133393734Y-121473673D01*
X133393730Y-121473682D01*
X133334860Y-121693389D01*
X133334858Y-121693400D01*
X133315034Y-121919997D01*
X128305468Y-121919997D01*
X128285635Y-121693308D01*
X128226739Y-121473504D01*
X128130568Y-121267266D01*
X128000047Y-121080861D01*
X128000045Y-121080858D01*
X127839141Y-120919954D01*
X127652734Y-120789432D01*
X127652732Y-120789431D01*
X127446497Y-120693261D01*
X127446488Y-120693258D01*
X127226697Y-120634366D01*
X127226693Y-120634365D01*
X127226692Y-120634365D01*
X127226691Y-120634364D01*
X127226686Y-120634364D01*
X127000002Y-120614532D01*
X126999998Y-120614532D01*
X126773313Y-120634364D01*
X126773302Y-120634366D01*
X126628993Y-120673033D01*
X126559143Y-120671370D01*
X126501281Y-120632207D01*
X126473777Y-120567978D01*
X126472900Y-120553258D01*
X126472900Y-115666741D01*
X126492585Y-115599702D01*
X126545389Y-115553947D01*
X126614547Y-115544003D01*
X126628991Y-115546965D01*
X126773308Y-115585635D01*
X126934094Y-115599702D01*
X126999998Y-115605468D01*
X127000000Y-115605468D01*
X127000002Y-115605468D01*
X127056673Y-115600509D01*
X127226692Y-115585635D01*
X127446496Y-115526739D01*
X127652734Y-115430568D01*
X127839139Y-115300047D01*
X128000047Y-115139139D01*
X128130568Y-114952734D01*
X128226739Y-114746496D01*
X128285635Y-114526692D01*
X128305468Y-114300000D01*
X128285635Y-114073308D01*
X128226739Y-113853504D01*
X128130568Y-113647266D01*
X128000047Y-113460861D01*
X128000045Y-113460858D01*
X127839141Y-113299954D01*
X127652734Y-113169432D01*
X127652732Y-113169431D01*
X127446497Y-113073261D01*
X127446488Y-113073258D01*
X127226697Y-113014366D01*
X127226693Y-113014365D01*
X127226692Y-113014365D01*
X127226691Y-113014364D01*
X127226686Y-113014364D01*
X127000002Y-112994532D01*
X126999998Y-112994532D01*
X126773313Y-113014364D01*
X126773302Y-113014366D01*
X126628993Y-113053033D01*
X126559143Y-113051370D01*
X126501281Y-113012207D01*
X126473777Y-112947978D01*
X126472900Y-112933258D01*
X126472900Y-109837014D01*
X126492585Y-109769975D01*
X126545389Y-109724220D01*
X126614547Y-109714276D01*
X126641695Y-109721388D01*
X126697538Y-109743022D01*
X126697539Y-109743022D01*
X126697544Y-109743024D01*
X126898024Y-109780500D01*
X126898026Y-109780500D01*
X127101974Y-109780500D01*
X127101976Y-109780500D01*
X127302456Y-109743024D01*
X127492637Y-109669348D01*
X127666041Y-109561981D01*
X127808168Y-109432415D01*
X127816762Y-109424581D01*
X127816764Y-109424579D01*
X127939673Y-109261821D01*
X128030582Y-109079250D01*
X128086397Y-108883083D01*
X128105215Y-108680000D01*
X128088877Y-108503686D01*
X128102292Y-108435119D01*
X128124664Y-108404569D01*
X135832416Y-100696819D01*
X135893739Y-100663334D01*
X135920097Y-100660500D01*
X135992026Y-100660500D01*
X136059065Y-100680185D01*
X136104820Y-100732989D01*
X136114764Y-100802147D01*
X136093601Y-100855621D01*
X136068034Y-100892134D01*
X136029432Y-100947265D01*
X136029431Y-100947267D01*
X135933261Y-101153502D01*
X135933258Y-101153511D01*
X135874366Y-101373302D01*
X135874364Y-101373313D01*
X135854532Y-101599998D01*
X135854532Y-101600001D01*
X135874364Y-101826686D01*
X135874366Y-101826697D01*
X135933258Y-102046488D01*
X135933261Y-102046497D01*
X136029431Y-102252732D01*
X136029432Y-102252734D01*
X136159954Y-102439141D01*
X136320858Y-102600045D01*
X136320861Y-102600047D01*
X136507266Y-102730568D01*
X136713504Y-102826739D01*
X136933308Y-102885635D01*
X137095230Y-102899801D01*
X137159998Y-102905468D01*
X137160000Y-102905468D01*
X137160002Y-102905468D01*
X137216807Y-102900498D01*
X137386692Y-102885635D01*
X137606496Y-102826739D01*
X137812734Y-102730568D01*
X137999139Y-102600047D01*
X138160047Y-102439139D01*
X138290568Y-102252734D01*
X138386739Y-102046496D01*
X138445635Y-101826692D01*
X138465468Y-101600000D01*
X138464027Y-101583534D01*
X138454856Y-101478701D01*
X138445635Y-101373308D01*
X138386739Y-101153504D01*
X138290568Y-100947266D01*
X138226398Y-100855621D01*
X138204072Y-100789417D01*
X138221082Y-100721650D01*
X138272030Y-100673837D01*
X138327974Y-100660500D01*
X146125286Y-100660500D01*
X146192325Y-100680185D01*
X146238080Y-100732989D01*
X146248024Y-100802147D01*
X146244554Y-100818426D01*
X146233971Y-100855623D01*
X146233602Y-100856921D01*
X146214785Y-101059999D01*
X146214785Y-101060000D01*
X146233602Y-101263082D01*
X146289417Y-101459247D01*
X146289422Y-101459260D01*
X146380327Y-101641821D01*
X146503237Y-101804581D01*
X146653958Y-101941980D01*
X146653960Y-101941982D01*
X146753141Y-102003392D01*
X146827363Y-102049348D01*
X147017544Y-102123024D01*
X147218024Y-102160500D01*
X147218026Y-102160500D01*
X147421974Y-102160500D01*
X147421976Y-102160500D01*
X147622456Y-102123024D01*
X147812637Y-102049348D01*
X147827899Y-102039898D01*
X147895256Y-102021340D01*
X147961956Y-102042146D01*
X148006820Y-102095709D01*
X148015603Y-102165025D01*
X147985517Y-102228085D01*
X147980859Y-102233004D01*
X144011086Y-106202778D01*
X143899281Y-106314582D01*
X143899279Y-106314585D01*
X143849161Y-106401394D01*
X143849159Y-106401396D01*
X143820225Y-106451509D01*
X143820224Y-106451510D01*
X143820223Y-106451515D01*
X143779299Y-106604243D01*
X143779299Y-106604245D01*
X143779299Y-106772346D01*
X143779300Y-106772359D01*
X143779300Y-114132647D01*
X143759615Y-114199686D01*
X143706811Y-114245441D01*
X143637653Y-114255385D01*
X143574097Y-114226360D01*
X143536323Y-114167582D01*
X143531772Y-114143454D01*
X143525635Y-114073313D01*
X143525635Y-114073308D01*
X143466739Y-113853504D01*
X143370568Y-113647266D01*
X143240047Y-113460861D01*
X143240045Y-113460858D01*
X143079141Y-113299954D01*
X142892734Y-113169432D01*
X142892732Y-113169431D01*
X142686497Y-113073261D01*
X142686488Y-113073258D01*
X142466697Y-113014366D01*
X142466693Y-113014365D01*
X142466692Y-113014365D01*
X142466691Y-113014364D01*
X142466686Y-113014364D01*
X142240002Y-112994532D01*
X142239998Y-112994532D01*
X142013313Y-113014364D01*
X142013302Y-113014366D01*
X141793511Y-113073258D01*
X141793502Y-113073261D01*
X141587267Y-113169431D01*
X141587265Y-113169432D01*
X141400858Y-113299954D01*
X141239954Y-113460858D01*
X141109432Y-113647265D01*
X141109431Y-113647267D01*
X141013261Y-113853502D01*
X141013258Y-113853511D01*
X140954366Y-114073302D01*
X140954364Y-114073313D01*
X140934532Y-114299998D01*
X140934532Y-114300001D01*
X140954364Y-114526686D01*
X140954366Y-114526697D01*
X141013258Y-114746488D01*
X141013261Y-114746497D01*
X141109431Y-114952732D01*
X141109432Y-114952734D01*
X141239954Y-115139141D01*
X141400858Y-115300045D01*
X141400861Y-115300047D01*
X141587266Y-115430568D01*
X141793504Y-115526739D01*
X142013308Y-115585635D01*
X142174094Y-115599702D01*
X142239998Y-115605468D01*
X142240000Y-115605468D01*
X142240002Y-115605468D01*
X142296673Y-115600509D01*
X142466692Y-115585635D01*
X142686496Y-115526739D01*
X142892734Y-115430568D01*
X143079139Y-115300047D01*
X143240047Y-115139139D01*
X143370568Y-114952734D01*
X143466739Y-114746496D01*
X143525635Y-114526692D01*
X143531772Y-114456544D01*
X143557224Y-114391476D01*
X143613815Y-114350497D01*
X143683577Y-114346619D01*
X143744361Y-114381073D01*
X143776869Y-114442920D01*
X143779300Y-114467352D01*
X143779300Y-121752647D01*
X143759615Y-121819686D01*
X143706811Y-121865441D01*
X143637653Y-121875385D01*
X143574097Y-121846360D01*
X143536323Y-121787582D01*
X143531772Y-121763454D01*
X143525635Y-121693313D01*
X143525635Y-121693308D01*
X143466739Y-121473504D01*
X143370568Y-121267266D01*
X143240047Y-121080861D01*
X143240045Y-121080858D01*
X143079141Y-120919954D01*
X142892734Y-120789432D01*
X142892732Y-120789431D01*
X142686497Y-120693261D01*
X142686488Y-120693258D01*
X142466697Y-120634366D01*
X142466693Y-120634365D01*
X142466692Y-120634365D01*
X142466691Y-120634364D01*
X142466686Y-120634364D01*
X142240002Y-120614532D01*
X142239998Y-120614532D01*
X142013313Y-120634364D01*
X142013302Y-120634366D01*
X141917067Y-120660152D01*
X141847217Y-120658489D01*
X141797293Y-120628058D01*
X136209290Y-115040055D01*
X136209288Y-115040052D01*
X136090417Y-114921181D01*
X136090416Y-114921180D01*
X136003604Y-114871060D01*
X136003604Y-114871059D01*
X136003600Y-114871058D01*
X135953485Y-114842123D01*
X135949752Y-114841122D01*
X135946957Y-114839419D01*
X135945975Y-114839012D01*
X135946038Y-114838858D01*
X135890094Y-114804756D01*
X135859567Y-114741908D01*
X135862075Y-114689257D01*
X135905635Y-114526692D01*
X135925468Y-114300000D01*
X135905635Y-114073308D01*
X135846739Y-113853504D01*
X135750568Y-113647266D01*
X135620047Y-113460861D01*
X135620045Y-113460858D01*
X135459140Y-113299953D01*
X135273377Y-113169881D01*
X135229752Y-113115304D01*
X135220500Y-113068306D01*
X135220500Y-109520096D01*
X135240185Y-109453057D01*
X135256815Y-109432419D01*
X135865159Y-108824074D01*
X135926482Y-108790590D01*
X135996174Y-108795574D01*
X136052107Y-108837446D01*
X136072106Y-108877821D01*
X136129417Y-109079247D01*
X136129422Y-109079260D01*
X136220327Y-109261821D01*
X136343237Y-109424581D01*
X136493958Y-109561980D01*
X136493960Y-109561982D01*
X136593141Y-109623392D01*
X136667363Y-109669348D01*
X136857544Y-109743024D01*
X137058024Y-109780500D01*
X137058026Y-109780500D01*
X137261974Y-109780500D01*
X137261976Y-109780500D01*
X137462456Y-109743024D01*
X137652637Y-109669348D01*
X137826041Y-109561981D01*
X137968168Y-109432415D01*
X137976762Y-109424581D01*
X137976764Y-109424579D01*
X138099673Y-109261821D01*
X138190582Y-109079250D01*
X138246397Y-108883083D01*
X138265215Y-108680000D01*
X138262110Y-108646496D01*
X138246397Y-108476917D01*
X138232107Y-108426693D01*
X138190582Y-108280750D01*
X138160309Y-108219954D01*
X138146272Y-108191764D01*
X138099673Y-108098179D01*
X138020443Y-107993261D01*
X137976762Y-107935418D01*
X137826042Y-107798019D01*
X137814723Y-107791011D01*
X137805704Y-107785426D01*
X137759069Y-107733401D01*
X137747964Y-107664419D01*
X137775916Y-107600385D01*
X137805703Y-107574573D01*
X137826041Y-107561981D01*
X137961072Y-107438884D01*
X137976762Y-107424581D01*
X137976764Y-107424579D01*
X138099673Y-107261821D01*
X138190582Y-107079250D01*
X138246397Y-106883083D01*
X138265215Y-106680000D01*
X138246397Y-106476917D01*
X138190582Y-106280750D01*
X138099673Y-106098179D01*
X138025908Y-106000498D01*
X137976762Y-105935418D01*
X137826041Y-105798019D01*
X137826039Y-105798017D01*
X137652642Y-105690655D01*
X137652635Y-105690651D01*
X137557546Y-105653814D01*
X137462456Y-105616976D01*
X137261976Y-105579500D01*
X137058024Y-105579500D01*
X136857544Y-105616976D01*
X136857541Y-105616976D01*
X136857541Y-105616977D01*
X136667364Y-105690651D01*
X136667357Y-105690655D01*
X136493960Y-105798017D01*
X136493958Y-105798019D01*
X136343237Y-105935418D01*
X136220327Y-106098178D01*
X136129422Y-106280739D01*
X136129417Y-106280752D01*
X136073602Y-106476917D01*
X136054785Y-106679999D01*
X136054785Y-106680000D01*
X136071122Y-106856309D01*
X136057707Y-106924879D01*
X136035332Y-106955431D01*
X134251286Y-108739478D01*
X134139481Y-108851282D01*
X134139479Y-108851285D01*
X134111665Y-108899462D01*
X134111664Y-108899464D01*
X134060423Y-108988214D01*
X134060423Y-108988215D01*
X134019499Y-109140943D01*
X134019499Y-109140945D01*
X134019499Y-109309046D01*
X134019500Y-109309059D01*
X134019500Y-113068306D01*
X133999815Y-113135345D01*
X133966623Y-113169881D01*
X133780859Y-113299953D01*
X133619954Y-113460858D01*
X133489432Y-113647265D01*
X133489431Y-113647267D01*
X133393261Y-113853502D01*
X133393258Y-113853511D01*
X133334366Y-114073302D01*
X133334364Y-114073313D01*
X133314532Y-114299998D01*
X133314532Y-114300001D01*
X133334364Y-114526686D01*
X133334366Y-114526697D01*
X133393258Y-114746488D01*
X133393261Y-114746497D01*
X133489431Y-114952732D01*
X133489432Y-114952734D01*
X133619954Y-115139141D01*
X133780858Y-115300045D01*
X133780861Y-115300047D01*
X133967266Y-115430568D01*
X133967278Y-115430573D01*
X133968661Y-115431372D01*
X133969155Y-115431890D01*
X133971701Y-115433673D01*
X133971342Y-115434184D01*
X134016880Y-115481935D01*
X134026442Y-115506667D01*
X134047602Y-115585635D01*
X134060423Y-115633483D01*
X134060426Y-115633490D01*
X134139475Y-115770409D01*
X134139479Y-115770414D01*
X134139480Y-115770416D01*
X134251284Y-115882220D01*
X134251286Y-115882221D01*
X134251290Y-115882224D01*
X134336150Y-115931217D01*
X134388216Y-115961277D01*
X134540943Y-116002200D01*
X134699057Y-116002200D01*
X135421603Y-116002200D01*
X135488642Y-116021885D01*
X135509284Y-116038519D01*
X140948058Y-121477293D01*
X140981543Y-121538616D01*
X140980152Y-121597067D01*
X140954366Y-121693302D01*
X140954364Y-121693313D01*
X140934532Y-121919998D01*
X140934532Y-121920001D01*
X140954364Y-122146686D01*
X140954366Y-122146697D01*
X141013258Y-122366488D01*
X141013261Y-122366497D01*
X141109431Y-122572732D01*
X141109432Y-122572734D01*
X141239954Y-122759141D01*
X141400858Y-122920045D01*
X141447693Y-122952839D01*
X141587266Y-123050568D01*
X141793504Y-123146739D01*
X142013308Y-123205635D01*
X142157144Y-123218219D01*
X142239998Y-123225468D01*
X142239999Y-123225468D01*
X142239999Y-123225467D01*
X142240000Y-123225468D01*
X142322847Y-123218219D01*
X142391344Y-123231985D01*
X142441528Y-123280600D01*
X142457462Y-123348628D01*
X142434088Y-123414472D01*
X142421334Y-123429428D01*
X140142705Y-125708058D01*
X140081382Y-125741543D01*
X140022931Y-125740152D01*
X139926697Y-125714366D01*
X139926693Y-125714365D01*
X139926692Y-125714365D01*
X139926691Y-125714364D01*
X139926686Y-125714364D01*
X139700002Y-125694532D01*
X139699998Y-125694532D01*
X139473313Y-125714364D01*
X139473302Y-125714366D01*
X139253511Y-125773258D01*
X139253502Y-125773261D01*
X139047267Y-125869431D01*
X139047265Y-125869432D01*
X138860858Y-125999954D01*
X138699954Y-126160858D01*
X138569432Y-126347265D01*
X138569431Y-126347267D01*
X138473261Y-126553502D01*
X138473258Y-126553511D01*
X138414366Y-126773302D01*
X138414364Y-126773313D01*
X138394532Y-126999998D01*
X138394532Y-127000001D01*
X138414364Y-127226686D01*
X138414366Y-127226697D01*
X138473258Y-127446488D01*
X138473261Y-127446497D01*
X138569431Y-127652732D01*
X138569432Y-127652734D01*
X138699954Y-127839141D01*
X138860858Y-128000045D01*
X138860861Y-128000047D01*
X139047266Y-128130568D01*
X139253504Y-128226739D01*
X139473308Y-128285635D01*
X139635230Y-128299801D01*
X139699998Y-128305468D01*
X139700000Y-128305468D01*
X139700002Y-128305468D01*
X139756673Y-128300509D01*
X139926692Y-128285635D01*
X140146496Y-128226739D01*
X140352734Y-128130568D01*
X140539139Y-128000047D01*
X140700047Y-127839139D01*
X140765278Y-127745977D01*
X140819854Y-127702353D01*
X140889352Y-127695159D01*
X140951707Y-127726681D01*
X140987122Y-127786911D01*
X140990143Y-127803847D01*
X140995909Y-127857483D01*
X141046202Y-127992328D01*
X141046206Y-127992335D01*
X141132452Y-128107544D01*
X141132455Y-128107547D01*
X141247664Y-128193793D01*
X141247671Y-128193797D01*
X141382517Y-128244091D01*
X141382516Y-128244091D01*
X141389444Y-128244835D01*
X141442127Y-128250500D01*
X143037872Y-128250499D01*
X143097483Y-128244091D01*
X143232331Y-128193796D01*
X143347546Y-128107546D01*
X143433796Y-127992331D01*
X143484091Y-127857483D01*
X143489939Y-127803086D01*
X143516676Y-127738539D01*
X143574069Y-127698691D01*
X143643894Y-127696197D01*
X143691897Y-127724678D01*
X143700974Y-127725472D01*
X144380000Y-127046446D01*
X144380000Y-127052661D01*
X144407259Y-127154394D01*
X144459920Y-127245606D01*
X144534394Y-127320080D01*
X144625606Y-127372741D01*
X144727339Y-127400000D01*
X144733553Y-127400000D01*
X144054526Y-128079025D01*
X144127513Y-128130132D01*
X144127521Y-128130136D01*
X144333668Y-128226264D01*
X144333682Y-128226269D01*
X144553389Y-128285139D01*
X144553400Y-128285141D01*
X144779998Y-128304966D01*
X144780002Y-128304966D01*
X145006599Y-128285141D01*
X145006610Y-128285139D01*
X145226317Y-128226269D01*
X145226331Y-128226264D01*
X145432478Y-128130136D01*
X145505471Y-128079024D01*
X144826447Y-127400000D01*
X144832661Y-127400000D01*
X144934394Y-127372741D01*
X145025606Y-127320080D01*
X145100080Y-127245606D01*
X145152741Y-127154394D01*
X145180000Y-127052661D01*
X145180000Y-127046447D01*
X145859024Y-127725471D01*
X145910136Y-127652478D01*
X146006264Y-127446331D01*
X146006269Y-127446317D01*
X146065139Y-127226610D01*
X146065141Y-127226599D01*
X146084966Y-127000002D01*
X146084966Y-126999998D01*
X151094532Y-126999998D01*
X151094532Y-127000001D01*
X151114364Y-127226686D01*
X151114366Y-127226697D01*
X151173258Y-127446488D01*
X151173261Y-127446497D01*
X151269431Y-127652732D01*
X151269432Y-127652734D01*
X151399954Y-127839141D01*
X151560858Y-128000045D01*
X151560861Y-128000047D01*
X151747266Y-128130568D01*
X151953504Y-128226739D01*
X152173308Y-128285635D01*
X152335230Y-128299801D01*
X152399998Y-128305468D01*
X152400000Y-128305468D01*
X152400002Y-128305468D01*
X152456673Y-128300509D01*
X152626692Y-128285635D01*
X152846496Y-128226739D01*
X153052734Y-128130568D01*
X153239139Y-128000047D01*
X153400047Y-127839139D01*
X153530568Y-127652734D01*
X153626739Y-127446496D01*
X153685635Y-127226692D01*
X153705468Y-127000000D01*
X153685635Y-126773308D01*
X153626739Y-126553504D01*
X153530568Y-126347266D01*
X153400047Y-126160861D01*
X153400045Y-126160858D01*
X153239141Y-125999954D01*
X153052734Y-125869432D01*
X153052732Y-125869431D01*
X152846497Y-125773261D01*
X152846488Y-125773258D01*
X152626697Y-125714366D01*
X152626693Y-125714365D01*
X152626692Y-125714365D01*
X152626691Y-125714364D01*
X152626686Y-125714364D01*
X152400002Y-125694532D01*
X152399998Y-125694532D01*
X152173313Y-125714364D01*
X152173302Y-125714366D01*
X151953511Y-125773258D01*
X151953502Y-125773261D01*
X151747267Y-125869431D01*
X151747265Y-125869432D01*
X151560858Y-125999954D01*
X151399954Y-126160858D01*
X151269432Y-126347265D01*
X151269431Y-126347267D01*
X151173261Y-126553502D01*
X151173258Y-126553511D01*
X151114366Y-126773302D01*
X151114364Y-126773313D01*
X151094532Y-126999998D01*
X146084966Y-126999998D01*
X146084966Y-126999997D01*
X146065141Y-126773400D01*
X146065139Y-126773389D01*
X146006269Y-126553682D01*
X146006264Y-126553668D01*
X145910136Y-126347521D01*
X145910132Y-126347513D01*
X145859025Y-126274526D01*
X145180000Y-126953551D01*
X145180000Y-126947339D01*
X145152741Y-126845606D01*
X145100080Y-126754394D01*
X145025606Y-126679920D01*
X144934394Y-126627259D01*
X144832661Y-126600000D01*
X144826448Y-126600000D01*
X145505472Y-125920974D01*
X145432478Y-125869863D01*
X145226331Y-125773735D01*
X145226317Y-125773730D01*
X145006610Y-125714860D01*
X145006599Y-125714858D01*
X144780002Y-125695034D01*
X144779998Y-125695034D01*
X144553400Y-125714858D01*
X144553389Y-125714860D01*
X144333682Y-125773730D01*
X144333673Y-125773734D01*
X144127516Y-125869866D01*
X144127512Y-125869868D01*
X144054526Y-125920973D01*
X144054526Y-125920974D01*
X144733553Y-126600000D01*
X144727339Y-126600000D01*
X144625606Y-126627259D01*
X144534394Y-126679920D01*
X144459920Y-126754394D01*
X144407259Y-126845606D01*
X144380000Y-126947339D01*
X144380000Y-126953552D01*
X143700974Y-126274526D01*
X143688756Y-126275595D01*
X143660223Y-126298402D01*
X143590724Y-126305594D01*
X143528370Y-126274070D01*
X143492958Y-126213840D01*
X143489938Y-126196912D01*
X143484091Y-126142517D01*
X143433796Y-126007669D01*
X143433795Y-126007668D01*
X143433793Y-126007664D01*
X143347547Y-125892455D01*
X143347544Y-125892452D01*
X143232335Y-125806206D01*
X143232328Y-125806202D01*
X143097482Y-125755908D01*
X143097483Y-125755908D01*
X143037883Y-125749501D01*
X143037881Y-125749500D01*
X143037873Y-125749500D01*
X143037865Y-125749500D01*
X142099096Y-125749500D01*
X142032057Y-125729815D01*
X141986302Y-125677011D01*
X141976358Y-125607853D01*
X142005383Y-125544297D01*
X142011415Y-125537819D01*
X142461349Y-125087885D01*
X144860320Y-122688916D01*
X144939377Y-122551984D01*
X144980301Y-122399257D01*
X144980301Y-122241142D01*
X144980301Y-122233547D01*
X144980300Y-122233529D01*
X144980300Y-106983396D01*
X144999985Y-106916357D01*
X145016614Y-106895720D01*
X145232335Y-106679999D01*
X146214785Y-106679999D01*
X146214785Y-106680000D01*
X146233602Y-106883082D01*
X146289417Y-107079247D01*
X146289422Y-107079260D01*
X146380327Y-107261821D01*
X146503237Y-107424581D01*
X146586557Y-107500536D01*
X146653959Y-107561981D01*
X146674294Y-107574572D01*
X146674296Y-107574573D01*
X146720931Y-107626601D01*
X146732035Y-107695583D01*
X146704082Y-107759617D01*
X146674296Y-107785427D01*
X146653957Y-107798020D01*
X146503237Y-107935418D01*
X146380327Y-108098178D01*
X146289422Y-108280739D01*
X146289417Y-108280752D01*
X146233602Y-108476917D01*
X146214785Y-108679999D01*
X146214785Y-108680000D01*
X146233602Y-108883082D01*
X146289417Y-109079247D01*
X146289422Y-109079260D01*
X146380327Y-109261821D01*
X146503237Y-109424581D01*
X146653958Y-109561980D01*
X146653960Y-109561982D01*
X146753141Y-109623392D01*
X146827363Y-109669348D01*
X147017544Y-109743024D01*
X147218024Y-109780500D01*
X147218026Y-109780500D01*
X147421975Y-109780500D01*
X147421976Y-109780500D01*
X147483504Y-109768998D01*
X147553017Y-109776028D01*
X147593970Y-109803205D01*
X149223181Y-111432416D01*
X149256666Y-111493739D01*
X149259500Y-111520097D01*
X149259500Y-115802689D01*
X149239815Y-115869728D01*
X149187011Y-115915483D01*
X149182955Y-115917249D01*
X149149249Y-115931211D01*
X149149237Y-115931217D01*
X148981281Y-116043441D01*
X148838441Y-116186281D01*
X148726217Y-116354237D01*
X148726212Y-116354247D01*
X148648909Y-116540872D01*
X148648907Y-116540880D01*
X148609500Y-116738992D01*
X148609500Y-116941007D01*
X148648907Y-117139119D01*
X148648909Y-117139127D01*
X148726213Y-117325755D01*
X148779904Y-117406109D01*
X148800782Y-117472787D01*
X148782297Y-117540167D01*
X148779904Y-117543891D01*
X148726213Y-117624244D01*
X148648909Y-117810872D01*
X148648907Y-117810880D01*
X148609500Y-118008992D01*
X148609500Y-118211007D01*
X148648907Y-118409119D01*
X148648910Y-118409131D01*
X148682547Y-118490338D01*
X148690016Y-118559807D01*
X148670405Y-118604864D01*
X148670895Y-118605132D01*
X148667910Y-118610596D01*
X148667260Y-118612092D01*
X148666646Y-118612911D01*
X148666645Y-118612913D01*
X148616403Y-118747620D01*
X148616401Y-118747627D01*
X148610000Y-118807155D01*
X148610000Y-119130000D01*
X149494134Y-119130000D01*
X149518326Y-119132383D01*
X149521123Y-119132939D01*
X149533995Y-119135499D01*
X149533996Y-119135500D01*
X149533997Y-119135500D01*
X149574170Y-119135500D01*
X149559925Y-119149745D01*
X149510556Y-119235255D01*
X149485000Y-119330630D01*
X149485000Y-119429370D01*
X149510556Y-119524745D01*
X149559925Y-119610255D01*
X149579670Y-119630000D01*
X148610000Y-119630000D01*
X148610000Y-119952844D01*
X148616401Y-120012372D01*
X148616403Y-120012379D01*
X148666645Y-120147086D01*
X148666649Y-120147093D01*
X148752809Y-120262187D01*
X148752812Y-120262190D01*
X148867906Y-120348350D01*
X148867913Y-120348354D01*
X149002620Y-120398596D01*
X149002627Y-120398598D01*
X149062155Y-120404999D01*
X149062172Y-120405000D01*
X149610000Y-120405000D01*
X149610000Y-119660330D01*
X149629745Y-119680075D01*
X149715255Y-119729444D01*
X149810630Y-119755000D01*
X149909370Y-119755000D01*
X150004745Y-119729444D01*
X150090255Y-119680075D01*
X150110000Y-119660330D01*
X150110000Y-120405000D01*
X150657828Y-120405000D01*
X150657844Y-120404999D01*
X150717372Y-120398598D01*
X150717379Y-120398596D01*
X150852086Y-120348354D01*
X150852093Y-120348350D01*
X150967187Y-120262190D01*
X150967190Y-120262187D01*
X151053350Y-120147093D01*
X151053354Y-120147086D01*
X151103596Y-120012379D01*
X151103598Y-120012372D01*
X151109999Y-119952844D01*
X151110000Y-119952827D01*
X151110000Y-119630000D01*
X150140330Y-119630000D01*
X150160075Y-119610255D01*
X150209444Y-119524745D01*
X150235000Y-119429370D01*
X150235000Y-119330630D01*
X150209444Y-119235255D01*
X150160075Y-119149745D01*
X150145830Y-119135500D01*
X150186004Y-119135500D01*
X150186004Y-119135499D01*
X150199473Y-119132820D01*
X150201674Y-119132383D01*
X150225866Y-119130000D01*
X151110000Y-119130000D01*
X151110000Y-118807172D01*
X151109999Y-118807155D01*
X151103598Y-118747627D01*
X151103596Y-118747620D01*
X151053354Y-118612913D01*
X151053353Y-118612911D01*
X151052745Y-118612099D01*
X151052390Y-118611148D01*
X151049103Y-118605128D01*
X151049968Y-118604655D01*
X151028329Y-118546634D01*
X151037452Y-118490338D01*
X151071091Y-118409127D01*
X151110500Y-118211003D01*
X151110500Y-118187397D01*
X151130185Y-118120358D01*
X151182989Y-118074603D01*
X151252147Y-118064659D01*
X151315703Y-118093684D01*
X151322181Y-118099716D01*
X159113958Y-125891493D01*
X159147443Y-125952816D01*
X159142459Y-126022508D01*
X159113958Y-126066855D01*
X159019954Y-126160858D01*
X158889432Y-126347265D01*
X158889431Y-126347267D01*
X158793261Y-126553502D01*
X158793258Y-126553511D01*
X158734366Y-126773302D01*
X158734364Y-126773313D01*
X158714532Y-126999998D01*
X158714532Y-127000001D01*
X158734364Y-127226686D01*
X158734366Y-127226697D01*
X158793258Y-127446488D01*
X158793261Y-127446497D01*
X158889431Y-127652732D01*
X158889432Y-127652734D01*
X159019954Y-127839141D01*
X159180858Y-128000045D01*
X159180861Y-128000047D01*
X159367266Y-128130568D01*
X159573504Y-128226739D01*
X159793308Y-128285635D01*
X159955230Y-128299801D01*
X160019998Y-128305468D01*
X160020000Y-128305468D01*
X160020002Y-128305468D01*
X160076673Y-128300509D01*
X160246692Y-128285635D01*
X160466496Y-128226739D01*
X160672734Y-128130568D01*
X160859139Y-128000047D01*
X161020047Y-127839139D01*
X161150568Y-127652734D01*
X161246739Y-127446496D01*
X161305635Y-127226692D01*
X161325468Y-127000000D01*
X161305635Y-126773308D01*
X161246739Y-126553504D01*
X161150568Y-126347266D01*
X161020047Y-126160861D01*
X161020045Y-126160858D01*
X160859141Y-125999954D01*
X160672735Y-125869432D01*
X160672732Y-125869431D01*
X160665496Y-125866056D01*
X160613060Y-125819880D01*
X160598133Y-125785770D01*
X160579577Y-125716516D01*
X160574694Y-125708058D01*
X160500524Y-125579590D01*
X160500521Y-125579586D01*
X160500520Y-125579584D01*
X160388716Y-125467780D01*
X160388715Y-125467779D01*
X160384385Y-125463449D01*
X160384374Y-125463439D01*
X157037877Y-122116942D01*
X157004392Y-122055619D01*
X157009376Y-121985927D01*
X157051248Y-121929994D01*
X157116712Y-121905577D01*
X157157652Y-121909486D01*
X157229999Y-121928871D01*
X157230000Y-121928871D01*
X157230000Y-120965686D01*
X157234394Y-120970080D01*
X157325606Y-121022741D01*
X157427339Y-121050000D01*
X157532661Y-121050000D01*
X157634394Y-121022741D01*
X157725606Y-120970080D01*
X157730000Y-120965686D01*
X157730000Y-121928872D01*
X157926317Y-121876269D01*
X157926326Y-121876265D01*
X158132482Y-121780134D01*
X158318820Y-121649657D01*
X158479657Y-121488820D01*
X158610134Y-121302482D01*
X158706265Y-121096326D01*
X158706269Y-121096317D01*
X158758872Y-120900000D01*
X157795686Y-120900000D01*
X157800080Y-120895606D01*
X157852741Y-120804394D01*
X157880000Y-120702661D01*
X157880000Y-120597339D01*
X157852741Y-120495606D01*
X157800080Y-120404394D01*
X157795686Y-120400000D01*
X158758872Y-120400000D01*
X158758872Y-120399999D01*
X158706269Y-120203682D01*
X158706265Y-120203673D01*
X158633602Y-120047844D01*
X177280000Y-120047844D01*
X177286401Y-120107372D01*
X177286403Y-120107379D01*
X177336645Y-120242086D01*
X177336649Y-120242093D01*
X177422809Y-120357187D01*
X177422812Y-120357190D01*
X177537906Y-120443350D01*
X177537913Y-120443354D01*
X177672620Y-120493596D01*
X177672627Y-120493598D01*
X177732155Y-120499999D01*
X177732172Y-120500000D01*
X178930000Y-120500000D01*
X178930000Y-119150000D01*
X177280000Y-119150000D01*
X177280000Y-120047844D01*
X158633602Y-120047844D01*
X158610134Y-119997517D01*
X158479657Y-119811179D01*
X158318820Y-119650342D01*
X158132482Y-119519865D01*
X157926328Y-119423734D01*
X157730000Y-119371127D01*
X157730000Y-120334314D01*
X157725606Y-120329920D01*
X157634394Y-120277259D01*
X157532661Y-120250000D01*
X157427339Y-120250000D01*
X157325606Y-120277259D01*
X157234394Y-120329920D01*
X157230000Y-120334314D01*
X157230000Y-119371127D01*
X157033671Y-119423734D01*
X156827517Y-119519865D01*
X156641179Y-119650342D01*
X156480342Y-119811179D01*
X156349865Y-119997517D01*
X156253734Y-120203673D01*
X156253730Y-120203682D01*
X156201127Y-120399999D01*
X156201128Y-120400000D01*
X157164314Y-120400000D01*
X157159920Y-120404394D01*
X157107259Y-120495606D01*
X157080000Y-120597339D01*
X157080000Y-120702661D01*
X157107259Y-120804394D01*
X157159920Y-120895606D01*
X157164314Y-120900000D01*
X156201128Y-120900000D01*
X156220513Y-120972348D01*
X156218850Y-121042198D01*
X156179687Y-121100060D01*
X156115459Y-121127564D01*
X156046557Y-121115977D01*
X156013057Y-121092122D01*
X152673090Y-117752155D01*
X177280000Y-117752155D01*
X177280000Y-118650000D01*
X178930000Y-118650000D01*
X178930000Y-117300000D01*
X177732155Y-117300000D01*
X177672627Y-117306401D01*
X177672620Y-117306403D01*
X177537913Y-117356645D01*
X177537906Y-117356649D01*
X177422812Y-117442809D01*
X177422809Y-117442812D01*
X177336649Y-117557906D01*
X177336645Y-117557913D01*
X177286403Y-117692620D01*
X177286401Y-117692627D01*
X177280000Y-117752155D01*
X152673090Y-117752155D01*
X151399290Y-116478355D01*
X151399288Y-116478352D01*
X151280417Y-116359481D01*
X151280416Y-116359480D01*
X151193604Y-116309360D01*
X151193604Y-116309359D01*
X151193600Y-116309358D01*
X151143485Y-116280423D01*
X150990757Y-116239499D01*
X150990754Y-116239499D01*
X150983395Y-116239499D01*
X150916356Y-116219814D01*
X150886286Y-116190273D01*
X150885418Y-116190986D01*
X150881553Y-116186276D01*
X150738718Y-116043441D01*
X150570762Y-115931217D01*
X150570750Y-115931211D01*
X150537045Y-115917249D01*
X150482642Y-115873407D01*
X150460579Y-115807112D01*
X150460500Y-115802689D01*
X150460500Y-111140945D01*
X150460500Y-111140943D01*
X150419577Y-110988216D01*
X150398908Y-110952416D01*
X150340524Y-110851290D01*
X150340521Y-110851286D01*
X150340520Y-110851284D01*
X150228716Y-110739480D01*
X150228715Y-110739479D01*
X150224385Y-110735149D01*
X150224374Y-110735139D01*
X148709233Y-109219998D01*
X156174532Y-109219998D01*
X156174532Y-109220001D01*
X156194364Y-109446686D01*
X156194366Y-109446697D01*
X156253258Y-109666488D01*
X156253261Y-109666497D01*
X156349431Y-109872732D01*
X156349432Y-109872734D01*
X156479954Y-110059141D01*
X156640858Y-110220045D01*
X156640861Y-110220047D01*
X156826624Y-110350118D01*
X156870248Y-110404693D01*
X156879500Y-110451692D01*
X156879500Y-111798306D01*
X156859815Y-111865345D01*
X156826623Y-111899881D01*
X156640859Y-112029953D01*
X156479954Y-112190858D01*
X156349432Y-112377265D01*
X156349431Y-112377267D01*
X156253261Y-112583502D01*
X156253258Y-112583511D01*
X156194366Y-112803302D01*
X156194364Y-112803313D01*
X156174532Y-113029998D01*
X156174532Y-113030001D01*
X156194364Y-113256686D01*
X156194366Y-113256697D01*
X156253258Y-113476488D01*
X156253261Y-113476497D01*
X156349431Y-113682732D01*
X156349432Y-113682734D01*
X156479954Y-113869141D01*
X156640858Y-114030045D01*
X156640861Y-114030047D01*
X156827266Y-114160568D01*
X157033504Y-114256739D01*
X157253308Y-114315635D01*
X157415230Y-114329801D01*
X157479998Y-114335468D01*
X157480000Y-114335468D01*
X157480002Y-114335468D01*
X157536673Y-114330509D01*
X157706692Y-114315635D01*
X157926496Y-114256739D01*
X158132734Y-114160568D01*
X158319139Y-114030047D01*
X158480047Y-113869139D01*
X158610568Y-113682734D01*
X158706739Y-113476496D01*
X158765635Y-113256692D01*
X158785468Y-113030000D01*
X158765635Y-112803308D01*
X158706739Y-112583504D01*
X158610568Y-112377266D01*
X158480047Y-112190861D01*
X158480045Y-112190858D01*
X158319140Y-112029953D01*
X158133377Y-111899881D01*
X158089752Y-111845304D01*
X158080500Y-111798306D01*
X158080500Y-110451692D01*
X158100185Y-110384653D01*
X158133374Y-110350119D01*
X158319139Y-110220047D01*
X158480047Y-110059139D01*
X158610568Y-109872734D01*
X158706739Y-109666496D01*
X158765635Y-109446692D01*
X158785468Y-109220000D01*
X158765635Y-108993308D01*
X158706739Y-108773504D01*
X158610568Y-108567266D01*
X158480047Y-108380861D01*
X158480045Y-108380858D01*
X158319141Y-108219954D01*
X158290641Y-108199998D01*
X170034532Y-108199998D01*
X170034532Y-108200001D01*
X170054364Y-108426686D01*
X170054366Y-108426697D01*
X170113258Y-108646488D01*
X170113261Y-108646497D01*
X170209431Y-108852732D01*
X170209432Y-108852734D01*
X170339954Y-109039141D01*
X170500858Y-109200045D01*
X170547693Y-109232839D01*
X170687266Y-109330568D01*
X170893504Y-109426739D01*
X171113308Y-109485635D01*
X171275230Y-109499801D01*
X171339998Y-109505468D01*
X171340000Y-109505468D01*
X171340002Y-109505468D01*
X171396673Y-109500509D01*
X171566692Y-109485635D01*
X171741486Y-109438799D01*
X171811333Y-109440462D01*
X171861258Y-109470893D01*
X179478684Y-117088319D01*
X179512169Y-117149642D01*
X179507185Y-117219334D01*
X179465313Y-117275267D01*
X179448439Y-117281560D01*
X179430000Y-117300000D01*
X179430000Y-120500000D01*
X180197700Y-120500000D01*
X180264739Y-120519685D01*
X180310494Y-120572489D01*
X180321700Y-120624000D01*
X180321700Y-124556002D01*
X180302015Y-124623041D01*
X180285381Y-124643683D01*
X178699481Y-126229582D01*
X178699479Y-126229584D01*
X178685371Y-126254021D01*
X178668601Y-126283070D01*
X178668600Y-126283071D01*
X178668599Y-126283072D01*
X178637175Y-126337500D01*
X178586608Y-126385716D01*
X178529788Y-126399500D01*
X177732129Y-126399500D01*
X177732123Y-126399501D01*
X177672516Y-126405908D01*
X177537671Y-126456202D01*
X177537664Y-126456206D01*
X177422455Y-126542452D01*
X177422452Y-126542455D01*
X177336206Y-126657664D01*
X177336202Y-126657671D01*
X177285908Y-126792517D01*
X177282681Y-126822539D01*
X177279501Y-126852123D01*
X177279500Y-126852135D01*
X177279500Y-129747870D01*
X177279501Y-129747876D01*
X177285908Y-129807483D01*
X177336202Y-129942328D01*
X177336206Y-129942335D01*
X177422452Y-130057544D01*
X177422455Y-130057547D01*
X177537664Y-130143793D01*
X177537671Y-130143797D01*
X177672517Y-130194091D01*
X177672516Y-130194091D01*
X177679444Y-130194835D01*
X177732127Y-130200500D01*
X180627872Y-130200499D01*
X180687483Y-130194091D01*
X180822331Y-130143796D01*
X180937546Y-130057546D01*
X181023796Y-129942331D01*
X181074091Y-129807483D01*
X181080500Y-129747873D01*
X181080499Y-126913389D01*
X181779500Y-126913389D01*
X181779500Y-127086610D01*
X181801686Y-127226692D01*
X181806598Y-127257701D01*
X181860127Y-127422445D01*
X181938768Y-127576788D01*
X182040586Y-127716928D01*
X182163072Y-127839414D01*
X182303212Y-127941232D01*
X182457555Y-128019873D01*
X182622299Y-128073402D01*
X182793389Y-128100500D01*
X182793390Y-128100500D01*
X182966610Y-128100500D01*
X182966611Y-128100500D01*
X183137701Y-128073402D01*
X183302445Y-128019873D01*
X183456788Y-127941232D01*
X183596928Y-127839414D01*
X183719414Y-127716928D01*
X183821232Y-127576788D01*
X183899873Y-127422445D01*
X183953402Y-127257701D01*
X183980500Y-127086611D01*
X183980500Y-126913389D01*
X183953402Y-126742299D01*
X183899873Y-126577555D01*
X183821232Y-126423212D01*
X183719414Y-126283072D01*
X183596928Y-126160586D01*
X183456788Y-126058768D01*
X183302445Y-125980127D01*
X183137701Y-125926598D01*
X183137699Y-125926597D01*
X183137698Y-125926597D01*
X183006271Y-125905781D01*
X182966611Y-125899500D01*
X182793389Y-125899500D01*
X182753728Y-125905781D01*
X182622302Y-125926597D01*
X182457552Y-125980128D01*
X182303211Y-126058768D01*
X182223256Y-126116859D01*
X182163072Y-126160586D01*
X182163070Y-126160588D01*
X182163069Y-126160588D01*
X182040588Y-126283069D01*
X182040588Y-126283070D01*
X182040586Y-126283072D01*
X182026074Y-126303046D01*
X181938768Y-126423211D01*
X181860128Y-126577552D01*
X181806597Y-126742302D01*
X181779500Y-126913389D01*
X181080499Y-126913389D01*
X181080499Y-126852128D01*
X181074091Y-126792517D01*
X181066928Y-126773313D01*
X181023797Y-126657671D01*
X181023793Y-126657664D01*
X180937547Y-126542455D01*
X180937544Y-126542452D01*
X180822335Y-126456206D01*
X180822328Y-126456202D01*
X180687482Y-126405908D01*
X180687483Y-126405908D01*
X180627883Y-126399501D01*
X180627881Y-126399500D01*
X180627873Y-126399500D01*
X180627865Y-126399500D01*
X180527396Y-126399500D01*
X180460357Y-126379815D01*
X180414602Y-126327011D01*
X180404658Y-126257853D01*
X180433683Y-126194297D01*
X180439715Y-126187819D01*
X180854276Y-125773258D01*
X181290913Y-125336621D01*
X181290916Y-125336620D01*
X181402720Y-125224816D01*
X181452839Y-125138004D01*
X181481777Y-125087885D01*
X181522701Y-124935157D01*
X181522701Y-124777043D01*
X181522701Y-124769448D01*
X181522700Y-124769430D01*
X181522700Y-119913389D01*
X181779500Y-119913389D01*
X181779500Y-120086610D01*
X181802548Y-120232135D01*
X181806598Y-120257701D01*
X181860127Y-120422445D01*
X181938768Y-120576788D01*
X182040586Y-120716928D01*
X182163072Y-120839414D01*
X182303212Y-120941232D01*
X182457555Y-121019873D01*
X182622299Y-121073402D01*
X182793389Y-121100500D01*
X182793390Y-121100500D01*
X182966610Y-121100500D01*
X182966611Y-121100500D01*
X183137701Y-121073402D01*
X183302445Y-121019873D01*
X183456788Y-120941232D01*
X183596928Y-120839414D01*
X183719414Y-120716928D01*
X183821232Y-120576788D01*
X183899873Y-120422445D01*
X183953402Y-120257701D01*
X183980500Y-120086611D01*
X183980500Y-119913389D01*
X183953402Y-119742299D01*
X183899873Y-119577555D01*
X183821232Y-119423212D01*
X183719414Y-119283072D01*
X183596928Y-119160586D01*
X183456788Y-119058768D01*
X183302445Y-118980127D01*
X183137701Y-118926598D01*
X183137699Y-118926597D01*
X183137698Y-118926597D01*
X183006271Y-118905781D01*
X182966611Y-118899500D01*
X182793389Y-118899500D01*
X182753728Y-118905781D01*
X182622302Y-118926597D01*
X182457552Y-118980128D01*
X182303211Y-119058768D01*
X182251841Y-119096091D01*
X182163072Y-119160586D01*
X182163070Y-119160588D01*
X182163069Y-119160588D01*
X182040588Y-119283069D01*
X182040588Y-119283070D01*
X182040586Y-119283072D01*
X182028650Y-119299501D01*
X181938768Y-119423211D01*
X181860128Y-119577552D01*
X181806597Y-119742302D01*
X181779500Y-119913389D01*
X181522700Y-119913389D01*
X181522700Y-117771660D01*
X181522701Y-117771647D01*
X181522701Y-117603544D01*
X181481776Y-117450814D01*
X181481773Y-117450809D01*
X181402724Y-117313890D01*
X181402718Y-117313882D01*
X177036814Y-112947978D01*
X172652988Y-108564153D01*
X172619504Y-108502831D01*
X172620896Y-108444376D01*
X172625635Y-108426692D01*
X172645468Y-108200000D01*
X172645468Y-108199998D01*
X182734532Y-108199998D01*
X182734532Y-108200001D01*
X182754364Y-108426686D01*
X182754366Y-108426697D01*
X182813258Y-108646488D01*
X182813261Y-108646497D01*
X182909431Y-108852732D01*
X182909432Y-108852734D01*
X183039954Y-109039141D01*
X183200858Y-109200045D01*
X183247693Y-109232839D01*
X183387266Y-109330568D01*
X183593504Y-109426739D01*
X183813308Y-109485635D01*
X183975230Y-109499801D01*
X184039998Y-109505468D01*
X184040000Y-109505468D01*
X184040002Y-109505468D01*
X184096673Y-109500509D01*
X184266692Y-109485635D01*
X184362932Y-109459847D01*
X184432781Y-109461510D01*
X184482706Y-109491941D01*
X185943181Y-110952416D01*
X185976666Y-111013739D01*
X185979500Y-111040097D01*
X185979500Y-119175500D01*
X185959815Y-119242539D01*
X185907011Y-119288294D01*
X185855500Y-119299500D01*
X185132129Y-119299500D01*
X185132123Y-119299501D01*
X185072516Y-119305908D01*
X184937671Y-119356202D01*
X184937664Y-119356206D01*
X184822455Y-119442452D01*
X184822452Y-119442455D01*
X184736206Y-119557664D01*
X184736202Y-119557671D01*
X184685908Y-119692517D01*
X184680556Y-119742302D01*
X184679501Y-119752123D01*
X184679500Y-119752135D01*
X184679500Y-122047870D01*
X184679501Y-122047876D01*
X184685908Y-122107483D01*
X184736202Y-122242328D01*
X184736206Y-122242335D01*
X184822452Y-122357544D01*
X184822455Y-122357547D01*
X184937664Y-122443793D01*
X184937671Y-122443797D01*
X185072517Y-122494091D01*
X185072516Y-122494091D01*
X185079444Y-122494835D01*
X185132127Y-122500500D01*
X188027872Y-122500499D01*
X188087483Y-122494091D01*
X188222331Y-122443796D01*
X188337546Y-122357546D01*
X188423796Y-122242331D01*
X188474091Y-122107483D01*
X188480500Y-122047873D01*
X188480499Y-119752128D01*
X188474091Y-119692517D01*
X188469450Y-119680075D01*
X188423797Y-119557671D01*
X188423793Y-119557664D01*
X188337547Y-119442455D01*
X188337544Y-119442452D01*
X188222335Y-119356206D01*
X188222328Y-119356202D01*
X188087482Y-119305908D01*
X188087483Y-119305908D01*
X188027883Y-119299501D01*
X188027881Y-119299500D01*
X188027873Y-119299500D01*
X188027865Y-119299500D01*
X187304500Y-119299500D01*
X187237461Y-119279815D01*
X187191706Y-119227011D01*
X187180500Y-119175500D01*
X187180500Y-110660945D01*
X187180500Y-110660943D01*
X187139577Y-110508216D01*
X187068239Y-110384653D01*
X187060524Y-110371290D01*
X187060521Y-110371286D01*
X187060520Y-110371284D01*
X186948716Y-110259480D01*
X186948715Y-110259479D01*
X186944385Y-110255149D01*
X186944374Y-110255139D01*
X185331941Y-108642706D01*
X185298456Y-108581383D01*
X185299847Y-108522931D01*
X185305233Y-108502831D01*
X185325635Y-108426692D01*
X185345468Y-108200000D01*
X185325635Y-107973308D01*
X185266739Y-107753504D01*
X185170568Y-107547266D01*
X185040047Y-107360861D01*
X185040045Y-107360858D01*
X184879141Y-107199954D01*
X184692734Y-107069432D01*
X184692732Y-107069431D01*
X184486497Y-106973261D01*
X184486488Y-106973258D01*
X184266697Y-106914366D01*
X184266693Y-106914365D01*
X184266692Y-106914365D01*
X184266691Y-106914364D01*
X184266686Y-106914364D01*
X184040002Y-106894532D01*
X184039998Y-106894532D01*
X183813313Y-106914364D01*
X183813302Y-106914366D01*
X183593511Y-106973258D01*
X183593502Y-106973261D01*
X183387267Y-107069431D01*
X183387265Y-107069432D01*
X183200858Y-107199954D01*
X183039954Y-107360858D01*
X182909432Y-107547265D01*
X182909431Y-107547267D01*
X182813261Y-107753502D01*
X182813258Y-107753511D01*
X182754366Y-107973302D01*
X182754364Y-107973313D01*
X182734532Y-108199998D01*
X172645468Y-108199998D01*
X172625635Y-107973308D01*
X172566739Y-107753504D01*
X172470568Y-107547266D01*
X172340047Y-107360861D01*
X172340045Y-107360858D01*
X172179141Y-107199954D01*
X171992734Y-107069432D01*
X171992732Y-107069431D01*
X171786497Y-106973261D01*
X171786488Y-106973258D01*
X171566697Y-106914366D01*
X171566693Y-106914365D01*
X171566692Y-106914365D01*
X171566691Y-106914364D01*
X171566686Y-106914364D01*
X171340002Y-106894532D01*
X171339998Y-106894532D01*
X171113313Y-106914364D01*
X171113302Y-106914366D01*
X170893511Y-106973258D01*
X170893502Y-106973261D01*
X170687267Y-107069431D01*
X170687265Y-107069432D01*
X170500858Y-107199954D01*
X170339954Y-107360858D01*
X170209432Y-107547265D01*
X170209431Y-107547267D01*
X170113261Y-107753502D01*
X170113258Y-107753511D01*
X170054366Y-107973302D01*
X170054364Y-107973313D01*
X170034532Y-108199998D01*
X158290641Y-108199998D01*
X158132734Y-108089432D01*
X158132732Y-108089431D01*
X157926497Y-107993261D01*
X157926488Y-107993258D01*
X157706697Y-107934366D01*
X157706693Y-107934365D01*
X157706692Y-107934365D01*
X157706691Y-107934364D01*
X157706686Y-107934364D01*
X157480002Y-107914532D01*
X157479998Y-107914532D01*
X157253313Y-107934364D01*
X157253302Y-107934366D01*
X157033511Y-107993258D01*
X157033502Y-107993261D01*
X156827267Y-108089431D01*
X156827265Y-108089432D01*
X156640858Y-108219954D01*
X156479954Y-108380858D01*
X156349432Y-108567265D01*
X156349431Y-108567267D01*
X156253261Y-108773502D01*
X156253258Y-108773511D01*
X156194366Y-108993302D01*
X156194364Y-108993313D01*
X156174532Y-109219998D01*
X148709233Y-109219998D01*
X148444667Y-108955432D01*
X148411182Y-108894109D01*
X148408877Y-108856315D01*
X148425215Y-108680000D01*
X148422110Y-108646496D01*
X148406397Y-108476917D01*
X148392107Y-108426693D01*
X148350582Y-108280750D01*
X148320309Y-108219954D01*
X148306272Y-108191764D01*
X148259673Y-108098179D01*
X148180443Y-107993261D01*
X148136762Y-107935418D01*
X147986042Y-107798019D01*
X147974723Y-107791011D01*
X147965704Y-107785426D01*
X147919069Y-107733401D01*
X147907964Y-107664419D01*
X147935916Y-107600385D01*
X147965703Y-107574573D01*
X147986041Y-107561981D01*
X148121072Y-107438884D01*
X148136762Y-107424581D01*
X148136764Y-107424579D01*
X148259673Y-107261821D01*
X148350582Y-107079250D01*
X148406397Y-106883083D01*
X148425215Y-106680000D01*
X148406397Y-106476917D01*
X148350582Y-106280750D01*
X148259673Y-106098179D01*
X148185908Y-106000498D01*
X148136762Y-105935418D01*
X147986041Y-105798019D01*
X147986039Y-105798017D01*
X147812642Y-105690655D01*
X147812635Y-105690651D01*
X147717546Y-105653814D01*
X147622456Y-105616976D01*
X147421976Y-105579500D01*
X147218024Y-105579500D01*
X147017544Y-105616976D01*
X147017541Y-105616976D01*
X147017541Y-105616977D01*
X146827364Y-105690651D01*
X146827357Y-105690655D01*
X146653960Y-105798017D01*
X146653958Y-105798019D01*
X146503237Y-105935418D01*
X146380327Y-106098178D01*
X146289422Y-106280739D01*
X146289417Y-106280752D01*
X146233602Y-106476917D01*
X146214785Y-106679999D01*
X145232335Y-106679999D01*
X151160198Y-100752135D01*
X156179500Y-100752135D01*
X156179500Y-102447870D01*
X156179501Y-102447876D01*
X156185908Y-102507483D01*
X156236202Y-102642328D01*
X156236206Y-102642335D01*
X156322452Y-102757544D01*
X156322455Y-102757547D01*
X156437664Y-102843793D01*
X156437671Y-102843797D01*
X156572517Y-102894091D01*
X156572516Y-102894091D01*
X156579444Y-102894835D01*
X156632127Y-102900500D01*
X158327872Y-102900499D01*
X158387483Y-102894091D01*
X158522331Y-102843796D01*
X158637546Y-102757546D01*
X158723796Y-102642331D01*
X158774091Y-102507483D01*
X158780500Y-102447873D01*
X158780499Y-100752128D01*
X158775299Y-100703757D01*
X158774091Y-100692516D01*
X158723797Y-100557671D01*
X158723793Y-100557664D01*
X158637547Y-100442455D01*
X158637544Y-100442452D01*
X158522335Y-100356206D01*
X158522328Y-100356202D01*
X158387482Y-100305908D01*
X158387483Y-100305908D01*
X158327883Y-100299501D01*
X158327881Y-100299500D01*
X158327873Y-100299500D01*
X158327864Y-100299500D01*
X156632129Y-100299500D01*
X156632123Y-100299501D01*
X156572516Y-100305908D01*
X156437671Y-100356202D01*
X156437664Y-100356206D01*
X156322455Y-100442452D01*
X156322452Y-100442455D01*
X156236206Y-100557664D01*
X156236202Y-100557671D01*
X156185908Y-100692517D01*
X156179501Y-100752116D01*
X156179501Y-100752123D01*
X156179500Y-100752135D01*
X151160198Y-100752135D01*
X153540206Y-98372127D01*
X153540211Y-98372124D01*
X153550414Y-98361920D01*
X153550416Y-98361920D01*
X153662220Y-98250116D01*
X153741277Y-98113184D01*
X153782200Y-97960457D01*
X153782200Y-93729999D01*
X166361127Y-93729999D01*
X166361128Y-93730000D01*
X167324314Y-93730000D01*
X167319920Y-93734394D01*
X167267259Y-93825606D01*
X167240000Y-93927339D01*
X167240000Y-94032661D01*
X167267259Y-94134394D01*
X167319920Y-94225606D01*
X167324314Y-94230000D01*
X166361128Y-94230000D01*
X166413730Y-94426317D01*
X166413734Y-94426326D01*
X166509865Y-94632482D01*
X166640342Y-94818820D01*
X166801179Y-94979657D01*
X166987517Y-95110134D01*
X167193673Y-95206265D01*
X167193682Y-95206269D01*
X167389999Y-95258872D01*
X167390000Y-95258871D01*
X167390000Y-94295686D01*
X167394394Y-94300080D01*
X167485606Y-94352741D01*
X167587339Y-94380000D01*
X167692661Y-94380000D01*
X167794394Y-94352741D01*
X167885606Y-94300080D01*
X167890000Y-94295686D01*
X167890000Y-95258872D01*
X168086317Y-95206269D01*
X168086326Y-95206265D01*
X168292482Y-95110134D01*
X168478820Y-94979657D01*
X168639657Y-94818820D01*
X168770134Y-94632482D01*
X168866265Y-94426326D01*
X168866269Y-94426317D01*
X168918872Y-94230000D01*
X167955686Y-94230000D01*
X167960080Y-94225606D01*
X168012741Y-94134394D01*
X168040000Y-94032661D01*
X168040000Y-93927339D01*
X168012741Y-93825606D01*
X167960080Y-93734394D01*
X167955686Y-93730000D01*
X168918872Y-93730000D01*
X168918872Y-93729999D01*
X168866269Y-93533682D01*
X168866265Y-93533673D01*
X168770134Y-93327517D01*
X168639657Y-93141179D01*
X168478820Y-92980342D01*
X168292482Y-92849865D01*
X168086328Y-92753734D01*
X167890000Y-92701127D01*
X167890000Y-93664314D01*
X167885606Y-93659920D01*
X167794394Y-93607259D01*
X167692661Y-93580000D01*
X167587339Y-93580000D01*
X167485606Y-93607259D01*
X167394394Y-93659920D01*
X167390000Y-93664314D01*
X167390000Y-92701127D01*
X167193671Y-92753734D01*
X166987517Y-92849865D01*
X166801179Y-92980342D01*
X166640342Y-93141179D01*
X166509865Y-93327517D01*
X166413734Y-93533673D01*
X166413730Y-93533682D01*
X166361127Y-93729999D01*
X153782200Y-93729999D01*
X153782200Y-84958397D01*
X153801885Y-84891358D01*
X153818519Y-84870716D01*
X154511457Y-84177778D01*
X155260520Y-83428716D01*
X155339577Y-83291784D01*
X155380501Y-83139057D01*
X155380501Y-82980942D01*
X155380501Y-82973347D01*
X155380500Y-82973329D01*
X155380500Y-82639500D01*
X155400185Y-82572461D01*
X155452989Y-82526706D01*
X155504500Y-82515500D01*
X155643203Y-82515500D01*
X155710242Y-82535185D01*
X155730884Y-82551819D01*
X155941480Y-82762415D01*
X155974965Y-82823738D01*
X155977799Y-82850096D01*
X155977799Y-83008154D01*
X155977798Y-83008154D01*
X156018723Y-83160887D01*
X156018724Y-83160888D01*
X156042178Y-83201511D01*
X156042180Y-83201514D01*
X156042181Y-83201515D01*
X156094298Y-83291785D01*
X156097779Y-83297814D01*
X156097781Y-83297817D01*
X156216649Y-83416685D01*
X156216655Y-83416690D01*
X156349339Y-83549374D01*
X156349349Y-83549385D01*
X156353679Y-83553715D01*
X156353680Y-83553716D01*
X156456464Y-83656500D01*
X156468044Y-83669864D01*
X156522454Y-83742546D01*
X156522457Y-83742548D01*
X156637664Y-83828793D01*
X156637671Y-83828797D01*
X156772517Y-83879091D01*
X156772516Y-83879091D01*
X156779444Y-83879835D01*
X156832127Y-83885500D01*
X158127872Y-83885499D01*
X158187483Y-83879091D01*
X158322331Y-83828796D01*
X158437546Y-83742546D01*
X158523796Y-83627331D01*
X158574091Y-83492483D01*
X158580500Y-83432873D01*
X158580499Y-82937128D01*
X158574439Y-82880754D01*
X158574439Y-82854244D01*
X158575155Y-82847583D01*
X158580500Y-82797873D01*
X158580499Y-82639499D01*
X158600183Y-82572461D01*
X158652987Y-82526706D01*
X158704499Y-82515500D01*
X160991303Y-82515500D01*
X161058342Y-82535185D01*
X161078984Y-82551819D01*
X173671381Y-95144216D01*
X173704866Y-95205539D01*
X173707700Y-95231897D01*
X173707700Y-100330002D01*
X173688015Y-100397041D01*
X173671381Y-100417683D01*
X170859481Y-103229582D01*
X170859480Y-103229584D01*
X170809360Y-103316395D01*
X170809358Y-103316399D01*
X170797172Y-103337504D01*
X170746603Y-103385718D01*
X170689788Y-103399500D01*
X170492130Y-103399500D01*
X170492123Y-103399501D01*
X170432516Y-103405908D01*
X170297671Y-103456202D01*
X170297664Y-103456206D01*
X170182455Y-103542452D01*
X170182452Y-103542455D01*
X170096206Y-103657664D01*
X170096202Y-103657671D01*
X170045908Y-103792517D01*
X170039501Y-103852116D01*
X170039501Y-103852123D01*
X170039500Y-103852135D01*
X170039500Y-105547870D01*
X170039501Y-105547876D01*
X170045908Y-105607483D01*
X170096202Y-105742328D01*
X170096206Y-105742335D01*
X170182452Y-105857544D01*
X170182455Y-105857547D01*
X170297664Y-105943793D01*
X170297671Y-105943797D01*
X170432517Y-105994091D01*
X170432516Y-105994091D01*
X170439444Y-105994835D01*
X170492127Y-106000500D01*
X172187872Y-106000499D01*
X172247483Y-105994091D01*
X172382331Y-105943796D01*
X172497546Y-105857546D01*
X172583796Y-105742331D01*
X172634091Y-105607483D01*
X172640500Y-105547873D01*
X172640499Y-103852128D01*
X172634091Y-103792517D01*
X172583796Y-103657669D01*
X172583795Y-103657668D01*
X172583793Y-103657664D01*
X172497547Y-103542455D01*
X172497546Y-103542454D01*
X172497543Y-103542452D01*
X172467722Y-103520127D01*
X172425851Y-103464196D01*
X172420867Y-103394504D01*
X172454348Y-103333185D01*
X174788720Y-100998816D01*
X174867777Y-100861884D01*
X174908701Y-100709157D01*
X174908701Y-100551042D01*
X174908701Y-100543447D01*
X174908700Y-100543429D01*
X174908700Y-95390055D01*
X174928385Y-95323016D01*
X174981189Y-95277261D01*
X175043506Y-95266527D01*
X175219934Y-95281962D01*
X175259999Y-95285468D01*
X175260000Y-95285468D01*
X175260002Y-95285468D01*
X175316673Y-95280509D01*
X175486692Y-95265635D01*
X175706496Y-95206739D01*
X175912734Y-95110568D01*
X176099139Y-94980047D01*
X176260047Y-94819139D01*
X176390568Y-94632734D01*
X176486739Y-94426496D01*
X176545635Y-94206692D01*
X176565468Y-93980000D01*
X176545635Y-93753308D01*
X176486739Y-93533504D01*
X176390568Y-93327266D01*
X176260047Y-93140861D01*
X176260045Y-93140858D01*
X176099141Y-92979954D01*
X175912734Y-92849432D01*
X175912732Y-92849431D01*
X175706497Y-92753261D01*
X175706488Y-92753258D01*
X175486697Y-92694366D01*
X175486693Y-92694365D01*
X175486692Y-92694365D01*
X175486691Y-92694364D01*
X175486686Y-92694364D01*
X175260002Y-92674532D01*
X175259998Y-92674532D01*
X175033313Y-92694364D01*
X175033302Y-92694366D01*
X174813511Y-92753258D01*
X174813502Y-92753261D01*
X174607267Y-92849431D01*
X174607265Y-92849432D01*
X174420858Y-92979954D01*
X174259954Y-93140858D01*
X174129432Y-93327265D01*
X174129431Y-93327267D01*
X174033261Y-93533502D01*
X174033256Y-93533516D01*
X174030917Y-93542247D01*
X173994549Y-93601906D01*
X173931700Y-93632431D01*
X173862325Y-93624133D01*
X173823463Y-93597828D01*
X162317816Y-82092181D01*
X162284331Y-82030858D01*
X162289315Y-81961166D01*
X162331187Y-81905233D01*
X162396651Y-81880816D01*
X162405497Y-81880500D01*
X167339903Y-81880500D01*
X167406942Y-81900185D01*
X167427584Y-81916819D01*
X179048058Y-93537293D01*
X179081543Y-93598616D01*
X179080152Y-93657067D01*
X179054366Y-93753302D01*
X179054364Y-93753313D01*
X179034532Y-93979998D01*
X179034532Y-93980001D01*
X179054364Y-94206686D01*
X179054366Y-94206697D01*
X179113258Y-94426488D01*
X179113261Y-94426497D01*
X179209431Y-94632732D01*
X179209432Y-94632734D01*
X179339954Y-94819141D01*
X179500858Y-94980045D01*
X179500861Y-94980047D01*
X179686624Y-95110118D01*
X179730248Y-95164693D01*
X179739500Y-95211692D01*
X179739500Y-99811630D01*
X179739499Y-99811648D01*
X179739499Y-99977354D01*
X179739498Y-99977354D01*
X179780423Y-100130087D01*
X179780425Y-100130090D01*
X179808097Y-100178018D01*
X179808099Y-100178020D01*
X179859479Y-100267014D01*
X179859481Y-100267017D01*
X179978349Y-100385885D01*
X179978355Y-100385890D01*
X182925646Y-103333181D01*
X182959131Y-103394504D01*
X182954147Y-103464196D01*
X182912278Y-103520127D01*
X182882453Y-103542454D01*
X182882452Y-103542455D01*
X182796206Y-103657664D01*
X182796202Y-103657671D01*
X182745908Y-103792517D01*
X182739501Y-103852116D01*
X182739501Y-103852123D01*
X182739500Y-103852135D01*
X182739500Y-105547870D01*
X182739501Y-105547876D01*
X182745908Y-105607483D01*
X182796202Y-105742328D01*
X182796206Y-105742335D01*
X182882452Y-105857544D01*
X182882455Y-105857547D01*
X182997664Y-105943793D01*
X182997671Y-105943797D01*
X183132517Y-105994091D01*
X183132516Y-105994091D01*
X183139444Y-105994835D01*
X183192127Y-106000500D01*
X184887872Y-106000499D01*
X184947483Y-105994091D01*
X185082331Y-105943796D01*
X185197546Y-105857546D01*
X185283796Y-105742331D01*
X185334091Y-105607483D01*
X185340500Y-105547873D01*
X185340499Y-103852128D01*
X185334091Y-103792517D01*
X185283796Y-103657669D01*
X185283795Y-103657668D01*
X185283793Y-103657664D01*
X185197547Y-103542455D01*
X185197544Y-103542452D01*
X185082335Y-103456206D01*
X185082328Y-103456202D01*
X184947482Y-103405908D01*
X184947483Y-103405908D01*
X184887883Y-103399501D01*
X184887881Y-103399500D01*
X184887873Y-103399500D01*
X184887865Y-103399500D01*
X184690212Y-103399500D01*
X184623173Y-103379815D01*
X184582827Y-103337503D01*
X184570640Y-103316396D01*
X184570637Y-103316392D01*
X184520520Y-103229584D01*
X184408716Y-103117780D01*
X184408715Y-103117779D01*
X184404385Y-103113449D01*
X184404374Y-103113439D01*
X180976819Y-99685884D01*
X180943334Y-99624561D01*
X180940500Y-99598203D01*
X180940500Y-95211692D01*
X180960185Y-95144653D01*
X180993374Y-95110119D01*
X181179139Y-94980047D01*
X181340047Y-94819139D01*
X181470568Y-94632734D01*
X181566739Y-94426496D01*
X181625635Y-94206692D01*
X181645468Y-93980000D01*
X181625635Y-93753308D01*
X181619389Y-93729999D01*
X186681127Y-93729999D01*
X186681128Y-93730000D01*
X187644314Y-93730000D01*
X187639920Y-93734394D01*
X187587259Y-93825606D01*
X187560000Y-93927339D01*
X187560000Y-94032661D01*
X187587259Y-94134394D01*
X187639920Y-94225606D01*
X187644314Y-94230000D01*
X186681128Y-94230000D01*
X186733730Y-94426317D01*
X186733734Y-94426326D01*
X186829865Y-94632482D01*
X186960342Y-94818820D01*
X187121179Y-94979657D01*
X187307517Y-95110134D01*
X187513673Y-95206265D01*
X187513682Y-95206269D01*
X187709999Y-95258872D01*
X187710000Y-95258871D01*
X187710000Y-94295686D01*
X187714394Y-94300080D01*
X187805606Y-94352741D01*
X187907339Y-94380000D01*
X188012661Y-94380000D01*
X188114394Y-94352741D01*
X188205606Y-94300080D01*
X188210000Y-94295686D01*
X188210000Y-95258872D01*
X188406317Y-95206269D01*
X188406326Y-95206265D01*
X188612482Y-95110134D01*
X188798820Y-94979657D01*
X188959657Y-94818820D01*
X189090134Y-94632482D01*
X189186265Y-94426326D01*
X189186269Y-94426317D01*
X189238872Y-94230000D01*
X188275686Y-94230000D01*
X188280080Y-94225606D01*
X188332741Y-94134394D01*
X188360000Y-94032661D01*
X188360000Y-93927339D01*
X188332741Y-93825606D01*
X188280080Y-93734394D01*
X188275686Y-93730000D01*
X189238872Y-93730000D01*
X189238872Y-93729999D01*
X189186269Y-93533682D01*
X189186265Y-93533673D01*
X189090134Y-93327517D01*
X188959657Y-93141179D01*
X188798820Y-92980342D01*
X188612482Y-92849865D01*
X188406328Y-92753734D01*
X188210000Y-92701127D01*
X188210000Y-93664314D01*
X188205606Y-93659920D01*
X188114394Y-93607259D01*
X188012661Y-93580000D01*
X187907339Y-93580000D01*
X187805606Y-93607259D01*
X187714394Y-93659920D01*
X187710000Y-93664314D01*
X187710000Y-92701127D01*
X187513671Y-92753734D01*
X187307517Y-92849865D01*
X187121179Y-92980342D01*
X186960342Y-93141179D01*
X186829865Y-93327517D01*
X186733734Y-93533673D01*
X186733730Y-93533682D01*
X186681127Y-93729999D01*
X181619389Y-93729999D01*
X181566739Y-93533504D01*
X181470568Y-93327266D01*
X181340047Y-93140861D01*
X181340045Y-93140858D01*
X181179141Y-92979954D01*
X180992734Y-92849432D01*
X180992732Y-92849431D01*
X180786497Y-92753261D01*
X180786488Y-92753258D01*
X180566697Y-92694366D01*
X180566693Y-92694365D01*
X180566692Y-92694365D01*
X180566691Y-92694364D01*
X180566686Y-92694364D01*
X180340002Y-92674532D01*
X180339998Y-92674532D01*
X180113313Y-92694364D01*
X180113302Y-92694366D01*
X180017067Y-92720152D01*
X179947217Y-92718489D01*
X179897293Y-92688058D01*
X168127590Y-80918355D01*
X168127588Y-80918352D01*
X168031417Y-80822181D01*
X167997932Y-80760858D01*
X168002916Y-80691166D01*
X168044788Y-80635233D01*
X168110252Y-80610816D01*
X168119098Y-80610500D01*
X171859880Y-80610500D01*
X171926919Y-80630185D01*
X171955733Y-80655835D01*
X172009116Y-80720883D01*
X172161460Y-80845909D01*
X172161467Y-80845913D01*
X172335266Y-80938811D01*
X172335269Y-80938811D01*
X172335273Y-80938814D01*
X172523868Y-80996024D01*
X172720000Y-81015341D01*
X172916132Y-80996024D01*
X173104727Y-80938814D01*
X173177874Y-80899715D01*
X173246276Y-80885474D01*
X173311520Y-80910474D01*
X173352891Y-80966778D01*
X173357253Y-81036512D01*
X173324008Y-81096755D01*
X172903579Y-81517184D01*
X172842256Y-81550669D01*
X172803746Y-81552906D01*
X172720001Y-81544659D01*
X172720000Y-81544659D01*
X172523870Y-81563975D01*
X172335266Y-81621188D01*
X172161467Y-81714086D01*
X172161460Y-81714090D01*
X172009116Y-81839116D01*
X171884090Y-81991460D01*
X171884086Y-81991467D01*
X171791188Y-82165266D01*
X171733975Y-82353870D01*
X171714659Y-82550000D01*
X171733975Y-82746129D01*
X171733976Y-82746132D01*
X171773831Y-82877517D01*
X171791188Y-82934733D01*
X171884086Y-83108532D01*
X171884090Y-83108539D01*
X172009116Y-83260883D01*
X172161460Y-83385909D01*
X172161467Y-83385913D01*
X172335266Y-83478811D01*
X172335269Y-83478811D01*
X172335273Y-83478814D01*
X172523868Y-83536024D01*
X172720000Y-83555341D01*
X172916132Y-83536024D01*
X173104727Y-83478814D01*
X173278538Y-83385910D01*
X173430883Y-83260883D01*
X173555910Y-83108538D01*
X173628181Y-82973329D01*
X173648811Y-82934733D01*
X173648811Y-82934732D01*
X173648814Y-82934727D01*
X173706024Y-82746132D01*
X173725341Y-82550000D01*
X173717092Y-82466252D01*
X173730110Y-82397609D01*
X173752811Y-82366422D01*
X181360520Y-74758716D01*
X181439577Y-74621784D01*
X181480501Y-74469057D01*
X181480501Y-74310942D01*
X181480501Y-74303347D01*
X181480500Y-74303329D01*
X181480500Y-73381629D01*
X181497351Y-73324240D01*
X182299311Y-73324240D01*
X182387585Y-73378897D01*
X182577678Y-73452539D01*
X182778072Y-73490000D01*
X182981928Y-73490000D01*
X183182322Y-73452539D01*
X183372412Y-73378899D01*
X183372416Y-73378897D01*
X183460686Y-73324241D01*
X183460686Y-73324240D01*
X182880001Y-72743553D01*
X182880000Y-72743553D01*
X182299311Y-73324240D01*
X181497351Y-73324240D01*
X181500185Y-73314590D01*
X181539226Y-73276200D01*
X181546041Y-73271981D01*
X181696764Y-73134579D01*
X181783794Y-73019333D01*
X181839903Y-72977696D01*
X181891338Y-72970357D01*
X181942533Y-72973911D01*
X182526446Y-72390000D01*
X182486950Y-72350504D01*
X182580000Y-72350504D01*
X182580000Y-72429496D01*
X182600444Y-72505796D01*
X182639940Y-72574205D01*
X182695795Y-72630060D01*
X182764204Y-72669556D01*
X182840504Y-72690000D01*
X182919496Y-72690000D01*
X182995796Y-72669556D01*
X183064205Y-72630060D01*
X183120060Y-72574205D01*
X183159556Y-72505796D01*
X183180000Y-72429496D01*
X183180000Y-72390000D01*
X183233553Y-72390000D01*
X183817465Y-72973912D01*
X183819247Y-72971553D01*
X183819248Y-72971551D01*
X183910113Y-72789069D01*
X183910116Y-72789063D01*
X183965902Y-72592992D01*
X183965903Y-72592989D01*
X183984713Y-72390000D01*
X183984713Y-72389999D01*
X183965903Y-72187010D01*
X183965902Y-72187007D01*
X183910116Y-71990936D01*
X183910113Y-71990930D01*
X183819249Y-71808449D01*
X183819247Y-71808447D01*
X183817465Y-71806087D01*
X183233553Y-72390000D01*
X183180000Y-72390000D01*
X183180000Y-72350504D01*
X183159556Y-72274204D01*
X183120060Y-72205795D01*
X183064205Y-72149940D01*
X182995796Y-72110444D01*
X182919496Y-72090000D01*
X182840504Y-72090000D01*
X182764204Y-72110444D01*
X182695795Y-72149940D01*
X182639940Y-72205795D01*
X182600444Y-72274204D01*
X182580000Y-72350504D01*
X182486950Y-72350504D01*
X181942532Y-71806086D01*
X181891352Y-71809645D01*
X181823108Y-71794658D01*
X181783797Y-71760671D01*
X181696762Y-71645418D01*
X181546041Y-71508019D01*
X181546039Y-71508017D01*
X181461637Y-71455758D01*
X182299311Y-71455758D01*
X182880000Y-72036446D01*
X182880001Y-72036446D01*
X183460687Y-71455758D01*
X183372413Y-71401101D01*
X183372411Y-71401100D01*
X183182321Y-71327460D01*
X182981928Y-71290000D01*
X182778072Y-71290000D01*
X182577678Y-71327460D01*
X182387588Y-71401100D01*
X182387581Y-71401104D01*
X182299312Y-71455757D01*
X182299311Y-71455758D01*
X181461637Y-71455758D01*
X181372642Y-71400655D01*
X181372635Y-71400651D01*
X181183705Y-71327460D01*
X181182456Y-71326976D01*
X180981976Y-71289500D01*
X180778024Y-71289500D01*
X180778020Y-71289500D01*
X180716491Y-71301001D01*
X180646976Y-71293969D01*
X180606028Y-71266793D01*
X180465790Y-71126555D01*
X180465788Y-71126552D01*
X180346917Y-71007681D01*
X180346916Y-71007680D01*
X180260104Y-70957560D01*
X180260104Y-70957559D01*
X180260100Y-70957558D01*
X180209985Y-70928623D01*
X180057257Y-70887699D01*
X179899143Y-70887699D01*
X179891547Y-70887699D01*
X179891531Y-70887700D01*
X170784670Y-70887700D01*
X170784654Y-70887699D01*
X170777058Y-70887699D01*
X170618943Y-70887699D01*
X170542579Y-70908161D01*
X170466214Y-70928623D01*
X170466209Y-70928626D01*
X170329290Y-71007675D01*
X170329282Y-71007681D01*
X162598784Y-78738181D01*
X162537461Y-78771666D01*
X162511103Y-78774500D01*
X159106200Y-78774500D01*
X159039161Y-78754815D01*
X158993406Y-78702011D01*
X158982200Y-78650500D01*
X158982200Y-71142800D01*
X159001885Y-71075761D01*
X159054689Y-71030006D01*
X159106200Y-71018800D01*
X159196731Y-71018800D01*
X159196747Y-71018801D01*
X159204343Y-71018801D01*
X159362454Y-71018801D01*
X159362457Y-71018801D01*
X159515185Y-70977877D01*
X159600495Y-70928623D01*
X159652116Y-70898820D01*
X159763920Y-70787016D01*
X159763920Y-70787014D01*
X159774124Y-70776811D01*
X159774128Y-70776806D01*
X173078506Y-57472428D01*
X173078511Y-57472424D01*
X173088714Y-57462220D01*
X173088716Y-57462220D01*
X173200520Y-57350416D01*
X173251304Y-57262454D01*
X173279577Y-57213485D01*
X173313557Y-57086669D01*
X173349921Y-57027011D01*
X173371339Y-57011373D01*
X173372720Y-57010574D01*
X173372734Y-57010568D01*
X173559139Y-56880047D01*
X173720047Y-56719139D01*
X173850568Y-56532734D01*
X173946739Y-56326496D01*
X174005635Y-56106692D01*
X174025468Y-55880000D01*
X174005635Y-55653308D01*
X173946739Y-55433504D01*
X173850568Y-55227266D01*
X173720047Y-55040861D01*
X173720045Y-55040858D01*
X173559140Y-54879953D01*
X173373377Y-54749881D01*
X173329752Y-54695304D01*
X173320500Y-54648306D01*
X173320500Y-54064500D01*
X173340185Y-53997461D01*
X173392989Y-53951706D01*
X173444500Y-53940500D01*
X186670909Y-53940500D01*
X186737948Y-53960185D01*
X186783292Y-54012097D01*
X186785965Y-54017830D01*
X186785966Y-54017831D01*
X186921501Y-54211395D01*
X186921506Y-54211402D01*
X187088597Y-54378493D01*
X187088603Y-54378498D01*
X187274594Y-54508730D01*
X187318219Y-54563307D01*
X187325413Y-54632805D01*
X187293890Y-54695160D01*
X187274595Y-54711880D01*
X187088922Y-54841890D01*
X187088920Y-54841891D01*
X186921891Y-55008920D01*
X186921886Y-55008926D01*
X186786400Y-55202420D01*
X186786399Y-55202422D01*
X186686570Y-55416507D01*
X186686567Y-55416513D01*
X186629364Y-55629999D01*
X186629364Y-55630000D01*
X187526988Y-55630000D01*
X187494075Y-55687007D01*
X187460000Y-55814174D01*
X187460000Y-55945826D01*
X187494075Y-56072993D01*
X187526988Y-56130000D01*
X186629364Y-56130000D01*
X186686567Y-56343486D01*
X186686570Y-56343492D01*
X186786399Y-56557578D01*
X186921894Y-56751082D01*
X187088917Y-56918105D01*
X187282421Y-57053600D01*
X187496507Y-57153429D01*
X187496516Y-57153433D01*
X187710000Y-57210634D01*
X187710000Y-56313012D01*
X187767007Y-56345925D01*
X187894174Y-56380000D01*
X188025826Y-56380000D01*
X188152993Y-56345925D01*
X188210000Y-56313012D01*
X188210000Y-57210633D01*
X188423483Y-57153433D01*
X188423492Y-57153429D01*
X188637578Y-57053600D01*
X188831082Y-56918105D01*
X188998105Y-56751082D01*
X189133600Y-56557578D01*
X189233429Y-56343492D01*
X189233432Y-56343486D01*
X189290636Y-56130000D01*
X188393012Y-56130000D01*
X188425925Y-56072993D01*
X188460000Y-55945826D01*
X188460000Y-55814174D01*
X188425925Y-55687007D01*
X188393012Y-55630000D01*
X189290636Y-55630000D01*
X189290635Y-55629999D01*
X189233432Y-55416513D01*
X189233429Y-55416507D01*
X189133600Y-55202422D01*
X189133599Y-55202420D01*
X188998113Y-55008926D01*
X188998108Y-55008920D01*
X188831078Y-54841890D01*
X188645405Y-54711879D01*
X188601780Y-54657302D01*
X188594588Y-54587804D01*
X188626110Y-54525449D01*
X188645406Y-54508730D01*
X188831401Y-54378495D01*
X188998495Y-54211401D01*
X189134035Y-54017830D01*
X189233903Y-53803663D01*
X189295063Y-53575408D01*
X189315659Y-53340000D01*
X189295063Y-53104592D01*
X189233903Y-52876337D01*
X189134035Y-52662171D01*
X189134034Y-52662169D01*
X188998494Y-52468597D01*
X188831402Y-52301506D01*
X188831396Y-52301501D01*
X188645842Y-52171575D01*
X188602217Y-52116998D01*
X188595023Y-52047500D01*
X188626546Y-51985145D01*
X188645842Y-51968425D01*
X188668026Y-51952891D01*
X188831401Y-51838495D01*
X188998495Y-51671401D01*
X189134035Y-51477830D01*
X189233903Y-51263663D01*
X189295063Y-51035408D01*
X189315659Y-50800000D01*
X189295063Y-50564592D01*
X189233903Y-50336337D01*
X189134035Y-50122171D01*
X188998495Y-49928599D01*
X188876567Y-49806671D01*
X188843084Y-49745351D01*
X188848068Y-49675659D01*
X188889939Y-49619725D01*
X188920915Y-49602810D01*
X189052331Y-49553796D01*
X189167546Y-49467546D01*
X189253796Y-49352331D01*
X189304091Y-49217483D01*
X189310500Y-49157873D01*
X189310499Y-47362128D01*
X189304091Y-47302517D01*
X189253796Y-47167669D01*
X189253795Y-47167668D01*
X189253793Y-47167664D01*
X189167547Y-47052455D01*
X189167544Y-47052452D01*
X189052335Y-46966206D01*
X189052328Y-46966202D01*
X188917482Y-46915908D01*
X188917483Y-46915908D01*
X188857883Y-46909501D01*
X188857881Y-46909500D01*
X188857873Y-46909500D01*
X188857864Y-46909500D01*
X187062129Y-46909500D01*
X187062123Y-46909501D01*
X187002516Y-46915908D01*
X186867671Y-46966202D01*
X186867664Y-46966206D01*
X186752455Y-47052452D01*
X186752452Y-47052455D01*
X186666206Y-47167664D01*
X186666202Y-47167671D01*
X186615908Y-47302517D01*
X186609501Y-47362116D01*
X186609501Y-47362123D01*
X186609500Y-47362135D01*
X186609500Y-49157870D01*
X186609501Y-49157876D01*
X186615908Y-49217483D01*
X186666202Y-49352328D01*
X186666206Y-49352335D01*
X186752452Y-49467544D01*
X186752455Y-49467547D01*
X186867664Y-49553793D01*
X186867671Y-49553797D01*
X186999081Y-49602810D01*
X187055015Y-49644681D01*
X187079432Y-49710145D01*
X187064580Y-49778418D01*
X187043430Y-49806673D01*
X186921503Y-49928600D01*
X186785965Y-50122169D01*
X186785964Y-50122171D01*
X186686098Y-50336335D01*
X186686094Y-50336344D01*
X186624938Y-50564586D01*
X186624936Y-50564596D01*
X186604341Y-50799999D01*
X186604341Y-50800000D01*
X186624936Y-51035403D01*
X186624938Y-51035413D01*
X186686094Y-51263655D01*
X186686096Y-51263659D01*
X186686097Y-51263663D01*
X186785965Y-51477830D01*
X186785967Y-51477834D01*
X186921501Y-51671395D01*
X186921506Y-51671402D01*
X187088597Y-51838493D01*
X187088603Y-51838498D01*
X187274158Y-51968425D01*
X187317783Y-52023002D01*
X187324977Y-52092500D01*
X187293454Y-52154855D01*
X187274158Y-52171575D01*
X187088597Y-52301505D01*
X186921506Y-52468596D01*
X186785965Y-52662170D01*
X186785962Y-52662175D01*
X186783289Y-52667909D01*
X186737115Y-52720346D01*
X186670909Y-52739500D01*
X173444500Y-52739500D01*
X173377461Y-52719815D01*
X173331706Y-52667011D01*
X173320500Y-52615500D01*
X173320500Y-49491692D01*
X173340185Y-49424653D01*
X173373374Y-49390119D01*
X173559139Y-49260047D01*
X173720047Y-49099139D01*
X173850568Y-48912734D01*
X173946739Y-48706496D01*
X174005635Y-48486692D01*
X174025468Y-48260000D01*
X174005635Y-48033308D01*
X173946739Y-47813504D01*
X173850568Y-47607266D01*
X173720047Y-47420861D01*
X173720045Y-47420858D01*
X173559141Y-47259954D01*
X173372734Y-47129432D01*
X173372732Y-47129431D01*
X173166497Y-47033261D01*
X173166488Y-47033258D01*
X172946697Y-46974366D01*
X172946693Y-46974365D01*
X172946692Y-46974365D01*
X172946691Y-46974364D01*
X172946686Y-46974364D01*
X172720002Y-46954532D01*
X172719998Y-46954532D01*
X172493313Y-46974364D01*
X172493302Y-46974366D01*
X172273511Y-47033258D01*
X172273502Y-47033261D01*
X172067267Y-47129431D01*
X172067265Y-47129432D01*
X171880858Y-47259954D01*
X171719954Y-47420858D01*
X171589432Y-47607265D01*
X171589431Y-47607267D01*
X171493261Y-47813502D01*
X171493258Y-47813511D01*
X171434366Y-48033302D01*
X171434364Y-48033313D01*
X171414532Y-48259998D01*
X171414532Y-48260001D01*
X171434364Y-48486686D01*
X171434366Y-48486697D01*
X171493258Y-48706488D01*
X171493261Y-48706497D01*
X171589431Y-48912732D01*
X171589432Y-48912734D01*
X171719954Y-49099141D01*
X171880858Y-49260045D01*
X171880861Y-49260047D01*
X172066624Y-49390118D01*
X172110248Y-49444693D01*
X172119500Y-49491692D01*
X172119500Y-54648306D01*
X172099815Y-54715345D01*
X172066623Y-54749881D01*
X171880859Y-54879953D01*
X171719954Y-55040858D01*
X171589432Y-55227265D01*
X171589431Y-55227267D01*
X171493261Y-55433502D01*
X171493258Y-55433511D01*
X171434366Y-55653302D01*
X171434364Y-55653313D01*
X171414532Y-55879998D01*
X171414532Y-55880001D01*
X171434364Y-56106686D01*
X171434366Y-56106697D01*
X171493258Y-56326488D01*
X171493261Y-56326497D01*
X171589431Y-56532732D01*
X171589432Y-56532734D01*
X171719954Y-56719141D01*
X171838957Y-56838144D01*
X171872442Y-56899467D01*
X171867458Y-56969159D01*
X171838957Y-57013506D01*
X159070984Y-69781481D01*
X159009661Y-69814966D01*
X158983303Y-69817800D01*
X158681798Y-69817800D01*
X158614759Y-69798115D01*
X158594117Y-69781481D01*
X153950990Y-65138355D01*
X153950988Y-65138352D01*
X153832117Y-65019481D01*
X153832116Y-65019480D01*
X153745304Y-64969360D01*
X153745304Y-64969359D01*
X153745300Y-64969358D01*
X153695185Y-64940423D01*
X153542457Y-64899499D01*
X153384343Y-64899499D01*
X153376747Y-64899499D01*
X153376731Y-64899500D01*
X143227312Y-64899500D01*
X143160273Y-64879815D01*
X143128358Y-64850227D01*
X143056762Y-64755418D01*
X142906042Y-64618020D01*
X142906041Y-64618019D01*
X142873488Y-64597863D01*
X142826853Y-64545835D01*
X142815592Y-64478145D01*
X142820685Y-64434239D01*
X142240001Y-63853553D01*
X142240000Y-63853553D01*
X141659311Y-64434240D01*
X141664405Y-64478148D01*
X141652577Y-64547009D01*
X141606511Y-64597863D01*
X141573956Y-64618020D01*
X141423237Y-64755418D01*
X141300327Y-64918178D01*
X141209422Y-65100739D01*
X141209417Y-65100752D01*
X141153602Y-65296917D01*
X141134785Y-65499999D01*
X141134785Y-65500000D01*
X141153602Y-65703082D01*
X141209417Y-65899247D01*
X141209422Y-65899260D01*
X141300327Y-66081821D01*
X141423237Y-66244581D01*
X141573958Y-66381980D01*
X141573960Y-66381982D01*
X141673141Y-66443392D01*
X141747363Y-66489348D01*
X141937544Y-66563024D01*
X142138024Y-66600500D01*
X142138026Y-66600500D01*
X142341974Y-66600500D01*
X142341976Y-66600500D01*
X142542456Y-66563024D01*
X142732637Y-66489348D01*
X142906041Y-66381981D01*
X143056764Y-66244579D01*
X143128358Y-66149773D01*
X143184467Y-66108137D01*
X143227312Y-66100500D01*
X153163303Y-66100500D01*
X153230342Y-66120185D01*
X153250984Y-66136819D01*
X157744881Y-70630716D01*
X157778366Y-70692039D01*
X157781200Y-70718397D01*
X157781200Y-77915500D01*
X157761515Y-77982539D01*
X157708711Y-78028294D01*
X157657200Y-78039500D01*
X156832129Y-78039500D01*
X156832123Y-78039501D01*
X156772516Y-78045908D01*
X156637671Y-78096202D01*
X156637664Y-78096206D01*
X156612872Y-78114766D01*
X156547408Y-78139183D01*
X156538562Y-78139499D01*
X156430943Y-78139499D01*
X156323587Y-78168265D01*
X156278210Y-78180424D01*
X156278209Y-78180425D01*
X156228096Y-78209359D01*
X156228095Y-78209360D01*
X156184689Y-78234420D01*
X156141285Y-78259479D01*
X156141282Y-78259481D01*
X155299479Y-79101284D01*
X155284570Y-79127109D01*
X155275271Y-79143216D01*
X155220423Y-79238215D01*
X155179499Y-79390943D01*
X155179499Y-79390945D01*
X155179499Y-79559046D01*
X155179500Y-79559059D01*
X155179500Y-80395030D01*
X155179499Y-80395048D01*
X155179499Y-80560754D01*
X155179498Y-80560754D01*
X155220423Y-80713486D01*
X155220424Y-80713487D01*
X155247567Y-80760500D01*
X155299480Y-80850416D01*
X155299482Y-80850418D01*
X155418349Y-80969285D01*
X155418355Y-80969290D01*
X155551884Y-81102819D01*
X155585369Y-81164142D01*
X155580385Y-81233834D01*
X155538513Y-81289767D01*
X155473049Y-81314184D01*
X155464203Y-81314500D01*
X154836669Y-81314500D01*
X154836653Y-81314499D01*
X154829057Y-81314499D01*
X154670943Y-81314499D01*
X154663347Y-81314499D01*
X154663331Y-81314500D01*
X153444862Y-81314500D01*
X153377823Y-81294815D01*
X153332068Y-81242011D01*
X153322124Y-81172853D01*
X153351149Y-81109297D01*
X153357181Y-81102819D01*
X153380000Y-81080000D01*
X153380000Y-81032172D01*
X153379999Y-81032155D01*
X153373935Y-80975756D01*
X153373935Y-80949244D01*
X153379999Y-80892844D01*
X153380000Y-80892827D01*
X153380000Y-80845000D01*
X153239472Y-80845000D01*
X153172433Y-80825315D01*
X153126678Y-80772511D01*
X153116734Y-80703353D01*
X153145759Y-80639797D01*
X153165158Y-80621735D01*
X153237546Y-80567546D01*
X153292087Y-80494687D01*
X153348020Y-80452818D01*
X153377500Y-80447499D01*
X153380000Y-80445000D01*
X153380000Y-80397172D01*
X153379999Y-80397157D01*
X153374187Y-80343103D01*
X153374187Y-80316591D01*
X153374724Y-80311588D01*
X153380500Y-80257873D01*
X153380499Y-79762128D01*
X153374439Y-79705754D01*
X153374439Y-79679244D01*
X153380242Y-79625273D01*
X153380500Y-79622873D01*
X153380499Y-79127128D01*
X153374439Y-79070754D01*
X153374439Y-79044244D01*
X153380499Y-78987880D01*
X153380500Y-78987873D01*
X153380499Y-78492128D01*
X153374091Y-78432517D01*
X153351253Y-78371286D01*
X153323797Y-78297671D01*
X153323793Y-78297664D01*
X153237547Y-78182455D01*
X153237544Y-78182452D01*
X153122335Y-78096206D01*
X153122328Y-78096202D01*
X152987482Y-78045908D01*
X152987483Y-78045908D01*
X152927883Y-78039501D01*
X152927881Y-78039500D01*
X152927873Y-78039500D01*
X152927864Y-78039500D01*
X151632129Y-78039500D01*
X151632123Y-78039501D01*
X151572516Y-78045908D01*
X151437671Y-78096202D01*
X151437668Y-78096204D01*
X151412872Y-78114767D01*
X151347408Y-78139184D01*
X151338561Y-78139500D01*
X149224870Y-78139500D01*
X149224854Y-78139499D01*
X149217258Y-78139499D01*
X149059143Y-78139499D01*
X148982779Y-78159961D01*
X148906414Y-78180423D01*
X148906409Y-78180426D01*
X148769490Y-78259475D01*
X148769482Y-78259481D01*
X128254571Y-98774392D01*
X128193248Y-98807877D01*
X128123556Y-98802893D01*
X128067623Y-98761021D01*
X128047624Y-98720646D01*
X128030582Y-98660750D01*
X127939673Y-98478179D01*
X127816764Y-98315421D01*
X127816762Y-98315418D01*
X127666041Y-98178019D01*
X127666039Y-98178017D01*
X127492642Y-98070655D01*
X127492635Y-98070651D01*
X127397546Y-98033814D01*
X127302456Y-97996976D01*
X127101976Y-97959500D01*
X126898024Y-97959500D01*
X126697544Y-97996976D01*
X126697541Y-97996976D01*
X126697541Y-97996977D01*
X126507364Y-98070651D01*
X126507357Y-98070655D01*
X126333960Y-98178017D01*
X126333958Y-98178019D01*
X126183237Y-98315418D01*
X126060327Y-98478178D01*
X125969422Y-98660739D01*
X125969417Y-98660752D01*
X125913602Y-98856917D01*
X125894785Y-99059999D01*
X125894785Y-99060000D01*
X125913602Y-99263082D01*
X125969417Y-99459247D01*
X125969422Y-99459260D01*
X126060327Y-99641821D01*
X126183237Y-99804581D01*
X126312898Y-99922782D01*
X126333959Y-99941981D01*
X126354296Y-99954573D01*
X126400931Y-100006601D01*
X126412035Y-100075583D01*
X126384082Y-100139617D01*
X126354296Y-100165427D01*
X126333957Y-100178020D01*
X126260114Y-100245337D01*
X126197310Y-100275954D01*
X126176576Y-100277700D01*
X120109998Y-100277700D01*
X120042959Y-100258015D01*
X120022317Y-100241381D01*
X115939290Y-96158355D01*
X115939288Y-96158352D01*
X115820417Y-96039481D01*
X115820416Y-96039480D01*
X115733604Y-95989360D01*
X115733604Y-95989359D01*
X115733600Y-95989358D01*
X115716112Y-95979260D01*
X115683486Y-95960423D01*
X115562994Y-95928137D01*
X115503334Y-95891771D01*
X115482708Y-95860768D01*
X115474038Y-95842176D01*
X115474034Y-95842169D01*
X115338494Y-95648597D01*
X115171402Y-95481506D01*
X115171395Y-95481501D01*
X114977834Y-95345967D01*
X114977830Y-95345965D01*
X114928616Y-95323016D01*
X114763663Y-95246097D01*
X114763659Y-95246096D01*
X114763655Y-95246094D01*
X114535413Y-95184938D01*
X114535403Y-95184936D01*
X114300001Y-95164341D01*
X114299999Y-95164341D01*
X114064596Y-95184936D01*
X114064586Y-95184938D01*
X113836344Y-95246094D01*
X113836335Y-95246098D01*
X113622171Y-95345964D01*
X113622169Y-95345965D01*
X113428597Y-95481505D01*
X113261505Y-95648597D01*
X113125965Y-95842169D01*
X113125964Y-95842171D01*
X113026098Y-96056335D01*
X113026094Y-96056344D01*
X112964938Y-96284586D01*
X112964936Y-96284596D01*
X112944341Y-96519999D01*
X112944341Y-96520000D01*
X112964936Y-96755403D01*
X112964938Y-96755413D01*
X113026094Y-96983655D01*
X113026096Y-96983659D01*
X113026097Y-96983663D01*
X113125965Y-97197830D01*
X113125967Y-97197834D01*
X113261501Y-97391395D01*
X113261506Y-97391402D01*
X113383430Y-97513326D01*
X113416915Y-97574649D01*
X113411931Y-97644341D01*
X113370059Y-97700274D01*
X113339083Y-97717189D01*
X113207669Y-97766203D01*
X113207664Y-97766206D01*
X113092455Y-97852452D01*
X113092452Y-97852455D01*
X113006206Y-97967664D01*
X113006202Y-97967671D01*
X112955908Y-98102517D01*
X112949501Y-98162116D01*
X112949501Y-98162123D01*
X112949500Y-98162135D01*
X112949500Y-99957870D01*
X112949501Y-99957876D01*
X112955908Y-100017483D01*
X113006202Y-100152328D01*
X113006206Y-100152335D01*
X113092452Y-100267544D01*
X113092455Y-100267547D01*
X113207664Y-100353793D01*
X113207671Y-100353797D01*
X113342517Y-100404091D01*
X113342516Y-100404091D01*
X113349444Y-100404835D01*
X113402127Y-100410500D01*
X115197872Y-100410499D01*
X115257483Y-100404091D01*
X115392331Y-100353796D01*
X115507546Y-100267546D01*
X115593796Y-100152331D01*
X115644091Y-100017483D01*
X115650500Y-99957873D01*
X115650499Y-98162128D01*
X115644091Y-98102517D01*
X115632207Y-98070655D01*
X115593797Y-97967671D01*
X115593793Y-97967664D01*
X115507547Y-97852455D01*
X115507544Y-97852452D01*
X115392335Y-97766206D01*
X115392328Y-97766202D01*
X115260917Y-97717189D01*
X115204983Y-97675318D01*
X115180566Y-97609853D01*
X115195418Y-97541580D01*
X115216566Y-97513329D01*
X115318501Y-97411394D01*
X115379822Y-97377911D01*
X115449514Y-97382895D01*
X115493860Y-97411395D01*
X119441184Y-101358720D01*
X119441186Y-101358721D01*
X119441190Y-101358724D01*
X119578109Y-101437773D01*
X119578116Y-101437777D01*
X119730843Y-101478701D01*
X119730845Y-101478701D01*
X119896554Y-101478701D01*
X119896570Y-101478700D01*
X125902326Y-101478700D01*
X125969365Y-101498385D01*
X126013324Y-101547425D01*
X126060327Y-101641821D01*
X126114166Y-101713116D01*
X126183237Y-101804581D01*
X126333958Y-101941980D01*
X126333960Y-101941982D01*
X126433141Y-102003392D01*
X126507363Y-102049348D01*
X126697544Y-102123024D01*
X126898024Y-102160500D01*
X126898026Y-102160500D01*
X127101974Y-102160500D01*
X127101976Y-102160500D01*
X127302456Y-102123024D01*
X127492637Y-102049348D01*
X127666041Y-101941981D01*
X127816764Y-101804579D01*
X127939673Y-101641821D01*
X128030582Y-101459250D01*
X128086397Y-101263083D01*
X128105215Y-101060000D01*
X128086397Y-100856917D01*
X128058520Y-100758942D01*
X128059106Y-100689077D01*
X128090103Y-100637330D01*
X134997435Y-93729999D01*
X135881127Y-93729999D01*
X135881128Y-93730000D01*
X136844314Y-93730000D01*
X136839920Y-93734394D01*
X136787259Y-93825606D01*
X136760000Y-93927339D01*
X136760000Y-94032661D01*
X136787259Y-94134394D01*
X136839920Y-94225606D01*
X136844314Y-94230000D01*
X135881128Y-94230000D01*
X135933730Y-94426317D01*
X135933734Y-94426326D01*
X136029865Y-94632482D01*
X136160342Y-94818820D01*
X136321179Y-94979657D01*
X136507517Y-95110134D01*
X136713673Y-95206265D01*
X136713682Y-95206269D01*
X136909999Y-95258872D01*
X136910000Y-95258871D01*
X136910000Y-94295686D01*
X136914394Y-94300080D01*
X137005606Y-94352741D01*
X137107339Y-94380000D01*
X137212661Y-94380000D01*
X137314394Y-94352741D01*
X137405606Y-94300080D01*
X137410000Y-94295686D01*
X137410000Y-95258872D01*
X137606317Y-95206269D01*
X137606326Y-95206265D01*
X137812482Y-95110134D01*
X137998820Y-94979657D01*
X138159657Y-94818820D01*
X138290134Y-94632482D01*
X138386265Y-94426326D01*
X138386269Y-94426317D01*
X138438872Y-94230000D01*
X137475686Y-94230000D01*
X137480080Y-94225606D01*
X137532741Y-94134394D01*
X137560000Y-94032661D01*
X137560000Y-93927339D01*
X137532741Y-93825606D01*
X137480080Y-93734394D01*
X137475686Y-93730000D01*
X138438872Y-93730000D01*
X138438872Y-93729999D01*
X138386269Y-93533682D01*
X138386265Y-93533673D01*
X138290134Y-93327517D01*
X138159657Y-93141179D01*
X137998820Y-92980342D01*
X137812482Y-92849865D01*
X137606328Y-92753734D01*
X137410000Y-92701127D01*
X137410000Y-93664314D01*
X137405606Y-93659920D01*
X137314394Y-93607259D01*
X137212661Y-93580000D01*
X137107339Y-93580000D01*
X137005606Y-93607259D01*
X136914394Y-93659920D01*
X136910000Y-93664314D01*
X136910000Y-92701127D01*
X136713671Y-92753734D01*
X136507517Y-92849865D01*
X136321179Y-92980342D01*
X136160342Y-93141179D01*
X136029865Y-93327517D01*
X135933734Y-93533673D01*
X135933730Y-93533682D01*
X135881127Y-93729999D01*
X134997435Y-93729999D01*
X149350617Y-79376819D01*
X149411940Y-79343334D01*
X149438298Y-79340500D01*
X150264203Y-79340500D01*
X150331242Y-79360185D01*
X150376997Y-79412989D01*
X150386941Y-79482147D01*
X150357916Y-79545703D01*
X150351884Y-79552180D01*
X148632860Y-81271204D01*
X146951286Y-82952778D01*
X146839481Y-83064582D01*
X146839477Y-83064587D01*
X146789877Y-83150499D01*
X146789877Y-83150500D01*
X146760423Y-83201514D01*
X146746781Y-83252424D01*
X146719499Y-83354243D01*
X146719499Y-83354245D01*
X146719499Y-83522346D01*
X146719500Y-83522359D01*
X146719500Y-98068370D01*
X146699815Y-98135409D01*
X146660778Y-98173797D01*
X146653957Y-98178020D01*
X146503237Y-98315418D01*
X146380327Y-98478178D01*
X146289422Y-98660739D01*
X146289417Y-98660752D01*
X146233602Y-98856917D01*
X146214785Y-99059999D01*
X146214785Y-99060000D01*
X146233602Y-99263078D01*
X146233602Y-99263080D01*
X146233603Y-99263083D01*
X146244552Y-99301567D01*
X146243965Y-99371434D01*
X146205698Y-99429892D01*
X146141901Y-99458382D01*
X146125286Y-99459500D01*
X135706669Y-99459500D01*
X135706653Y-99459499D01*
X135699057Y-99459499D01*
X135540943Y-99459499D01*
X135426397Y-99490192D01*
X135388214Y-99500423D01*
X135343236Y-99526392D01*
X135343235Y-99526392D01*
X135251287Y-99579477D01*
X135251282Y-99579481D01*
X135139478Y-99691286D01*
X128294840Y-106535923D01*
X128233517Y-106569408D01*
X128163825Y-106564424D01*
X128107892Y-106522552D01*
X128087893Y-106482176D01*
X128079167Y-106451509D01*
X128030582Y-106280750D01*
X127939673Y-106098179D01*
X127865908Y-106000498D01*
X127816762Y-105935418D01*
X127666041Y-105798019D01*
X127666039Y-105798017D01*
X127492642Y-105690655D01*
X127492635Y-105690651D01*
X127397546Y-105653814D01*
X127302456Y-105616976D01*
X127101976Y-105579500D01*
X126898024Y-105579500D01*
X126697544Y-105616976D01*
X126697541Y-105616976D01*
X126697541Y-105616977D01*
X126507364Y-105690651D01*
X126507357Y-105690655D01*
X126333960Y-105798017D01*
X126333958Y-105798019D01*
X126183237Y-105935418D01*
X126060327Y-106098178D01*
X125969422Y-106280739D01*
X125969417Y-106280752D01*
X125913602Y-106476917D01*
X125894785Y-106679999D01*
X125894785Y-106680000D01*
X125911122Y-106856309D01*
X125897707Y-106924879D01*
X125875332Y-106955431D01*
X125503686Y-107327078D01*
X125391881Y-107438882D01*
X125391879Y-107438885D01*
X125356287Y-107500534D01*
X125356286Y-107500536D01*
X125312823Y-107575814D01*
X125312823Y-107575815D01*
X125271899Y-107728543D01*
X125271899Y-107728545D01*
X125271899Y-107896646D01*
X125271900Y-107896659D01*
X125271900Y-121005900D01*
X125252215Y-121072939D01*
X125199411Y-121118694D01*
X125147900Y-121129900D01*
X123724499Y-121129900D01*
X123657460Y-121110215D01*
X123611705Y-121057411D01*
X123600499Y-121005900D01*
X123600499Y-120232129D01*
X123600498Y-120232123D01*
X123600497Y-120232116D01*
X123594091Y-120172517D01*
X123584608Y-120147093D01*
X123543797Y-120037671D01*
X123543793Y-120037664D01*
X123457547Y-119922455D01*
X123457544Y-119922452D01*
X123342335Y-119836206D01*
X123342328Y-119836202D01*
X123207482Y-119785908D01*
X123207483Y-119785908D01*
X123147883Y-119779501D01*
X123147881Y-119779500D01*
X123147873Y-119779500D01*
X123147864Y-119779500D01*
X120252129Y-119779500D01*
X120252123Y-119779501D01*
X120192516Y-119785908D01*
X120057671Y-119836202D01*
X120057664Y-119836206D01*
X119942455Y-119922452D01*
X119942452Y-119922455D01*
X119856206Y-120037664D01*
X119856202Y-120037671D01*
X119805908Y-120172517D01*
X119800556Y-120222302D01*
X119799501Y-120232123D01*
X119799500Y-120232135D01*
X119799500Y-121164100D01*
X119779815Y-121231139D01*
X119727011Y-121276894D01*
X119675500Y-121288100D01*
X119016538Y-121288100D01*
X118949499Y-121268415D01*
X118903744Y-121215611D01*
X118893800Y-121146453D01*
X118916220Y-121091215D01*
X118929161Y-121073402D01*
X118941232Y-121056788D01*
X119019873Y-120902445D01*
X119073402Y-120737701D01*
X119100500Y-120566611D01*
X119100500Y-120393389D01*
X119073402Y-120222299D01*
X119019873Y-120057555D01*
X118941232Y-119903212D01*
X118839414Y-119763072D01*
X118716928Y-119640586D01*
X118576788Y-119538768D01*
X118422445Y-119460127D01*
X118257701Y-119406598D01*
X118257699Y-119406597D01*
X118257698Y-119406597D01*
X118126271Y-119385781D01*
X118086611Y-119379500D01*
X117913389Y-119379500D01*
X117873728Y-119385781D01*
X117742302Y-119406597D01*
X117577552Y-119460128D01*
X117423211Y-119538768D01*
X117369826Y-119577555D01*
X117283072Y-119640586D01*
X117283070Y-119640588D01*
X117283069Y-119640588D01*
X117160588Y-119763069D01*
X117160588Y-119763070D01*
X117160586Y-119763072D01*
X117148650Y-119779501D01*
X117058768Y-119903211D01*
X116980128Y-120057552D01*
X116926597Y-120222302D01*
X116899500Y-120393389D01*
X116899500Y-120566610D01*
X116924163Y-120722331D01*
X116926598Y-120737701D01*
X116980127Y-120902445D01*
X117056831Y-121052987D01*
X117058770Y-121056791D01*
X117083780Y-121091215D01*
X117107260Y-121157021D01*
X117091435Y-121225075D01*
X117041329Y-121273770D01*
X116983462Y-121288100D01*
X115024500Y-121288100D01*
X114957461Y-121268415D01*
X114911706Y-121215611D01*
X114900500Y-121164100D01*
X114900500Y-121104499D01*
X114920185Y-121037460D01*
X114972989Y-120991705D01*
X115024500Y-120980499D01*
X115747871Y-120980499D01*
X115747872Y-120980499D01*
X115807483Y-120974091D01*
X115942331Y-120923796D01*
X116057546Y-120837546D01*
X116143796Y-120722331D01*
X116194091Y-120587483D01*
X116200500Y-120527873D01*
X116200499Y-118232128D01*
X116194091Y-118172517D01*
X116164688Y-118093684D01*
X116143797Y-118037671D01*
X116143793Y-118037664D01*
X116057547Y-117922455D01*
X116057544Y-117922452D01*
X115942335Y-117836206D01*
X115942328Y-117836202D01*
X115807482Y-117785908D01*
X115807483Y-117785908D01*
X115747883Y-117779501D01*
X115747881Y-117779500D01*
X115747873Y-117779500D01*
X115747864Y-117779500D01*
X112852129Y-117779500D01*
X112852123Y-117779501D01*
X112792516Y-117785908D01*
X112657671Y-117836202D01*
X112657664Y-117836206D01*
X112542455Y-117922452D01*
X112483766Y-118000850D01*
X112427832Y-118042720D01*
X112358140Y-118047704D01*
X112296817Y-118014218D01*
X112263333Y-117952894D01*
X112260500Y-117926538D01*
X112260500Y-86359998D01*
X120614532Y-86359998D01*
X120614532Y-86360001D01*
X120634364Y-86586686D01*
X120634366Y-86586697D01*
X120693258Y-86806488D01*
X120693261Y-86806497D01*
X120789431Y-87012732D01*
X120789432Y-87012734D01*
X120919954Y-87199141D01*
X121080858Y-87360045D01*
X121080861Y-87360047D01*
X121266624Y-87490118D01*
X121310248Y-87544693D01*
X121319500Y-87591692D01*
X121319500Y-92748306D01*
X121299815Y-92815345D01*
X121266623Y-92849881D01*
X121080859Y-92979953D01*
X120919954Y-93140858D01*
X120789432Y-93327265D01*
X120789431Y-93327267D01*
X120693261Y-93533502D01*
X120693258Y-93533511D01*
X120634366Y-93753302D01*
X120634364Y-93753313D01*
X120614532Y-93979998D01*
X120614532Y-93980001D01*
X120634364Y-94206686D01*
X120634366Y-94206697D01*
X120693258Y-94426488D01*
X120693261Y-94426497D01*
X120789431Y-94632732D01*
X120789432Y-94632734D01*
X120919954Y-94819141D01*
X121080858Y-94980045D01*
X121080861Y-94980047D01*
X121267266Y-95110568D01*
X121473504Y-95206739D01*
X121693308Y-95265635D01*
X121855230Y-95279801D01*
X121919998Y-95285468D01*
X121920000Y-95285468D01*
X121920002Y-95285468D01*
X121976673Y-95280509D01*
X122146692Y-95265635D01*
X122366496Y-95206739D01*
X122572734Y-95110568D01*
X122759139Y-94980047D01*
X122920047Y-94819139D01*
X123050568Y-94632734D01*
X123146739Y-94426496D01*
X123205635Y-94206692D01*
X123225468Y-93980000D01*
X123205635Y-93753308D01*
X123199389Y-93729999D01*
X128261127Y-93729999D01*
X128261128Y-93730000D01*
X129224314Y-93730000D01*
X129219920Y-93734394D01*
X129167259Y-93825606D01*
X129140000Y-93927339D01*
X129140000Y-94032661D01*
X129167259Y-94134394D01*
X129219920Y-94225606D01*
X129224314Y-94230000D01*
X128261128Y-94230000D01*
X128313730Y-94426317D01*
X128313734Y-94426326D01*
X128409865Y-94632482D01*
X128540342Y-94818820D01*
X128701179Y-94979657D01*
X128887517Y-95110134D01*
X129093673Y-95206265D01*
X129093682Y-95206269D01*
X129289999Y-95258872D01*
X129290000Y-95258871D01*
X129290000Y-94295686D01*
X129294394Y-94300080D01*
X129385606Y-94352741D01*
X129487339Y-94380000D01*
X129592661Y-94380000D01*
X129694394Y-94352741D01*
X129785606Y-94300080D01*
X129790000Y-94295686D01*
X129790000Y-95258872D01*
X129986317Y-95206269D01*
X129986326Y-95206265D01*
X130192482Y-95110134D01*
X130378820Y-94979657D01*
X130539657Y-94818820D01*
X130670134Y-94632482D01*
X130766265Y-94426326D01*
X130766269Y-94426317D01*
X130818872Y-94230000D01*
X129855686Y-94230000D01*
X129860080Y-94225606D01*
X129912741Y-94134394D01*
X129940000Y-94032661D01*
X129940000Y-93927339D01*
X129912741Y-93825606D01*
X129860080Y-93734394D01*
X129855686Y-93730000D01*
X130818872Y-93730000D01*
X130818872Y-93729999D01*
X130766269Y-93533682D01*
X130766265Y-93533673D01*
X130670134Y-93327517D01*
X130539657Y-93141179D01*
X130378820Y-92980342D01*
X130192482Y-92849865D01*
X129986328Y-92753734D01*
X129790000Y-92701127D01*
X129790000Y-93664314D01*
X129785606Y-93659920D01*
X129694394Y-93607259D01*
X129592661Y-93580000D01*
X129487339Y-93580000D01*
X129385606Y-93607259D01*
X129294394Y-93659920D01*
X129290000Y-93664314D01*
X129290000Y-92701127D01*
X129093671Y-92753734D01*
X128887517Y-92849865D01*
X128701179Y-92980342D01*
X128540342Y-93141179D01*
X128409865Y-93327517D01*
X128313734Y-93533673D01*
X128313730Y-93533682D01*
X128261127Y-93729999D01*
X123199389Y-93729999D01*
X123146739Y-93533504D01*
X123050568Y-93327266D01*
X122920047Y-93140861D01*
X122920045Y-93140858D01*
X122759140Y-92979953D01*
X122573377Y-92849881D01*
X122529752Y-92795304D01*
X122520500Y-92748306D01*
X122520500Y-87591692D01*
X122540185Y-87524653D01*
X122573374Y-87490119D01*
X122759139Y-87360047D01*
X122920047Y-87199139D01*
X123050568Y-87012734D01*
X123146739Y-86806496D01*
X123205635Y-86586692D01*
X123225468Y-86360000D01*
X123205635Y-86133308D01*
X123146739Y-85913504D01*
X123050568Y-85707266D01*
X122920047Y-85520861D01*
X122920045Y-85520858D01*
X122911342Y-85512155D01*
X128240000Y-85512155D01*
X128240000Y-86110000D01*
X129224314Y-86110000D01*
X129219920Y-86114394D01*
X129167259Y-86205606D01*
X129140000Y-86307339D01*
X129140000Y-86412661D01*
X129167259Y-86514394D01*
X129219920Y-86605606D01*
X129224314Y-86610000D01*
X128240000Y-86610000D01*
X128240000Y-87207844D01*
X128246401Y-87267372D01*
X128246403Y-87267379D01*
X128296645Y-87402086D01*
X128296649Y-87402093D01*
X128382809Y-87517187D01*
X128382812Y-87517190D01*
X128497906Y-87603350D01*
X128497913Y-87603354D01*
X128632620Y-87653596D01*
X128632627Y-87653598D01*
X128692155Y-87659999D01*
X128692172Y-87660000D01*
X129290000Y-87660000D01*
X129290000Y-86675686D01*
X129294394Y-86680080D01*
X129385606Y-86732741D01*
X129487339Y-86760000D01*
X129592661Y-86760000D01*
X129694394Y-86732741D01*
X129785606Y-86680080D01*
X129790000Y-86675686D01*
X129790000Y-87660000D01*
X130387828Y-87660000D01*
X130387844Y-87659999D01*
X130447372Y-87653598D01*
X130447379Y-87653596D01*
X130582086Y-87603354D01*
X130582093Y-87603350D01*
X130697187Y-87517190D01*
X130697190Y-87517187D01*
X130783350Y-87402093D01*
X130783354Y-87402086D01*
X130823578Y-87294240D01*
X134579311Y-87294240D01*
X134667585Y-87348897D01*
X134857678Y-87422539D01*
X135058072Y-87460000D01*
X135261928Y-87460000D01*
X135462322Y-87422539D01*
X135652412Y-87348899D01*
X135652416Y-87348897D01*
X135740686Y-87294241D01*
X135740686Y-87294240D01*
X136579311Y-87294240D01*
X136667585Y-87348897D01*
X136857678Y-87422539D01*
X137058072Y-87460000D01*
X137261928Y-87460000D01*
X137462322Y-87422539D01*
X137652412Y-87348899D01*
X137652416Y-87348897D01*
X137740686Y-87294241D01*
X137740686Y-87294240D01*
X137160001Y-86713553D01*
X137160000Y-86713553D01*
X136579311Y-87294240D01*
X135740686Y-87294240D01*
X135160001Y-86713553D01*
X135160000Y-86713553D01*
X134579311Y-87294240D01*
X130823578Y-87294240D01*
X130833596Y-87267379D01*
X130833598Y-87267372D01*
X130839999Y-87207844D01*
X130840000Y-87207827D01*
X130840000Y-86610000D01*
X129855686Y-86610000D01*
X129860080Y-86605606D01*
X129912741Y-86514394D01*
X129940000Y-86412661D01*
X129940000Y-86359999D01*
X134055287Y-86359999D01*
X134055287Y-86360000D01*
X134074096Y-86562989D01*
X134074097Y-86562992D01*
X134129883Y-86759063D01*
X134129886Y-86759069D01*
X134220751Y-86941551D01*
X134222533Y-86943911D01*
X134806446Y-86360000D01*
X134766950Y-86320504D01*
X134860000Y-86320504D01*
X134860000Y-86399496D01*
X134880444Y-86475796D01*
X134919940Y-86544205D01*
X134975795Y-86600060D01*
X135044204Y-86639556D01*
X135120504Y-86660000D01*
X135199496Y-86660000D01*
X135275796Y-86639556D01*
X135344205Y-86600060D01*
X135400060Y-86544205D01*
X135439556Y-86475796D01*
X135460000Y-86399496D01*
X135460000Y-86360000D01*
X135513553Y-86360000D01*
X136097465Y-86943912D01*
X136151483Y-86940169D01*
X136168646Y-86940170D01*
X136222533Y-86943911D01*
X136806446Y-86360000D01*
X136806446Y-86359999D01*
X136766951Y-86320504D01*
X136860000Y-86320504D01*
X136860000Y-86399496D01*
X136880444Y-86475796D01*
X136919940Y-86544205D01*
X136975795Y-86600060D01*
X137044204Y-86639556D01*
X137120504Y-86660000D01*
X137199496Y-86660000D01*
X137275796Y-86639556D01*
X137344205Y-86600060D01*
X137400060Y-86544205D01*
X137439556Y-86475796D01*
X137460000Y-86399496D01*
X137460000Y-86360000D01*
X137513553Y-86360000D01*
X138097465Y-86943912D01*
X138099247Y-86941553D01*
X138099248Y-86941551D01*
X138190113Y-86759069D01*
X138190116Y-86759063D01*
X138245902Y-86562992D01*
X138245903Y-86562989D01*
X138264713Y-86360000D01*
X138264713Y-86359999D01*
X138245903Y-86157010D01*
X138245902Y-86157007D01*
X138190116Y-85960936D01*
X138190113Y-85960930D01*
X138099249Y-85778449D01*
X138099247Y-85778447D01*
X138097465Y-85776087D01*
X137513553Y-86360000D01*
X137460000Y-86360000D01*
X137460000Y-86320504D01*
X137439556Y-86244204D01*
X137400060Y-86175795D01*
X137344205Y-86119940D01*
X137275796Y-86080444D01*
X137199496Y-86060000D01*
X137120504Y-86060000D01*
X137044204Y-86080444D01*
X136975795Y-86119940D01*
X136919940Y-86175795D01*
X136880444Y-86244204D01*
X136860000Y-86320504D01*
X136766951Y-86320504D01*
X136222532Y-85776086D01*
X136168656Y-85779833D01*
X136151471Y-85779835D01*
X136097465Y-85776087D01*
X135513553Y-86360000D01*
X135460000Y-86360000D01*
X135460000Y-86320504D01*
X135439556Y-86244204D01*
X135400060Y-86175795D01*
X135344205Y-86119940D01*
X135275796Y-86080444D01*
X135199496Y-86060000D01*
X135120504Y-86060000D01*
X135044204Y-86080444D01*
X134975795Y-86119940D01*
X134919940Y-86175795D01*
X134880444Y-86244204D01*
X134860000Y-86320504D01*
X134766950Y-86320504D01*
X134222533Y-85776087D01*
X134220755Y-85778442D01*
X134220754Y-85778443D01*
X134129886Y-85960930D01*
X134129883Y-85960936D01*
X134074097Y-86157007D01*
X134074096Y-86157010D01*
X134055287Y-86359999D01*
X129940000Y-86359999D01*
X129940000Y-86307339D01*
X129912741Y-86205606D01*
X129860080Y-86114394D01*
X129855686Y-86110000D01*
X130840000Y-86110000D01*
X130840000Y-85512172D01*
X130839999Y-85512155D01*
X130833598Y-85452627D01*
X130833596Y-85452620D01*
X130823577Y-85425758D01*
X134579311Y-85425758D01*
X135160000Y-86006446D01*
X135160001Y-86006446D01*
X135740687Y-85425758D01*
X136579311Y-85425758D01*
X137160000Y-86006446D01*
X137160001Y-86006446D01*
X137740687Y-85425758D01*
X137652413Y-85371101D01*
X137652411Y-85371100D01*
X137462321Y-85297460D01*
X137261928Y-85260000D01*
X137058072Y-85260000D01*
X136857678Y-85297460D01*
X136667588Y-85371100D01*
X136667581Y-85371104D01*
X136579312Y-85425757D01*
X136579311Y-85425758D01*
X135740687Y-85425758D01*
X135652413Y-85371101D01*
X135652411Y-85371100D01*
X135462321Y-85297460D01*
X135261928Y-85260000D01*
X135058072Y-85260000D01*
X134857678Y-85297460D01*
X134667588Y-85371100D01*
X134667581Y-85371104D01*
X134579312Y-85425757D01*
X134579311Y-85425758D01*
X130823577Y-85425758D01*
X130783354Y-85317913D01*
X130783350Y-85317906D01*
X130697190Y-85202812D01*
X130697187Y-85202809D01*
X130582093Y-85116649D01*
X130582086Y-85116645D01*
X130447379Y-85066403D01*
X130447372Y-85066401D01*
X130387844Y-85060000D01*
X129790000Y-85060000D01*
X129790000Y-86044314D01*
X129785606Y-86039920D01*
X129694394Y-85987259D01*
X129592661Y-85960000D01*
X129487339Y-85960000D01*
X129385606Y-85987259D01*
X129294394Y-86039920D01*
X129290000Y-86044314D01*
X129290000Y-85060000D01*
X128692155Y-85060000D01*
X128632627Y-85066401D01*
X128632620Y-85066403D01*
X128497913Y-85116645D01*
X128497906Y-85116649D01*
X128382812Y-85202809D01*
X128382809Y-85202812D01*
X128296649Y-85317906D01*
X128296645Y-85317913D01*
X128246403Y-85452620D01*
X128246401Y-85452627D01*
X128240000Y-85512155D01*
X122911342Y-85512155D01*
X122759141Y-85359954D01*
X122572734Y-85229432D01*
X122572732Y-85229431D01*
X122366497Y-85133261D01*
X122366488Y-85133258D01*
X122146697Y-85074366D01*
X122146693Y-85074365D01*
X122146692Y-85074365D01*
X122146691Y-85074364D01*
X122146686Y-85074364D01*
X121920002Y-85054532D01*
X121919998Y-85054532D01*
X121693313Y-85074364D01*
X121693302Y-85074366D01*
X121473511Y-85133258D01*
X121473502Y-85133261D01*
X121267267Y-85229431D01*
X121267265Y-85229432D01*
X121080858Y-85359954D01*
X120919954Y-85520858D01*
X120789432Y-85707265D01*
X120789431Y-85707267D01*
X120693261Y-85913502D01*
X120693258Y-85913511D01*
X120634366Y-86133302D01*
X120634364Y-86133313D01*
X120614532Y-86359998D01*
X112260500Y-86359998D01*
X112260500Y-72812135D01*
X128239500Y-72812135D01*
X128239500Y-74507870D01*
X128239501Y-74507876D01*
X128245908Y-74567483D01*
X128296202Y-74702328D01*
X128296206Y-74702335D01*
X128382452Y-74817544D01*
X128382455Y-74817547D01*
X128497664Y-74903793D01*
X128497671Y-74903797D01*
X128632517Y-74954091D01*
X128632516Y-74954091D01*
X128639444Y-74954835D01*
X128692127Y-74960500D01*
X130387872Y-74960499D01*
X130447483Y-74954091D01*
X130582331Y-74903796D01*
X130697546Y-74817546D01*
X130783796Y-74702331D01*
X130834091Y-74567483D01*
X130840500Y-74507873D01*
X130840499Y-73659999D01*
X141134785Y-73659999D01*
X141134785Y-73660000D01*
X141153602Y-73863082D01*
X141209417Y-74059247D01*
X141209422Y-74059260D01*
X141300327Y-74241821D01*
X141423237Y-74404581D01*
X141573958Y-74541980D01*
X141573960Y-74541982D01*
X141615146Y-74567483D01*
X141747363Y-74649348D01*
X141937544Y-74723024D01*
X142138024Y-74760500D01*
X142138026Y-74760500D01*
X142341974Y-74760500D01*
X142341976Y-74760500D01*
X142542456Y-74723024D01*
X142732637Y-74649348D01*
X142906041Y-74541981D01*
X143056764Y-74404579D01*
X143179673Y-74241821D01*
X143270582Y-74059250D01*
X143326397Y-73863083D01*
X143345215Y-73660000D01*
X143326397Y-73456917D01*
X143270582Y-73260750D01*
X143179673Y-73078179D01*
X143056764Y-72915421D01*
X143056762Y-72915418D01*
X142906042Y-72778020D01*
X142906041Y-72778019D01*
X142873488Y-72757863D01*
X142826853Y-72705835D01*
X142815592Y-72638145D01*
X142820685Y-72594239D01*
X142240001Y-72013553D01*
X142240000Y-72013553D01*
X141659311Y-72594240D01*
X141664405Y-72638148D01*
X141652577Y-72707009D01*
X141606511Y-72757863D01*
X141573956Y-72778020D01*
X141423237Y-72915418D01*
X141300327Y-73078178D01*
X141209422Y-73260739D01*
X141209417Y-73260752D01*
X141153602Y-73456917D01*
X141134785Y-73659999D01*
X130840499Y-73659999D01*
X130840499Y-72812128D01*
X130834091Y-72752517D01*
X130803557Y-72670652D01*
X130783797Y-72617671D01*
X130783793Y-72617664D01*
X130697547Y-72502455D01*
X130697544Y-72502452D01*
X130582335Y-72416206D01*
X130582328Y-72416202D01*
X130447482Y-72365908D01*
X130447483Y-72365908D01*
X130387883Y-72359501D01*
X130387881Y-72359500D01*
X130387873Y-72359500D01*
X130387864Y-72359500D01*
X128692129Y-72359500D01*
X128692123Y-72359501D01*
X128632516Y-72365908D01*
X128497671Y-72416202D01*
X128497664Y-72416206D01*
X128382455Y-72502452D01*
X128382452Y-72502455D01*
X128296206Y-72617664D01*
X128296202Y-72617671D01*
X128245908Y-72752517D01*
X128239501Y-72812116D01*
X128239501Y-72812123D01*
X128239500Y-72812135D01*
X112260500Y-72812135D01*
X112260500Y-71659999D01*
X141135287Y-71659999D01*
X141135287Y-71660000D01*
X141154096Y-71862989D01*
X141154097Y-71862992D01*
X141209883Y-72059063D01*
X141209886Y-72059069D01*
X141300751Y-72241551D01*
X141302533Y-72243911D01*
X141886446Y-71660000D01*
X141846950Y-71620504D01*
X141940000Y-71620504D01*
X141940000Y-71699496D01*
X141960444Y-71775796D01*
X141999940Y-71844205D01*
X142055795Y-71900060D01*
X142124204Y-71939556D01*
X142200504Y-71960000D01*
X142279496Y-71960000D01*
X142355796Y-71939556D01*
X142424205Y-71900060D01*
X142480060Y-71844205D01*
X142519556Y-71775796D01*
X142540000Y-71699496D01*
X142540000Y-71660000D01*
X142593553Y-71660000D01*
X143177465Y-72243912D01*
X143179247Y-72241553D01*
X143179248Y-72241551D01*
X143270113Y-72059069D01*
X143270116Y-72059063D01*
X143325902Y-71862992D01*
X143325903Y-71862989D01*
X143344713Y-71660000D01*
X143344713Y-71659999D01*
X143325903Y-71457010D01*
X143325902Y-71457007D01*
X143270116Y-71260936D01*
X143270113Y-71260930D01*
X143179249Y-71078449D01*
X143179247Y-71078447D01*
X143177465Y-71076087D01*
X142593553Y-71660000D01*
X142540000Y-71660000D01*
X142540000Y-71620504D01*
X142519556Y-71544204D01*
X142480060Y-71475795D01*
X142424205Y-71419940D01*
X142355796Y-71380444D01*
X142279496Y-71360000D01*
X142200504Y-71360000D01*
X142124204Y-71380444D01*
X142055795Y-71419940D01*
X141999940Y-71475795D01*
X141960444Y-71544204D01*
X141940000Y-71620504D01*
X141846950Y-71620504D01*
X141302533Y-71076087D01*
X141300755Y-71078442D01*
X141300754Y-71078443D01*
X141209886Y-71260930D01*
X141209883Y-71260936D01*
X141154097Y-71457007D01*
X141154096Y-71457010D01*
X141135287Y-71659999D01*
X112260500Y-71659999D01*
X112260500Y-70159997D01*
X128235034Y-70159997D01*
X128235034Y-70160002D01*
X128254858Y-70386599D01*
X128254860Y-70386610D01*
X128313730Y-70606317D01*
X128313735Y-70606331D01*
X128409863Y-70812478D01*
X128460974Y-70885472D01*
X129140000Y-70206446D01*
X129140000Y-70212661D01*
X129167259Y-70314394D01*
X129219920Y-70405606D01*
X129294394Y-70480080D01*
X129385606Y-70532741D01*
X129487339Y-70560000D01*
X129493553Y-70560000D01*
X128814526Y-71239025D01*
X128887513Y-71290132D01*
X128887521Y-71290136D01*
X129093668Y-71386264D01*
X129093682Y-71386269D01*
X129313389Y-71445139D01*
X129313400Y-71445141D01*
X129539998Y-71464966D01*
X129540002Y-71464966D01*
X129766599Y-71445141D01*
X129766610Y-71445139D01*
X129986317Y-71386269D01*
X129986331Y-71386264D01*
X130192478Y-71290136D01*
X130265471Y-71239024D01*
X129586447Y-70560000D01*
X129592661Y-70560000D01*
X129694394Y-70532741D01*
X129785606Y-70480080D01*
X129860080Y-70405606D01*
X129912741Y-70314394D01*
X129940000Y-70212661D01*
X129940000Y-70206447D01*
X130619024Y-70885471D01*
X130670136Y-70812478D01*
X130710574Y-70725758D01*
X141659311Y-70725758D01*
X142240000Y-71306446D01*
X142240001Y-71306446D01*
X142820687Y-70725758D01*
X142732413Y-70671101D01*
X142732411Y-70671100D01*
X142542321Y-70597460D01*
X142341928Y-70560000D01*
X142138072Y-70560000D01*
X141937678Y-70597460D01*
X141747588Y-70671100D01*
X141747581Y-70671104D01*
X141659312Y-70725757D01*
X141659311Y-70725758D01*
X130710574Y-70725758D01*
X130766264Y-70606331D01*
X130766269Y-70606317D01*
X130825139Y-70386610D01*
X130825141Y-70386599D01*
X130844966Y-70160002D01*
X130844966Y-70159997D01*
X130825141Y-69933400D01*
X130825139Y-69933389D01*
X130766269Y-69713682D01*
X130766264Y-69713668D01*
X130670136Y-69507521D01*
X130670132Y-69507513D01*
X130619025Y-69434526D01*
X129940000Y-70113551D01*
X129940000Y-70107339D01*
X129912741Y-70005606D01*
X129860080Y-69914394D01*
X129785606Y-69839920D01*
X129694394Y-69787259D01*
X129592661Y-69760000D01*
X129586448Y-69760000D01*
X130265472Y-69080974D01*
X130192478Y-69029863D01*
X129986331Y-68933735D01*
X129986317Y-68933730D01*
X129766610Y-68874860D01*
X129766599Y-68874858D01*
X129540002Y-68855034D01*
X129539998Y-68855034D01*
X129313400Y-68874858D01*
X129313389Y-68874860D01*
X129093682Y-68933730D01*
X129093673Y-68933734D01*
X128887516Y-69029866D01*
X128887512Y-69029868D01*
X128814526Y-69080973D01*
X128814526Y-69080974D01*
X129493553Y-69760000D01*
X129487339Y-69760000D01*
X129385606Y-69787259D01*
X129294394Y-69839920D01*
X129219920Y-69914394D01*
X129167259Y-70005606D01*
X129140000Y-70107339D01*
X129140000Y-70113552D01*
X128460974Y-69434526D01*
X128460973Y-69434526D01*
X128409868Y-69507512D01*
X128409866Y-69507516D01*
X128313734Y-69713673D01*
X128313730Y-69713682D01*
X128254860Y-69933389D01*
X128254858Y-69933400D01*
X128235034Y-70159997D01*
X112260500Y-70159997D01*
X112260500Y-63499999D01*
X141135287Y-63499999D01*
X141135287Y-63500000D01*
X141154096Y-63702989D01*
X141154097Y-63702992D01*
X141209883Y-63899063D01*
X141209886Y-63899069D01*
X141300751Y-64081551D01*
X141302533Y-64083911D01*
X141886446Y-63500000D01*
X141846950Y-63460504D01*
X141940000Y-63460504D01*
X141940000Y-63539496D01*
X141960444Y-63615796D01*
X141999940Y-63684205D01*
X142055795Y-63740060D01*
X142124204Y-63779556D01*
X142200504Y-63800000D01*
X142279496Y-63800000D01*
X142355796Y-63779556D01*
X142424205Y-63740060D01*
X142480060Y-63684205D01*
X142519556Y-63615796D01*
X142540000Y-63539496D01*
X142540000Y-63500000D01*
X142593553Y-63500000D01*
X143177465Y-64083912D01*
X143179247Y-64081553D01*
X143179248Y-64081551D01*
X143270113Y-63899069D01*
X143270116Y-63899063D01*
X143325902Y-63702992D01*
X143325903Y-63702989D01*
X143344713Y-63500000D01*
X143344713Y-63499999D01*
X143325903Y-63297010D01*
X143325902Y-63297007D01*
X143270116Y-63100936D01*
X143270113Y-63100930D01*
X143179249Y-62918449D01*
X143179247Y-62918447D01*
X143177465Y-62916087D01*
X142593553Y-63500000D01*
X142540000Y-63500000D01*
X142540000Y-63460504D01*
X142519556Y-63384204D01*
X142480060Y-63315795D01*
X142424205Y-63259940D01*
X142355796Y-63220444D01*
X142279496Y-63200000D01*
X142200504Y-63200000D01*
X142124204Y-63220444D01*
X142055795Y-63259940D01*
X141999940Y-63315795D01*
X141960444Y-63384204D01*
X141940000Y-63460504D01*
X141846950Y-63460504D01*
X141302533Y-62916087D01*
X141300755Y-62918442D01*
X141300754Y-62918443D01*
X141209886Y-63100930D01*
X141209883Y-63100936D01*
X141154097Y-63297007D01*
X141154096Y-63297010D01*
X141135287Y-63499999D01*
X112260500Y-63499999D01*
X112260500Y-61919997D01*
X128235034Y-61919997D01*
X128235034Y-61920002D01*
X128254858Y-62146599D01*
X128254860Y-62146610D01*
X128313730Y-62366317D01*
X128313735Y-62366331D01*
X128409863Y-62572478D01*
X128460974Y-62645472D01*
X129140000Y-61966446D01*
X129140000Y-61972661D01*
X129167259Y-62074394D01*
X129219920Y-62165606D01*
X129294394Y-62240080D01*
X129385606Y-62292741D01*
X129487339Y-62320000D01*
X129493553Y-62320000D01*
X128814526Y-62999025D01*
X128887513Y-63050132D01*
X128887521Y-63050136D01*
X129093668Y-63146264D01*
X129093682Y-63146269D01*
X129313389Y-63205139D01*
X129313400Y-63205141D01*
X129539998Y-63224966D01*
X129540002Y-63224966D01*
X129766599Y-63205141D01*
X129766610Y-63205139D01*
X129986317Y-63146269D01*
X129986331Y-63146264D01*
X130192478Y-63050136D01*
X130265471Y-62999024D01*
X129586447Y-62320000D01*
X129592661Y-62320000D01*
X129694394Y-62292741D01*
X129785606Y-62240080D01*
X129860080Y-62165606D01*
X129912741Y-62074394D01*
X129940000Y-61972661D01*
X129940000Y-61966447D01*
X130619024Y-62645471D01*
X130670136Y-62572478D01*
X130673270Y-62565758D01*
X141659311Y-62565758D01*
X142240000Y-63146446D01*
X142240001Y-63146446D01*
X142820687Y-62565758D01*
X142732413Y-62511101D01*
X142732411Y-62511100D01*
X142542321Y-62437460D01*
X142341928Y-62400000D01*
X142138072Y-62400000D01*
X141937678Y-62437460D01*
X141747588Y-62511100D01*
X141747581Y-62511104D01*
X141659312Y-62565757D01*
X141659311Y-62565758D01*
X130673270Y-62565758D01*
X130766264Y-62366331D01*
X130766269Y-62366317D01*
X130825139Y-62146610D01*
X130825141Y-62146599D01*
X130844966Y-61920002D01*
X130844966Y-61919997D01*
X130825141Y-61693400D01*
X130825139Y-61693389D01*
X130766269Y-61473682D01*
X130766264Y-61473668D01*
X130670136Y-61267521D01*
X130670132Y-61267513D01*
X130619025Y-61194526D01*
X129940000Y-61873551D01*
X129940000Y-61867339D01*
X129912741Y-61765606D01*
X129860080Y-61674394D01*
X129785606Y-61599920D01*
X129694394Y-61547259D01*
X129592661Y-61520000D01*
X129586448Y-61520000D01*
X130265472Y-60840974D01*
X130192478Y-60789863D01*
X129986331Y-60693735D01*
X129986317Y-60693730D01*
X129766610Y-60634860D01*
X129766599Y-60634858D01*
X129540002Y-60615034D01*
X129539998Y-60615034D01*
X129313400Y-60634858D01*
X129313389Y-60634860D01*
X129093682Y-60693730D01*
X129093673Y-60693734D01*
X128887516Y-60789866D01*
X128887512Y-60789868D01*
X128814526Y-60840973D01*
X128814526Y-60840974D01*
X129493553Y-61520000D01*
X129487339Y-61520000D01*
X129385606Y-61547259D01*
X129294394Y-61599920D01*
X129219920Y-61674394D01*
X129167259Y-61765606D01*
X129140000Y-61867339D01*
X129140000Y-61873552D01*
X128460974Y-61194526D01*
X128460973Y-61194526D01*
X128409868Y-61267512D01*
X128409866Y-61267516D01*
X128313734Y-61473673D01*
X128313730Y-61473682D01*
X128254860Y-61693389D01*
X128254858Y-61693400D01*
X128235034Y-61919997D01*
X112260500Y-61919997D01*
X112260500Y-57572135D01*
X128239500Y-57572135D01*
X128239500Y-59267870D01*
X128239501Y-59267876D01*
X128245908Y-59327483D01*
X128296202Y-59462328D01*
X128296206Y-59462335D01*
X128382452Y-59577544D01*
X128382455Y-59577547D01*
X128497664Y-59663793D01*
X128497671Y-59663797D01*
X128632517Y-59714091D01*
X128632516Y-59714091D01*
X128639444Y-59714835D01*
X128692127Y-59720500D01*
X130387872Y-59720499D01*
X130447483Y-59714091D01*
X130582331Y-59663796D01*
X130697546Y-59577546D01*
X130783796Y-59462331D01*
X130834091Y-59327483D01*
X130840500Y-59267873D01*
X130840499Y-57572128D01*
X130834091Y-57512517D01*
X130819140Y-57472432D01*
X130783797Y-57377671D01*
X130783793Y-57377664D01*
X130697546Y-57262454D01*
X130697544Y-57262452D01*
X130582335Y-57176206D01*
X130582328Y-57176202D01*
X130447482Y-57125908D01*
X130447483Y-57125908D01*
X130387883Y-57119501D01*
X130387881Y-57119500D01*
X130387873Y-57119500D01*
X130387864Y-57119500D01*
X128692129Y-57119500D01*
X128692123Y-57119501D01*
X128632516Y-57125908D01*
X128497671Y-57176202D01*
X128497664Y-57176206D01*
X128382455Y-57262452D01*
X128382454Y-57262454D01*
X128296206Y-57377664D01*
X128296202Y-57377671D01*
X128245908Y-57512517D01*
X128239501Y-57572116D01*
X128239501Y-57572123D01*
X128239500Y-57572135D01*
X112260500Y-57572135D01*
X112260500Y-55879998D01*
X163794532Y-55879998D01*
X163794532Y-55880001D01*
X163814364Y-56106686D01*
X163814366Y-56106697D01*
X163873258Y-56326488D01*
X163873261Y-56326497D01*
X163969431Y-56532732D01*
X163969432Y-56532734D01*
X164099954Y-56719141D01*
X164260858Y-56880045D01*
X164260861Y-56880047D01*
X164447266Y-57010568D01*
X164653504Y-57106739D01*
X164873308Y-57165635D01*
X165035230Y-57179801D01*
X165099998Y-57185468D01*
X165100000Y-57185468D01*
X165100002Y-57185468D01*
X165156673Y-57180509D01*
X165326692Y-57165635D01*
X165546496Y-57106739D01*
X165752734Y-57010568D01*
X165939139Y-56880047D01*
X166100047Y-56719139D01*
X166230568Y-56532734D01*
X166326739Y-56326496D01*
X166385635Y-56106692D01*
X166405468Y-55880000D01*
X166385635Y-55653308D01*
X166326739Y-55433504D01*
X166230568Y-55227266D01*
X166100047Y-55040861D01*
X166100045Y-55040858D01*
X165939141Y-54879954D01*
X165752734Y-54749432D01*
X165752732Y-54749431D01*
X165546497Y-54653261D01*
X165546488Y-54653258D01*
X165326697Y-54594366D01*
X165326693Y-54594365D01*
X165326692Y-54594365D01*
X165326691Y-54594364D01*
X165326686Y-54594364D01*
X165100002Y-54574532D01*
X165099998Y-54574532D01*
X164873313Y-54594364D01*
X164873302Y-54594366D01*
X164653511Y-54653258D01*
X164653502Y-54653261D01*
X164447267Y-54749431D01*
X164447265Y-54749432D01*
X164260858Y-54879954D01*
X164099954Y-55040858D01*
X163969432Y-55227265D01*
X163969431Y-55227267D01*
X163873261Y-55433502D01*
X163873258Y-55433511D01*
X163814366Y-55653302D01*
X163814364Y-55653313D01*
X163794532Y-55879998D01*
X112260500Y-55879998D01*
X112260500Y-48259998D01*
X163794532Y-48259998D01*
X163794532Y-48260001D01*
X163814364Y-48486686D01*
X163814366Y-48486697D01*
X163873258Y-48706488D01*
X163873261Y-48706497D01*
X163969431Y-48912732D01*
X163969432Y-48912734D01*
X164099954Y-49099141D01*
X164260858Y-49260045D01*
X164260861Y-49260047D01*
X164447266Y-49390568D01*
X164653504Y-49486739D01*
X164873308Y-49545635D01*
X165035230Y-49559801D01*
X165099998Y-49565468D01*
X165100000Y-49565468D01*
X165100002Y-49565468D01*
X165156673Y-49560509D01*
X165326692Y-49545635D01*
X165546496Y-49486739D01*
X165752734Y-49390568D01*
X165939139Y-49260047D01*
X166100047Y-49099139D01*
X166230568Y-48912734D01*
X166326739Y-48706496D01*
X166385635Y-48486692D01*
X166405468Y-48260000D01*
X166385635Y-48033308D01*
X166326739Y-47813504D01*
X166230568Y-47607266D01*
X166100047Y-47420861D01*
X166100045Y-47420858D01*
X165939141Y-47259954D01*
X165752734Y-47129432D01*
X165752732Y-47129431D01*
X165546497Y-47033261D01*
X165546488Y-47033258D01*
X165326697Y-46974366D01*
X165326693Y-46974365D01*
X165326692Y-46974365D01*
X165326691Y-46974364D01*
X165326686Y-46974364D01*
X165100002Y-46954532D01*
X165099998Y-46954532D01*
X164873313Y-46974364D01*
X164873302Y-46974366D01*
X164653511Y-47033258D01*
X164653502Y-47033261D01*
X164447267Y-47129431D01*
X164447265Y-47129432D01*
X164260858Y-47259954D01*
X164099954Y-47420858D01*
X163969432Y-47607265D01*
X163969431Y-47607267D01*
X163873261Y-47813502D01*
X163873258Y-47813511D01*
X163814366Y-48033302D01*
X163814364Y-48033313D01*
X163794532Y-48259998D01*
X112260500Y-48259998D01*
X112260500Y-46344500D01*
X112280185Y-46277461D01*
X112332989Y-46231706D01*
X112384500Y-46220500D01*
X189875500Y-46220500D01*
X189942539Y-46240185D01*
G37*
%TD.AperFunction*%
%TA.AperFunction,Conductor*%
G36*
X152423039Y-80730184D02*
G01*
X152468794Y-80782988D01*
X152480000Y-80834499D01*
X152480000Y-81090500D01*
X152460315Y-81157539D01*
X152407511Y-81203294D01*
X152356000Y-81214500D01*
X152204000Y-81214500D01*
X152136961Y-81194815D01*
X152091206Y-81142011D01*
X152080000Y-81090500D01*
X152080000Y-80834499D01*
X152099685Y-80767460D01*
X152152489Y-80721705D01*
X152204000Y-80710499D01*
X152356000Y-80710499D01*
X152423039Y-80730184D01*
G37*
%TD.AperFunction*%
%TA.AperFunction,Conductor*%
G36*
X179733722Y-72108385D02*
G01*
X179779477Y-72161189D01*
X179790153Y-72224140D01*
X179788322Y-72243911D01*
X179774785Y-72389999D01*
X179774785Y-72390000D01*
X179793602Y-72593082D01*
X179849417Y-72789247D01*
X179849422Y-72789260D01*
X179940327Y-72971821D01*
X180063237Y-73134581D01*
X180213956Y-73271979D01*
X180213958Y-73271980D01*
X180213959Y-73271981D01*
X180220772Y-73276199D01*
X180267410Y-73328223D01*
X180279500Y-73381629D01*
X180279500Y-74089902D01*
X180259815Y-74156941D01*
X180243181Y-74177583D01*
X173806755Y-80614008D01*
X173745432Y-80647493D01*
X173675740Y-80642509D01*
X173619807Y-80600637D01*
X173595390Y-80535173D01*
X173609715Y-80467874D01*
X173648814Y-80394727D01*
X173706024Y-80206132D01*
X173725341Y-80010000D01*
X173706024Y-79813868D01*
X173648814Y-79625273D01*
X173648811Y-79625269D01*
X173648811Y-79625266D01*
X173555913Y-79451467D01*
X173555909Y-79451460D01*
X173430887Y-79299122D01*
X173430883Y-79299117D01*
X173365832Y-79245730D01*
X173326500Y-79187987D01*
X173320500Y-79149880D01*
X173320500Y-73381629D01*
X173337351Y-73324240D01*
X174139311Y-73324240D01*
X174227585Y-73378897D01*
X174417678Y-73452539D01*
X174618072Y-73490000D01*
X174821928Y-73490000D01*
X175022322Y-73452539D01*
X175212412Y-73378899D01*
X175212416Y-73378897D01*
X175300686Y-73324241D01*
X175300686Y-73324240D01*
X174720001Y-72743553D01*
X174720000Y-72743553D01*
X174139311Y-73324240D01*
X173337351Y-73324240D01*
X173340185Y-73314590D01*
X173379226Y-73276200D01*
X173386041Y-73271981D01*
X173536764Y-73134579D01*
X173623794Y-73019333D01*
X173679903Y-72977696D01*
X173731338Y-72970357D01*
X173782533Y-72973911D01*
X174425145Y-72331300D01*
X174420000Y-72350504D01*
X174420000Y-72429496D01*
X174440444Y-72505796D01*
X174479940Y-72574205D01*
X174535795Y-72630060D01*
X174604204Y-72669556D01*
X174680504Y-72690000D01*
X174759496Y-72690000D01*
X174835796Y-72669556D01*
X174904205Y-72630060D01*
X174960060Y-72574205D01*
X174999556Y-72505796D01*
X175020000Y-72429496D01*
X175020000Y-72350504D01*
X175014854Y-72331301D01*
X175657465Y-72973912D01*
X175659247Y-72971553D01*
X175659248Y-72971551D01*
X175750113Y-72789069D01*
X175750116Y-72789063D01*
X175805902Y-72592992D01*
X175805903Y-72592989D01*
X175824713Y-72390000D01*
X175824713Y-72389999D01*
X175809344Y-72224141D01*
X175822759Y-72155572D01*
X175871116Y-72105140D01*
X175932815Y-72088700D01*
X179666683Y-72088700D01*
X179733722Y-72108385D01*
G37*
%TD.AperFunction*%
%TA.AperFunction,Conductor*%
G36*
X174725318Y-72090000D02*
G01*
X174707018Y-72090000D01*
X174719109Y-72088700D01*
X174720891Y-72088700D01*
X174725318Y-72090000D01*
G37*
%TD.AperFunction*%
%TD*%
M02*
